<svg xmlns="http://www.w3.org/2000/svg" xmlns:xlink="http://www.w3.org/1999/xlink" width="689.467" height="605" viewBox="0 0 689.467 605">
  <defs>
    <filter id="Rect치ngulo_37980-2" x="172.113" y="54.518" width="333.275" height="485.629" filterUnits="userSpaceOnUse">
      <feOffset dy="3" input="SourceAlpha"/>
      <feGaussianBlur stdDeviation="3" result="blur"/>
      <feFlood flood-opacity="0.161"/>
      <feComposite operator="in" in2="blur"/>
      <feComposite in="SourceGraphic"/>
    </filter>
  </defs>
  <g id="Grupo_159359" data-name="Grupo 159359" transform="translate(-455 -4691)">
    <g transform="matrix(1, 0, 0, 1, 455, 4691)" filter="url(#Rect치ngulo_37980-2)">
      <path id="Rect치ngulo_37980-2-2" data-name="Rect치ngulo_37980-2" d="M0,0H315.275V467.63H0Z" transform="translate(181.11 60.52)" fill="#fff"/>
    </g>
    <path id="Trazado_157822" data-name="Trazado 157822" d="M0,0H148V98H0Z" transform="translate(794.466 4771.087)" fill="#b0c8cb"/>
    <g id="Trazado_157829" data-name="Trazado 157829" transform="translate(652.466 4777.087)" fill="#fff">
      <path d="M 63.5 37.5 L 0.5 37.5 L 0.5 0.5 L 63.5 0.5 L 63.5 37.5 Z" stroke="none"/>
      <path d="M 1 1 L 1 37 L 63 37 L 63 1 L 1 1 M 0 0 L 64 0 L 64 38 L 0 38 L 0 0 Z" stroke="none" fill="#707070"/>
    </g>
    <g id="Trazado_157830" data-name="Trazado 157830" transform="translate(798.466 4777.087)" fill="none">
      <path d="M0,0H64V38H0Z" stroke="none"/>
      <path d="M 1 1 L 1 37 L 63 37 L 63 1 L 1 1 M 0 0 L 64 0 L 64 38 L 0 38 L 0 0 Z" stroke="none" fill="#707070"/>
    </g>
    <g id="Trazado_157831" data-name="Trazado 157831" transform="translate(725.466 4777.087)" fill="#fff">
      <path d="M 63.5 37.5 L 0.5 37.5 L 0.5 0.5 L 63.5 0.5 L 63.5 37.5 Z" stroke="none"/>
      <path d="M 1 1 L 1 37 L 63 37 L 63 1 L 1 1 M 0 0 L 64 0 L 64 38 L 0 38 L 0 0 Z" stroke="none" fill="#707070"/>
    </g>
    <g id="Trazado_157832" data-name="Trazado 157832" transform="translate(870.466 4777.087)" fill="none">
      <path d="M0,0H64V38H0Z" stroke="none"/>
      <path d="M 1 1 L 1 37 L 63 37 L 63 1 L 1 1 M 0 0 L 64 0 L 64 38 L 0 38 L 0 0 Z" stroke="none" fill="#707070"/>
    </g>
    <g id="Trazado_157818" data-name="Trazado 157818" transform="translate(652.466 4872.087)" fill="#fff">
      <path d="M 63.5 37.5 L 0.5 37.5 L 0.5 0.5 L 63.5 0.5 L 63.5 37.5 Z" stroke="none"/>
      <path d="M 1 1 L 1 37 L 63 37 L 63 1 L 1 1 M 0 0 L 64 0 L 64 38 L 0 38 L 0 0 Z" stroke="none" fill="#707070"/>
    </g>
    <g id="Trazado_157819" data-name="Trazado 157819" transform="translate(798.466 4872.087)" fill="#fff">
      <path d="M 63.5 37.5 L 0.5 37.5 L 0.5 0.5 L 63.5 0.5 L 63.5 37.5 Z" stroke="none"/>
      <path d="M 1 1 L 1 37 L 63 37 L 63 1 L 1 1 M 0 0 L 64 0 L 64 38 L 0 38 L 0 0 Z" stroke="none" fill="#707070"/>
    </g>
    <g id="Trazado_157820" data-name="Trazado 157820" transform="translate(725.466 4872.087)" fill="#fff">
      <path d="M 63.5 37.5 L 0.5 37.5 L 0.5 0.5 L 63.5 0.5 L 63.5 37.5 Z" stroke="none"/>
      <path d="M 1 1 L 1 37 L 63 37 L 63 1 L 1 1 M 0 0 L 64 0 L 64 38 L 0 38 L 0 0 Z" stroke="none" fill="#707070"/>
    </g>
    <g id="Trazado_157821" data-name="Trazado 157821" transform="translate(870.466 4872.087)" fill="none">
      <path d="M0,0H64V38H0Z" stroke="none"/>
      <path d="M 1 1 L 1 37 L 63 37 L 63 1 L 1 1 M 0 0 L 64 0 L 64 38 L 0 38 L 0 0 Z" stroke="none" fill="#707070"/>
    </g>
    <g id="Trazado_157859" data-name="Trazado 157859" transform="translate(652.466 4968.086)" fill="#fff">
      <path d="M 63.5 36.5 L 0.5 36.5 L 0.5 0.5 L 63.5 0.5 L 63.5 36.5 Z" stroke="none"/>
      <path d="M 1 1 L 1 36 L 63 36 L 63 1 L 1 1 M 0 0 L 64 0 L 64 37 L 0 37 L 0 0 Z" stroke="none" fill="#707070"/>
    </g>
    <g id="Trazado_157860" data-name="Trazado 157860" transform="translate(798.466 4968.086)" fill="#fff">
      <path d="M 63.5 36.5 L 0.5 36.5 L 0.5 0.5 L 63.5 0.5 L 63.5 36.5 Z" stroke="none"/>
      <path d="M 1 1 L 1 36 L 63 36 L 63 1 L 1 1 M 0 0 L 64 0 L 64 37 L 0 37 L 0 0 Z" stroke="none" fill="#707070"/>
    </g>
    <g id="Trazado_157861" data-name="Trazado 157861" transform="translate(725.466 4968.086)" fill="#fff">
      <path d="M 63.5 36.5 L 0.5 36.5 L 0.5 0.5 L 63.5 0.5 L 63.5 36.5 Z" stroke="none"/>
      <path d="M 1 1 L 1 36 L 63 36 L 63 1 L 1 1 M 0 0 L 64 0 L 64 37 L 0 37 L 0 0 Z" stroke="none" fill="#707070"/>
    </g>
    <g id="Trazado_157862" data-name="Trazado 157862" transform="translate(870.466 4968.086)" fill="#fff">
      <path d="M 63.5 36.5 L 0.5 36.5 L 0.5 0.5 L 63.5 0.5 L 63.5 36.5 Z" stroke="none"/>
      <path d="M 1 1 L 1 36 L 63 36 L 63 1 L 1 1 M 0 0 L 64 0 L 64 37 L 0 37 L 0 0 Z" stroke="none" fill="#707070"/>
    </g>
    <g id="Trazado_157847" data-name="Trazado 157847" transform="translate(652.466 5063.086)" fill="#fff">
      <path d="M 63.5 37.5 L 0.5 37.5 L 0.5 0.5 L 63.5 0.5 L 63.5 37.5 Z" stroke="none"/>
      <path d="M 1 1 L 1 37 L 63 37 L 63 1 L 1 1 M 0 0 L 64 0 L 64 38 L 0 38 L 0 0 Z" stroke="none" fill="#707070"/>
    </g>
    <g id="Trazado_157848" data-name="Trazado 157848" transform="translate(798.466 5063.086)" fill="#fff">
      <path d="M 63.5 37.5 L 0.5 37.5 L 0.5 0.5 L 63.5 0.5 L 63.5 37.5 Z" stroke="none"/>
      <path d="M 1 1 L 1 37 L 63 37 L 63 1 L 1 1 M 0 0 L 64 0 L 64 38 L 0 38 L 0 0 Z" stroke="none" fill="#707070"/>
    </g>
    <g id="Trazado_157849" data-name="Trazado 157849" transform="translate(725.466 5063.086)" fill="#fff">
      <path d="M 63.5 37.5 L 0.5 37.5 L 0.5 0.5 L 63.5 0.5 L 63.5 37.5 Z" stroke="none"/>
      <path d="M 1 1 L 1 37 L 63 37 L 63 1 L 1 1 M 0 0 L 64 0 L 64 38 L 0 38 L 0 0 Z" stroke="none" fill="#707070"/>
    </g>
    <g id="Trazado_157850" data-name="Trazado 157850" transform="translate(870.466 5063.086)" fill="#fff">
      <path d="M 63.5 37.5 L 0.5 37.5 L 0.5 0.5 L 63.5 0.5 L 63.5 37.5 Z" stroke="none"/>
      <path d="M 1 1 L 1 37 L 63 37 L 63 1 L 1 1 M 0 0 L 64 0 L 64 38 L 0 38 L 0 0 Z" stroke="none" fill="#707070"/>
    </g>
    <g id="Trazado_157838" data-name="Trazado 157838" transform="translate(652.466 5158.086)" fill="#fff">
      <path d="M 63.5 37.5 L 0.5 37.5 L 0.5 0.5 L 63.5 0.5 L 63.5 37.5 Z" stroke="none"/>
      <path d="M 1 1 L 1 37 L 63 37 L 63 1 L 1 1 M 0 0 L 64 0 L 64 38 L 0 38 L 0 0 Z" stroke="none" fill="#707070"/>
    </g>
    <g id="Trazado_157835" data-name="Trazado 157835" transform="translate(798.466 5158.086)" fill="#fff">
      <path d="M 63.5 37.5 L 0.5 37.5 L 0.5 0.5 L 63.5 0.5 L 63.5 37.5 Z" stroke="none"/>
      <path d="M 1 1 L 1 37 L 63 37 L 63 1 L 1 1 M 0 0 L 64 0 L 64 38 L 0 38 L 0 0 Z" stroke="none" fill="#707070"/>
    </g>
    <g id="Trazado_157836" data-name="Trazado 157836" transform="translate(725.466 5158.086)" fill="#fff">
      <path d="M 63.5 37.5 L 0.5 37.5 L 0.5 0.5 L 63.5 0.5 L 63.5 37.5 Z" stroke="none"/>
      <path d="M 1 1 L 1 37 L 63 37 L 63 1 L 1 1 M 0 0 L 64 0 L 64 38 L 0 38 L 0 0 Z" stroke="none" fill="#707070"/>
    </g>
    <g id="Trazado_157837" data-name="Trazado 157837" transform="translate(870.466 5158.086)" fill="#fff">
      <path d="M 63.5 37.5 L 0.5 37.5 L 0.5 0.5 L 63.5 0.5 L 63.5 37.5 Z" stroke="none"/>
      <path d="M 1 1 L 1 37 L 63 37 L 63 1 L 1 1 M 0 0 L 64 0 L 64 38 L 0 38 L 0 0 Z" stroke="none" fill="#707070"/>
    </g>
    <g id="Trazado_157823" data-name="Trazado 157823" transform="translate(652.466 4825.087)" fill="#fff">
      <path d="M 63.5 36.5 L 0.5 36.5 L 0.5 0.5 L 63.5 0.5 L 63.5 36.5 Z" stroke="none"/>
      <path d="M 1 1 L 1 36 L 63 36 L 63 1 L 1 1 M 0 0 L 64 0 L 64 37 L 0 37 L 0 0 Z" stroke="none" fill="#707070"/>
    </g>
    <g id="Trazado_157824" data-name="Trazado 157824" transform="translate(798.466 4825.087)" fill="none">
      <path d="M0,0H64V37H0Z" stroke="none"/>
      <path d="M 1 1 L 1 36 L 63 36 L 63 1 L 1 1 M 0 0 L 64 0 L 64 37 L 0 37 L 0 0 Z" stroke="none" fill="#707070"/>
    </g>
    <g id="Trazado_157825" data-name="Trazado 157825" transform="translate(725.466 4825.087)" fill="#fff">
      <path d="M 63.5 36.5 L 0.5 36.5 L 0.5 0.5 L 63.5 0.5 L 63.5 36.5 Z" stroke="none"/>
      <path d="M 1 1 L 1 36 L 63 36 L 63 1 L 1 1 M 0 0 L 64 0 L 64 37 L 0 37 L 0 0 Z" stroke="none" fill="#707070"/>
    </g>
    <g id="Trazado_157826" data-name="Trazado 157826" transform="translate(870.466 4825.087)" fill="none">
      <path d="M0,0H64V37H0Z" stroke="none"/>
      <path d="M 1 1 L 1 36 L 63 36 L 63 1 L 1 1 M 0 0 L 64 0 L 64 37 L 0 37 L 0 0 Z" stroke="none" fill="#707070"/>
    </g>
    <g id="Trazado_157812" data-name="Trazado 157812" transform="translate(652.466 4920.086)" fill="#fff">
      <path d="M 63.5 37.5 L 0.5 37.5 L 0.5 0.5 L 63.5 0.5 L 63.5 37.5 Z" stroke="none"/>
      <path d="M 1 1 L 1 37 L 63 37 L 63 1 L 1 1 M 0 0 L 64 0 L 64 38 L 0 38 L 0 0 Z" stroke="none" fill="#707070"/>
    </g>
    <g id="Trazado_157813" data-name="Trazado 157813" transform="translate(798.466 4920.086)" fill="#fff">
      <path d="M 63.5 37.5 L 0.5 37.5 L 0.5 0.5 L 63.5 0.5 L 63.5 37.5 Z" stroke="none"/>
      <path d="M 1 1 L 1 37 L 63 37 L 63 1 L 1 1 M 0 0 L 64 0 L 64 38 L 0 38 L 0 0 Z" stroke="none" fill="#707070"/>
    </g>
    <g id="Trazado_157814" data-name="Trazado 157814" transform="translate(725.466 4920.086)" fill="#fff">
      <path d="M 63.5 37.5 L 0.5 37.5 L 0.5 0.5 L 63.5 0.5 L 63.5 37.5 Z" stroke="none"/>
      <path d="M 1 1 L 1 37 L 63 37 L 63 1 L 1 1 M 0 0 L 64 0 L 64 38 L 0 38 L 0 0 Z" stroke="none" fill="#707070"/>
    </g>
    <g id="Trazado_157815" data-name="Trazado 157815" transform="translate(870.466 4920.086)" fill="#fff">
      <path d="M 61 35 L 3 35 L 3 3 L 61 3 L 61 35 Z" stroke="none"/>
      <path d="M 6 6 L 6 32 L 58 32 L 58 6 L 6 6 M 0 0 L 64 0 L 64 38 L 0 38 L 0 0 Z" stroke="none" fill="#29c4bb"/>
    </g>
    <g id="Trazado_157853" data-name="Trazado 157853" transform="translate(652.466 5015.086)" fill="#fff">
      <path d="M 63.5 37.5 L 0.5 37.5 L 0.5 0.5 L 63.5 0.5 L 63.5 37.5 Z" stroke="none"/>
      <path d="M 1 1 L 1 37 L 63 37 L 63 1 L 1 1 M 0 0 L 64 0 L 64 38 L 0 38 L 0 0 Z" stroke="none" fill="#707070"/>
    </g>
    <g id="Trazado_157854" data-name="Trazado 157854" transform="translate(798.466 5015.086)" fill="#fff">
      <path d="M 63.5 37.5 L 0.5 37.5 L 0.5 0.5 L 63.5 0.5 L 63.5 37.5 Z" stroke="none"/>
      <path d="M 1 1 L 1 37 L 63 37 L 63 1 L 1 1 M 0 0 L 64 0 L 64 38 L 0 38 L 0 0 Z" stroke="none" fill="#707070"/>
    </g>
    <g id="Trazado_157855" data-name="Trazado 157855" transform="translate(725.466 5015.086)" fill="#fff">
      <path d="M 63.5 37.5 L 0.5 37.5 L 0.5 0.5 L 63.5 0.5 L 63.5 37.5 Z" stroke="none"/>
      <path d="M 1 1 L 1 37 L 63 37 L 63 1 L 1 1 M 0 0 L 64 0 L 64 38 L 0 38 L 0 0 Z" stroke="none" fill="#707070"/>
    </g>
    <g id="Trazado_157856" data-name="Trazado 157856" transform="translate(870.466 5015.086)" fill="#fff">
      <path d="M 63.5 37.5 L 0.5 37.5 L 0.5 0.5 L 63.5 0.5 L 63.5 37.5 Z" stroke="none"/>
      <path d="M 1 1 L 1 37 L 63 37 L 63 1 L 1 1 M 0 0 L 64 0 L 64 38 L 0 38 L 0 0 Z" stroke="none" fill="#707070"/>
    </g>
    <g id="Trazado_157839" data-name="Trazado 157839" transform="translate(652.466 5111.086)" fill="#fff">
      <path d="M 63.5 36.5 L 0.5 36.5 L 0.5 0.5 L 63.5 0.5 L 63.5 36.5 Z" stroke="none"/>
      <path d="M 1 1 L 1 36 L 63 36 L 63 1 L 1 1 M 0 0 L 64 0 L 64 37 L 0 37 L 0 0 Z" stroke="none" fill="#707070"/>
    </g>
    <g id="Trazado_157840" data-name="Trazado 157840" transform="translate(798.466 5111.086)" fill="#fff">
      <path d="M 63.5 36.5 L 0.5 36.5 L 0.5 0.5 L 63.5 0.5 L 63.5 36.5 Z" stroke="none"/>
      <path d="M 1 1 L 1 36 L 63 36 L 63 1 L 1 1 M 0 0 L 64 0 L 64 37 L 0 37 L 0 0 Z" stroke="none" fill="#707070"/>
    </g>
    <g id="Trazado_157841" data-name="Trazado 157841" transform="translate(725.466 5111.086)" fill="#fff">
      <path d="M 63.5 36.5 L 0.5 36.5 L 0.5 0.5 L 63.5 0.5 L 63.5 36.5 Z" stroke="none"/>
      <path d="M 1 1 L 1 36 L 63 36 L 63 1 L 1 1 M 0 0 L 64 0 L 64 37 L 0 37 L 0 0 Z" stroke="none" fill="#707070"/>
    </g>
    <g id="Trazado_157842" data-name="Trazado 157842" transform="translate(870.466 5111.086)" fill="#fff">
      <path d="M 63.5 36.5 L 0.5 36.5 L 0.5 0.5 L 63.5 0.5 L 63.5 36.5 Z" stroke="none"/>
      <path d="M 1 1 L 1 36 L 63 36 L 63 1 L 1 1 M 0 0 L 64 0 L 64 37 L 0 37 L 0 0 Z" stroke="none" fill="#707070"/>
    </g>
    <g id="Trazado_157810" data-name="Trazado 157810" transform="translate(721.466 4773.087)" fill="none">
      <path d="M0,0H72V428H0Z" stroke="none"/>
      <path d="M 3 3 L 3 425 L 69 425 L 69 3 L 3 3 M 0 0 L 72 0 L 72 428 L 0 428 L 0 0 Z" stroke="none" fill="#1169e3"/>
    </g>
    <path id="Trazado_157811" data-name="Trazado 157811" d="M0,0H282.3" transform="translate(653.069 5059.025)" fill="none" stroke="#29c4bb" stroke-width="6"/>
    <path id="Trazado_133814" data-name="Trazado 133814" d="M5353.5-6472.048v-13.689h61.823" transform="translate(-4700.431 11691.195)" fill="none" stroke="#0c487b" stroke-width="2"/>
    <path id="Trazado_157828" data-name="Trazado 157828" d="M0,0H96.7" transform="translate(932.83 4819.587)" fill="none" stroke="#1169e3" stroke-width="2"/>
    <path id="Trazado_157817" data-name="Trazado 157817" d="M0,0H96.7" transform="translate(932.83 4939.587)" fill="none" stroke="#1169e3" stroke-width="2"/>
    <path id="Trazado_157834" data-name="Trazado 157834" d="M0,65.121V0" transform="translate(738.188 4708.432)" fill="none" stroke="#1169e3" stroke-width="2"/>
    <path id="Trazado_157865" data-name="Trazado 157865" d="M13,0H172a13,13,0,0,1,13,13v2a13,13,0,0,1-13,13H13A13,13,0,0,1,0,15V13A13,13,0,0,1,13,0Z" transform="translate(959.466 4805)" fill="#1169e3"/>
    <path id="Trazado_157866" data-name="Trazado 157866" d="M5.512,16.627h6.117V19H1.662V17.374l6.1-8.789H1.627V6.2h9.94V7.785Zm6.82-2.47a5.613,5.613,0,0,1,.554-2.536,3.96,3.96,0,0,1,1.591-1.709,4.791,4.791,0,0,1,2.435-.6,4.373,4.373,0,0,1,3.366,1.323,5.076,5.076,0,0,1,1.23,3.6v.105a4.925,4.925,0,0,1-1.235,3.529,4.384,4.384,0,0,1-3.344,1.305,4.434,4.434,0,0,1-3.261-1.217,4.761,4.761,0,0,1-1.327-3.3Zm2.962.185a3.538,3.538,0,0,0,.413,1.934,1.376,1.376,0,0,0,1.222.615q1.582,0,1.617-2.435v-.3q0-2.558-1.635-2.558-1.485,0-1.608,2.206ZM25.533,9.49l.1,1.116a3.225,3.225,0,0,1,2.716-1.292,2.713,2.713,0,0,1,2.219.888,4.226,4.226,0,0,1,.76,2.672V19H28.354V13a1.6,1.6,0,0,0-.29-1.059A1.342,1.342,0,0,0,27.01,11.6a1.413,1.413,0,0,0-1.292.686V19H22.756V9.49ZM38.321,19a3.344,3.344,0,0,1-.281-.853,2.754,2.754,0,0,1-2.285,1.028,3.374,3.374,0,0,1-2.285-.813,2.588,2.588,0,0,1-.94-2.043,2.66,2.66,0,0,1,1.143-2.338,5.821,5.821,0,0,1,3.322-.791h.914v-.5q0-1.316-1.134-1.316a.927.927,0,0,0-1.055,1.042H32.758a2.655,2.655,0,0,1,1.173-2.239,4.931,4.931,0,0,1,2.993-.86A4.323,4.323,0,0,1,39.8,10.2a3.086,3.086,0,0,1,1.081,2.435v4.21a4.311,4.311,0,0,0,.4,2V19Zm-1.854-1.934a1.652,1.652,0,0,0,.918-.237,1.487,1.487,0,0,0,.523-.536V14.772h-.861q-1.547,0-1.547,1.389a.848.848,0,0,0,.272.655A.986.986,0,0,0,36.467,17.066Zm11.03-.738a.684.684,0,0,0-.4-.606,6.016,6.016,0,0,0-1.5-.475,6.853,6.853,0,0,1-1.828-.646,3.062,3.062,0,0,1-1.1-.971,2.319,2.319,0,0,1-.378-1.31,2.628,2.628,0,0,1,1.081-2.158,4.453,4.453,0,0,1,2.83-.848,4.934,4.934,0,0,1,3.023.853,2.666,2.666,0,0,1,1.143,2.241H47.4q0-1.143-1.2-1.143a1.194,1.194,0,0,0-.782.259.8.8,0,0,0-.316.646.737.737,0,0,0,.387.642,3.654,3.654,0,0,0,1.235.4,10.671,10.671,0,0,1,1.49.378,2.706,2.706,0,0,1,2.145,2.646A2.491,2.491,0,0,1,49.2,18.358a5.068,5.068,0,0,1-2.993.817,5.172,5.172,0,0,1-2.18-.439,3.645,3.645,0,0,1-1.494-1.2A2.707,2.707,0,0,1,42,15.95h2.769a1.145,1.145,0,0,0,.439.962,1.808,1.808,0,0,0,1.081.3,1.422,1.422,0,0,0,.91-.246A.787.787,0,0,0,47.5,16.328Zm13.324,2.848a4.889,4.889,0,0,1-3.542-1.305,4.507,4.507,0,0,1-1.354-3.4v-.246a5.84,5.84,0,0,1,.541-2.575,3.955,3.955,0,0,1,1.578-1.727A4.763,4.763,0,0,1,60.5,9.314a4.117,4.117,0,0,1,3.164,1.244,4.887,4.887,0,0,1,1.16,3.467v1.151H58.94a2.135,2.135,0,0,0,.694,1.257,2.066,2.066,0,0,0,1.389.457,2.662,2.662,0,0,0,2.2-.984l1.354,1.6a3.784,3.784,0,0,1-1.569,1.217A5.3,5.3,0,0,1,60.821,19.176ZM60.487,11.6q-1.3,0-1.547,1.723h2.988v-.229a1.467,1.467,0,0,0-.36-1.1A1.434,1.434,0,0,0,60.487,11.6ZM71,16.328a.684.684,0,0,0-.4-.606,6.016,6.016,0,0,0-1.5-.475,6.853,6.853,0,0,1-1.828-.646,3.062,3.062,0,0,1-1.1-.971,2.319,2.319,0,0,1-.378-1.31,2.628,2.628,0,0,1,1.081-2.158,4.453,4.453,0,0,1,2.83-.848,4.934,4.934,0,0,1,3.023.853,2.666,2.666,0,0,1,1.143,2.241H70.9q0-1.143-1.2-1.143a1.194,1.194,0,0,0-.782.259.8.8,0,0,0-.316.646.737.737,0,0,0,.387.642,3.654,3.654,0,0,0,1.235.4,10.671,10.671,0,0,1,1.49.378,2.706,2.706,0,0,1,2.145,2.646A2.491,2.491,0,0,1,72.7,18.358a5.068,5.068,0,0,1-2.993.817,5.172,5.172,0,0,1-2.18-.439,3.645,3.645,0,0,1-1.494-1.2A2.707,2.707,0,0,1,65.5,15.95h2.769a1.145,1.145,0,0,0,.439.962,1.808,1.808,0,0,0,1.081.3,1.422,1.422,0,0,0,.91-.246A.787.787,0,0,0,71,16.328Zm13.069-2.013a5.735,5.735,0,0,1-1,3.538,3.2,3.2,0,0,1-2.694,1.323,2.742,2.742,0,0,1-2.153-.958v4.438H75.262V9.49H78.03l.088.879a2.742,2.742,0,0,1,2.241-1.055,3.224,3.224,0,0,1,2.733,1.3,5.805,5.805,0,0,1,.976,3.564Zm-2.962-.185q0-2.531-1.477-2.531a1.394,1.394,0,0,0-1.406.756V16.1a1.439,1.439,0,0,0,1.424.791q1.415,0,1.459-2.443ZM90.73,19a3.344,3.344,0,0,1-.281-.853,2.754,2.754,0,0,1-2.285,1.028,3.374,3.374,0,0,1-2.285-.813,2.588,2.588,0,0,1-.94-2.043,2.66,2.66,0,0,1,1.143-2.338A5.821,5.821,0,0,1,89.4,13.19h.914v-.5q0-1.316-1.134-1.316a.927.927,0,0,0-1.055,1.042H85.167a2.655,2.655,0,0,1,1.173-2.239,4.931,4.931,0,0,1,2.993-.86,4.323,4.323,0,0,1,2.874.888,3.086,3.086,0,0,1,1.081,2.435v4.21a4.311,4.311,0,0,0,.4,2V19Zm-1.854-1.934a1.652,1.652,0,0,0,.918-.237,1.487,1.487,0,0,0,.523-.536V14.772h-.861q-1.547,0-1.547,1.389a.848.848,0,0,0,.272.655A.986.986,0,0,0,88.876,17.066Zm10.072-.176a1.317,1.317,0,0,0,.967-.338,1.241,1.241,0,0,0,.334-.945h2.777a3.288,3.288,0,0,1-1.121,2.566,4.168,4.168,0,0,1-2.887,1,4.22,4.22,0,0,1-3.27-1.3,5.125,5.125,0,0,1-1.2-3.6v-.123a5.792,5.792,0,0,1,.532-2.544,3.872,3.872,0,0,1,1.534-1.7,4.573,4.573,0,0,1,2.373-.593,4.116,4.116,0,0,1,2.944,1.028,3.647,3.647,0,0,1,1.09,2.786h-2.777A1.626,1.626,0,0,0,99.889,12a1.244,1.244,0,0,0-.967-.4q-1.151,0-1.345,1.468a10.357,10.357,0,0,0-.062,1.283,4.068,4.068,0,0,0,.343,1.986A1.187,1.187,0,0,0,98.948,16.891ZM107.4,19h-2.971V9.49H107.4ZM104.257,7.038A1.322,1.322,0,0,1,104.714,6a1.943,1.943,0,0,1,2.373,0,1.322,1.322,0,0,1,.457,1.037,1.322,1.322,0,0,1-.457,1.037,1.943,1.943,0,0,1-2.373,0A1.322,1.322,0,0,1,104.257,7.038ZM114.584,19a3.344,3.344,0,0,1-.281-.853,2.754,2.754,0,0,1-2.285,1.028,3.374,3.374,0,0,1-2.285-.813,2.588,2.588,0,0,1-.94-2.043,2.66,2.66,0,0,1,1.143-2.338,5.821,5.821,0,0,1,3.322-.791h.914v-.5q0-1.316-1.134-1.316a.927.927,0,0,0-1.055,1.042h-2.962a2.655,2.655,0,0,1,1.173-2.239,4.931,4.931,0,0,1,2.993-.86,4.323,4.323,0,0,1,2.874.888,3.086,3.086,0,0,1,1.081,2.435v4.21a4.311,4.311,0,0,0,.4,2V19Zm-1.854-1.934a1.652,1.652,0,0,0,.918-.237,1.487,1.487,0,0,0,.523-.536V14.772h-.861q-1.547,0-1.547,1.389a.848.848,0,0,0,.272.655A.986.986,0,0,0,112.729,17.066ZM121.905,19h-2.971V5.5h2.971Zm6.425.176a4.889,4.889,0,0,1-3.542-1.305,4.507,4.507,0,0,1-1.354-3.4v-.246a5.84,5.84,0,0,1,.541-2.575,3.955,3.955,0,0,1,1.578-1.727,4.763,4.763,0,0,1,2.461-.611,4.117,4.117,0,0,1,3.164,1.244,4.887,4.887,0,0,1,1.16,3.467v1.151h-5.889a2.135,2.135,0,0,0,.694,1.257,2.066,2.066,0,0,0,1.389.457,2.662,2.662,0,0,0,2.2-.984l1.354,1.6a3.784,3.784,0,0,1-1.569,1.217A5.3,5.3,0,0,1,128.33,19.176ZM128,11.6q-1.3,0-1.547,1.723h2.988v-.229a1.467,1.467,0,0,0-.36-1.1A1.434,1.434,0,0,0,128,11.6Zm10.512,4.729a.684.684,0,0,0-.4-.606,6.016,6.016,0,0,0-1.5-.475,6.853,6.853,0,0,1-1.828-.646,3.062,3.062,0,0,1-1.1-.971,2.319,2.319,0,0,1-.378-1.31,2.628,2.628,0,0,1,1.081-2.158,4.453,4.453,0,0,1,2.83-.848,4.934,4.934,0,0,1,3.023.853,2.666,2.666,0,0,1,1.143,2.241h-2.971q0-1.143-1.2-1.143a1.194,1.194,0,0,0-.782.259.8.8,0,0,0-.316.646.737.737,0,0,0,.387.642,3.654,3.654,0,0,0,1.235.4,10.671,10.671,0,0,1,1.49.378,2.706,2.706,0,0,1,2.145,2.646,2.491,2.491,0,0,1-1.156,2.118,5.068,5.068,0,0,1-2.993.817,5.172,5.172,0,0,1-2.18-.439,3.645,3.645,0,0,1-1.494-1.2,2.707,2.707,0,0,1-.536-1.591h2.769a1.145,1.145,0,0,0,.439.962,1.808,1.808,0,0,0,1.081.3,1.422,1.422,0,0,0,.91-.246A.787.787,0,0,0,138.508,16.328Z" transform="translate(969.466 4807)" fill="#fff"/>
    <path id="Trazado_157863" data-name="Trazado 157863" d="M13,0H117a13,13,0,0,1,13,13v2a13,13,0,0,1-13,13H13A13,13,0,0,1,0,15V13A13,13,0,0,1,13,0Z" transform="translate(959.466 4925)" fill="#1169e3"/>
    <path id="Trazado_157864" data-name="Trazado 157864" d="M14.8,6.2l2.856,8.9L20.5,6.2h4.061V19H21.472V16.012l.3-6.117L18.677,19H16.638l-3.1-9.114.3,6.126V19H10.749V6.2Zm11.215,7.954a5.613,5.613,0,0,1,.554-2.536A3.96,3.96,0,0,1,28.16,9.912a4.791,4.791,0,0,1,2.435-.6,4.373,4.373,0,0,1,3.366,1.323,5.076,5.076,0,0,1,1.23,3.6v.105a4.925,4.925,0,0,1-1.235,3.529,4.384,4.384,0,0,1-3.344,1.305,4.434,4.434,0,0,1-3.261-1.217,4.761,4.761,0,0,1-1.327-3.3Zm2.962.185a3.538,3.538,0,0,0,.413,1.934,1.376,1.376,0,0,0,1.222.615q1.582,0,1.617-2.435v-.3q0-2.558-1.635-2.558-1.485,0-1.608,2.206ZM31,5.5h3.129L31.685,8.26l-2.417,0Zm5.124,8.675a5.809,5.809,0,0,1,.976-3.56,3.211,3.211,0,0,1,2.725-1.3,2.731,2.731,0,0,1,2.145,1V5.5h2.971V19H42.275l-.149-1.02a2.8,2.8,0,0,1-2.32,1.2,3.205,3.205,0,0,1-2.689-1.3A5.993,5.993,0,0,1,36.123,14.175Zm2.962.185q0,2.531,1.477,2.531a1.458,1.458,0,0,0,1.406-.826V12.443a1.419,1.419,0,0,0-1.389-.844q-1.371,0-1.485,2.215Zm13.2,3.612a3.054,3.054,0,0,1-2.54,1.2,3,3,0,0,1-2.369-.91,3.826,3.826,0,0,1-.8-2.615V9.49h2.962v6.179a1.065,1.065,0,0,0,1.187,1.222,1.548,1.548,0,0,0,1.45-.729V9.49h2.979V19H52.374ZM59.9,19H56.927V5.5H59.9Zm1.45-4.843a5.613,5.613,0,0,1,.554-2.536,3.96,3.96,0,0,1,1.591-1.709,4.791,4.791,0,0,1,2.435-.6,4.373,4.373,0,0,1,3.366,1.323,5.076,5.076,0,0,1,1.23,3.6v.105a4.925,4.925,0,0,1-1.235,3.529,4.384,4.384,0,0,1-3.344,1.305,4.434,4.434,0,0,1-3.261-1.217,4.761,4.761,0,0,1-1.327-3.3Zm2.962.185a3.538,3.538,0,0,0,.413,1.934,1.376,1.376,0,0,0,1.222.615q1.582,0,1.617-2.435v-.3q0-2.558-1.635-2.558-1.485,0-1.608,2.206Zm12.5,1.986a.684.684,0,0,0-.4-.606,6.016,6.016,0,0,0-1.5-.475,6.853,6.853,0,0,1-1.828-.646,3.062,3.062,0,0,1-1.1-.971,2.319,2.319,0,0,1-.378-1.31,2.628,2.628,0,0,1,1.081-2.158,4.453,4.453,0,0,1,2.83-.848,4.934,4.934,0,0,1,3.023.853,2.666,2.666,0,0,1,1.143,2.241H76.711q0-1.143-1.2-1.143a1.194,1.194,0,0,0-.782.259.8.8,0,0,0-.316.646.737.737,0,0,0,.387.642,3.654,3.654,0,0,0,1.235.4,10.671,10.671,0,0,1,1.49.378,2.706,2.706,0,0,1,2.145,2.646,2.491,2.491,0,0,1-1.156,2.118,5.068,5.068,0,0,1-2.993.817,5.172,5.172,0,0,1-2.18-.439,3.645,3.645,0,0,1-1.494-1.2,2.707,2.707,0,0,1-.536-1.591h2.769a1.145,1.145,0,0,0,.439.962,1.808,1.808,0,0,0,1.081.3,1.422,1.422,0,0,0,.91-.246A.787.787,0,0,0,76.808,16.328Z" transform="translate(969.466 4927)" fill="#fff"/>
    <path id="Trazado_157867" data-name="Trazado 157867" d="M13,0H117a13,13,0,0,1,13,13v2a13,13,0,0,1-13,13H13A13,13,0,0,1,0,15V13A13,13,0,0,1,13,0Z" transform="translate(455 4752)" fill="#1169e3"/>
    <path id="Trazado_157868" data-name="Trazado 157868" d="M9.281,6.2l2.856,8.9,2.848-8.9h4.061V19H15.952V16.012l.3-6.117L13.157,19H11.118l-3.1-9.114.3,6.126V19H5.229V6.2ZM26.227,19a3.344,3.344,0,0,1-.281-.853,2.754,2.754,0,0,1-2.285,1.028,3.374,3.374,0,0,1-2.285-.813,2.588,2.588,0,0,1-.94-2.043,2.66,2.66,0,0,1,1.143-2.338A5.821,5.821,0,0,1,24.9,13.19h.914v-.5q0-1.316-1.134-1.316a.927.927,0,0,0-1.055,1.042H20.663a2.655,2.655,0,0,1,1.173-2.239,4.931,4.931,0,0,1,2.993-.86A4.323,4.323,0,0,1,27.7,10.2a3.086,3.086,0,0,1,1.081,2.435v4.21a4.311,4.311,0,0,0,.4,2V19Zm-1.854-1.934a1.652,1.652,0,0,0,.918-.237,1.487,1.487,0,0,0,.523-.536V14.772h-.861q-1.547,0-1.547,1.389a.848.848,0,0,0,.272.655A.986.986,0,0,0,24.372,17.066ZM25.11,5.5h3.129L25.8,8.26l-2.417,0Zm11.065,6.671L35.2,12.1a1.752,1.752,0,0,0-1.793.879V19H30.445V9.49h2.777l.1,1.222a2.294,2.294,0,0,1,2.083-1.4,2.888,2.888,0,0,1,.826.105Zm.721,2a6.421,6.421,0,0,1,.475-2.549,3.821,3.821,0,0,1,1.362-1.709,3.591,3.591,0,0,1,2.065-.6,2.855,2.855,0,0,1,2.32,1l.105-.826h2.689V18.64a4.009,4.009,0,0,1-.584,2.184,3.75,3.75,0,0,1-1.692,1.424,6.219,6.219,0,0,1-2.566.5,5.365,5.365,0,0,1-2.026-.4,3.657,3.657,0,0,1-1.5-1.028l1.239-1.74a2.716,2.716,0,0,0,2.18.976,1.764,1.764,0,0,0,1.969-2.021v-.3a2.781,2.781,0,0,1-2.153.94,3.437,3.437,0,0,1-2.812-1.332A5.517,5.517,0,0,1,36.9,14.28Zm2.971.185a3.383,3.383,0,0,0,.439,1.85,1.387,1.387,0,0,0,1.23.681,1.573,1.573,0,0,0,1.4-.642v-4a1.534,1.534,0,0,0-1.38-.65,1.4,1.4,0,0,0-1.239.708A3.858,3.858,0,0,0,39.867,14.359ZM52.2,19.176a4.889,4.889,0,0,1-3.542-1.305,4.507,4.507,0,0,1-1.354-3.4v-.246a5.84,5.84,0,0,1,.541-2.575,3.955,3.955,0,0,1,1.578-1.727,4.763,4.763,0,0,1,2.461-.611,4.117,4.117,0,0,1,3.164,1.244,4.887,4.887,0,0,1,1.16,3.467v1.151H50.317a2.135,2.135,0,0,0,.694,1.257,2.066,2.066,0,0,0,1.389.457,2.662,2.662,0,0,0,2.2-.984l1.354,1.6a3.784,3.784,0,0,1-1.569,1.217A5.3,5.3,0,0,1,52.2,19.176ZM51.864,11.6q-1.3,0-1.547,1.723h2.988v-.229a1.467,1.467,0,0,0-.36-1.1A1.434,1.434,0,0,0,51.864,11.6ZM60.117,9.49l.1,1.116A3.225,3.225,0,0,1,62.93,9.314a2.713,2.713,0,0,1,2.219.888,4.226,4.226,0,0,1,.76,2.672V19H62.938V13a1.6,1.6,0,0,0-.29-1.059,1.342,1.342,0,0,0-1.055-.338,1.413,1.413,0,0,0-1.292.686V19H57.34V9.49Zm12.032,9.686a4.889,4.889,0,0,1-3.542-1.305,4.507,4.507,0,0,1-1.354-3.4v-.246a5.84,5.84,0,0,1,.541-2.575,3.955,3.955,0,0,1,1.578-1.727,4.763,4.763,0,0,1,2.461-.611A4.117,4.117,0,0,1,75,10.558a4.887,4.887,0,0,1,1.16,3.467v1.151H70.269a2.135,2.135,0,0,0,.694,1.257,2.066,2.066,0,0,0,1.389.457,2.662,2.662,0,0,0,2.2-.984l1.354,1.6a3.784,3.784,0,0,1-1.569,1.217A5.3,5.3,0,0,1,72.149,19.176ZM71.815,11.6q-1.3,0-1.547,1.723h2.988v-.229a1.467,1.467,0,0,0-.36-1.1A1.434,1.434,0,0,0,71.815,11.6Zm10.512,4.729a.684.684,0,0,0-.4-.606,6.016,6.016,0,0,0-1.5-.475A6.853,6.853,0,0,1,78.6,14.6a3.062,3.062,0,0,1-1.1-.971,2.319,2.319,0,0,1-.378-1.31,2.628,2.628,0,0,1,1.081-2.158,4.453,4.453,0,0,1,2.83-.848,4.934,4.934,0,0,1,3.023.853A2.666,2.666,0,0,1,85.2,12.408H82.23q0-1.143-1.2-1.143a1.194,1.194,0,0,0-.782.259.8.8,0,0,0-.316.646.737.737,0,0,0,.387.642,3.654,3.654,0,0,0,1.235.4,10.671,10.671,0,0,1,1.49.378,2.706,2.706,0,0,1,2.145,2.646,2.491,2.491,0,0,1-1.156,2.118,5.068,5.068,0,0,1-2.993.817,5.172,5.172,0,0,1-2.18-.439,3.645,3.645,0,0,1-1.494-1.2,2.707,2.707,0,0,1-.536-1.591h2.769a1.145,1.145,0,0,0,.439.962,1.808,1.808,0,0,0,1.081.3,1.422,1.422,0,0,0,.91-.246A.787.787,0,0,0,82.327,16.328Z" transform="translate(486 4754)" fill="#fff"/>
    <path id="Trazado_157871" data-name="Trazado 157871" d="M13,0H117a13,13,0,0,1,13,13v2a13,13,0,0,1-13,13H13A13,13,0,0,1,0,15V13A13,13,0,0,1,13,0Z" transform="translate(728.75 4691)" fill="#1169e3"/>
    <path id="Trazado_157872" data-name="Trazado 157872" d="M15.6,14.667a4.673,4.673,0,0,1-.721,2.36,4.35,4.35,0,0,1-1.85,1.586,6.3,6.3,0,0,1-2.72.563,5.025,5.025,0,0,1-3.973-1.644,6.786,6.786,0,0,1-1.45-4.641v-.633a7.746,7.746,0,0,1,.655-3.292,4.961,4.961,0,0,1,1.885-2.18,5.26,5.26,0,0,1,2.848-.769,5.516,5.516,0,0,1,3.744,1.226,4.844,4.844,0,0,1,1.608,3.379H12.546a2.292,2.292,0,0,0-.589-1.679,2.422,2.422,0,0,0-1.687-.51A1.843,1.843,0,0,0,8.583,9.3a5.536,5.536,0,0,0-.562,2.751v.905a6.126,6.126,0,0,0,.514,2.927,1.882,1.882,0,0,0,1.771.879,2.369,2.369,0,0,0,1.626-.5,2.126,2.126,0,0,0,.6-1.591Zm.949-.51a5.613,5.613,0,0,1,.554-2.536A3.96,3.96,0,0,1,18.69,9.912a4.791,4.791,0,0,1,2.435-.6,4.373,4.373,0,0,1,3.366,1.323,5.076,5.076,0,0,1,1.23,3.6v.105a4.925,4.925,0,0,1-1.235,3.529,4.384,4.384,0,0,1-3.344,1.305,4.434,4.434,0,0,1-3.261-1.217,4.761,4.761,0,0,1-1.327-3.3Zm2.962.185a3.538,3.538,0,0,0,.413,1.934,1.376,1.376,0,0,0,1.222.615q1.582,0,1.617-2.435v-.3q0-2.558-1.635-2.558-1.485,0-1.608,2.206ZM30.151,19H27.18V5.5h2.971Zm7.488-1.028a3.054,3.054,0,0,1-2.54,1.2,3,3,0,0,1-2.369-.91,3.826,3.826,0,0,1-.8-2.615V9.49h2.962v6.179a1.065,1.065,0,0,0,1.187,1.222,1.548,1.548,0,0,0,1.45-.729V9.49H40.5V19H37.727ZM44.925,9.49l.1,1.116a3.27,3.27,0,0,1,2.716-1.292,2.407,2.407,0,0,1,2.435,1.433,3.165,3.165,0,0,1,2.795-1.433q2.892,0,2.971,3.5V19H52.967V13a1.813,1.813,0,0,0-.246-1.063,1.048,1.048,0,0,0-.9-.334,1.4,1.4,0,0,0-1.31.782l.009.123V19H47.553V13.015a1.906,1.906,0,0,0-.237-1.081,1.045,1.045,0,0,0-.905-.334,1.42,1.42,0,0,0-1.3.782V19H42.148V9.49Zm15.425,0,.1,1.116a3.225,3.225,0,0,1,2.716-1.292,2.713,2.713,0,0,1,2.219.888,4.226,4.226,0,0,1,.76,2.672V19H63.171V13a1.6,1.6,0,0,0-.29-1.059,1.342,1.342,0,0,0-1.055-.338,1.413,1.413,0,0,0-1.292.686V19H57.573V9.49ZM73.138,19a3.344,3.344,0,0,1-.281-.853,2.754,2.754,0,0,1-2.285,1.028,3.374,3.374,0,0,1-2.285-.813,2.588,2.588,0,0,1-.94-2.043,2.66,2.66,0,0,1,1.143-2.338,5.821,5.821,0,0,1,3.322-.791h.914v-.5q0-1.316-1.134-1.316a.927.927,0,0,0-1.055,1.042H67.575a2.655,2.655,0,0,1,1.173-2.239,4.931,4.931,0,0,1,2.993-.86,4.323,4.323,0,0,1,2.874.888A3.086,3.086,0,0,1,75.7,12.637v4.21a4.311,4.311,0,0,0,.4,2V19Zm-1.854-1.934a1.652,1.652,0,0,0,.918-.237,1.487,1.487,0,0,0,.523-.536V14.772h-.861q-1.547,0-1.547,1.389a.848.848,0,0,0,.272.655A.986.986,0,0,0,71.284,17.066Zm11.03-.738a.684.684,0,0,0-.4-.606,6.016,6.016,0,0,0-1.5-.475,6.853,6.853,0,0,1-1.828-.646,3.062,3.062,0,0,1-1.1-.971,2.319,2.319,0,0,1-.378-1.31,2.628,2.628,0,0,1,1.081-2.158,4.453,4.453,0,0,1,2.83-.848,4.934,4.934,0,0,1,3.023.853,2.666,2.666,0,0,1,1.143,2.241H82.217q0-1.143-1.2-1.143a1.194,1.194,0,0,0-.782.259.8.8,0,0,0-.316.646.737.737,0,0,0,.387.642,3.654,3.654,0,0,0,1.235.4,10.671,10.671,0,0,1,1.49.378A2.706,2.706,0,0,1,85.17,16.24a2.491,2.491,0,0,1-1.156,2.118,5.068,5.068,0,0,1-2.993.817,5.172,5.172,0,0,1-2.18-.439,3.645,3.645,0,0,1-1.494-1.2,2.707,2.707,0,0,1-.536-1.591h2.769a1.145,1.145,0,0,0,.439.962,1.808,1.808,0,0,0,1.081.3,1.422,1.422,0,0,0,.91-.246A.787.787,0,0,0,82.314,16.328Z" transform="translate(738.75 4693)" fill="#fff"/>
    <path id="Trazado_157827" data-name="Trazado 157827" d="M6,0A6,6,0,1,1,0,6,6,6,0,0,1,6,0Z" transform="translate(924.466 4813.087)" fill="#1169e3"/>
    <path id="Trazado_157816" data-name="Trazado 157816" d="M6,0A6,6,0,1,1,0,6,6,6,0,0,1,6,0Z" transform="translate(924.466 4933.087)" fill="#1169e3"/>
    <path id="Trazado_157852" data-name="Trazado 157852" d="M96.7,0H0" transform="translate(551.466 5059.525)" fill="none" stroke="#1169e3" stroke-width="2"/>
    <path id="Trazado_157851" data-name="Trazado 157851" d="M6,0A6,6,0,1,1,0,6,6,6,0,0,1,6,0Z" transform="translate(644.527 5053.025)" fill="#1169e3"/>
    <path id="Trazado_157846" data-name="Trazado 157846" d="M64.92,0H0" transform="translate(653.569 5285.587) rotate(-90)" fill="none" stroke="#1169e3" stroke-width="2"/>
    <path id="Trazado_157845" data-name="Trazado 157845" d="M6,0A6,6,0,1,1,0,6,6,6,0,0,1,6,0Z" transform="translate(647.069 5224.303) rotate(-90)" fill="#1169e3"/>
    <path id="Trazado_157870" data-name="Trazado 157870" d="M0,65.121V0" transform="translate(584.473 4764.587) rotate(-90)" fill="none" stroke="#1169e3" stroke-width="2"/>
    <path id="Trazado_157869" data-name="Trazado 157869" d="M6,0A6,6,0,1,1,0,6,6,6,0,0,1,6,0Z" transform="translate(643.094 4771.087) rotate(-90)" fill="#1169e3"/>
    <path id="Trazado_157833" data-name="Trazado 157833" d="M6,0A6,6,0,1,1,0,6,6,6,0,0,1,6,0Z" transform="translate(731.688 4767.053)" fill="#1169e3"/>
    <path id="Trazado_157857" data-name="Trazado 157857" d="M13,0H141a13,13,0,0,1,13,13v2a13,13,0,0,1-13,13H13A13,13,0,0,1,0,15V13A13,13,0,0,1,13,0Z" transform="translate(465.784 5044)" fill="#1169e3"/>
    <path id="Trazado_157858" data-name="Trazado 157858" d="M8.146,16.627h5.37V19H5.062V6.2H8.146ZM17.911,19H14.932V9.49h2.979ZM16.8,5.676h3.129l-2.443,2.76-2.417,0Zm5.73,3.814.1,1.116a3.225,3.225,0,0,1,2.716-1.292,2.713,2.713,0,0,1,2.219.888,4.226,4.226,0,0,1,.76,2.672V19H25.355V13a1.6,1.6,0,0,0-.29-1.059,1.342,1.342,0,0,0-1.055-.338,1.413,1.413,0,0,0-1.292.686V19H19.757V9.49Zm12.032,9.686a4.889,4.889,0,0,1-3.542-1.305,4.507,4.507,0,0,1-1.354-3.4v-.246a5.84,5.84,0,0,1,.541-2.575,3.955,3.955,0,0,1,1.578-1.727,4.763,4.763,0,0,1,2.461-.611,4.117,4.117,0,0,1,3.164,1.244,4.887,4.887,0,0,1,1.16,3.467v1.151H32.686a2.135,2.135,0,0,0,.694,1.257,2.066,2.066,0,0,0,1.389.457,2.662,2.662,0,0,0,2.2-.984l1.354,1.6a3.784,3.784,0,0,1-1.569,1.217A5.3,5.3,0,0,1,34.566,19.176ZM34.232,11.6q-1.3,0-1.547,1.723h2.988v-.229a1.467,1.467,0,0,0-.36-1.1A1.434,1.434,0,0,0,34.232,11.6ZM45.122,19a3.344,3.344,0,0,1-.281-.853,2.754,2.754,0,0,1-2.285,1.028,3.374,3.374,0,0,1-2.285-.813,2.588,2.588,0,0,1-.94-2.043,2.66,2.66,0,0,1,1.143-2.338,5.821,5.821,0,0,1,3.322-.791h.914v-.5q0-1.316-1.134-1.316a.927.927,0,0,0-1.055,1.042H39.559a2.655,2.655,0,0,1,1.173-2.239,4.931,4.931,0,0,1,2.993-.86A4.323,4.323,0,0,1,46.6,10.2a3.086,3.086,0,0,1,1.081,2.435v4.21a4.311,4.311,0,0,0,.4,2V19Zm-1.854-1.934a1.652,1.652,0,0,0,.918-.237,1.487,1.487,0,0,0,.523-.536V14.772h-.861q-1.547,0-1.547,1.389a.848.848,0,0,0,.272.655A.986.986,0,0,0,43.268,17.066Zm10.16-2.892a5.809,5.809,0,0,1,.976-3.56,3.211,3.211,0,0,1,2.725-1.3,2.731,2.731,0,0,1,2.145,1V5.5h2.971V19H59.58l-.149-1.02a2.8,2.8,0,0,1-2.32,1.2,3.205,3.205,0,0,1-2.689-1.3A5.993,5.993,0,0,1,53.428,14.175Zm2.962.185q0,2.531,1.477,2.531a1.458,1.458,0,0,0,1.406-.826V12.443a1.419,1.419,0,0,0-1.389-.844q-1.371,0-1.485,2.215Zm12.138,4.816a4.889,4.889,0,0,1-3.542-1.305,4.507,4.507,0,0,1-1.354-3.4v-.246a5.84,5.84,0,0,1,.541-2.575A3.955,3.955,0,0,1,65.75,9.925a4.763,4.763,0,0,1,2.461-.611,4.117,4.117,0,0,1,3.164,1.244,4.887,4.887,0,0,1,1.16,3.467v1.151H66.646a2.135,2.135,0,0,0,.694,1.257,2.066,2.066,0,0,0,1.389.457,2.662,2.662,0,0,0,2.2-.984l1.354,1.6a3.784,3.784,0,0,1-1.569,1.217A5.3,5.3,0,0,1,68.527,19.176ZM68.193,11.6q-1.3,0-1.547,1.723h2.988v-.229a1.467,1.467,0,0,0-.36-1.1A1.434,1.434,0,0,0,68.193,11.6ZM84.831,7.662Q84.075,7.6,83.557,7.6q-1.723,0-1.723,1.345V9.49h1.854v2.057H81.834V19H78.863V11.547h-1.38V9.49h1.38V8.875a3.284,3.284,0,0,1,1.1-2.632A4.716,4.716,0,0,1,83.1,5.315q1.45,0,4.711.185V19H84.831Zm10.45,10.31a3.054,3.054,0,0,1-2.54,1.2,3,3,0,0,1-2.369-.91,3.826,3.826,0,0,1-.8-2.615V9.49H92.53v6.179a1.065,1.065,0,0,0,1.187,1.222,1.548,1.548,0,0,0,1.45-.729V9.49h2.979V19H95.369Zm7.673-8.481v9.835a3.452,3.452,0,0,1-.967,2.6,3.714,3.714,0,0,1-2.672.914,6.308,6.308,0,0,1-1.4-.149V20.45a5.667,5.667,0,0,0,.835.079,1.084,1.084,0,0,0,1.23-1.222V9.49Zm-3.19-2.452A1.322,1.322,0,0,1,100.221,6a1.943,1.943,0,0,1,2.373,0,1.322,1.322,0,0,1,.457,1.037,1.322,1.322,0,0,1-.457,1.037,1.943,1.943,0,0,1-2.373,0A1.322,1.322,0,0,1,99.764,7.038Zm4.491,7.119a5.613,5.613,0,0,1,.554-2.536A3.96,3.96,0,0,1,106.4,9.912a4.791,4.791,0,0,1,2.435-.6,4.373,4.373,0,0,1,3.366,1.323,5.076,5.076,0,0,1,1.23,3.6v.105a4.925,4.925,0,0,1-1.235,3.529,4.384,4.384,0,0,1-3.344,1.305,4.434,4.434,0,0,1-3.261-1.217,4.761,4.761,0,0,1-1.327-3.3Zm2.962.185a3.538,3.538,0,0,0,.413,1.934,1.376,1.376,0,0,0,1.222.615q1.582,0,1.617-2.435v-.3q0-2.558-1.635-2.558-1.485,0-1.608,2.206Z" transform="translate(495.784 5046)" fill="#fff"/>
    <path id="Trazado_157843" data-name="Trazado 157843" d="M13,0H132a13,13,0,0,1,13,13v2a13,13,0,0,1-13,13H13A13,13,0,0,1,0,15V13A13,13,0,0,1,13,0Z" transform="translate(539.466 5268)" fill="#1169e3"/>
    <path id="Trazado_157844" data-name="Trazado 157844" d="M8.538,6.2l2.856,8.9,2.848-8.9H18.3V19H15.209V16.012l.3-6.117L12.414,19H10.375l-3.1-9.114.3,6.126V19H4.486V6.2ZM25.483,19a3.344,3.344,0,0,1-.281-.853,2.754,2.754,0,0,1-2.285,1.028,3.374,3.374,0,0,1-2.285-.813,2.588,2.588,0,0,1-.94-2.043,2.66,2.66,0,0,1,1.143-2.338,5.821,5.821,0,0,1,3.322-.791h.914v-.5q0-1.316-1.134-1.316a.927.927,0,0,0-1.055,1.042H19.92a2.655,2.655,0,0,1,1.173-2.239,4.931,4.931,0,0,1,2.993-.86,4.323,4.323,0,0,1,2.874.888,3.086,3.086,0,0,1,1.081,2.435v4.21a4.311,4.311,0,0,0,.4,2V19Zm-1.854-1.934a1.652,1.652,0,0,0,.918-.237,1.487,1.487,0,0,0,.523-.536V14.772h-.861q-1.547,0-1.547,1.389a.848.848,0,0,0,.272.655A.986.986,0,0,0,23.629,17.066Zm11.8-4.9-.976-.07a1.752,1.752,0,0,0-1.793.879V19H29.7V9.49h2.777l.1,1.222a2.294,2.294,0,0,1,2.083-1.4,2.888,2.888,0,0,1,.826.105Zm4.922,4.72a1.317,1.317,0,0,0,.967-.338,1.241,1.241,0,0,0,.334-.945h2.777a3.288,3.288,0,0,1-1.121,2.566,4.168,4.168,0,0,1-2.887,1,4.22,4.22,0,0,1-3.27-1.3,5.125,5.125,0,0,1-1.2-3.6v-.123a5.792,5.792,0,0,1,.532-2.544,3.872,3.872,0,0,1,1.534-1.7A4.573,4.573,0,0,1,40.4,9.314a4.116,4.116,0,0,1,2.944,1.028,3.647,3.647,0,0,1,1.09,2.786H41.655A1.626,1.626,0,0,0,41.295,12a1.244,1.244,0,0,0-.967-.4q-1.151,0-1.345,1.468a10.357,10.357,0,0,0-.062,1.283,4.068,4.068,0,0,0,.343,1.986A1.187,1.187,0,0,0,40.354,16.891ZM51.042,19a3.344,3.344,0,0,1-.281-.853,2.754,2.754,0,0,1-2.285,1.028,3.374,3.374,0,0,1-2.285-.813,2.588,2.588,0,0,1-.94-2.043,2.66,2.66,0,0,1,1.143-2.338,5.821,5.821,0,0,1,3.322-.791h.914v-.5q0-1.316-1.134-1.316a.927.927,0,0,0-1.055,1.042H45.479a2.655,2.655,0,0,1,1.173-2.239,4.931,4.931,0,0,1,2.993-.86,4.323,4.323,0,0,1,2.874.888A3.086,3.086,0,0,1,53.6,12.637v4.21a4.311,4.311,0,0,0,.4,2V19Zm-1.854-1.934a1.652,1.652,0,0,0,.918-.237,1.487,1.487,0,0,0,.523-.536V14.772h-.861q-1.547,0-1.547,1.389a.848.848,0,0,0,.272.655A.986.986,0,0,0,49.188,17.066Zm5.678-2.892a5.809,5.809,0,0,1,.976-3.56,3.211,3.211,0,0,1,2.725-1.3,2.731,2.731,0,0,1,2.145,1V5.5h2.971V19H61.018l-.149-1.02a2.8,2.8,0,0,1-2.32,1.2,3.205,3.205,0,0,1-2.689-1.3A5.993,5.993,0,0,1,54.865,14.175Zm2.962.185q0,2.531,1.477,2.531a1.458,1.458,0,0,0,1.406-.826V12.443a1.419,1.419,0,0,0-1.389-.844q-1.371,0-1.485,2.215Zm7.163-.2a5.613,5.613,0,0,1,.554-2.536,3.96,3.96,0,0,1,1.591-1.709,4.791,4.791,0,0,1,2.435-.6,4.373,4.373,0,0,1,3.366,1.323,5.076,5.076,0,0,1,1.23,3.6v.105a4.925,4.925,0,0,1-1.235,3.529,4.384,4.384,0,0,1-3.344,1.305,4.434,4.434,0,0,1-3.261-1.217A4.761,4.761,0,0,1,65,14.658Zm2.962.185a3.538,3.538,0,0,0,.413,1.934,1.376,1.376,0,0,0,1.222.615q1.582,0,1.617-2.435v-.3q0-2.558-1.635-2.558-1.485,0-1.608,2.206Zm13.271-2.171-.976-.07a1.752,1.752,0,0,0-1.793.879V19H75.493V9.49h2.777l.1,1.222a2.294,2.294,0,0,1,2.083-1.4,2.888,2.888,0,0,1,.826.105Zm5.669,7a4.889,4.889,0,0,1-3.542-1.305A4.507,4.507,0,0,1,82,14.474v-.246a5.84,5.84,0,0,1,.541-2.575,3.955,3.955,0,0,1,1.578-1.727,4.763,4.763,0,0,1,2.461-.611,4.117,4.117,0,0,1,3.164,1.244,4.887,4.887,0,0,1,1.16,3.467v1.151H85.012a2.135,2.135,0,0,0,.694,1.257,2.066,2.066,0,0,0,1.389.457,2.662,2.662,0,0,0,2.2-.984l1.354,1.6a3.784,3.784,0,0,1-1.569,1.217A5.3,5.3,0,0,1,86.893,19.176ZM86.559,11.6q-1.3,0-1.547,1.723H88v-.229a1.467,1.467,0,0,0-.36-1.1A1.434,1.434,0,0,0,86.559,11.6ZM97.07,16.328a.684.684,0,0,0-.4-.606,6.016,6.016,0,0,0-1.5-.475,6.853,6.853,0,0,1-1.828-.646,3.062,3.062,0,0,1-1.1-.971,2.319,2.319,0,0,1-.378-1.31,2.628,2.628,0,0,1,1.081-2.158,4.453,4.453,0,0,1,2.83-.848,4.934,4.934,0,0,1,3.023.853,2.666,2.666,0,0,1,1.143,2.241H96.974q0-1.143-1.2-1.143a1.194,1.194,0,0,0-.782.259.8.8,0,0,0-.316.646.737.737,0,0,0,.387.642,3.654,3.654,0,0,0,1.235.4,10.671,10.671,0,0,1,1.49.378,2.706,2.706,0,0,1,2.145,2.646,2.491,2.491,0,0,1-1.156,2.118,5.068,5.068,0,0,1-2.993.817,5.172,5.172,0,0,1-2.18-.439,3.645,3.645,0,0,1-1.494-1.2,2.707,2.707,0,0,1-.536-1.591h2.769a1.145,1.145,0,0,0,.439.962,1.808,1.808,0,0,0,1.081.3,1.422,1.422,0,0,0,.91-.246A.787.787,0,0,0,97.07,16.328Z" transform="translate(571.466 5270)" fill="#fff"/>
  </g>
</svg>
