<svg xmlns="http://www.w3.org/2000/svg" xmlns:xlink="http://www.w3.org/1999/xlink" width="1240" height="479.642" viewBox="0 0 1240 479.642">
  <defs>
    <clipPath id="clip-path">
      <rect id="Rectángulo_35731" data-name="Rectángulo 35731" width="1240" height="479.642" rx="10" fill="none"/>
    </clipPath>
    <clipPath id="clip-path-2">
      <rect id="Rectángulo_38679" data-name="Rectángulo 38679" width="360.174" height="288.775" fill="none"/>
    </clipPath>
    <clipPath id="clip-path-3">
      <rect id="Rectángulo_38688" data-name="Rectángulo 38688" width="119.921" height="147.397" fill="#e8e8e8"/>
    </clipPath>
    <clipPath id="clip-path-4">
      <rect id="Rectángulo_38717" data-name="Rectángulo 38717" width="405.881" height="251.891" fill="none"/>
    </clipPath>
  </defs>
  <g id="Grupo_159417" data-name="Grupo 159417" transform="translate(-19303 8530)">
    <g id="Grupo_158939" data-name="Grupo 158939" transform="translate(19303 -8530)">
      <g id="Grupo_131449" data-name="Grupo 131449">
        <g id="Grupo_131448" data-name="Grupo 131448" clip-path="url(#clip-path)">
          <g id="Enmascarar_grupo_70" data-name="Enmascarar grupo 70">
            <g id="Grupo_131152" data-name="Grupo 131152">
              <path id="Rectángulo_35714" data-name="Rectángulo 35714" d="M1240,0H0V479.642H1240Z" fill="#b0c8cb"/>
              <path id="Trazado_123569" data-name="Trazado 123569" d="M0,203.669s55.82,11.822,138.323-52.258c42.116-35.516,86.557-70.785,138.488-90.206,61.734-23.094,128.733-20.625,192.006-5.363,58.736,14.168,115.215,38.264,171.127,60.679,106.871,42.845,213.941,90.654,326.8,115.131,81.638,17.7,184.7,24.881,242.094-49.365,14.192-18.36,24.177-39.737,31.164-61.861V478.855H.035C.035,390.96,0,203.669,0,203.669Z" transform="translate(0 0.431)" fill="#fff" opacity="0.36" style="isolation: isolate"/>
              <path id="Trazado_123570" data-name="Trazado 123570" d="M1239.979,418.442c-210.437,99.168-511.1-52.759-716.952-61.854S237.173,457.565,0,382.6v93.2H1239.979Z" transform="translate(0.021 3.479)" fill="#fff" opacity="0.39" style="isolation: isolate"/>
            </g>
          </g>
        </g>
      </g>
    </g>
    <g id="Grupo_159413" data-name="Grupo 159413" transform="translate(35.001 21)">
      <g id="Grupo_159376" data-name="Grupo 159376" transform="translate(2532.855 -41)">
        <g id="Grupo_159361" data-name="Grupo 159361" transform="translate(17427 -8423)">
          <g id="Grupo_159360" data-name="Grupo 159360" clip-path="url(#clip-path-2)">
            <path id="Trazado_157801" data-name="Trazado 157801" d="M360.174,215.137H0V11.214A11.213,11.213,0,0,1,11.213,0H348.961a11.213,11.213,0,0,1,11.213,11.213Z" transform="translate(0 0)" fill="#47484c"/>
            <rect id="Rectángulo_38675" data-name="Rectángulo 38675" width="329.957" height="186.13" transform="translate(15.309 15.712)" fill="#fff"/>
            <path id="Trazado_157802" data-name="Trazado 157802" d="M360.174,222.453H0v22.693a9.94,9.94,0,0,0,9.94,9.94H350.234a9.94,9.94,0,0,0,9.94-9.94Z" transform="translate(0 -7.316)" fill="#f6f6f6"/>
            <path id="Trazado_157803" data-name="Trazado 157803" d="M238.492,293.578H131l5.3-1.467a13.854,13.854,0,0,0,10.1-12.095l2.172-23.82H218.21l4.525,24.862a13.856,13.856,0,0,0,9.859,10.85Z" transform="translate(-4.308 -8.426)" fill="#afafaf"/>
            <rect id="Rectángulo_38676" data-name="Rectángulo 38676" width="73.67" height="10.207" transform="translate(142.091 247.771)" fill="#a3a3a3"/>
            <rect id="Rectángulo_38677" data-name="Rectángulo 38677" width="106.927" height="3.237" transform="translate(126.694 285.152)" fill="#f6f7f9"/>
            <rect id="Rectángulo_38678" data-name="Rectángulo 38678" width="106.927" height="0.772" transform="translate(126.694 288.003)" fill="#bbbdbc"/>
            <path id="Trazado_157804" data-name="Trazado 157804" d="M199.926,236.283a6.676,6.676,0,1,1-6.676-6.676,6.676,6.676,0,0,1,6.676,6.676" transform="translate(-6.136 -7.551)" fill="#bbbdbc"/>
          </g>
        </g>
        <g id="Grupo_159369" data-name="Grupo 159369" transform="translate(17546.922 -8389.548)">
          <g id="Grupo_159365" data-name="Grupo 159365" clip-path="url(#clip-path-3)">
            <path id="Trazado_157869" data-name="Trazado 157869" d="M39.847,234.938H36.39c-.538-.164-1.072-.342-1.614-.489-5.11-1.389-8.789-4.826-12.08-8.687C9.791,210.621,2.116,193.206.3,173.329a55.536,55.536,0,0,1,3.165-25.61c3.7-9.488,9.953-16.667,19.227-20.992,6.608-3.081,13.552-4.326,20.716-2.327a108.417,108.417,0,0,1,11.512,4.06,14.777,14.777,0,0,0,11.855.032c3.042-1.285,6.152-2.431,9.289-3.465,11.6-3.825,22.425-2.02,32.443,4.8a27.627,27.627,0,0,1,7.584,7.888c-23.673,15.484-19.516,48.047,3.834,58.025a3.084,3.084,0,0,1-.085.547,86.526,86.526,0,0,1-19.566,32.359c-4.989,5.226-11.189,7.339-18.354,5.417a71.153,71.153,0,0,1-8.086-2.947,28.242,28.242,0,0,0-19.693-.837c-4.774,1.518-9.207,4.086-14.291,4.654" transform="translate(0 -87.54)" fill="#e8e8e8"/>
            <path id="Trazado_157870" data-name="Trazado 157870" d="M207.192,33.826C205.236,19.352,218.107,1.431,236.411,0,238.846,14.648,225.1,34.8,207.192,33.826" transform="translate(-147.258 -0.001)" fill="#e8e8e8"/>
          </g>
        </g>
      </g>
      <g id="Grupo_159375" data-name="Grupo 159375" transform="translate(19455 -8445)">
        <g id="Grupo_159374" data-name="Grupo 159374" clip-path="url(#clip-path-4)">
          <path id="Trazado_157871" data-name="Trazado 157871" d="M293.664,184.559H80.994a7.485,7.485,0,0,1-7.485-7.485V23.559a7.483,7.483,0,0,1,7.485-7.484h212.67a7.483,7.483,0,0,1,7.485,7.484V177.074a7.485,7.485,0,0,1-7.485,7.485" transform="translate(53.332 11.663)" fill="#3a3839"/>
          <path id="Trazado_157872" data-name="Trazado 157872" d="M259.258,158.3H96.54a7.485,7.485,0,0,1-7.485-7.485V34.273a7.485,7.485,0,0,1,7.485-7.485H259.258a7.485,7.485,0,0,1,7.485,7.485V150.816a7.485,7.485,0,0,1-7.485,7.485" transform="translate(64.611 19.435)" fill="#b0a7aa"/>
          <rect id="Rectángulo_38692" data-name="Rectángulo 38692" width="38.557" height="9.508" transform="translate(219.706 196.222)" fill="#1e1d1b"/>
          <rect id="Rectángulo_38693" data-name="Rectángulo 38693" width="15.982" height="24.149" transform="translate(230.993 205.73)" fill="#1e1d1b"/>
          <rect id="Rectángulo_38694" data-name="Rectángulo 38694" width="85.639" height="6.635" transform="translate(196.165 223.244)" fill="#1e1d1b"/>
          <rect id="Rectángulo_38695" data-name="Rectángulo 38695" width="217.977" height="7.841" transform="translate(133.584 244.05)" fill="#1e1d1b"/>
          <rect id="Rectángulo_38696" data-name="Rectángulo 38696" width="11.939" height="6.433" transform="translate(137.907 240.834)" fill="#1e1d1b"/>
          <rect id="Rectángulo_38697" data-name="Rectángulo 38697" width="11.939" height="6.433" transform="translate(153.666 240.834)" fill="#1e1d1b"/>
          <rect id="Rectángulo_38698" data-name="Rectángulo 38698" width="11.939" height="6.433" transform="translate(259.129 240.834)" fill="#1e1d1b"/>
          <rect id="Rectángulo_38699" data-name="Rectángulo 38699" width="11.939" height="6.433" transform="translate(274.887 240.834)" fill="#1e1d1b"/>
          <rect id="Rectángulo_38700" data-name="Rectángulo 38700" width="11.939" height="6.433" transform="translate(290.087 240.834)" fill="#1e1d1b"/>
          <rect id="Rectángulo_38701" data-name="Rectángulo 38701" width="11.939" height="6.433" transform="translate(305.846 240.834)" fill="#1e1d1b"/>
          <rect id="Rectángulo_38702" data-name="Rectángulo 38702" width="11.939" height="6.433" transform="translate(322.05 240.834)" fill="#1e1d1b"/>
          <rect id="Rectángulo_38703" data-name="Rectángulo 38703" width="11.939" height="6.433" transform="translate(337.809 240.834)" fill="#1e1d1b"/>
          <rect id="Rectángulo_38704" data-name="Rectángulo 38704" width="87.772" height="6.433" transform="translate(168.341 240.834)" fill="#1e1d1b"/>
          <path id="Trazado_157873" data-name="Trazado 157873" d="M255.425,159.081H207.378v-7.137a24.023,24.023,0,0,1,48.047,0Z" transform="translate(150.456 92.809)" fill="#1e1d1b"/>
          <path id="Trazado_157874" data-name="Trazado 157874" d="M222.184,132.463h0a1.408,1.408,0,0,1-1.408-1.408v-4.523a1.408,1.408,0,0,1,2.816,0v4.523a1.408,1.408,0,0,1-1.408,1.408" transform="translate(160.176 90.781)" fill="#1e1d1b"/>
          <path id="Trazado_157875" data-name="Trazado 157875" d="M110.733,251.891H7.877A7.876,7.876,0,0,1,0,244.015V7.875A7.876,7.876,0,0,1,7.877,0H110.733a7.874,7.874,0,0,1,7.875,7.875v236.14a7.874,7.874,0,0,1-7.875,7.875" fill="#3a3839"/>
          <path id="Trazado_157876" data-name="Trazado 157876" d="M35.82,106.4h-24.1a4.034,4.034,0,1,1,0-8.068h24.1a4.034,4.034,0,1,1,0,8.068" transform="translate(5.578 71.339)" fill="#605c5d"/>
          <path id="Trazado_157877" data-name="Trazado 157877" d="M35.82,112.631h-24.1a4.034,4.034,0,0,1,0-8.069h24.1a4.034,4.034,0,0,1,0,8.069" transform="translate(5.578 75.861)" fill="#605c5d"/>
          <path id="Trazado_157878" data-name="Trazado 157878" d="M35.82,118.864h-24.1a4.034,4.034,0,0,1,0-8.069h24.1a4.034,4.034,0,0,1,0,8.069" transform="translate(5.578 80.383)" fill="#605c5d"/>
          <path id="Trazado_157879" data-name="Trazado 157879" d="M35.82,125.1h-24.1a4.034,4.034,0,0,1,0-8.069h24.1a4.034,4.034,0,0,1,0,8.069" transform="translate(5.578 84.906)" fill="#605c5d"/>
          <path id="Trazado_157880" data-name="Trazado 157880" d="M35.82,131.329h-24.1a4.034,4.034,0,1,1,0-8.068h24.1a4.034,4.034,0,1,1,0,8.068" transform="translate(5.578 89.428)" fill="#605c5d"/>
          <path id="Trazado_157881" data-name="Trazado 157881" d="M35.82,137.563h-24.1a4.034,4.034,0,1,1,0-8.068h24.1a4.034,4.034,0,1,1,0,8.068" transform="translate(5.578 93.95)" fill="#605c5d"/>
          <path id="Trazado_157882" data-name="Trazado 157882" d="M35.82,143.8h-24.1a4.034,4.034,0,1,1,0-8.068h24.1a4.034,4.034,0,1,1,0,8.068" transform="translate(5.578 98.472)" fill="#605c5d"/>
          <path id="Trazado_157883" data-name="Trazado 157883" d="M69.607,106.4H45.51a4.034,4.034,0,1,1,0-8.068h24.1a4.034,4.034,0,1,1,0,8.068" transform="translate(30.091 71.339)" fill="#605c5d"/>
          <path id="Trazado_157884" data-name="Trazado 157884" d="M69.607,112.631H45.51a4.034,4.034,0,0,1,0-8.069h24.1a4.034,4.034,0,0,1,0,8.069" transform="translate(30.091 75.861)" fill="#605c5d"/>
          <path id="Trazado_157885" data-name="Trazado 157885" d="M69.607,118.864H45.51a4.034,4.034,0,0,1,0-8.069h24.1a4.034,4.034,0,1,1,0,8.069" transform="translate(30.091 80.383)" fill="#605c5d"/>
          <path id="Trazado_157886" data-name="Trazado 157886" d="M69.607,125.1H45.51a4.034,4.034,0,0,1,0-8.069h24.1a4.034,4.034,0,1,1,0,8.069" transform="translate(30.091 84.906)" fill="#605c5d"/>
          <path id="Trazado_157887" data-name="Trazado 157887" d="M69.607,131.329H45.51a4.034,4.034,0,1,1,0-8.068h24.1a4.034,4.034,0,1,1,0,8.068" transform="translate(30.091 89.428)" fill="#605c5d"/>
          <path id="Trazado_157888" data-name="Trazado 157888" d="M69.607,137.563H45.51a4.034,4.034,0,1,1,0-8.068h24.1a4.034,4.034,0,1,1,0,8.068" transform="translate(30.091 93.95)" fill="#605c5d"/>
          <path id="Trazado_157889" data-name="Trazado 157889" d="M69.607,143.8H45.51a4.034,4.034,0,1,1,0-8.068h24.1a4.034,4.034,0,1,1,0,8.068" transform="translate(30.091 98.472)" fill="#605c5d"/>
          <rect id="Rectángulo_38705" data-name="Rectángulo 38705" width="91.67" height="10.051" transform="translate(13.267 143.535)" fill="#605c5d"/>
          <rect id="Rectángulo_38706" data-name="Rectángulo 38706" width="19.902" height="2.412" transform="translate(81.619 147.556)"/>
          <rect id="Rectángulo_38707" data-name="Rectángulo 38707" width="21.51" height="58.7" transform="translate(10.253 77.396)" fill="#91888b"/>
          <rect id="Rectángulo_38708" data-name="Rectángulo 38708" width="21.51" height="58.7" transform="translate(35.684 77.396)" fill="#91888b"/>
          <rect id="Rectángulo_38709" data-name="Rectángulo 38709" width="21.51" height="58.7" transform="translate(61.113 77.396)" fill="#91888b"/>
          <rect id="Rectángulo_38710" data-name="Rectángulo 38710" width="21.51" height="58.7" transform="translate(86.543 77.396)" fill="#91888b"/>
          <rect id="Rectángulo_38711" data-name="Rectángulo 38711" width="97.802" height="3.216" transform="translate(10.251 60.51)" fill="#91888b"/>
          <rect id="Rectángulo_38712" data-name="Rectángulo 38712" width="91.67" height="10.051" transform="translate(13.267 49.453)" fill="#91888b"/>
          <rect id="Rectángulo_38713" data-name="Rectángulo 38713" width="96.796" height="1.796" transform="translate(11.257 44.427)" fill="#91888b"/>
          <rect id="Rectángulo_38714" data-name="Rectángulo 38714" width="91.67" height="8.243" transform="translate(13.267 32.768)" fill="#91888b"/>
          <rect id="Rectángulo_38715" data-name="Rectángulo 38715" width="18.092" height="1.708" transform="translate(81.619 36.89)" fill="#3a3839"/>
          <rect id="Rectángulo_38716" data-name="Rectángulo 38716" width="18.092" height="1.708" transform="translate(81.619 55.384)" fill="#3a3839"/>
          <path id="Trazado_157890" data-name="Trazado 157890" d="M86.783,7.223H23.191a16.2,16.2,0,0,0-16.2,16.2v1.893h95.992V23.422a16.2,16.2,0,0,0-16.2-16.2" transform="translate(5.071 5.24)" fill="#91888b"/>
          <path id="Trazado_157891" data-name="Trazado 157891" d="M57.971,12.5a2.714,2.714,0,1,1-2.714-2.714A2.714,2.714,0,0,1,57.971,12.5" transform="translate(38.121 7.1)" fill="#91658b"/>
          <path id="Trazado_157892" data-name="Trazado 157892" d="M53.311,12.5A2.714,2.714,0,1,1,50.6,9.786,2.714,2.714,0,0,1,53.311,12.5" transform="translate(34.74 7.1)" fill="#91a88b"/>
        </g>
      </g>
    </g>
    <g id="Grupo_158941" data-name="Grupo 158941" transform="translate(19804 -8258.799)">
      <rect id="Rectángulo_35706" data-name="Rectángulo 35706" width="237.865" height="121.173" rx="12" transform="translate(0 0.799)" fill="#1169e3"/>
      <path id="Trazado_157966" data-name="Trazado 157966" d="M24.965,7.523H21.48V17H19.137V7.523H15.7v-1.9h9.266Zm5.078,9.633a4.15,4.15,0,0,1-3.027-1.141,4.054,4.054,0,0,1-1.168-3.039v-.219a5.106,5.106,0,0,1,.492-2.277,3.612,3.612,0,0,1,1.395-1.547,3.914,3.914,0,0,1,2.059-.543,3.508,3.508,0,0,1,2.73,1.094,4.444,4.444,0,0,1,1,3.1v.922H28.137a2.1,2.1,0,0,0,.66,1.328,2,2,0,0,0,1.395.5,2.437,2.437,0,0,0,2.039-.945l1.109,1.242a3.389,3.389,0,0,1-1.375,1.121A4.511,4.511,0,0,1,30.043,17.156Zm-.258-6.945a1.411,1.411,0,0,0-1.09.455,2.357,2.357,0,0,0-.535,1.3H31.3v-.181a1.681,1.681,0,0,0-.406-1.165A1.456,1.456,0,0,0,29.785,10.211Zm7.094-1.664.07.977a2.951,2.951,0,0,1,2.43-1.133,2.453,2.453,0,0,1,2,.789,3.682,3.682,0,0,1,.672,2.359V17H39.793V11.594a1.465,1.465,0,0,0-.312-1.043,1.4,1.4,0,0,0-1.039-.324,1.553,1.553,0,0,0-1.43.813V17H34.754V8.547Zm10.773,8.609a4.15,4.15,0,0,1-3.027-1.141,4.054,4.054,0,0,1-1.168-3.039v-.219a5.106,5.106,0,0,1,.492-2.277,3.612,3.612,0,0,1,1.395-1.547A3.914,3.914,0,0,1,47.4,8.391a3.508,3.508,0,0,1,2.73,1.094,4.444,4.444,0,0,1,1,3.1v.922H45.746a2.1,2.1,0,0,0,.66,1.328,2,2,0,0,0,1.395.5,2.437,2.437,0,0,0,2.039-.945l1.109,1.242a3.389,3.389,0,0,1-1.375,1.121A4.511,4.511,0,0,1,47.652,17.156Zm-.258-6.945a1.411,1.411,0,0,0-1.09.455,2.357,2.357,0,0,0-.535,1.3H48.91v-.181a1.681,1.681,0,0,0-.406-1.165A1.456,1.456,0,0,0,47.395,10.211Zm9.766.453a6.134,6.134,0,0,0-.812-.062,1.654,1.654,0,0,0-1.68.867V17H52.41V8.547h2.133l.063,1.008a2.092,2.092,0,0,1,1.883-1.164,2.366,2.366,0,0,1,.7.1Zm4.719,2.047a5.094,5.094,0,0,1,.887-3.148,2.877,2.877,0,0,1,2.426-1.172,2.589,2.589,0,0,1,2.039.922V5H69.5V17H67.457l-.109-.9a2.657,2.657,0,0,1-2.172,1.055,2.869,2.869,0,0,1-2.395-1.176A5.258,5.258,0,0,1,61.879,12.711Zm2.258.168a3.337,3.337,0,0,0,.414,1.823,1.349,1.349,0,0,0,1.2.634,1.511,1.511,0,0,0,1.477-.884V11.111a1.489,1.489,0,0,0-1.461-.884Q64.137,10.227,64.137,12.879ZM73.629,17H71.363V8.547h2.266ZM71.23,6.359a1.112,1.112,0,0,1,.34-.836,1.465,1.465,0,0,1,1.848,0,1.105,1.105,0,0,1,.344.836,1.108,1.108,0,0,1-.348.844,1.448,1.448,0,0,1-1.836,0A1.108,1.108,0,0,1,71.23,6.359ZM76.105,17V10.2H74.848V8.547h1.258V7.828a2.918,2.918,0,0,1,.816-2.207,3.162,3.162,0,0,1,2.285-.785,5.278,5.278,0,0,1,1.148.156l-.023,1.75a2.878,2.878,0,0,0-.687-.07q-1.273,0-1.273,1.2v.68h1.68V10.2h-1.68V17Zm9.008.156a4.15,4.15,0,0,1-3.027-1.141,4.054,4.054,0,0,1-1.168-3.039v-.219a5.106,5.106,0,0,1,.492-2.277A3.612,3.612,0,0,1,82.8,8.934a3.914,3.914,0,0,1,2.059-.543,3.508,3.508,0,0,1,2.73,1.094,4.444,4.444,0,0,1,1,3.1v.922H83.207a2.1,2.1,0,0,0,.66,1.328,2,2,0,0,0,1.395.5,2.437,2.437,0,0,0,2.039-.945l1.109,1.242a3.389,3.389,0,0,1-1.375,1.121A4.511,4.511,0,0,1,85.113,17.156Zm-.258-6.945a1.411,1.411,0,0,0-1.09.455,2.357,2.357,0,0,0-.535,1.3h3.141v-.181a1.681,1.681,0,0,0-.406-1.165A1.456,1.456,0,0,0,84.855,10.211Zm9.766.453a6.134,6.134,0,0,0-.812-.062,1.654,1.654,0,0,0-1.68.867V17H89.871V8.547H92l.063,1.008a2.092,2.092,0,0,1,1.883-1.164,2.366,2.366,0,0,1,.7.1ZM99.6,17.156a4.15,4.15,0,0,1-3.027-1.141A4.054,4.054,0,0,1,95.4,12.977v-.219a5.106,5.106,0,0,1,.492-2.277,3.612,3.612,0,0,1,1.395-1.547,3.914,3.914,0,0,1,2.059-.543,3.508,3.508,0,0,1,2.73,1.094,4.444,4.444,0,0,1,1,3.1v.922H97.691a2.1,2.1,0,0,0,.66,1.328,2,2,0,0,0,1.395.5,2.437,2.437,0,0,0,2.039-.945l1.109,1.242a3.389,3.389,0,0,1-1.375,1.121A4.511,4.511,0,0,1,99.6,17.156Zm-.258-6.945a1.411,1.411,0,0,0-1.09.455,2.357,2.357,0,0,0-.535,1.3h3.141v-.181a1.681,1.681,0,0,0-.406-1.165A1.456,1.456,0,0,0,99.34,10.211Zm7.094-1.664.07.977a2.951,2.951,0,0,1,2.43-1.133,2.453,2.453,0,0,1,2,.789,3.682,3.682,0,0,1,.672,2.359V17h-2.258V11.594a1.465,1.465,0,0,0-.312-1.043A1.4,1.4,0,0,0,108,10.227a1.553,1.553,0,0,0-1.43.813V17h-2.258V8.547Zm10.4,6.789a1.481,1.481,0,0,0,1.016-.344,1.2,1.2,0,0,0,.406-.914h2.117a2.9,2.9,0,0,1-.469,1.574,3.093,3.093,0,0,1-1.262,1.109,3.949,3.949,0,0,1-1.77.395A3.67,3.67,0,0,1,114.012,16a4.56,4.56,0,0,1-1.047-3.184v-.148A4.508,4.508,0,0,1,114,9.555a3.627,3.627,0,0,1,2.852-1.164,3.555,3.555,0,0,1,2.543.9,3.2,3.2,0,0,1,.973,2.4h-2.117a1.551,1.551,0,0,0-.406-1.072,1.51,1.51,0,0,0-2.223.163,3.333,3.333,0,0,0-.4,1.866v.235a3.375,3.375,0,0,0,.4,1.878A1.377,1.377,0,0,0,116.832,15.336ZM124.043,17h-2.266V8.547h2.266Zm-2.4-10.641a1.112,1.112,0,0,1,.34-.836,1.465,1.465,0,0,1,1.848,0,1.105,1.105,0,0,1,.344.836,1.108,1.108,0,0,1-.348.844,1.448,1.448,0,0,1-1.836,0A1.108,1.108,0,0,1,121.645,6.359ZM130.8,17a2.507,2.507,0,0,1-.227-.758,2.732,2.732,0,0,1-2.133.914,3,3,0,0,1-2.059-.719,2.312,2.312,0,0,1-.816-1.812,2.389,2.389,0,0,1,1-2.062,4.915,4.915,0,0,1,2.879-.727h1.039v-.484a1.393,1.393,0,0,0-.3-.937,1.183,1.183,0,0,0-.949-.352,1.345,1.345,0,0,0-.895.273.929.929,0,0,0-.324.75h-2.258a2.268,2.268,0,0,1,.453-1.359,3,3,0,0,1,1.281-.98,4.669,4.669,0,0,1,1.859-.355,3.689,3.689,0,0,1,2.48.785,2.747,2.747,0,0,1,.918,2.207v3.664a4.041,4.041,0,0,0,.336,1.82V17Zm-1.867-1.57a1.945,1.945,0,0,0,.922-.223,1.462,1.462,0,0,0,.625-.6V13.156h-.844q-1.7,0-1.8,1.172l-.008.133a.9.9,0,0,0,.3.7A1.153,1.153,0,0,0,128.934,15.43ZM41.012,37.211A4.025,4.025,0,0,1,39.656,40.1a4.76,4.76,0,0,1-3.223,1.055,4.281,4.281,0,0,1-3.441-1.473,6.038,6.038,0,0,1-1.254-4.043v-.7a6.819,6.819,0,0,1,.578-2.891,4.332,4.332,0,0,1,1.652-1.918,5.164,5.164,0,0,1,5.668.387,4.326,4.326,0,0,1,1.391,2.961H38.684a2.376,2.376,0,0,0-.613-1.6,2.271,2.271,0,0,0-1.605-.5,1.991,1.991,0,0,0-1.754.84,4.707,4.707,0,0,0-.6,2.605V35.7a5.038,5.038,0,0,0,.559,2.7,1.954,1.954,0,0,0,1.762.852,2.314,2.314,0,0,0,1.621-.5,2.241,2.241,0,0,0,.613-1.535Zm1.039-.516a5.013,5.013,0,0,1,.484-2.242A3.546,3.546,0,0,1,43.93,32.93a4.069,4.069,0,0,1,2.113-.539,3.849,3.849,0,0,1,2.793,1.047,4.2,4.2,0,0,1,1.207,2.844l.016.578a4.418,4.418,0,0,1-1.086,3.121,4.209,4.209,0,0,1-5.832,0,4.5,4.5,0,0,1-1.09-3.187Zm2.258.16a3.16,3.16,0,0,0,.453,1.843,1.628,1.628,0,0,0,2.578.008,3.457,3.457,0,0,0,.461-2.015,3.128,3.128,0,0,0-.461-1.831,1.5,1.5,0,0,0-1.3-.649,1.474,1.474,0,0,0-1.281.646A3.516,3.516,0,0,0,44.309,36.856Zm9.258-4.309.07.945a2.971,2.971,0,0,1,2.43-1.1,2.255,2.255,0,0,1,2.242,1.289,2.9,2.9,0,0,1,2.539-1.289,2.521,2.521,0,0,1,2.047.8,3.681,3.681,0,0,1,.672,2.41V41H61.3V35.609a1.61,1.61,0,0,0-.281-1.051,1.246,1.246,0,0,0-.992-.332,1.409,1.409,0,0,0-1.406.969l.008,5.8H56.371V35.617a1.59,1.59,0,0,0-.289-1.062,1.259,1.259,0,0,0-.984-.328,1.463,1.463,0,0,0-1.391.8V41H51.449V32.547Zm19.344,4.3a5.07,5.07,0,0,1-.887,3.129,2.843,2.843,0,0,1-2.395,1.176,2.633,2.633,0,0,1-2.07-.891V44.25H65.3v-11.7h2.094l.078.828a2.654,2.654,0,0,1,2.141-.984,2.862,2.862,0,0,1,2.43,1.156,5.207,5.207,0,0,1,.867,3.188Zm-2.258-.164a3.327,3.327,0,0,0-.418-1.82,1.361,1.361,0,0,0-1.215-.641,1.478,1.478,0,0,0-1.461.813V38.5a1.5,1.5,0,0,0,1.477.836Q70.652,39.336,70.652,36.688ZM78.2,41.156a4.15,4.15,0,0,1-3.027-1.141A4.054,4.054,0,0,1,74,36.977v-.219A5.106,5.106,0,0,1,74.5,34.48a3.612,3.612,0,0,1,1.395-1.547,3.914,3.914,0,0,1,2.059-.543,3.508,3.508,0,0,1,2.73,1.094,4.444,4.444,0,0,1,1,3.1v.922H76.293a2.1,2.1,0,0,0,.66,1.328,2,2,0,0,0,1.395.5,2.437,2.437,0,0,0,2.039-.945L81.5,39.633a3.389,3.389,0,0,1-1.375,1.121A4.511,4.511,0,0,1,78.2,41.156Zm-.258-6.945a1.411,1.411,0,0,0-1.09.455,2.357,2.357,0,0,0-.535,1.3h3.141v-.181a1.681,1.681,0,0,0-.406-1.165A1.456,1.456,0,0,0,77.941,34.211Zm7.719-3.742v2.078h1.445V34.2H85.66v4.219a1.007,1.007,0,0,0,.18.672.9.9,0,0,0,.688.2,3.6,3.6,0,0,0,.664-.055v1.711a4.648,4.648,0,0,1-1.367.2,2.156,2.156,0,0,1-2.422-2.4V34.2H82.168V32.547H83.4V30.469ZM90.746,41H88.48V32.547h2.266Zm-2.4-10.641a1.112,1.112,0,0,1,.34-.836,1.465,1.465,0,0,1,1.848,0,1.193,1.193,0,0,1,0,1.68,1.448,1.448,0,0,1-1.836,0A1.108,1.108,0,0,1,88.348,30.359Zm6.961.109v2.078h1.445V34.2H95.309v4.219a1.007,1.007,0,0,0,.18.672.9.9,0,0,0,.688.2,3.6,3.6,0,0,0,.664-.055v1.711a4.648,4.648,0,0,1-1.367.2,2.156,2.156,0,0,1-2.422-2.4V34.2H91.816V32.547h1.234V30.469ZM100.395,41H98.129V32.547h2.266ZM98,30.359a1.112,1.112,0,0,1,.34-.836,1.465,1.465,0,0,1,1.848,0,1.193,1.193,0,0,1,0,1.68,1.448,1.448,0,0,1-1.836,0A1.108,1.108,0,0,1,98,30.359Zm7.422,7.883,1.57-5.7h2.359L106.5,41H104.34l-2.852-8.453h2.359Zm9.7,2.758a2.507,2.507,0,0,1-.227-.758,2.732,2.732,0,0,1-2.133.914,3,3,0,0,1-2.059-.719,2.312,2.312,0,0,1-.816-1.812,2.389,2.389,0,0,1,1-2.062,4.915,4.915,0,0,1,2.879-.727H114.8v-.484a1.393,1.393,0,0,0-.3-.937,1.183,1.183,0,0,0-.949-.352,1.345,1.345,0,0,0-.895.273.929.929,0,0,0-.324.75h-2.258a2.268,2.268,0,0,1,.453-1.359,3,3,0,0,1,1.281-.98,4.669,4.669,0,0,1,1.859-.355,3.689,3.689,0,0,1,2.48.785,2.747,2.747,0,0,1,.918,2.207v3.664a4.041,4.041,0,0,0,.336,1.82V41Zm-1.867-1.57a1.945,1.945,0,0,0,.922-.223,1.462,1.462,0,0,0,.625-.6V37.156h-.844q-1.7,0-1.8,1.172l-.008.133a.9.9,0,0,0,.3.7A1.153,1.153,0,0,0,113.254,39.43ZM43.582,62.016A1.2,1.2,0,0,0,43.113,61a6.148,6.148,0,0,0-1.687-.75,11.963,11.963,0,0,1-1.93-.777,3.153,3.153,0,0,1-1.937-2.82A2.747,2.747,0,0,1,38.078,55a3.389,3.389,0,0,1,1.492-1.129,5.616,5.616,0,0,1,2.184-.406,5.112,5.112,0,0,1,2.172.441,3.458,3.458,0,0,1,1.48,1.246,3.261,3.261,0,0,1,.527,1.828H43.59A1.534,1.534,0,0,0,43.1,55.77a2.023,2.023,0,0,0-1.383-.434,2.162,2.162,0,0,0-1.336.363,1.146,1.146,0,0,0-.477.957,1.1,1.1,0,0,0,.559.93,6.311,6.311,0,0,0,1.645.7,7.106,7.106,0,0,1,2.914,1.492A2.972,2.972,0,0,1,45.934,62a2.737,2.737,0,0,1-1.117,2.316,4.891,4.891,0,0,1-3.008.84,5.808,5.808,0,0,1-2.391-.48,3.783,3.783,0,0,1-1.645-1.316,3.371,3.371,0,0,1-.566-1.937h2.352q0,1.883,2.25,1.883a2.189,2.189,0,0,0,1.3-.34A1.106,1.106,0,0,0,43.582,62.016Zm7.68,3.141a4.15,4.15,0,0,1-3.027-1.141,4.054,4.054,0,0,1-1.168-3.039v-.219a5.106,5.106,0,0,1,.492-2.277,3.612,3.612,0,0,1,1.395-1.547,3.914,3.914,0,0,1,2.059-.543,3.508,3.508,0,0,1,2.73,1.094,4.444,4.444,0,0,1,1,3.1v.922H49.355a2.1,2.1,0,0,0,.66,1.328,2,2,0,0,0,1.395.5,2.437,2.437,0,0,0,2.039-.945l1.109,1.242a3.389,3.389,0,0,1-1.375,1.121A4.511,4.511,0,0,1,51.262,65.156ZM51,58.211a1.411,1.411,0,0,0-1.09.455,2.357,2.357,0,0,0-.535,1.3H52.52v-.181a1.681,1.681,0,0,0-.406-1.165A1.456,1.456,0,0,0,51,58.211Zm9.766.453a6.134,6.134,0,0,0-.812-.062,1.654,1.654,0,0,0-1.68.867V65H56.02V56.547h2.133l.063,1.008A2.092,2.092,0,0,1,60.1,56.391a2.366,2.366,0,0,1,.7.1Zm8.586,4.672a1.481,1.481,0,0,0,1.016-.344,1.2,1.2,0,0,0,.406-.914h2.117a2.9,2.9,0,0,1-.469,1.574,3.093,3.093,0,0,1-1.262,1.109,3.949,3.949,0,0,1-1.77.395A3.67,3.67,0,0,1,66.535,64a4.56,4.56,0,0,1-1.047-3.184v-.148a4.508,4.508,0,0,1,1.039-3.117,3.627,3.627,0,0,1,2.852-1.164,3.555,3.555,0,0,1,2.543.9,3.2,3.2,0,0,1,.973,2.4H70.777a1.551,1.551,0,0,0-.406-1.072,1.51,1.51,0,0,0-2.223.163,3.333,3.333,0,0,0-.4,1.866v.235a3.375,3.375,0,0,0,.4,1.878A1.377,1.377,0,0,0,69.355,63.336ZM76.566,65H74.3V53h2.266Zm6.758,0a2.507,2.507,0,0,1-.227-.758,2.732,2.732,0,0,1-2.133.914,3,3,0,0,1-2.059-.719,2.312,2.312,0,0,1-.816-1.812,2.389,2.389,0,0,1,1-2.062,4.915,4.915,0,0,1,2.879-.727H83v-.484a1.393,1.393,0,0,0-.3-.937,1.183,1.183,0,0,0-.949-.352,1.345,1.345,0,0,0-.895.273.929.929,0,0,0-.324.75H78.277a2.268,2.268,0,0,1,.453-1.359,3,3,0,0,1,1.281-.98,4.669,4.669,0,0,1,1.859-.355,3.689,3.689,0,0,1,2.48.785,2.747,2.747,0,0,1,.918,2.207v3.664a4.041,4.041,0,0,0,.336,1.82V65Zm-1.867-1.57a1.945,1.945,0,0,0,.922-.223,1.462,1.462,0,0,0,.625-.6V61.156H82.16q-1.7,0-1.8,1.172l-.008.133a.9.9,0,0,0,.3.7A1.153,1.153,0,0,0,81.457,63.43Zm10.3-4.766a6.134,6.134,0,0,0-.812-.062,1.654,1.654,0,0,0-1.68.867V65H87V56.547h2.133l.063,1.008a2.092,2.092,0,0,1,1.883-1.164,2.366,2.366,0,0,1,.7.1ZM97.5,65a2.507,2.507,0,0,1-.227-.758,2.732,2.732,0,0,1-2.133.914,3,3,0,0,1-2.059-.719,2.312,2.312,0,0,1-.816-1.812,2.389,2.389,0,0,1,1-2.062,4.915,4.915,0,0,1,2.879-.727h1.039v-.484a1.393,1.393,0,0,0-.3-.937,1.183,1.183,0,0,0-.949-.352,1.345,1.345,0,0,0-.895.273.929.929,0,0,0-.324.75H92.457a2.268,2.268,0,0,1,.453-1.359,3,3,0,0,1,1.281-.98,4.669,4.669,0,0,1,1.859-.355,3.689,3.689,0,0,1,2.48.785,2.747,2.747,0,0,1,.918,2.207v3.664a4.041,4.041,0,0,0,.336,1.82V65Zm-1.867-1.57a1.945,1.945,0,0,0,.922-.223,1.462,1.462,0,0,0,.625-.6V61.156H96.34q-1.7,0-1.8,1.172l-.008.133a.9.9,0,0,0,.3.7A1.153,1.153,0,0,0,95.637,63.43ZM108.324,61.8l1.563-5.258h2.422l-3.4,9.766-.187.445a2.577,2.577,0,0,1-2.5,1.656,3.552,3.552,0,0,1-1-.148V66.555l.344.008a1.857,1.857,0,0,0,.957-.2,1.283,1.283,0,0,0,.5-.648l.266-.7-2.961-8.477h2.43ZM42.531,84.852a5.07,5.07,0,0,1-.887,3.129,2.843,2.843,0,0,1-2.395,1.176,2.633,2.633,0,0,1-2.07-.891V92.25H34.922v-11.7h2.094l.078.828a2.654,2.654,0,0,1,2.141-.984,2.862,2.862,0,0,1,2.43,1.156,5.207,5.207,0,0,1,.867,3.188Zm-2.258-.164a3.327,3.327,0,0,0-.418-1.82,1.361,1.361,0,0,0-1.215-.641,1.479,1.479,0,0,0-1.461.813V86.5a1.5,1.5,0,0,0,1.477.836Q40.273,87.336,40.273,84.688Zm7.547,4.469a4.15,4.15,0,0,1-3.027-1.141,4.054,4.054,0,0,1-1.168-3.039v-.219a5.106,5.106,0,0,1,.492-2.277,3.612,3.612,0,0,1,1.395-1.547,3.914,3.914,0,0,1,2.059-.543,3.508,3.508,0,0,1,2.73,1.094,4.444,4.444,0,0,1,1,3.1v.922H45.914a2.1,2.1,0,0,0,.66,1.328,2,2,0,0,0,1.395.5,2.437,2.437,0,0,0,2.039-.945l1.109,1.242a3.389,3.389,0,0,1-1.375,1.121A4.511,4.511,0,0,1,47.82,89.156Zm-.258-6.945a1.411,1.411,0,0,0-1.09.455,2.357,2.357,0,0,0-.535,1.3h3.141v-.181a1.681,1.681,0,0,0-.406-1.165A1.456,1.456,0,0,0,47.563,82.211Zm9.766.453a6.134,6.134,0,0,0-.812-.062,1.654,1.654,0,0,0-1.68.867V89H52.578V80.547h2.133l.063,1.008a2.092,2.092,0,0,1,1.883-1.164,2.366,2.366,0,0,1,.7.1Zm4.453,4.672a1.481,1.481,0,0,0,1.016-.344,1.2,1.2,0,0,0,.406-.914H65.32a2.9,2.9,0,0,1-.469,1.574,3.093,3.093,0,0,1-1.262,1.109,3.949,3.949,0,0,1-1.77.395A3.67,3.67,0,0,1,58.961,88a4.56,4.56,0,0,1-1.047-3.184v-.148a4.508,4.508,0,0,1,1.039-3.117A3.627,3.627,0,0,1,61.8,80.391a3.555,3.555,0,0,1,2.543.9,3.2,3.2,0,0,1,.973,2.4H63.2a1.551,1.551,0,0,0-.406-1.072,1.51,1.51,0,0,0-2.223.163,3.333,3.333,0,0,0-.4,1.866v.235a3.375,3.375,0,0,0,.4,1.878A1.377,1.377,0,0,0,61.781,87.336Zm8.719,1.82a4.15,4.15,0,0,1-3.027-1.141A4.054,4.054,0,0,1,66.3,84.977v-.219A5.106,5.106,0,0,1,66.8,82.48a3.612,3.612,0,0,1,1.395-1.547,3.914,3.914,0,0,1,2.059-.543,3.508,3.508,0,0,1,2.73,1.094,4.444,4.444,0,0,1,1,3.1v.922H68.594a2.1,2.1,0,0,0,.66,1.328,2,2,0,0,0,1.395.5,2.437,2.437,0,0,0,2.039-.945L73.8,87.633a3.389,3.389,0,0,1-1.375,1.121A4.511,4.511,0,0,1,70.5,89.156Zm-.258-6.945a1.411,1.411,0,0,0-1.09.455,2.357,2.357,0,0,0-.535,1.3h3.141v-.181a1.681,1.681,0,0,0-.406-1.165A1.456,1.456,0,0,0,70.242,82.211Zm12.625,2.641a5.07,5.07,0,0,1-.887,3.129,2.843,2.843,0,0,1-2.395,1.176,2.633,2.633,0,0,1-2.07-.891V92.25H75.258v-11.7h2.094l.078.828a2.654,2.654,0,0,1,2.141-.984A2.862,2.862,0,0,1,82,81.547a5.207,5.207,0,0,1,.867,3.188Zm-2.258-.164a3.327,3.327,0,0,0-.418-1.82,1.361,1.361,0,0,0-1.215-.641,1.478,1.478,0,0,0-1.461.813V86.5a1.5,1.5,0,0,0,1.477.836Q80.609,87.336,80.609,84.688Zm6.359-6.219v2.078h1.445V82.2H86.969v4.219a1.007,1.007,0,0,0,.18.672.9.9,0,0,0,.688.2,3.6,3.6,0,0,0,.664-.055v1.711a4.648,4.648,0,0,1-1.367.2,2.156,2.156,0,0,1-2.422-2.4V82.2H83.477V80.547h1.234V78.469ZM92.055,89H89.789V80.547h2.266Zm-2.4-10.641a1.112,1.112,0,0,1,.34-.836,1.465,1.465,0,0,1,1.848,0,1.193,1.193,0,0,1,0,1.68A1.448,1.448,0,0,1,90,79.2,1.108,1.108,0,0,1,89.656,78.359Zm11.875,6.492a5.119,5.119,0,0,1-.867,3.168,2.872,2.872,0,0,1-2.422,1.137,2.639,2.639,0,0,1-2.2-1.055l-.1.9H93.914V77h2.258v4.3a2.571,2.571,0,0,1,2.055-.914,2.9,2.9,0,0,1,2.426,1.137,5.126,5.126,0,0,1,.879,3.2Zm-2.258-.164a3.363,3.363,0,0,0-.406-1.871,1.374,1.374,0,0,0-1.211-.59,1.489,1.489,0,0,0-1.484.883v3.336a1.509,1.509,0,0,0,1.5.891,1.394,1.394,0,0,0,1.438-1.078A5.562,5.562,0,0,0,99.273,84.688ZM105.3,89h-2.266V77H105.3Zm5.75.156a4.15,4.15,0,0,1-3.027-1.141,4.054,4.054,0,0,1-1.168-3.039v-.219a5.106,5.106,0,0,1,.492-2.277,3.612,3.612,0,0,1,1.395-1.547,3.914,3.914,0,0,1,2.059-.543,3.508,3.508,0,0,1,2.73,1.094,4.444,4.444,0,0,1,1,3.1v.922h-5.383a2.1,2.1,0,0,0,.66,1.328,2,2,0,0,0,1.395.5,2.437,2.437,0,0,0,2.039-.945l1.109,1.242a3.389,3.389,0,0,1-1.375,1.121A4.511,4.511,0,0,1,111.055,89.156Zm-.258-6.945a1.411,1.411,0,0,0-1.09.455,2.357,2.357,0,0,0-.535,1.3h3.141v-.181a1.681,1.681,0,0,0-.406-1.165A1.456,1.456,0,0,0,110.8,82.211Z" transform="translate(45 15.799)" fill="#fff"/>
    </g>
  </g>
</svg>
