<svg xmlns="http://www.w3.org/2000/svg" xmlns:xlink="http://www.w3.org/1999/xlink" width="255" height="365.75" viewBox="0 0 255 365.75">
  <defs>
    <filter id="Rectángulo_38044" x="0" y="13.75" width="255" height="352" filterUnits="userSpaceOnUse">
      <feOffset dy="3" input="SourceAlpha"/>
      <feGaussianBlur stdDeviation="3" result="blur"/>
      <feFlood flood-opacity="0.161"/>
      <feComposite operator="in" in2="blur"/>
      <feComposite in="SourceGraphic"/>
    </filter>
  </defs>
  <g id="Grupo_158829" data-name="Grupo 158829" transform="translate(8.719 -4.114)">
    <g id="Grupo_141815" data-name="Grupo 141815" transform="translate(0 24.078)">
      <g transform="matrix(1, 0, 0, 1, -8.72, -19.96)" filter="url(#Rectángulo_38044)">
        <g id="Rectángulo_38044-2" data-name="Rectángulo 38044" transform="translate(9 19.75)" fill="#fff" stroke="#707070" stroke-width="1">
          <rect width="237" height="334" stroke="none"/>
          <rect x="0.5" y="0.5" width="236" height="333" fill="none"/>
        </g>
      </g>
      <g id="Rectángulo_38045" data-name="Rectángulo 38045" transform="translate(11.281 12.786)" fill="none" stroke="#707070" stroke-width="1">
        <rect width="216" height="309" stroke="none"/>
        <rect x="0.5" y="0.5" width="215" height="308" fill="none"/>
      </g>
      <path id="Trazado_156540" data-name="Trazado 156540" d="M3873.221-8750.878H3705.649v-27.271" transform="translate(-3676.568 8793.068)" fill="none" stroke="#707070" stroke-width="1"/>
      <path id="Trazado_156541" data-name="Trazado 156541" d="M3736.15-8610.807h-29.575v21.485" transform="translate(-3675.925 8909.113)" fill="none" stroke="#707070" stroke-width="1"/>
      <g id="Rectángulo_38046" data-name="Rectángulo 38046" transform="translate(31.281 65.786)" fill="#fff" stroke="#1169e3" stroke-width="1">
        <rect width="166" height="222" stroke="none"/>
        <rect x="0.5" y="0.5" width="165" height="221" fill="none"/>
      </g>
    </g>
    <path id="Trazado_157810" data-name="Trazado 157810" d="M18.762,10.617H17.245V14h-1.9V4.758h3.434a3.882,3.882,0,0,1,2.526.73,2.519,2.519,0,0,1,.889,2.063,2.843,2.843,0,0,1-.409,1.577,2.792,2.792,0,0,1-1.241,1.006l2,3.777V14H20.5ZM17.245,9.074h1.536a1.573,1.573,0,0,0,1.111-.365A1.3,1.3,0,0,0,20.286,7.7a1.4,1.4,0,0,0-.371-1.028A1.543,1.543,0,0,0,18.775,6.3h-1.53Zm9.433,5.053a3.372,3.372,0,0,1-2.46-.927,3.294,3.294,0,0,1-.949-2.469v-.178a4.149,4.149,0,0,1,.4-1.85A2.935,2.935,0,0,1,24.8,7.446,3.18,3.18,0,0,1,26.475,7a2.85,2.85,0,0,1,2.219.889,3.611,3.611,0,0,1,.809,2.52v.749H25.129a1.7,1.7,0,0,0,.536,1.079,1.621,1.621,0,0,0,1.133.406,1.98,1.98,0,0,0,1.657-.768l.9,1.009a2.754,2.754,0,0,1-1.117.911A3.665,3.665,0,0,1,26.678,14.127Zm-.209-5.643a1.146,1.146,0,0,0-.885.37,1.915,1.915,0,0,0-.435,1.058H27.7V9.765a1.366,1.366,0,0,0-.33-.947A1.183,1.183,0,0,0,26.469,8.484ZM32.74,5.443V7.132h1.174V8.478H32.74v3.428a.818.818,0,0,0,.146.546.733.733,0,0,0,.559.165,2.925,2.925,0,0,0,.54-.044v1.39a3.776,3.776,0,0,1-1.111.165,1.752,1.752,0,0,1-1.968-1.949v-3.7h-1V7.132h1V5.443ZM36.917,14H35.082V7.132h1.834Zm-.54-9.655h2L36.618,6.313H35.127Zm4.977,8.3a1.2,1.2,0,0,0,.825-.279.979.979,0,0,0,.33-.743h1.72a2.353,2.353,0,0,1-.381,1.279,2.513,2.513,0,0,1-1.025.9,3.208,3.208,0,0,1-1.438.321,2.982,2.982,0,0,1-2.323-.936,3.705,3.705,0,0,1-.851-2.587v-.121a3.663,3.663,0,0,1,.844-2.533A2.947,2.947,0,0,1,41.373,7a2.889,2.889,0,0,1,2.066.733,2.6,2.6,0,0,1,.79,1.952h-1.72a1.261,1.261,0,0,0-.33-.871,1.227,1.227,0,0,0-1.806.132,2.708,2.708,0,0,0-.327,1.516v.191a2.742,2.742,0,0,0,.324,1.526A1.119,1.119,0,0,0,41.354,12.648Zm8.036.654a2.3,2.3,0,0,1-1.879.825,2.17,2.17,0,0,1-1.685-.635,2.71,2.71,0,0,1-.594-1.86v-4.5h1.834v4.442q0,1.074.978,1.074A1.325,1.325,0,0,0,49.326,12V7.132h1.841V14H49.441Zm5.1.7H52.646V4.25h1.841Zm5.491,0a2.037,2.037,0,0,1-.184-.616,2.22,2.22,0,0,1-1.733.743,2.439,2.439,0,0,1-1.673-.584,1.878,1.878,0,0,1-.663-1.473,1.941,1.941,0,0,1,.809-1.676,3.994,3.994,0,0,1,2.339-.59h.844V9.411a1.132,1.132,0,0,0-.244-.762.961.961,0,0,0-.771-.286,1.093,1.093,0,0,0-.727.222.755.755,0,0,0-.263.609H55.877a1.843,1.843,0,0,1,.368-1.1,2.434,2.434,0,0,1,1.041-.8A3.794,3.794,0,0,1,58.8,7a3,3,0,0,1,2.015.638,2.232,2.232,0,0,1,.746,1.793v2.977a3.284,3.284,0,0,0,.273,1.479V14Zm-1.517-1.276a1.58,1.58,0,0,0,.749-.181,1.188,1.188,0,0,0,.508-.486V10.877h-.686q-1.377,0-1.466.952l-.006.108a.734.734,0,0,0,.241.565A.937.937,0,0,0,58.461,12.724Zm9.464-5.592.057.768A2.414,2.414,0,0,1,69.956,7a1.832,1.832,0,0,1,1.822,1.047A2.358,2.358,0,0,1,73.841,7a2.049,2.049,0,0,1,1.663.651,2.991,2.991,0,0,1,.546,1.958V14H74.209V9.62a1.308,1.308,0,0,0-.229-.854,1.013,1.013,0,0,0-.806-.27,1.145,1.145,0,0,0-1.143.787L72.038,14H70.2V9.626a1.292,1.292,0,0,0-.235-.863,1.023,1.023,0,0,0-.8-.267,1.189,1.189,0,0,0-1.13.647V14H66.2V7.132ZM81.439,14a2.037,2.037,0,0,1-.184-.616,2.22,2.22,0,0,1-1.733.743,2.439,2.439,0,0,1-1.673-.584,1.878,1.878,0,0,1-.663-1.473A1.941,1.941,0,0,1,78,10.395a3.994,3.994,0,0,1,2.339-.59h.844V9.411a1.132,1.132,0,0,0-.244-.762.961.961,0,0,0-.771-.286,1.093,1.093,0,0,0-.727.222.755.755,0,0,0-.263.609H77.339a1.843,1.843,0,0,1,.368-1.1,2.434,2.434,0,0,1,1.041-.8A3.794,3.794,0,0,1,80.259,7a3,3,0,0,1,2.015.638,2.232,2.232,0,0,1,.746,1.793v2.977a3.284,3.284,0,0,0,.273,1.479V14Zm-1.517-1.276a1.58,1.58,0,0,0,.749-.181,1.188,1.188,0,0,0,.508-.486V10.877h-.686q-1.377,0-1.466.952l-.006.108a.734.734,0,0,0,.241.565A.937.937,0,0,0,79.922,12.724Zm6.2-5.592.057.793A2.4,2.4,0,0,1,88.149,7a1.993,1.993,0,0,1,1.625.641,2.991,2.991,0,0,1,.546,1.917V14H88.485V9.607a1.19,1.19,0,0,0-.254-.847,1.137,1.137,0,0,0-.844-.263,1.262,1.262,0,0,0-1.162.66V14H84.391V7.132Zm9.706,6.17a2.3,2.3,0,0,1-1.879.825,2.17,2.17,0,0,1-1.685-.635,2.71,2.71,0,0,1-.594-1.86v-4.5H93.5v4.442q0,1.074.978,1.074A1.325,1.325,0,0,0,95.76,12V7.132H97.6V14H95.874Zm6.881-1.2a.591.591,0,0,0-.333-.53,3.785,3.785,0,0,0-1.07-.346q-2.45-.514-2.45-2.082a1.887,1.887,0,0,1,.759-1.527A3.06,3.06,0,0,1,101.593,7a3.293,3.293,0,0,1,2.092.616,1.94,1.94,0,0,1,.784,1.6h-1.834a.888.888,0,0,0-.254-.651,1.075,1.075,0,0,0-.793-.257,1.1,1.1,0,0,0-.717.209.661.661,0,0,0-.254.533.565.565,0,0,0,.289.492,2.971,2.971,0,0,0,.974.324,7.958,7.958,0,0,1,1.155.308,1.9,1.9,0,0,1,1.454,1.847,1.792,1.792,0,0,1-.806,1.52,3.478,3.478,0,0,1-2.082.581,3.632,3.632,0,0,1-1.533-.308,2.572,2.572,0,0,1-1.051-.844,1.962,1.962,0,0,1-.381-1.158h1.739a.958.958,0,0,0,.362.749,1.435,1.435,0,0,0,.9.26,1.328,1.328,0,0,0,.8-.2A.622.622,0,0,0,102.7,12.1Zm5.821.546a1.2,1.2,0,0,0,.825-.279.979.979,0,0,0,.33-.743h1.72a2.353,2.353,0,0,1-.381,1.279,2.513,2.513,0,0,1-1.025.9,3.208,3.208,0,0,1-1.438.321,2.982,2.982,0,0,1-2.323-.936,3.705,3.705,0,0,1-.851-2.587v-.121a3.663,3.663,0,0,1,.844-2.533A2.947,2.947,0,0,1,108.544,7a2.889,2.889,0,0,1,2.066.733,2.6,2.6,0,0,1,.79,1.952h-1.72a1.261,1.261,0,0,0-.33-.871,1.227,1.227,0,0,0-1.806.132,2.708,2.708,0,0,0-.327,1.516v.191a2.742,2.742,0,0,0,.324,1.526A1.119,1.119,0,0,0,108.525,12.648Zm7.782-3.8a4.984,4.984,0,0,0-.66-.051,1.344,1.344,0,0,0-1.365.7V14h-1.834V7.132h1.733l.051.819A1.7,1.7,0,0,1,115.761,7a1.922,1.922,0,0,1,.571.083ZM119.125,14h-1.841V7.132h1.841Zm-1.949-8.646a.9.9,0,0,1,.276-.679,1.19,1.19,0,0,1,1.5,0,.9.9,0,0,1,.279.679.9.9,0,0,1-.282.686,1.177,1.177,0,0,1-1.492,0A.9.9,0,0,1,117.177,5.354Zm5.656.089V7.132h1.174V8.478h-1.174v3.428a.818.818,0,0,0,.146.546.733.733,0,0,0,.559.165,2.926,2.926,0,0,0,.54-.044v1.39a3.777,3.777,0,0,1-1.111.165A1.752,1.752,0,0,1,121,12.178v-3.7h-1V7.132h1V5.443Zm1.72,5.059a4.073,4.073,0,0,1,.394-1.822,2.881,2.881,0,0,1,1.133-1.238A3.306,3.306,0,0,1,127.8,7a3.128,3.128,0,0,1,2.269.851,3.414,3.414,0,0,1,.981,2.311l.013.47a3.59,3.59,0,0,1-.882,2.536,3.42,3.42,0,0,1-4.739,0,3.653,3.653,0,0,1-.885-2.59Zm1.834.13a2.567,2.567,0,0,0,.368,1.5,1.323,1.323,0,0,0,2.095.006,2.809,2.809,0,0,0,.375-1.637,2.542,2.542,0,0,0-.375-1.488,1.217,1.217,0,0,0-1.054-.528,1.2,1.2,0,0,0-1.041.524A2.857,2.857,0,0,0,126.387,10.633Z" transform="translate(45.281 -0.136)" fill="#1169e3"/>
  </g>
</svg>
