<svg xmlns="http://www.w3.org/2000/svg" xmlns:xlink="http://www.w3.org/1999/xlink" width="1240" height="479.642" viewBox="0 0 1240 479.642">
  <defs>
    <clipPath id="clip-path">
      <rect id="Rectángulo_35731" data-name="Rectángulo 35731" width="1240" height="479.642" rx="10" fill="none"/>
    </clipPath>
    <clipPath id="clip-path-2">
      <rect id="Rectángulo_38474" data-name="Rectángulo 38474" width="519.012" height="454.652" fill="none"/>
    </clipPath>
  </defs>
  <g id="Grupo_159414" data-name="Grupo 159414" transform="translate(-180 -3170.441)">
    <g id="Grupo_131449" data-name="Grupo 131449" transform="translate(180 3170.441)">
      <g id="Grupo_131448" data-name="Grupo 131448" clip-path="url(#clip-path)">
        <g id="Enmascarar_grupo_70" data-name="Enmascarar grupo 70">
          <g id="Grupo_131152" data-name="Grupo 131152">
            <path id="Rectángulo_35714" data-name="Rectángulo 35714" d="M1240,0H0V479.642H1240Z" fill="#b0c8cb"/>
            <path id="Trazado_123569" data-name="Trazado 123569" d="M0,203.669s55.82,11.822,138.323-52.258c42.116-35.516,86.557-70.785,138.488-90.206,61.734-23.094,128.733-20.625,192.006-5.363,58.736,14.168,115.215,38.264,171.127,60.679,106.871,42.845,213.941,90.654,326.8,115.131,81.638,17.7,184.7,24.881,242.094-49.365,14.192-18.36,24.177-39.737,31.164-61.861V478.855H.035C.035,390.96,0,203.669,0,203.669Z" transform="translate(0 0.431)" fill="#fff" opacity="0.36" style="isolation: isolate"/>
            <path id="Trazado_123570" data-name="Trazado 123570" d="M1239.979,418.442c-210.437,99.168-511.1-52.759-716.952-61.854S237.173,457.565,0,382.6v93.2H1239.979Z" transform="translate(0.021 3.479)" fill="#fff" opacity="0.39" style="isolation: isolate"/>
          </g>
        </g>
      </g>
    </g>
    <path id="Trazado_157960" data-name="Trazado 157960" d="M12,0H342.43a12,12,0,0,1,12,12V58.173a12,12,0,0,1-12,12H12a12,12,0,0,1-12-12V12A12,12,0,0,1,12,0Z" transform="translate(850 3400.234)" fill="#1169e3"/>
    <path id="Trazado_157961" data-name="Trazado 157961" d="M4.594,11.688a4.58,4.58,0,0,1-.168,1.324,2.959,2.959,0,0,1-.535.957q-.375.461-1.094,1.215a2.674,2.674,0,0,0-.8,1.527L1.977,17a1.752,1.752,0,0,0,.453,1.3,1.775,1.775,0,0,0,1.3.449A1.821,1.821,0,0,0,5,18.309a1.48,1.48,0,0,0,.488-1.152H6.938a2.7,2.7,0,0,1-.895,2.055,3.3,3.3,0,0,1-2.309.8,3.326,3.326,0,0,1-2.367-.785,2.85,2.85,0,0,1-.836-2.184,4.076,4.076,0,0,1,1.25-2.719l.852-.883a2.638,2.638,0,0,0,.516-1.75Zm.063-2.473a.869.869,0,0,1-.215.6.8.8,0,0,1-.637.243.817.817,0,0,1-.641-.243.86.86,0,0,1-.219-.6.821.821,0,0,1,.219-.581A.832.832,0,0,1,3.8,8.4a.819.819,0,0,1,.637.235A.83.83,0,0,1,4.656,9.215ZM17.578,11.68a7.026,7.026,0,0,1-.523,2.84,4.388,4.388,0,0,1-1.469,1.863l2.031,1.594-1.023.945-2.4-1.906a4.88,4.88,0,0,1-1.187.141,4.244,4.244,0,0,1-4-2.543,6.752,6.752,0,0,1-.59-2.832v-.82a6.953,6.953,0,0,1,.57-2.9,4.218,4.218,0,0,1,4-2.594,4.4,4.4,0,0,1,2.418.664,4.284,4.284,0,0,1,1.605,1.91,7.016,7.016,0,0,1,.563,2.91Zm-1.5-.734a5.162,5.162,0,0,0-.8-3.1,2.666,2.666,0,0,0-2.285-1.09,2.643,2.643,0,0,0-2.23,1.082,5,5,0,0,0-.84,3v.836a5.147,5.147,0,0,0,.816,3.078,2.646,2.646,0,0,0,2.27,1.125,2.652,2.652,0,0,0,2.25-1.059,5.079,5.079,0,0,0,.82-3.035Zm8.8,5.219a3.07,3.07,0,0,1-2.477.992,2.628,2.628,0,0,1-2.059-.785,3.4,3.4,0,0,1-.715-2.324v-5.5h1.445v5.461q0,1.922,1.563,1.922a2.163,2.163,0,0,0,2.2-1.234V8.547h1.445V17H24.914ZM30.055,17H28.609V8.547h1.445ZM28.492,6.3a.863.863,0,0,1,.215-.594.807.807,0,0,1,.637-.242.819.819,0,0,1,.641.242A.854.854,0,0,1,30.2,6.3a.826.826,0,0,1-.219.586.834.834,0,0,1-.641.234.821.821,0,0,1-.637-.234A.834.834,0,0,1,28.492,6.3Zm7.383,10.852a3.693,3.693,0,0,1-2.8-1.129A4.19,4.19,0,0,1,32,13.008v-.266a5.073,5.073,0,0,1,.48-2.246,3.748,3.748,0,0,1,1.344-1.547A3.378,3.378,0,0,1,35.7,8.391a3.166,3.166,0,0,1,2.563,1.086,4.7,4.7,0,0,1,.914,3.109v.6H33.445a3,3,0,0,0,.73,2.02,2.3,2.3,0,0,0,1.777.77,2.517,2.517,0,0,0,1.3-.312,3.259,3.259,0,0,0,.93-.828l.883.688A3.55,3.55,0,0,1,35.875,17.156ZM35.7,9.578a1.928,1.928,0,0,0-1.469.637A3.1,3.1,0,0,0,33.492,12h4.234v-.109a2.753,2.753,0,0,0-.594-1.707A1.815,1.815,0,0,0,35.7,9.578Zm9.234.266a4.331,4.331,0,0,0-.711-.055A1.9,1.9,0,0,0,42.289,11v6H40.844V8.547H42.25l.023.977a2.251,2.251,0,0,1,2.016-1.133,1.477,1.477,0,0,1,.641.109Zm4.836,7.313a3.693,3.693,0,0,1-2.8-1.129,4.19,4.19,0,0,1-1.078-3.02v-.266a5.073,5.073,0,0,1,.48-2.246,3.748,3.748,0,0,1,1.344-1.547,3.378,3.378,0,0,1,1.871-.559,3.166,3.166,0,0,1,2.563,1.086,4.7,4.7,0,0,1,.914,3.109v.6H47.336a3,3,0,0,0,.73,2.02,2.3,2.3,0,0,0,1.777.77,2.517,2.517,0,0,0,1.3-.312,3.259,3.259,0,0,0,.93-.828l.883.688A3.55,3.55,0,0,1,49.766,17.156Zm-.18-7.578a1.928,1.928,0,0,0-1.469.637A3.1,3.1,0,0,0,47.383,12h4.234v-.109a2.753,2.753,0,0,0-.594-1.707A1.815,1.815,0,0,0,49.586,9.578Zm10.07,5.18a1.064,1.064,0,0,0-.441-.91,4.249,4.249,0,0,0-1.539-.559,7.277,7.277,0,0,1-1.742-.562,2.479,2.479,0,0,1-.953-.781,1.869,1.869,0,0,1-.309-1.078,2.193,2.193,0,0,1,.879-1.758A3.432,3.432,0,0,1,57.8,8.391a3.532,3.532,0,0,1,2.332.742,2.357,2.357,0,0,1,.895,1.9H59.57a1.3,1.3,0,0,0-.5-1.023,1.888,1.888,0,0,0-1.27-.43,1.976,1.976,0,0,0-1.234.344,1.082,1.082,0,0,0-.445.9.877.877,0,0,0,.414.789,5.1,5.1,0,0,0,1.5.508,7.8,7.8,0,0,1,1.754.578,2.558,2.558,0,0,1,1,.809,1.988,1.988,0,0,1,.324,1.152,2.163,2.163,0,0,1-.906,1.816,3.8,3.8,0,0,1-2.352.684,4.257,4.257,0,0,1-1.8-.359,2.922,2.922,0,0,1-1.223-1,2.42,2.42,0,0,1-.441-1.395h1.445a1.5,1.5,0,0,0,.582,1.152,2.258,2.258,0,0,0,1.434.426,2.331,2.331,0,0,0,1.316-.332A1.02,1.02,0,0,0,59.656,14.758Zm12.211,0a1.064,1.064,0,0,0-.441-.91,4.249,4.249,0,0,0-1.539-.559,7.277,7.277,0,0,1-1.742-.562,2.479,2.479,0,0,1-.953-.781,1.869,1.869,0,0,1-.309-1.078,2.193,2.193,0,0,1,.879-1.758,3.432,3.432,0,0,1,2.246-.719,3.532,3.532,0,0,1,2.332.742,2.357,2.357,0,0,1,.895,1.9H71.781a1.3,1.3,0,0,0-.5-1.023,1.888,1.888,0,0,0-1.27-.43,1.976,1.976,0,0,0-1.234.344,1.082,1.082,0,0,0-.445.9.877.877,0,0,0,.414.789,5.1,5.1,0,0,0,1.5.508,7.8,7.8,0,0,1,1.754.578,2.558,2.558,0,0,1,1,.809,1.988,1.988,0,0,1,.324,1.152,2.163,2.163,0,0,1-.906,1.816,3.8,3.8,0,0,1-2.352.684,4.257,4.257,0,0,1-1.8-.359,2.922,2.922,0,0,1-1.223-1,2.42,2.42,0,0,1-.441-1.395h1.445a1.5,1.5,0,0,0,.582,1.152,2.258,2.258,0,0,0,1.434.426,2.331,2.331,0,0,0,1.316-.332A1.02,1.02,0,0,0,71.867,14.758ZM80.414,17a3.036,3.036,0,0,1-.2-.891A3.225,3.225,0,0,1,77.8,17.156a2.984,2.984,0,0,1-2.051-.707,2.288,2.288,0,0,1-.8-1.793,2.39,2.39,0,0,1,1-2.051,4.733,4.733,0,0,1,2.824-.73h1.406v-.664A1.623,1.623,0,0,0,79.734,10,1.821,1.821,0,0,0,78.4,9.555a2.108,2.108,0,0,0-1.3.391,1.151,1.151,0,0,0-.523.945H75.125a2,2,0,0,1,.449-1.223,3.066,3.066,0,0,1,1.219-.934,4.1,4.1,0,0,1,1.691-.344,3.342,3.342,0,0,1,2.289.73,2.635,2.635,0,0,1,.859,2.012v3.891a4.757,4.757,0,0,0,.3,1.852V17Zm-2.4-1.1a2.54,2.54,0,0,0,1.289-.352,2.127,2.127,0,0,0,.883-.914V12.9H79.055q-2.656,0-2.656,1.555a1.316,1.316,0,0,0,.453,1.063A1.742,1.742,0,0,0,78.016,15.9Zm13.039-3.031a5.026,5.026,0,0,1-.891,3.113,2.846,2.846,0,0,1-2.391,1.176A2.947,2.947,0,0,1,85.3,16.023l-.07.977H83.9V5h1.445V9.477a2.93,2.93,0,0,1,2.414-1.086,2.863,2.863,0,0,1,2.418,1.164,5.177,5.177,0,0,1,.879,3.188ZM89.609,12.7a3.906,3.906,0,0,0-.57-2.281,1.888,1.888,0,0,0-1.641-.8,2.122,2.122,0,0,0-2.055,1.328V14.6a2.181,2.181,0,0,0,2.07,1.328,1.878,1.878,0,0,0,1.617-.8A4.153,4.153,0,0,0,89.609,12.7Zm6.773,4.453a3.693,3.693,0,0,1-2.8-1.129,4.19,4.19,0,0,1-1.078-3.02v-.266a5.073,5.073,0,0,1,.48-2.246,3.748,3.748,0,0,1,1.344-1.547A3.378,3.378,0,0,1,96.2,8.391a3.166,3.166,0,0,1,2.563,1.086,4.7,4.7,0,0,1,.914,3.109v.6H93.953a3,3,0,0,0,.73,2.02,2.3,2.3,0,0,0,1.777.77,2.517,2.517,0,0,0,1.3-.312,3.259,3.259,0,0,0,.93-.828l.883.688A3.55,3.55,0,0,1,96.383,17.156ZM96.2,9.578a1.928,1.928,0,0,0-1.469.637A3.1,3.1,0,0,0,94,12h4.234v-.109a2.753,2.753,0,0,0-.594-1.707A1.815,1.815,0,0,0,96.2,9.578Zm9.234.266a4.331,4.331,0,0,0-.711-.055A1.9,1.9,0,0,0,102.8,11v6h-1.445V8.547h1.406l.023.977A2.251,2.251,0,0,1,104.8,8.391a1.477,1.477,0,0,1,.641.109Zm8.68,6.133a2.082,2.082,0,0,0,1.352-.469,1.649,1.649,0,0,0,.641-1.172h1.367a2.621,2.621,0,0,1-.5,1.383,3.293,3.293,0,0,1-1.23,1.047,3.55,3.55,0,0,1-1.629.391A3.482,3.482,0,0,1,111.371,16a4.59,4.59,0,0,1-1.02-3.152v-.242a5.089,5.089,0,0,1,.453-2.2,3.451,3.451,0,0,1,1.3-1.492,3.7,3.7,0,0,1,2-.531,3.39,3.39,0,0,1,2.363.852,3.043,3.043,0,0,1,1,2.211h-1.367a1.992,1.992,0,0,0-.621-1.348,1.932,1.932,0,0,0-1.379-.527,2.023,2.023,0,0,0-1.707.793,3.724,3.724,0,0,0-.605,2.293v.273a3.65,3.65,0,0,0,.6,2.25A2.033,2.033,0,0,0,114.117,15.977Zm10.2.188a3.07,3.07,0,0,1-2.477.992,2.628,2.628,0,0,1-2.059-.785,3.4,3.4,0,0,1-.715-2.324v-5.5h1.445v5.461q0,1.922,1.563,1.922a2.163,2.163,0,0,0,2.2-1.234V8.547h1.445V17h-1.375Zm8.82.836a3.036,3.036,0,0,1-.2-.891,3.225,3.225,0,0,1-2.406,1.047,2.984,2.984,0,0,1-2.051-.707,2.288,2.288,0,0,1-.8-1.793,2.39,2.39,0,0,1,1-2.051,4.733,4.733,0,0,1,2.824-.73h1.406v-.664A1.623,1.623,0,0,0,132.461,10a1.821,1.821,0,0,0-1.336-.449,2.107,2.107,0,0,0-1.3.391,1.151,1.151,0,0,0-.523.945h-1.453a2,2,0,0,1,.449-1.223,3.066,3.066,0,0,1,1.219-.934,4.1,4.1,0,0,1,1.691-.344,3.342,3.342,0,0,1,2.289.73,2.635,2.635,0,0,1,.859,2.012v3.891a4.757,4.757,0,0,0,.3,1.852V17Zm-2.4-1.1a2.54,2.54,0,0,0,1.289-.352,2.127,2.127,0,0,0,.883-.914V12.9h-1.133q-2.656,0-2.656,1.555a1.316,1.316,0,0,0,.453,1.063A1.742,1.742,0,0,0,130.742,15.9ZM138.2,17H136.75V5H138.2Zm5.82.156a3.693,3.693,0,0,1-2.8-1.129,4.19,4.19,0,0,1-1.078-3.02v-.266a5.073,5.073,0,0,1,.48-2.246,3.748,3.748,0,0,1,1.344-1.547,3.378,3.378,0,0,1,1.871-.559A3.166,3.166,0,0,1,146.4,9.477a4.7,4.7,0,0,1,.914,3.109v.6h-5.727a3,3,0,0,0,.73,2.02,2.3,2.3,0,0,0,1.777.77,2.517,2.517,0,0,0,1.3-.312,3.258,3.258,0,0,0,.93-.828l.883.688A3.55,3.55,0,0,1,144.016,17.156Zm-.18-7.578a1.928,1.928,0,0,0-1.469.637A3.1,3.1,0,0,0,141.633,12h4.234v-.109a2.753,2.753,0,0,0-.594-1.707A1.815,1.815,0,0,0,143.836,9.578Zm10.07,5.18a1.064,1.064,0,0,0-.441-.91,4.249,4.249,0,0,0-1.539-.559,7.277,7.277,0,0,1-1.742-.562,2.479,2.479,0,0,1-.953-.781,1.869,1.869,0,0,1-.309-1.078,2.193,2.193,0,0,1,.879-1.758,3.432,3.432,0,0,1,2.246-.719,3.532,3.532,0,0,1,2.332.742,2.357,2.357,0,0,1,.895,1.9H153.82a1.3,1.3,0,0,0-.5-1.023,1.888,1.888,0,0,0-1.27-.43,1.976,1.976,0,0,0-1.234.344,1.082,1.082,0,0,0-.445.9.877.877,0,0,0,.414.789,5.1,5.1,0,0,0,1.5.508,7.8,7.8,0,0,1,1.754.578,2.558,2.558,0,0,1,1,.809,1.988,1.988,0,0,1,.324,1.152,2.163,2.163,0,0,1-.906,1.816,3.8,3.8,0,0,1-2.352.684,4.257,4.257,0,0,1-1.8-.359,2.922,2.922,0,0,1-1.223-1,2.42,2.42,0,0,1-.441-1.395h1.445a1.5,1.5,0,0,0,.582,1.152,2.258,2.258,0,0,0,1.434.426,2.331,2.331,0,0,0,1.316-.332A1.02,1.02,0,0,0,153.906,14.758Zm12.211,0a1.064,1.064,0,0,0-.441-.91,4.249,4.249,0,0,0-1.539-.559,7.277,7.277,0,0,1-1.742-.562,2.479,2.479,0,0,1-.953-.781,1.869,1.869,0,0,1-.309-1.078,2.193,2.193,0,0,1,.879-1.758,3.432,3.432,0,0,1,2.246-.719,3.532,3.532,0,0,1,2.332.742,2.357,2.357,0,0,1,.895,1.9h-1.453a1.3,1.3,0,0,0-.5-1.023,1.888,1.888,0,0,0-1.27-.43,1.976,1.976,0,0,0-1.234.344,1.082,1.082,0,0,0-.445.9.877.877,0,0,0,.414.789,5.1,5.1,0,0,0,1.5.508,7.8,7.8,0,0,1,1.754.578,2.558,2.558,0,0,1,1,.809,1.988,1.988,0,0,1,.324,1.152,2.163,2.163,0,0,1-.906,1.816,3.8,3.8,0,0,1-2.352.684,4.257,4.257,0,0,1-1.8-.359,2.922,2.922,0,0,1-1.223-1,2.42,2.42,0,0,1-.441-1.395h1.445a1.5,1.5,0,0,0,.582,1.152,2.258,2.258,0,0,0,1.434.426,2.331,2.331,0,0,0,1.316-.332A1.02,1.02,0,0,0,166.117,14.758Zm2.945-2.062a4.993,4.993,0,0,1,.488-2.234A3.642,3.642,0,0,1,170.91,8.93a3.7,3.7,0,0,1,1.988-.539,3.565,3.565,0,0,1,2.793,1.2,4.6,4.6,0,0,1,1.066,3.18v.1a5.036,5.036,0,0,1-.473,2.215,3.589,3.589,0,0,1-1.352,1.527,3.743,3.743,0,0,1-2.02.547,3.556,3.556,0,0,1-2.785-1.2,4.575,4.575,0,0,1-1.066-3.164Zm1.453.172a3.616,3.616,0,0,0,.652,2.258,2.211,2.211,0,0,0,3.5-.012,3.954,3.954,0,0,0,.648-2.418,3.61,3.61,0,0,0-.66-2.254,2.1,2.1,0,0,0-1.754-.863,2.075,2.075,0,0,0-1.727.852A3.925,3.925,0,0,0,170.516,12.867Zm9.422-4.32.047,1.063a3.08,3.08,0,0,1,2.531-1.219q2.68,0,2.7,3.023V17h-1.445V11.406a1.946,1.946,0,0,0-.418-1.352,1.675,1.675,0,0,0-1.277-.437,2.086,2.086,0,0,0-1.234.375,2.546,2.546,0,0,0-.828.984V17H178.57V8.547ZM192.93,17h-1.445V5h1.445Zm7.531,0a3.036,3.036,0,0,1-.2-.891,3.225,3.225,0,0,1-2.406,1.047,2.984,2.984,0,0,1-2.051-.707,2.287,2.287,0,0,1-.8-1.793,2.39,2.39,0,0,1,1-2.051,4.733,4.733,0,0,1,2.824-.73h1.406v-.664A1.623,1.623,0,0,0,199.781,10a1.821,1.821,0,0,0-1.336-.449,2.107,2.107,0,0,0-1.3.391,1.151,1.151,0,0,0-.523.945h-1.453a2,2,0,0,1,.449-1.223,3.066,3.066,0,0,1,1.219-.934,4.1,4.1,0,0,1,1.691-.344,3.342,3.342,0,0,1,2.289.73,2.635,2.635,0,0,1,.859,2.012v3.891a4.757,4.757,0,0,0,.3,1.852V17Zm-2.4-1.1a2.54,2.54,0,0,0,1.289-.352,2.127,2.127,0,0,0,.883-.914V12.9H199.1q-2.656,0-2.656,1.555a1.316,1.316,0,0,0,.453,1.063A1.742,1.742,0,0,0,198.063,15.9Zm10.8-1.141a1.064,1.064,0,0,0-.441-.91,4.249,4.249,0,0,0-1.539-.559,7.277,7.277,0,0,1-1.742-.562,2.479,2.479,0,0,1-.953-.781,1.869,1.869,0,0,1-.309-1.078,2.193,2.193,0,0,1,.879-1.758,3.432,3.432,0,0,1,2.246-.719,3.532,3.532,0,0,1,2.332.742,2.357,2.357,0,0,1,.895,1.9h-1.453a1.3,1.3,0,0,0-.5-1.023,1.888,1.888,0,0,0-1.27-.43,1.976,1.976,0,0,0-1.234.344,1.082,1.082,0,0,0-.445.9.877.877,0,0,0,.414.789,5.1,5.1,0,0,0,1.5.508,7.8,7.8,0,0,1,1.754.578,2.558,2.558,0,0,1,1,.809,1.988,1.988,0,0,1,.324,1.152,2.163,2.163,0,0,1-.906,1.816,3.8,3.8,0,0,1-2.352.684,4.257,4.257,0,0,1-1.8-.359,2.922,2.922,0,0,1-1.223-1,2.42,2.42,0,0,1-.441-1.395h1.445a1.5,1.5,0,0,0,.582,1.152,2.258,2.258,0,0,0,1.434.426,2.331,2.331,0,0,0,1.316-.332A1.02,1.02,0,0,0,208.867,14.758Zm10.68,1.219a2.082,2.082,0,0,0,1.352-.469,1.649,1.649,0,0,0,.641-1.172h1.367a2.621,2.621,0,0,1-.5,1.383,3.293,3.293,0,0,1-1.23,1.047,3.55,3.55,0,0,1-1.629.391A3.482,3.482,0,0,1,216.8,16a4.59,4.59,0,0,1-1.02-3.152v-.242a5.089,5.089,0,0,1,.453-2.2,3.451,3.451,0,0,1,1.3-1.492,3.7,3.7,0,0,1,2-.531,3.39,3.39,0,0,1,2.363.852,3.043,3.043,0,0,1,1,2.211h-1.367a1.992,1.992,0,0,0-.621-1.348,1.932,1.932,0,0,0-1.379-.527,2.023,2.023,0,0,0-1.707.793,3.724,3.724,0,0,0-.605,2.293v.273a3.65,3.65,0,0,0,.6,2.25A2.033,2.033,0,0,0,219.547,15.977ZM226.1,17h-1.445V5H226.1Zm7.531,0a3.036,3.036,0,0,1-.2-.891,3.225,3.225,0,0,1-2.406,1.047,2.984,2.984,0,0,1-2.051-.707,2.287,2.287,0,0,1-.8-1.793,2.39,2.39,0,0,1,1-2.051,4.733,4.733,0,0,1,2.824-.73h1.406v-.664A1.623,1.623,0,0,0,232.953,10a1.821,1.821,0,0,0-1.336-.449,2.107,2.107,0,0,0-1.3.391,1.151,1.151,0,0,0-.523.945h-1.453a2,2,0,0,1,.449-1.223,3.066,3.066,0,0,1,1.219-.934,4.1,4.1,0,0,1,1.691-.344,3.342,3.342,0,0,1,2.289.73,2.635,2.635,0,0,1,.859,2.012v3.891a4.757,4.757,0,0,0,.3,1.852V17Zm-2.4-1.1a2.54,2.54,0,0,0,1.289-.352,2.127,2.127,0,0,0,.883-.914V12.9h-1.133q-2.656,0-2.656,1.555a1.316,1.316,0,0,0,.453,1.063A1.742,1.742,0,0,0,231.234,15.9Zm8.555-.859,2.094-6.492h1.477L240.328,17h-1.1l-3.062-8.453h1.477Zm8.469,2.117a3.693,3.693,0,0,1-2.8-1.129,4.19,4.19,0,0,1-1.078-3.02v-.266a5.073,5.073,0,0,1,.48-2.246,3.748,3.748,0,0,1,1.344-1.547,3.378,3.378,0,0,1,1.871-.559,3.166,3.166,0,0,1,2.563,1.086,4.7,4.7,0,0,1,.914,3.109v.6h-5.727a3,3,0,0,0,.73,2.02,2.3,2.3,0,0,0,1.777.77,2.517,2.517,0,0,0,1.3-.312,3.258,3.258,0,0,0,.93-.828l.883.688A3.55,3.55,0,0,1,248.258,17.156Zm-.18-7.578a1.928,1.928,0,0,0-1.469.637A3.1,3.1,0,0,0,245.875,12h4.234v-.109a2.753,2.753,0,0,0-.594-1.707A1.815,1.815,0,0,0,248.078,9.578Zm10.07,5.18a1.064,1.064,0,0,0-.441-.91,4.249,4.249,0,0,0-1.539-.559,7.277,7.277,0,0,1-1.742-.562,2.479,2.479,0,0,1-.953-.781,1.869,1.869,0,0,1-.309-1.078,2.193,2.193,0,0,1,.879-1.758,3.432,3.432,0,0,1,2.246-.719,3.532,3.532,0,0,1,2.332.742,2.357,2.357,0,0,1,.895,1.9h-1.453a1.3,1.3,0,0,0-.5-1.023,1.888,1.888,0,0,0-1.27-.43,1.976,1.976,0,0,0-1.234.344,1.082,1.082,0,0,0-.445.9.877.877,0,0,0,.414.789,5.1,5.1,0,0,0,1.5.508,7.8,7.8,0,0,1,1.754.578,2.559,2.559,0,0,1,1,.809,1.988,1.988,0,0,1,.324,1.152,2.163,2.163,0,0,1-.906,1.816,3.8,3.8,0,0,1-2.352.684,4.257,4.257,0,0,1-1.8-.359,2.922,2.922,0,0,1-1.223-1,2.42,2.42,0,0,1-.441-1.395h1.445a1.5,1.5,0,0,0,.582,1.152,2.258,2.258,0,0,0,1.434.426,2.331,2.331,0,0,0,1.316-.332A1.02,1.02,0,0,0,258.148,14.758Zm6.938-2.055a4.952,4.952,0,0,1,.922-3.129,3.137,3.137,0,0,1,4.766-.168V5h1.445V17h-1.328l-.07-.906a2.943,2.943,0,0,1-2.414,1.063,2.887,2.887,0,0,1-2.395-1.2,5.008,5.008,0,0,1-.926-3.141Zm1.445.164a3.749,3.749,0,0,0,.594,2.25,1.92,1.92,0,0,0,1.641.813,2.109,2.109,0,0,0,2.008-1.234V10.813a2.125,2.125,0,0,0-1.992-1.2,1.929,1.929,0,0,0-1.656.82A4.128,4.128,0,0,0,266.531,12.867Zm11.438,4.289a3.693,3.693,0,0,1-2.8-1.129,4.19,4.19,0,0,1-1.078-3.02v-.266a5.073,5.073,0,0,1,.48-2.246,3.748,3.748,0,0,1,1.344-1.547,3.379,3.379,0,0,1,1.871-.559,3.166,3.166,0,0,1,2.563,1.086,4.7,4.7,0,0,1,.914,3.109v.6h-5.727a3,3,0,0,0,.73,2.02,2.3,2.3,0,0,0,1.777.77,2.517,2.517,0,0,0,1.3-.312,3.259,3.259,0,0,0,.93-.828l.883.688A3.55,3.55,0,0,1,277.969,17.156Zm-.18-7.578a1.928,1.928,0,0,0-1.469.637A3.1,3.1,0,0,0,275.586,12h4.234v-.109a2.753,2.753,0,0,0-.594-1.707A1.815,1.815,0,0,0,277.789,9.578ZM284.508,17h-1.445V5h1.445ZM8.234,36.867a5.062,5.062,0,0,1-.883,3.109,2.829,2.829,0,0,1-2.391,1.18,3.1,3.1,0,0,1-2.422-.977v4.07H1.094v-11.7h1.32l.07.938a2.977,2.977,0,0,1,2.453-1.094,2.882,2.882,0,0,1,2.41,1.148,5.117,5.117,0,0,1,.887,3.2ZM6.789,36.7a3.735,3.735,0,0,0-.609-2.258,1.963,1.963,0,0,0-1.672-.828,2.125,2.125,0,0,0-1.969,1.164V38.82a2.129,2.129,0,0,0,1.984,1.156,1.954,1.954,0,0,0,1.652-.824A4.077,4.077,0,0,0,6.789,36.7Zm2.9-.008a4.993,4.993,0,0,1,.488-2.234,3.643,3.643,0,0,1,1.359-1.531,3.7,3.7,0,0,1,1.988-.539,3.565,3.565,0,0,1,2.793,1.2,4.6,4.6,0,0,1,1.066,3.18v.1a5.036,5.036,0,0,1-.473,2.215,3.589,3.589,0,0,1-1.352,1.527,3.743,3.743,0,0,1-2.02.547,3.556,3.556,0,0,1-2.785-1.2A4.575,4.575,0,0,1,9.688,36.8Zm1.453.172a3.616,3.616,0,0,0,.652,2.258,2.211,2.211,0,0,0,3.5-.012,3.955,3.955,0,0,0,.648-2.418,3.61,3.61,0,0,0-.66-2.254,2.1,2.1,0,0,0-1.754-.863,2.075,2.075,0,0,0-1.727.852A3.925,3.925,0,0,0,11.141,36.867Zm12.977,1.891a1.064,1.064,0,0,0-.441-.91,4.249,4.249,0,0,0-1.539-.559,7.277,7.277,0,0,1-1.742-.562,2.479,2.479,0,0,1-.953-.781,1.869,1.869,0,0,1-.309-1.078,2.193,2.193,0,0,1,.879-1.758,3.432,3.432,0,0,1,2.246-.719,3.532,3.532,0,0,1,2.332.742,2.357,2.357,0,0,1,.895,1.9H24.031a1.3,1.3,0,0,0-.5-1.023,1.888,1.888,0,0,0-1.27-.43,1.976,1.976,0,0,0-1.234.344,1.082,1.082,0,0,0-.445.9.877.877,0,0,0,.414.789,5.1,5.1,0,0,0,1.5.508,7.8,7.8,0,0,1,1.754.578,2.558,2.558,0,0,1,1,.809,1.988,1.988,0,0,1,.324,1.152,2.163,2.163,0,0,1-.906,1.816,3.8,3.8,0,0,1-2.352.684,4.257,4.257,0,0,1-1.8-.359,2.922,2.922,0,0,1-1.223-1,2.42,2.42,0,0,1-.441-1.395h1.445a1.5,1.5,0,0,0,.582,1.152,2.258,2.258,0,0,0,1.434.426,2.331,2.331,0,0,0,1.316-.332A1.02,1.02,0,0,0,24.117,38.758ZM29.016,41H27.57V32.547h1.445ZM27.453,30.3a.863.863,0,0,1,.215-.594.807.807,0,0,1,.637-.242.819.819,0,0,1,.641.242.854.854,0,0,1,.219.594.826.826,0,0,1-.219.586.834.834,0,0,1-.641.234.821.821,0,0,1-.637-.234A.834.834,0,0,1,27.453,30.3Zm7.266,9.672a2.082,2.082,0,0,0,1.352-.469,1.649,1.649,0,0,0,.641-1.172h1.367a2.621,2.621,0,0,1-.5,1.383,3.293,3.293,0,0,1-1.23,1.047,3.55,3.55,0,0,1-1.629.391A3.482,3.482,0,0,1,31.973,40a4.59,4.59,0,0,1-1.02-3.152v-.242a5.089,5.089,0,0,1,.453-2.2,3.451,3.451,0,0,1,1.3-1.492,3.7,3.7,0,0,1,2-.531,3.39,3.39,0,0,1,2.363.852,3.043,3.043,0,0,1,1,2.211H36.711a1.992,1.992,0,0,0-.621-1.348,1.932,1.932,0,0,0-1.379-.527A2.023,2.023,0,0,0,33,34.371a3.724,3.724,0,0,0-.605,2.293v.273a3.65,3.65,0,0,0,.6,2.25A2.033,2.033,0,0,0,34.719,39.977ZM41.273,41H39.828V32.547h1.445ZM39.711,30.3a.863.863,0,0,1,.215-.594.807.807,0,0,1,.637-.242.819.819,0,0,1,.641.242.854.854,0,0,1,.219.594.826.826,0,0,1-.219.586.834.834,0,0,1-.641.234.821.821,0,0,1-.637-.234A.834.834,0,0,1,39.711,30.3ZM43.2,36.7a4.993,4.993,0,0,1,.488-2.234,3.643,3.643,0,0,1,1.359-1.531,3.7,3.7,0,0,1,1.988-.539,3.565,3.565,0,0,1,2.793,1.2,4.6,4.6,0,0,1,1.066,3.18v.1a5.036,5.036,0,0,1-.473,2.215,3.589,3.589,0,0,1-1.352,1.527,3.743,3.743,0,0,1-2.02.547,3.556,3.556,0,0,1-2.785-1.2A4.575,4.575,0,0,1,43.2,36.8Zm1.453.172a3.616,3.616,0,0,0,.652,2.258,2.211,2.211,0,0,0,3.5-.012,3.955,3.955,0,0,0,.648-2.418,3.61,3.61,0,0,0-.66-2.254,2.1,2.1,0,0,0-1.754-.863,2.075,2.075,0,0,0-1.727.852A3.925,3.925,0,0,0,44.656,36.867Zm9.422-4.32.047,1.063a3.08,3.08,0,0,1,2.531-1.219q2.68,0,2.7,3.023V41H57.914V35.406a1.946,1.946,0,0,0-.418-1.352,1.675,1.675,0,0,0-1.277-.437,2.086,2.086,0,0,0-1.234.375,2.546,2.546,0,0,0-.828.984V41H52.711V32.547ZM66.758,41a3.036,3.036,0,0,1-.2-.891,3.225,3.225,0,0,1-2.406,1.047,2.984,2.984,0,0,1-2.051-.707,2.287,2.287,0,0,1-.8-1.793,2.39,2.39,0,0,1,1-2.051,4.733,4.733,0,0,1,2.824-.73h1.406v-.664A1.623,1.623,0,0,0,66.078,34a1.821,1.821,0,0,0-1.336-.449,2.107,2.107,0,0,0-1.3.391,1.151,1.151,0,0,0-.523.945H61.469a2,2,0,0,1,.449-1.223,3.066,3.066,0,0,1,1.219-.934,4.1,4.1,0,0,1,1.691-.344,3.342,3.342,0,0,1,2.289.73,2.635,2.635,0,0,1,.859,2.012v3.891a4.757,4.757,0,0,0,.3,1.852V41Zm-2.4-1.1a2.54,2.54,0,0,0,1.289-.352,2.127,2.127,0,0,0,.883-.914V36.9H65.4q-2.656,0-2.656,1.555a1.316,1.316,0,0,0,.453,1.063A1.742,1.742,0,0,0,64.359,39.9ZM71.6,32.547l.039.938a3.122,3.122,0,0,1,2.508-1.094,2.417,2.417,0,0,1,2.414,1.359,3.2,3.2,0,0,1,1.1-.984,3.242,3.242,0,0,1,1.6-.375q2.781,0,2.828,2.945V41H80.641V35.422a1.941,1.941,0,0,0-.414-1.355,1.823,1.823,0,0,0-1.391-.449,1.916,1.916,0,0,0-1.336.48,1.949,1.949,0,0,0-.617,1.293V41H75.43V35.461a1.613,1.613,0,0,0-1.8-1.844,1.934,1.934,0,0,0-1.945,1.211V41H70.234V32.547ZM85.836,41H84.391V32.547h1.445ZM84.273,30.3a.863.863,0,0,1,.215-.594.807.807,0,0,1,.637-.242.819.819,0,0,1,.641.242.854.854,0,0,1,.219.594.826.826,0,0,1-.219.586.834.834,0,0,1-.641.234.821.821,0,0,1-.637-.234A.834.834,0,0,1,84.273,30.3Zm7.383,10.852a3.693,3.693,0,0,1-2.8-1.129,4.19,4.19,0,0,1-1.078-3.02v-.266a5.073,5.073,0,0,1,.48-2.246,3.748,3.748,0,0,1,1.344-1.547,3.378,3.378,0,0,1,1.871-.559,3.166,3.166,0,0,1,2.563,1.086,4.7,4.7,0,0,1,.914,3.109v.6H89.227a3,3,0,0,0,.73,2.02,2.3,2.3,0,0,0,1.777.77,2.517,2.517,0,0,0,1.3-.312,3.259,3.259,0,0,0,.93-.828l.883.688A3.55,3.55,0,0,1,91.656,41.156Zm-.18-7.578a1.928,1.928,0,0,0-1.469.637A3.1,3.1,0,0,0,89.273,36h4.234v-.109a2.753,2.753,0,0,0-.594-1.707A1.815,1.815,0,0,0,91.477,33.578Zm6.516-1.031.047,1.063a3.08,3.08,0,0,1,2.531-1.219q2.68,0,2.7,3.023V41h-1.445V35.406a1.946,1.946,0,0,0-.418-1.352,1.675,1.675,0,0,0-1.277-.437,2.086,2.086,0,0,0-1.234.375,2.546,2.546,0,0,0-.828.984V41H96.625V32.547Zm9.422-2.047v2.047h1.578v1.117h-1.578v5.249a1.173,1.173,0,0,0,.211.763.888.888,0,0,0,.719.254,3.5,3.5,0,0,0,.688-.094V41a4.215,4.215,0,0,1-1.109.155,1.8,1.8,0,0,1-1.461-.586,2.517,2.517,0,0,1-.492-1.664V33.664H104.43V32.547h1.539V30.5Zm2.727,6.2a4.993,4.993,0,0,1,.488-2.234,3.643,3.643,0,0,1,1.359-1.531,3.7,3.7,0,0,1,1.988-.539,3.565,3.565,0,0,1,2.793,1.2,4.6,4.6,0,0,1,1.066,3.18v.1a5.036,5.036,0,0,1-.473,2.215,3.589,3.589,0,0,1-1.352,1.527,3.743,3.743,0,0,1-2.02.547,3.556,3.556,0,0,1-2.785-1.2,4.575,4.575,0,0,1-1.066-3.164Zm1.453.172a3.616,3.616,0,0,0,.652,2.258,2.211,2.211,0,0,0,3.5-.012,3.955,3.955,0,0,0,.648-2.418,3.61,3.61,0,0,0-.66-2.254,2.1,2.1,0,0,0-1.754-.863,2.075,2.075,0,0,0-1.727.852A3.925,3.925,0,0,0,111.594,36.867Zm11.664-.164a4.952,4.952,0,0,1,.922-3.129,3.137,3.137,0,0,1,4.766-.168V29h1.445V41h-1.328l-.07-.906a2.943,2.943,0,0,1-2.414,1.063,2.887,2.887,0,0,1-2.395-1.2,5.008,5.008,0,0,1-.926-3.141Zm1.445.164a3.749,3.749,0,0,0,.594,2.25,1.92,1.92,0,0,0,1.641.813,2.108,2.108,0,0,0,2.008-1.234V34.813a2.125,2.125,0,0,0-1.992-1.2,1.929,1.929,0,0,0-1.656.82A4.128,4.128,0,0,0,124.7,36.867Zm11.438,4.289a3.693,3.693,0,0,1-2.8-1.129,4.19,4.19,0,0,1-1.078-3.02v-.266a5.073,5.073,0,0,1,.48-2.246,3.748,3.748,0,0,1,1.344-1.547,3.378,3.378,0,0,1,1.871-.559,3.166,3.166,0,0,1,2.563,1.086,4.7,4.7,0,0,1,.914,3.109v.6h-5.727a3,3,0,0,0,.73,2.02,2.3,2.3,0,0,0,1.777.77,2.517,2.517,0,0,0,1.3-.312,3.258,3.258,0,0,0,.93-.828l.883.688A3.55,3.55,0,0,1,136.141,41.156Zm-.18-7.578a1.928,1.928,0,0,0-1.469.637A3.1,3.1,0,0,0,133.758,36h4.234v-.109a2.753,2.753,0,0,0-.594-1.707A1.815,1.815,0,0,0,135.961,33.578Zm14.328,6.586a3.07,3.07,0,0,1-2.477.992,2.628,2.628,0,0,1-2.059-.785,3.4,3.4,0,0,1-.715-2.324v-5.5h1.445v5.461q0,1.922,1.563,1.922a2.163,2.163,0,0,0,2.2-1.234V32.547H151.7V41H150.32Zm4.969-7.617.047,1.063a3.08,3.08,0,0,1,2.531-1.219q2.68,0,2.7,3.023V41h-1.445V35.406a1.946,1.946,0,0,0-.418-1.352,1.675,1.675,0,0,0-1.277-.437,2.086,2.086,0,0,0-1.234.375,2.546,2.546,0,0,0-.828.984V41h-1.445V32.547ZM167.938,41a3.036,3.036,0,0,1-.2-.891,3.225,3.225,0,0,1-2.406,1.047,2.984,2.984,0,0,1-2.051-.707,2.287,2.287,0,0,1-.8-1.793,2.39,2.39,0,0,1,1-2.051,4.733,4.733,0,0,1,2.824-.73h1.406v-.664A1.623,1.623,0,0,0,167.258,34a1.821,1.821,0,0,0-1.336-.449,2.107,2.107,0,0,0-1.3.391,1.151,1.151,0,0,0-.523.945h-1.453a2,2,0,0,1,.449-1.223,3.066,3.066,0,0,1,1.219-.934,4.1,4.1,0,0,1,1.691-.344,3.342,3.342,0,0,1,2.289.73,2.635,2.635,0,0,1,.859,2.012v3.891a4.757,4.757,0,0,0,.3,1.852V41Zm-2.4-1.1a2.54,2.54,0,0,0,1.289-.352,2.127,2.127,0,0,0,.883-.914V36.9h-1.133q-2.656,0-2.656,1.555a1.316,1.316,0,0,0,.453,1.063A1.742,1.742,0,0,0,165.539,39.9Zm11.2-7.352.039.938a3.122,3.122,0,0,1,2.508-1.094A2.417,2.417,0,0,1,181.7,33.75a3.2,3.2,0,0,1,1.1-.984,3.242,3.242,0,0,1,1.6-.375q2.781,0,2.828,2.945V41h-1.445V35.422a1.941,1.941,0,0,0-.414-1.355,1.823,1.823,0,0,0-1.391-.449,1.917,1.917,0,0,0-1.336.48,1.949,1.949,0,0,0-.617,1.293V41H180.57V35.461a1.613,1.613,0,0,0-1.8-1.844,1.934,1.934,0,0,0-1.945,1.211V41h-1.445V32.547ZM194.625,41a3.036,3.036,0,0,1-.2-.891,3.225,3.225,0,0,1-2.406,1.047,2.984,2.984,0,0,1-2.051-.707,2.287,2.287,0,0,1-.8-1.793,2.39,2.39,0,0,1,1-2.051,4.733,4.733,0,0,1,2.824-.73H194.4v-.664A1.623,1.623,0,0,0,193.945,34a1.821,1.821,0,0,0-1.336-.449,2.107,2.107,0,0,0-1.3.391,1.151,1.151,0,0,0-.523.945h-1.453a2,2,0,0,1,.449-1.223A3.066,3.066,0,0,1,191,32.734a4.1,4.1,0,0,1,1.691-.344,3.342,3.342,0,0,1,2.289.73,2.635,2.635,0,0,1,.859,2.012v3.891a4.757,4.757,0,0,0,.3,1.852V41Zm-2.4-1.1a2.54,2.54,0,0,0,1.289-.352,2.127,2.127,0,0,0,.883-.914V36.9h-1.133q-2.656,0-2.656,1.555a1.316,1.316,0,0,0,.453,1.063A1.742,1.742,0,0,0,192.227,39.9Zm9.969-6.055a4.331,4.331,0,0,0-.711-.055A1.9,1.9,0,0,0,199.555,35v6h-1.445V32.547h1.406l.023.977a2.251,2.251,0,0,1,2.016-1.133,1.477,1.477,0,0,1,.641.109Zm4.57,6.133a2.082,2.082,0,0,0,1.352-.469,1.649,1.649,0,0,0,.641-1.172h1.367a2.621,2.621,0,0,1-.5,1.383,3.293,3.293,0,0,1-1.23,1.047,3.55,3.55,0,0,1-1.629.391A3.482,3.482,0,0,1,204.02,40,4.59,4.59,0,0,1,203,36.852v-.242a5.089,5.089,0,0,1,.453-2.2,3.451,3.451,0,0,1,1.3-1.492,3.7,3.7,0,0,1,2-.531,3.39,3.39,0,0,1,2.363.852,3.043,3.043,0,0,1,1,2.211h-1.367a1.992,1.992,0,0,0-.621-1.348,1.932,1.932,0,0,0-1.379-.527,2.023,2.023,0,0,0-1.707.793,3.724,3.724,0,0,0-.605,2.293v.273a3.65,3.65,0,0,0,.6,2.25A2.033,2.033,0,0,0,206.766,39.977ZM216.969,41a3.036,3.036,0,0,1-.2-.891,3.225,3.225,0,0,1-2.406,1.047,2.984,2.984,0,0,1-2.051-.707,2.287,2.287,0,0,1-.8-1.793,2.39,2.39,0,0,1,1-2.051,4.733,4.733,0,0,1,2.824-.73h1.406v-.664A1.623,1.623,0,0,0,216.289,34a1.821,1.821,0,0,0-1.336-.449,2.107,2.107,0,0,0-1.3.391,1.151,1.151,0,0,0-.523.945H211.68a2,2,0,0,1,.449-1.223,3.066,3.066,0,0,1,1.219-.934,4.1,4.1,0,0,1,1.691-.344,3.342,3.342,0,0,1,2.289.73,2.635,2.635,0,0,1,.859,2.012v3.891a4.757,4.757,0,0,0,.3,1.852V41Zm-2.4-1.1a2.54,2.54,0,0,0,1.289-.352,2.127,2.127,0,0,0,.883-.914V36.9h-1.133q-2.656,0-2.656,1.555a1.316,1.316,0,0,0,.453,1.063A1.742,1.742,0,0,0,214.57,39.9Zm7.578-2.115a4.663,4.663,0,0,1,.211-1.466,3.761,3.761,0,0,1,.8-1.193l1.023-1.053a2.36,2.36,0,0,0,.656-1.59,1.815,1.815,0,0,0-.43-1.282,1.62,1.62,0,0,0-1.25-.464,1.881,1.881,0,0,0-1.281.422,1.426,1.426,0,0,0-.484,1.133h-1.445a2.632,2.632,0,0,1,.9-2.043,3.374,3.374,0,0,1,2.309-.777,3.185,3.185,0,0,1,2.3.792,2.87,2.87,0,0,1,.824,2.172,3.926,3.926,0,0,1-1.266,2.691l-.852.842a2.623,2.623,0,0,0-.57,1.818Zm-.062,2.482a.861.861,0,0,1,.215-.6.81.81,0,0,1,.637-.241.822.822,0,0,1,.641.241.852.852,0,0,1,.219.6.824.824,0,0,1-.219.588.837.837,0,0,1-.641.233.774.774,0,0,1-.852-.82Z" transform="translate(873.215 3413.576)" fill="#fff"/>
    <g id="Grupo_158897" data-name="Grupo 158897" transform="translate(396 3195.432)" clip-path="url(#clip-path-2)">
      <path id="Trazado_156574" data-name="Trazado 156574" d="M549.195,354.231c8.861-35.161,19.529-66.986,19.98-68.324l71.066,23.9c-10.135,30.139-18.852,62.363-23.825,86.545a658.177,658.177,0,0,0-77.339,7.618,461.822,461.822,0,0,1,10.118-49.738" transform="translate(-532.305 -67.887)" fill="#e48c68"/>
      <path id="Trazado_156575" data-name="Trazado 156575" d="M409.734,157.273a1.075,1.075,0,0,1-.522-.137c-.4-.224-9.845-5.587-8.021-11.968.339-1.191.727-2.336,1.1-3.445,1.394-4.111,2.5-7.359.6-10.766a17.1,17.1,0,0,0-3.046-3.927,16.6,16.6,0,0,1-4.552-7.54,1.074,1.074,0,1,1,2.046-.654,14.426,14.426,0,0,0,4.049,6.7,19.392,19.392,0,0,1,3.382,4.376c2.355,4.24,1,8.253-.445,12.5-.365,1.078-.742,2.192-1.074,3.348-1.126,3.942,4.676,8.2,7.007,9.5a1.074,1.074,0,0,1-.526,2.011" transform="translate(-193.193 -28.04)" fill="#493a32"/>
      <path id="Trazado_156576" data-name="Trazado 156576" d="M507.188,165.2a.969.969,0,0,1-.162-.013A3.779,3.779,0,0,1,504,162.956c-1.814-3.967,1.589-12.4,5.766-18.994,2.751-4.34,1.977-5.663.283-8.56a24.343,24.343,0,0,1-3.384-8.651,1.075,1.075,0,0,1,2.114-.39,22.43,22.43,0,0,0,3.124,7.956c1.816,3.105,3.126,5.349-.321,10.794-4.43,6.993-6.85,14.28-5.63,16.952a1.652,1.652,0,0,0,1.392,1,1.073,1.073,0,0,1-.157,2.134" transform="translate(-378.669 -29.796)" fill="#493a32"/>
      <path id="Trazado_156577" data-name="Trazado 156577" d="M186.431,468.408a73.862,73.862,0,0,0,24.442,4.093,85.663,85.663,0,0,0,12.341-.916,52.259,52.259,0,0,0,27.421-12.653c-21.4-2.479-42.8,2.209-64.2,9.476" transform="translate(126.213 -108.812)" fill="#db704a"/>
      <path id="Trazado_156578" data-name="Trazado 156578" d="M267.442,342.283a107.808,107.808,0,0,1-7.405-10.844c-8.814-14.469-18.384-34.866-30.5-60.69q-4.226-9.01-8.829-18.761L152.783,284.13q4.56,9.633,8.724,18.539c16.677,35.543,29.849,63.615,44.95,83.582,12.565,16.609,26.839,27.672,42.664,33.179,21.4-7.266,42.8-11.955,64.2-9.475,8.253-7.22,20.235-13.2,25.658-67.431-20.418-17.819-48.259,5.789-68.753-12.588-.92,4.583-1.86,8.762-2.789,12.347" transform="translate(63.523 -59.833)" fill="#e48c68"/>
      <path id="Trazado_156579" data-name="Trazado 156579" d="M302.056,310.307c10.58-.73,25.539-15.871,28.093-20.979s-33.383,5.108-33.383,5.108Z" transform="translate(-37.569 -68.36)" fill="#251d1b"/>
      <path id="Trazado_156580" data-name="Trazado 156580" d="M619.3,362.182l-4.33,15.932s-42-16.965-56.778-33.383l42.96,1.368Z" transform="translate(-525.942 -81.854)" fill="#251d1b"/>
      <path id="Trazado_156581" data-name="Trazado 156581" d="M506.521,466.957a125.866,125.866,0,0,0-5.21-12.376c-54.975,1.917-109.951,11.79-164.925,12.687l-8.009,15.62c60.359,2.768,119.384-8.971,178.144-15.932" transform="translate(-237.915 -107.937)" fill="#3c251d"/>
      <path id="Trazado_156582" data-name="Trazado 156582" d="M332.063,486.741l-40.867,79.7H538.56s-16.446-63.68-28.353-95.634c-58.759,6.961-117.785,18.7-178.144,15.932" transform="translate(-241.602 -111.791)" fill="#c2afa0"/>
      <path id="Trazado_156583" data-name="Trazado 156583" d="M406.622,567.549a.538.538,0,0,1-.537-.52l-2.921-88.658a.537.537,0,0,1,.52-.554h.017a.538.538,0,0,1,.537.52l2.921,88.658a.536.536,0,0,1-.52.554Z" transform="translate(-195.583 -113.455)" fill="#251d1b"/>
      <path id="Trazado_156584" data-name="Trazado 156584" d="M429.952,567.306a.538.538,0,0,1-.537-.516l-3.284-84.827a.541.541,0,0,1,.516-.558.586.586,0,0,1,.557.516l3.284,84.827a.54.54,0,0,1-.516.557Z" transform="translate(-236.426 -114.307)" fill="#251d1b"/>
      <path id="Trazado_156585" data-name="Trazado 156585" d="M359.589,507.762a.592.592,0,0,1-.061,0c-28.944-3.274-45.124-31.725-45.286-32.011a.538.538,0,1,1,.939-.525c.157.283,16.079,28.257,44.468,31.471a.536.536,0,0,1-.061,1.069" transform="translate(-80.689 -112.773)" fill="#251d1b"/>
      <path id="Trazado_156586" data-name="Trazado 156586" d="M532.166,570.839a.566.566,0,0,1-.156-.023.537.537,0,0,1-.358-.669c.133-.435,13.291-43.5,24.7-59.806a.537.537,0,0,1,.88.616c-11.313,16.162-24.424,59.07-24.554,59.5a.538.538,0,0,1-.514.381" transform="translate(-443.714 -121.123)" fill="#251d1b"/>
      <path id="Trazado_156587" data-name="Trazado 156587" d="M627.63,109.769c-13.134-.821-26.269-7.388-39.13,10.124s2.463,33.657-7.114,44.876-21.891-2.462-39.677,4.925-29.826,41.867,2.463,55.821,79.08-18.333,86.741-34.2,9.851-17.787,1.916-30.921-13.956-11.766-11.766-23.806,13.956-15.324,13.956-15.324Z" transform="translate(-518.383 -25.617)" fill="#493a32"/>
      <path id="Trazado_156588" data-name="Trazado 156588" d="M448.634,14.98S437.781,13.8,430.12,19s-23.806,34.2-17.787,59.378,29.827,28.458,35.026,39.677l61.852-40.5s6.283-26.813,2.179-40.495S476.179.287,448.634,14.98" transform="translate(-307.191 -2.437)" fill="#493a32"/>
      <path id="Trazado_156589" data-name="Trazado 156589" d="M368.158,403.419l-.652,1.271c54.976-.9,109.951-10.77,164.926-12.687a23.864,23.864,0,0,0-2.557-4.181l-.548-62.388s10.124-13.408,9.03-23.259-5.747-21.891-5.747-21.891,11.766-.821,20.523-6.841,16.145-10.4,16.145-10.4-29.005-47.612-40.5-55.821c-8.087-5.776-44.873-12.632-65.979-16.191-8.933,18.976-45.22,19.073-61.136,1.828-27.052,9.129-63.217,20.266-80.846,37.9-19.154,19.154-33.931,74.428-33.931,74.428s18.607,9.852,32.289,14.229,30.829,9.121,35.755,11.31a75.129,75.129,0,0,0,10.945,3.648Z" transform="translate(-269.036 -45.36)" fill="#1591de"/>
      <path id="Trazado_156590" data-name="Trazado 156590" d="M487.657,190.282c-8.889-1.5-15.016-2.417-15.016-2.417l-39.312,1.915c-2.186.763-4.467,1.54-6.808,2.33,15.917,17.245,52.2,17.148,61.136-1.828" transform="translate(-293.891 -44.607)" fill="#1c1ca3"/>
      <path id="Trazado_156591" data-name="Trazado 156591" d="M393,97.083s10.092-10.545,18.7-7.562,9.981,21.472.8,25.175-20.334-3.392-20.334-3.392Z" transform="translate(-198.842 -21.13)" fill="#db704a"/>
      <path id="Trazado_156592" data-name="Trazado 156592" d="M407.069,112.441a.4.4,0,0,0,.111-.031,8.044,8.044,0,0,0,4.176-9.609c-.759-2.812-1.888-4.537-3.554-5.429-2.09-1.118-4.908-.914-9.724.7a.377.377,0,0,0,.24.715c4.537-1.524,7.266-1.748,9.129-.751,1.469.787,2.481,2.364,3.182,4.962a7.169,7.169,0,0,1-3.756,8.723.377.377,0,0,0,.2.719" transform="translate(-196.058 -22.954)" fill="#251d1b"/>
      <path id="Trazado_156593" data-name="Trazado 156593" d="M480.454,166.225c-.725-7.535-1.246-15.814-1.246-15.814L442.4,139.163c6.456,15.252,21.838,21.574,38.056,27.062" transform="translate(-298.795 -33.043)" fill="#251d1b"/>
      <path id="Trazado_156594" data-name="Trazado 156594" d="M484.6,177.223a80.879,80.879,0,0,1-1.657-11.472c-16.218-5.488-31.6-11.81-38.056-27.062l-4.989-1.524s5.17,35.4.824,40.577,48.159,12.861,43.878-.519" transform="translate(-301.286 -32.569)" fill="#e48c68"/>
      <path id="Trazado_156595" data-name="Trazado 156595" d="M493.411,44.537c2.757,6.945.111,17.6,2.629,32.1s3.6,43.656-16.968,49.4a58.038,58.038,0,0,1-38.679-2.937c-5.949-2.785-13.1-13.953-16.013-24.072l-12.6-31.8C405.694,46.06,418.06,23.651,439.431,18.3q.74-.185,1.5-.349c41.933-9.007,52.479,26.586,52.479,26.586" transform="translate(-291.185 -3.916)" fill="#e48c68"/>
      <path id="Trazado_156596" data-name="Trazado 156596" d="M467.458,97.472c-.163-1.938.342-3.563,1.129-3.629s1.556,1.451,1.719,3.39-.342,3.563-1.129,3.629-1.556-1.451-1.719-3.39" transform="translate(-307.765 -22.282)" fill="#251d1b"/>
      <path id="Trazado_156597" data-name="Trazado 156597" d="M425.79,96.17c-.163-1.938.342-3.563,1.129-3.629s1.556,1.451,1.719,3.39-.342,3.563-1.129,3.629-1.556-1.451-1.719-3.39" transform="translate(-234.323 -21.973)" fill="#251d1b"/>
      <path id="Trazado_156598" data-name="Trazado 156598" d="M464.018,89.5a1.5,1.5,0,0,0,.993-.421c.144-.134,3.2-2.938,8.879-2.127a1.508,1.508,0,1,0,.428-2.985c-7.224-1.037-11.238,2.783-11.4,2.946a1.508,1.508,0,0,0,1.1,2.587" transform="translate(-309.25 -19.895)" fill="#251d1b"/>
      <path id="Trazado_156599" data-name="Trazado 156599" d="M418.74,84.277a1.5,1.5,0,0,0,1.076-.071c.18-.08,3.988-1.724,9.085.908a1.508,1.508,0,1,0,1.386-2.679c-6.482-3.353-11.528-1.064-11.74-.965a1.508,1.508,0,0,0,.194,2.806" transform="translate(-230.593 -19.142)" fill="#251d1b"/>
      <path id="Trazado_156600" data-name="Trazado 156600" d="M447.864,123.541c2.025.251,4.041.188,6.063.339,2.156.161,3.864,1.383,3.506,3.692-1.438,9.306-14.3,9.234-21.167,7.111a9.977,9.977,0,0,1-4.372-2.481c-2.233-2.345-2.854-6.952-.147-9.2,2.311-1.922,5.831-1.339,8.547-.883,2.329.391,4.622.974,6.956,1.341.2.032.409.061.614.086" transform="translate(-266.336 -28.887)" fill="#fff"/>
      <path id="Trazado_156601" data-name="Trazado 156601" d="M431.072,85.109s16.513-13.676,33.285-45.67c0,0,23.222,17.029,28.641,19.352S501.255,70.4,501.255,70.4a67.737,67.737,0,0,0,.774-27.351C498.674,25.505,468.485,7.96,440.361,18.8S410.172,62.4,410.172,62.4l8.515,23.48Z" transform="translate(-296.845 -3.671)" fill="#493a32"/>
      <path id="Trazado_156602" data-name="Trazado 156602" d="M486.571,39.918a.573.573,0,0,1-.525-.335c-.069-.136-6.616-13.628-25.544-23.475a.575.575,0,0,1-.251-.783.592.592,0,0,1,.783-.251c19.308,10.045,26,23.871,26.061,24.008a.574.574,0,0,1-.274.776.606.606,0,0,1-.251.061" transform="translate(-319.059 -3.565)" fill="#fff"/>
      <path id="Trazado_156603" data-name="Trazado 156603" d="M403.714,94.279l-.133-1.036,6.395-.843.133,1.036Z" transform="translate(-198.85 -21.94)" fill="#382621"/>
      <path id="Trazado_156604" data-name="Trazado 156604" d="M479.943,90c-.156-8.435-6.149-15.192-13.358-15.059s-12.951,7.109-12.795,15.545,6.153,15.189,13.363,15.055S480.1,98.433,479.943,90m-1.046.02c.146,7.86-5.13,14.352-11.764,14.475s-12.151-6.168-12.3-14.028,5.134-14.356,11.768-14.479,12.147,6.173,12.293,14.033" transform="translate(-306.972 -17.793)" fill="#382621"/>
      <path id="Trazado_156605" data-name="Trazado 156605" d="M429.4,89.058c-.156-8.436-6.153-15.193-13.363-15.06s-12.95,7.109-12.794,15.545,6.153,15.189,13.363,15.055,12.95-7.1,12.794-15.54m-1.046.019c.146,7.86-5.134,14.352-11.768,14.475s-12.151-6.168-12.3-14.028,5.134-14.356,11.768-14.479,12.151,6.173,12.3,14.033" transform="translate(-217.882 -17.57)" fill="#382621"/>
      <path id="Trazado_156606" data-name="Trazado 156606" d="M437.116,95.888l-.589-.864c8.4-5.684,14-.988,14.059-.936l-.684.789c-.2-.172-5.062-4.207-12.787,1.01" transform="translate(-264.45 -21.896)" fill="#382621"/>
      <path id="Trazado_156607" data-name="Trazado 156607" d="M487.507,101.782l-.093-1.045,27.962-2.588.093,1.045Z" transform="translate(-368.138 -23.305)" fill="#382621"/>
      <path id="Trazado_156608" data-name="Trazado 156608" d="M439.209,113.818a.358.358,0,0,1-.169-.663,7.519,7.519,0,0,0,3.155-5.821c.069-1.48-.609-2.414-1.634-3.829a26.946,26.946,0,0,1-2.436-3.881.358.358,0,1,1,.638-.323,26.21,26.21,0,0,0,2.378,3.784c1.074,1.482,1.849,2.552,1.769,4.283a8.153,8.153,0,0,1-3.5,6.4.355.355,0,0,1-.2.051" transform="translate(-257.969 -23.532)" fill="#3c251d"/>
      <path id="Trazado_156609" data-name="Trazado 156609" d="M523.212,104.726s-10.477-10.948-19.419-7.851-10.362,22.292-.829,26.137,21.111-3.521,21.111-3.521Z" transform="translate(-383.615 -22.871)" fill="#e48c68"/>
      <path id="Trazado_156610" data-name="Trazado 156610" d="M512.726,120.672a.417.417,0,0,1-.115-.031,8.352,8.352,0,0,1-4.335-9.977c.788-2.919,1.96-4.71,3.689-5.637,2.17-1.161,5.1-.949,10.1.727a.392.392,0,0,1-.249.743c-4.71-1.582-7.544-1.814-9.476-.779-1.527.817-2.576,2.454-3.3,5.151a7.445,7.445,0,0,0,3.9,9.057.391.391,0,0,1-.2.746" transform="translate(-390.623 -24.765)" fill="#251d1b"/>
      <path id="Trazado_156611" data-name="Trazado 156611" d="M544.846,366.652a.684.684,0,0,1-.086-.006.54.54,0,0,1-.445-.617l6.567-40.862a.537.537,0,0,1,1.061.172L545.377,366.2a.538.538,0,0,1-.531.451" transform="translate(-448.004 -77.102)" fill="#251d1b"/>
      <path id="Trazado_156612" data-name="Trazado 156612" d="M538.148,342.547a.537.537,0,0,1,0-1.074c1.558,0,4.923-7.757,7.147-14.945a.538.538,0,0,1,1.028.318c-1.141,3.682-5.1,15.7-8.175,15.7" transform="translate(-437.294 -77.443)" fill="#251d1b"/>
      <path id="Trazado_156613" data-name="Trazado 156613" d="M585,273.73a.535.535,0,0,1-.445-.237c-11.815-17.545-33.482-27.076-33.7-27.171a.537.537,0,1,1,.428-.985c.22.1,22.174,9.754,34.161,27.556a.537.537,0,0,1-.444.837" transform="translate(-486.331 -58.243)" fill="#251d1b"/>
      <path id="Trazado_156614" data-name="Trazado 156614" d="M338.819,302.793a.537.537,0,0,1-.509-.365,103.467,103.467,0,0,1-4.036-18.262.534.534,0,0,1,.472-.593.525.525,0,0,1,.593.472,102.48,102.48,0,0,0,3.99,18.04.536.536,0,0,1-.509.708" transform="translate(-75.243 -67.332)" fill="#251d1b"/>
      <path id="Trazado_156615" data-name="Trazado 156615" d="M337.2,233.825a.538.538,0,0,1-.537-.537c0-3,5.647-15.388,5.885-15.911a.537.537,0,0,1,.977.445c-1.61,3.525-5.789,13.169-5.789,15.467a.538.538,0,0,1-.537.537" transform="translate(-81.284 -51.54)" fill="#251d1b"/>
      <path id="Trazado_156616" data-name="Trazado 156616" d="M467.411,368.026c-13.419,0-21.545-5.539-21.673-5.63a.537.537,0,0,1,.616-.878c.2.143,20.35,13.824,49.777-2.763a.537.537,0,1,1,.528.935c-11.261,6.347-21.206,8.336-29.249,8.336" transform="translate(-317.645 -85.168)" fill="#251d1b"/>
      <path id="Trazado_156617" data-name="Trazado 156617" d="M434.064,474.2l-1.7-19.629a3.285,3.285,0,0,0-3.554-2.988l-33.26,2.876a3.285,3.285,0,0,0-2.989,3.554l1.7,19.628a3.284,3.284,0,0,0,3.554,2.988l33.26-2.876a3.283,3.283,0,0,0,2.988-3.554m-34.673-13.482,26.716-2.31,1.132,13.086-26.716,2.31Z" transform="translate(-214.408 -107.221)" fill="#ecb57b"/>
      <rect id="Rectángulo_38465" data-name="Rectángulo 38465" width="2.188" height="12.107" transform="matrix(-0.106, -0.994, 0.994, -0.106, 202.579, 359.604)" fill="#ecb57b"/>
      <path id="Trazado_156618" data-name="Trazado 156618" d="M553.709,213.708a1.07,1.07,0,0,1-.766-.321c-10.08-10.24-13.058-23.507-8.168-36.4,4.218-11.119,13.872-19.946,22.457-20.531a108.608,108.608,0,0,1,13.3.111c6.026.313,10.794.562,12.931-1.4a5.079,5.079,0,0,0,1.4-3.762c.294-8.158,2.657-26.034,9.515-35.31,6.485-8.776,16.138-15.892,42.654-8.628a1.074,1.074,0,0,1-.566,2.072c-25.273-6.926-34.331-.327-40.361,7.831-6.071,8.213-8.766,24.9-9.095,34.111a7.1,7.1,0,0,1-2.1,5.269c-2.8,2.566-7.971,2.291-14.492,1.961a105.428,105.428,0,0,0-13.037-.114c-7.8.533-16.658,8.764-20.6,19.149-2.69,7.1-5.271,20.966,7.693,34.134a1.074,1.074,0,0,1-.766,1.826" transform="translate(-542.472 -24.805)" fill="#493a32"/>
      <path id="Trazado_156619" data-name="Trazado 156619" d="M246.435,383.5a.5.5,0,0,1-.153-.023.536.536,0,0,1-.361-.667l3.764-12.729a.523.523,0,0,1,.666-.361.534.534,0,0,1,.361.666l-3.763,12.729a.534.534,0,0,1-.514.384" transform="translate(80.766 -87.781)" fill="#251d1b"/>
      <path id="Trazado_156620" data-name="Trazado 156620" d="M175.91,204.2c-11.949,5.623-16.869,41.471-21.79,64.666s-19.613,80.8-19.613,80.8l34.016,24.4,39.192,1.479,22.318-118.628Z" transform="translate(186.41 -48.486)" fill="#e48c68"/>
      <path id="Trazado_156621" data-name="Trazado 156621" d="M245.38,111.572s-10.009,4.527-4.555,27.919S265.243,162.9,265.243,162.9l15.3-1.488c-10.794-17.271-12.38-40.562-12.425-61.285Z" transform="translate(56.064 -23.774)" fill="#1c1ca3"/>
      <path id="Trazado_156622" data-name="Trazado 156622" d="M187.082,113.222,175.119,85.573l1.667-39.488-.014-9.922L79.893,84.937c.045,20.723,1.632,44.014,12.426,61.286L213.8,134.414Z" transform="translate(244.29 -8.587)" fill="#fcfcfc"/>
      <path id="Trazado_156623" data-name="Trazado 156623" d="M98.658,56.424C90.411,23.446,63.72,1.715,39.043,7.887S1.047,45.8,9.294,78.774s34.939,54.709,59.616,48.537,38-37.909,29.748-70.887" transform="translate(412.686 -1.624)" fill="#93ad93"/>
      <path id="Trazado_156624" data-name="Trazado 156624" d="M68.517,130.748c13.57-3.393,24.5-13.49,30.767-28.435,6.051-14.421,7.038-31.744,2.776-48.778C94.888,24.856,73.771,2.955,50.708.278A40.6,40.6,0,0,0,36.119,1.2C8.69,8.061-6.358,42.7,2.576,78.417c7.173,28.676,28.291,50.577,51.356,53.255h0a40.589,40.589,0,0,0,14.582-.923M91.939,56.067c3.717,14.865,2.909,29.853-2.276,42.21-4.967,11.839-13.377,19.776-23.677,22.351a30.264,30.264,0,0,1-10.847.679h0c-18.844-2.188-36.3-20.866-42.438-45.422C5.161,45.752,16.8,16.788,38.65,11.324A30.221,30.221,0,0,1,49.5,10.642C68.347,12.83,85.8,31.511,91.939,56.067" transform="translate(414.344 0)" fill="#1c1ca3"/>
      <path id="Trazado_156625" data-name="Trazado 156625" d="M69.227,124.165c10.439-2.611,18.952-10.639,23.972-22.6,5.222-12.445,6.038-27.532,2.3-42.484C89.312,34.345,71.709,15.532,52.691,13.324a30.679,30.679,0,0,0-11.011.692C19.6,19.538,7.817,48.738,15.41,79.1c6.184,24.727,23.789,43.54,42.814,45.749a30.735,30.735,0,0,0,11-.689M94.652,59.286c3.7,14.773,2.9,29.666-2.254,41.935-4.913,11.708-13.217,19.559-23.381,22.1a29.828,29.828,0,0,1-10.7.67c-18.67-2.168-35.967-20.712-42.066-45.095C8.777,48.99,20.276,20.266,41.89,14.861a29.748,29.748,0,0,1,10.7-.673c18.667,2.167,35.964,20.711,42.062,45.1" transform="translate(411.208 -3.113)"/>
      <path id="Trazado_156626" data-name="Trazado 156626" d="M71.388,73.909c-2.2-9.815-7.631-16.955-12.129-15.946s-6.36,9.783-4.16,19.6S62.73,94.516,67.228,93.508s6.36-9.783,4.16-19.6" transform="translate(405.388 -13.74)" fill="#fff"/>
      <path id="Trazado_156627" data-name="Trazado 156627" d="M66.237,93.851a4.276,4.276,0,0,0,.943-.1c2.32-.521,4.049-2.925,4.865-6.774a32.133,32.133,0,0,0-.432-13.254C69.525,64.414,64.53,57.4,60,57.4a4.322,4.322,0,0,0-.943.1c-4.684,1.052-6.672,10.037-4.433,20.029,2.087,9.3,7.082,16.323,11.617,16.323M60,58.114c4.139,0,8.933,6.924,10.914,15.761a31.417,31.417,0,0,1,.431,12.948c-.754,3.556-2.288,5.766-4.318,6.22a3.563,3.563,0,0,1-.785.088c-4.139,0-8.933-6.925-10.914-15.761-2.154-9.606-.41-18.2,3.888-19.169A3.609,3.609,0,0,1,60,58.114" transform="translate(405.516 -13.628)"/>
      <path id="Trazado_156628" data-name="Trazado 156628" d="M60.73,121.451a.372.372,0,0,0,.147-.031l37.075-16.6a.36.36,0,1,0-.3-.657l-37.074,16.6a.359.359,0,0,0,.147.688" transform="translate(374.812 -24.726)"/>
      <path id="Trazado_156629" data-name="Trazado 156629" d="M71.181,61.617l.031,0L110.7,58.237a.359.359,0,0,0,.327-.389.344.344,0,0,0-.389-.327L71.15,60.9a.359.359,0,0,0,.031.718" transform="translate(353.975 -13.657)"/>
      <path id="Trazado_156630" data-name="Trazado 156630" d="M185.2,162.591s4.162,64.674,13.914,86.231-30.2,23.92-41.735,12.661S138.254,179.9,140.46,160.9s44.737,1.693,44.737,1.693" transform="translate(211.565 -36.298)" fill="#fcfcfc"/>
      <path id="Trazado_156631" data-name="Trazado 156631" d="M159.571,177.588a.212.212,0,0,0,.031,0l45.981-4a.359.359,0,0,0,.327-.389.348.348,0,0,0-.389-.327l-45.981,4a.359.359,0,0,0,.031.718" transform="translate(191.692 -41.047)"/>
      <path id="Trazado_156632" data-name="Trazado 156632" d="M216.046,154.009a.231.231,0,0,0,.032,0l17.1-1.517a.36.36,0,0,0,.326-.39.33.33,0,0,0-.39-.326l-17.1,1.517a.359.359,0,0,0,.032.718" transform="translate(121.035 -36.037)"/>
      <path id="Trazado_156633" data-name="Trazado 156633" d="M214.472,160.218a.23.23,0,0,0,.032,0l17.1-1.515a.36.36,0,0,0,.326-.39.334.334,0,0,0-.39-.326l-17.1,1.515a.359.359,0,0,0,.032.718" transform="translate(123.81 -37.511)"/>
      <path id="Trazado_156634" data-name="Trazado 156634" d="M212.363,166.777a.231.231,0,0,0,.032,0l17.1-1.517a.36.36,0,0,0,.326-.39.341.341,0,0,0-.39-.326l-17.1,1.517a.359.359,0,0,0,.032.718" transform="translate(127.527 -39.069)"/>
      <path id="Trazado_156635" data-name="Trazado 156635" d="M159.107,181.706l-29.493,3.657c-5.267.657-9.034,6.023-8.429,11.993.5,4.955,3.875,8.721,8.012,9.5-4.08,1.656-6.771,6.293-6.254,11.4a10.9,10.9,0,0,0,5.513,8.631,11.35,11.35,0,0,0-4.147,10.163c.508,5.022,3.965,8.83,8.181,9.537a10.163,10.163,0,0,0-3.794,9.171c.541,5.351,4.8,9.216,9.52,8.633l26.442-3.28a7.846,7.846,0,0,0,3.359-1.248,10.133,10.133,0,0,0,4.2-9.5,9.657,9.657,0,0,0-5.492-7.992,8.943,8.943,0,0,0,1.447-.738,11.3,11.3,0,0,0,4.682-10.6,10.9,10.9,0,0,0-5.543-8.645,11.328,11.328,0,0,0,4.177-10.147c-.5-4.953-3.871-8.716-8.005-9.5a9,9,0,0,0,1.566-.8,11.3,11.3,0,0,0,4.681-10.6c-.6-5.969-5.358-10.28-10.619-9.63" transform="translate(253.737 -43.129)" fill="#e48c68"/>
      <path id="Trazado_156636" data-name="Trazado 156636" d="M133.309,213.706a.43.43,0,0,1,.028-.827l34.282-4.122a.388.388,0,0,1,.409.372.408.408,0,0,1-.326.461l-34.282,4.121a.319.319,0,0,1-.111,0" transform="translate(249.555 -49.568)" fill="#3c251d"/>
      <path id="Trazado_156637" data-name="Trazado 156637" d="M151.8,240.174a.405.405,0,0,1-.3-.35.413.413,0,0,1,.311-.477l20.921-3.473a.38.38,0,0,1,.42.355.413.413,0,0,1-.31.477l-20.921,3.473a.323.323,0,0,1-.124,0" transform="translate(230.32 -56.005)" fill="#3c251d"/>
      <path id="Trazado_156638" data-name="Trazado 156638" d="M131.814,264.717a.4.4,0,0,1-.294-.346.412.412,0,0,1,.3-.479l23.677-4.234a.372.372,0,0,1,.424.349.412.412,0,0,1-.305.479l-23.677,4.234a.294.294,0,0,1-.129,0" transform="translate(262.795 -61.652)" fill="#3c251d"/>
      <path id="Trazado_156639" data-name="Trazado 156639" d="M169.624,266.848a.4.4,0,0,1-.292-.326.42.42,0,0,1,.284-.5l3.3-.776a.375.375,0,0,1,.439.325.422.422,0,0,1-.284.5l-3.3.776a.33.33,0,0,1-.147,0" transform="translate(216.533 -62.98)" fill="#3c251d"/>
      <path id="Trazado_156640" data-name="Trazado 156640" d="M178.149,202.983a.367.367,0,0,1-.1.045l-7.568,2.038a.343.343,0,0,1-.323-.079,12.469,12.469,0,0,1-3.733-8.48.424.424,0,0,1,.365-.451.408.408,0,0,1,.4.416,11.879,11.879,0,0,0,3.294,7.7l7.213-1.942c2.539-5.519-.562-10.967-1.277-12.1l-6.3,1.584a.384.384,0,0,1-.458-.329.438.438,0,0,1,.287-.518l6.541-1.645a.36.36,0,0,1,.384.152c.047.068,4.653,6.715,1.416,13.45a.422.422,0,0,1-.143.166" transform="translate(212.661 -44.925)" fill="#3c251d"/>
      <path id="Trazado_156641" data-name="Trazado 156641" d="M177.686,230.483a.367.367,0,0,1-.107.036l-7.686,1.376a.346.346,0,0,1-.317-.107,12.722,12.722,0,0,1-3.153-8.775.387.387,0,1,1,.767.031A12.106,12.106,0,0,0,169.96,231l7.325-1.312c2.9-5.281.176-10.979-.46-12.173l-6.389,1.033a.392.392,0,0,1-.435-.368.429.429,0,0,1,.321-.491l6.636-1.073a.365.365,0,0,1,.372.184c.042.072,4.19,7.1.509,13.528a.41.41,0,0,1-.153.153" transform="translate(212.746 -51.434)" fill="#3c251d"/>
      <path id="Trazado_156642" data-name="Trazado 156642" d="M174.163,256.465a.353.353,0,0,1-.107.036l-7.686,1.376a.346.346,0,0,1-.317-.107A12.723,12.723,0,0,1,162.9,249a.387.387,0,1,1,.767.031,12.1,12.1,0,0,0,2.77,7.957l7.326-1.312c2.9-5.281.176-10.979-.461-12.173l-6.388,1.033a.392.392,0,0,1-.435-.368.429.429,0,0,1,.322-.491l6.635-1.073a.366.366,0,0,1,.373.184c.041.072,4.19,7.1.508,13.528a.4.4,0,0,1-.153.153" transform="translate(218.955 -57.603)" fill="#3c251d"/>
      <path id="Trazado_156643" data-name="Trazado 156643" d="M168.183,281.865a.358.358,0,0,1-.1.034l-7.28,1.3a.327.327,0,0,1-.3-.1,12.045,12.045,0,0,1-2.986-8.311.366.366,0,1,1,.727.03,11.465,11.465,0,0,0,2.622,7.536l6.938-1.242c2.75-5,.167-10.4-.435-11.53l-6.052.978a.372.372,0,0,1-.412-.349.406.406,0,0,1,.305-.465l6.284-1.016a.348.348,0,0,1,.353.175c.04.068,3.969,6.72.481,12.813a.383.383,0,0,1-.145.145" transform="translate(229.132 -63.808)" fill="#3c251d"/>
      <path id="Trazado_156644" data-name="Trazado 156644" d="M468.191,455.542c-8.085-5.39-16.171-9.686-26.019-9.37.257-2.5.563-5.1.933-7.814a658.169,658.169,0,0,1,77.338-7.618c-1.884,9.161-3.233,17.175-3.914,23.475,19.917,2.606,58.421,2.166,93.822-1.523l7.812,74.569c-1.262.133-31.312,3.245-63.83,3.536-1.668.014-3.309.021-4.933.021-25.627,0-45.512-1.874-60.914-5.975,5.348-24.371.989-52.272-20.3-69.3" transform="translate(-436.332 -102.277)" fill="#e48c68"/>
      <path id="Trazado_156645" data-name="Trazado 156645" d="M636.472,460.342c21.285,17.028,25.644,44.93,20.3,69.3-17.627-4.693-29.378-12.3-37.123-23.365-7.761-11.085-12.207-26.056-9.193-55.305,9.848-.316,17.935,3.981,26.019,9.37" transform="translate(-604.613 -107.077)" fill="#db704a"/>
      <rect id="Rectángulo_38466" data-name="Rectángulo 38466" width="11.188" height="4.244" transform="translate(43.28 401.656)" fill="#3c251d"/>
      <rect id="Rectángulo_38467" data-name="Rectángulo 38467" width="11.188" height="4.244" transform="translate(57.361 401.656)" fill="#3c251d"/>
      <rect id="Rectángulo_38468" data-name="Rectángulo 38468" width="11.188" height="4.244" transform="translate(71.347 401.656)" fill="#3c251d"/>
      <rect id="Rectángulo_38469" data-name="Rectángulo 38469" width="11.188" height="4.244" transform="translate(84.85 401.656)" fill="#3c251d"/>
      <rect id="Rectángulo_38470" data-name="Rectángulo 38470" width="11.188" height="4.244" transform="translate(99.221 401.656)" fill="#3c251d"/>
      <rect id="Rectángulo_38471" data-name="Rectángulo 38471" width="11.188" height="4.244" transform="translate(112.724 401.656)" fill="#3c251d"/>
      <path id="Trazado_156646" data-name="Trazado 156646" d="M456.068,374.11l-162.981,2.172a6.112,6.112,0,0,0-5.935,5.039L266.706,496.065a6.111,6.111,0,0,0,5.991,7.183l161.909.686a6.111,6.111,0,0,0,6.038-5.012l21.517-117.6a6.111,6.111,0,0,0-6.093-7.211" transform="translate(-146.556 -88.83)" fill="#c6bcc6"/>
      <path id="Trazado_156647" data-name="Trazado 156647" d="M449.491,374.11,286.51,376.282a6.112,6.112,0,0,0-5.935,5.039L260.129,496.065a6.111,6.111,0,0,0,5.991,7.183l161.909.686a6.111,6.111,0,0,0,6.038-5.012l21.517-117.6a6.111,6.111,0,0,0-6.093-7.211" transform="translate(-134.963 -88.83)" fill="#445a51"/>
      <path id="Trazado_156648" data-name="Trazado 156648" d="M273.888,495.9l20.446-114.745a6.111,6.111,0,0,1,5.935-5.038l162.981-2.172a5.76,5.76,0,0,1,.589.059l-158.554,2.113a6.111,6.111,0,0,0-5.935,5.038L278.9,495.9a6.111,6.111,0,0,0,5.991,7.183l157.133.666a.945.945,0,0,0-.158.02l-161.99-.686a6.111,6.111,0,0,1-5.991-7.183" transform="translate(-153.609 -88.79)" fill="#739485"/>
      <path id="Trazado_156649" data-name="Trazado 156649" d="M462.431,541.5l128.839-1.717-.148-11.1L462.371,530.4a.428.428,0,0,0-.422.434l.138,10.33a.341.341,0,0,0,.345.336" transform="translate(-424.52 -125.533)" fill="#445a51"/>
      <rect id="Rectángulo_38472" data-name="Rectángulo 38472" width="13.31" height="3.665" transform="translate(97.871 407.154)" fill="#3c251d"/>
      <rect id="Rectángulo_38473" data-name="Rectángulo 38473" width="13.31" height="1.447" transform="translate(97.871 407.636)" fill="#fff"/>
      <path id="Trazado_156650" data-name="Trazado 156650" d="M615.181,536.779a1.961,1.961,0,1,1,1.961,1.961,1.961,1.961,0,0,1-1.961-1.961" transform="translate(-569.201 -126.989)" fill="#3c251d"/>
      <path id="Trazado_156651" data-name="Trazado 156651" d="M607,536.779a1.961,1.961,0,1,1,1.961,1.961A1.961,1.961,0,0,1,607,536.779" transform="translate(-554.785 -126.989)" fill="#3c251d"/>
      <path id="Trazado_156652" data-name="Trazado 156652" d="M381.137,460.923a14.231,14.231,0,0,1-12.339-.114c-5.8-2.732-11.415-9.411-10.42-16.182.964-6.555,7.285-10.857,13.415-12.079a15.825,15.825,0,0,1,12.516,2.606c8.183,6.186,5.743,20.846-2.85,25.6-.106.059-.214.115-.321.171" transform="translate(-143.512 -102.628)" fill="#fff"/>
      <path id="Trazado_156653" data-name="Trazado 156653" d="M449.85,549.283l7.25-29.069c1.291-5.191-2.621-9.434-8.74-9.493a14.539,14.539,0,0,0-12.334,6.761c-.132-4.146-3.721-7.264-8.953-7.314a14.914,14.914,0,0,0-10.554,4.427c-1.112-3-4.251-5.092-8.509-5.132a14.51,14.51,0,0,0-12.432,6.921c-.968-2.735-3.8-4.645-7.66-4.681-5.484-.053-10.87,3.672-12.032,8.32l-6.5,26.062a6.718,6.718,0,0,0,0,3.4c.8,2.972,3.779,5.07,7.84,5.11a13.318,13.318,0,0,0,9.916-4.474,7.043,7.043,0,0,0,.2,1.487c.9,3.315,4.217,5.655,8.746,5.7a14.914,14.914,0,0,0,10.58-4.453c1.107,3.005,4.221,5.118,8.483,5.159a14.536,14.536,0,0,0,12.329-6.754,7.084,7.084,0,0,0,.212,1.608c.894,3.314,4.216,5.655,8.745,5.7,6.117.059,12.125-4.1,13.421-9.281" transform="translate(-219.845 -120.968)" fill="#e48c68"/>
      <path id="Trazado_156654" data-name="Trazado 156654" d="M405.165,519.754a.568.568,0,0,1,.473-.25c.236,0,.384.168.334.368l-8.555,33.775a.539.539,0,0,1-.519.358c-.236,0-.384-.167-.334-.368l8.555-33.775a.382.382,0,0,1,.046-.108" transform="translate(-189.364 -123.353)" fill="#3c251d"/>
      <path id="Trazado_156655" data-name="Trazado 156655" d="M426.467,515.965a.565.565,0,0,1,.454-.249c.239-.006.4.153.357.354L423,536.785a.528.528,0,0,1-.5.37c-.239.005-.4-.153-.358-.354l4.275-20.716a.361.361,0,0,1,.05-.12" transform="translate(-230.175 -122.453)" fill="#3c251d"/>
      <path id="Trazado_156656" data-name="Trazado 156656" d="M457.233,529.2a.563.563,0,0,1,.451-.249c.237-.008.4.148.36.348L453.5,552.779a.513.513,0,0,1-.5.374c-.237.008-.4-.149-.361-.349l4.539-23.478a.321.321,0,0,1,.05-.125" transform="translate(-284.199 -125.597)" fill="#3c251d"/>
      <path id="Trazado_156657" data-name="Trazado 156657" d="M450.1,518.311a.562.562,0,0,1,.429-.249c.239-.017.411.13.386.33l-.448,3.29a.519.519,0,0,1-.483.392c-.239.017-.411-.131-.386-.33l.448-3.29a.37.37,0,0,1,.054-.143" transform="translate(-274.748 -123.01)" fill="#3c251d"/>
      <path id="Trazado_156658" data-name="Trazado 156658" d="M373.933,527.486a.307.307,0,0,1-.007-.106l.775-7.578a.436.436,0,0,1,.2-.306,16.422,16.422,0,0,1,9.75-2.711.314.314,0,0,1,.31.4.564.564,0,0,1-.558.345,15.488,15.488,0,0,0-8.816,2.37l-.738,7.222c4.517,3.065,11.039.641,12.424.069l.756-6.294a.527.527,0,0,1,.493-.409c.249-.022.43.136.406.336l-.785,6.537a.481.481,0,0,1-.291.357c-.084.038-8.345,3.8-13.8-.079a.285.285,0,0,1-.111-.156" transform="translate(-155.053 -122.7)" fill="#3c251d"/>
      <path id="Trazado_156659" data-name="Trazado 156659" d="M400.462,524.17a.3.3,0,0,1,0-.107l1.471-7.621a.463.463,0,0,1,.223-.3,16.182,16.182,0,0,1,9.827-2.115.309.309,0,0,1,.268.429.572.572,0,0,1-.581.313A15.223,15.223,0,0,0,402.8,516.6l-1.4,7.264c4.148,3.394,10.779,1.36,12.192.87l1.333-6.323a.543.543,0,0,1,.523-.383c.246-.006.41.165.367.366l-1.384,6.566a.5.5,0,0,1-.319.343c-.087.033-8.551,3.306-13.548-.971a.283.283,0,0,1-.095-.165" transform="translate(-202.174 -122.024)" fill="#3c251d"/>
      <path id="Trazado_156660" data-name="Trazado 156660" d="M427.419,524.782a.3.3,0,0,1,0-.108l1.471-7.621a.463.463,0,0,1,.223-.3,16.183,16.183,0,0,1,9.827-2.115.309.309,0,0,1,.268.429.572.572,0,0,1-.581.313,15.223,15.223,0,0,0-8.878,1.831l-1.4,7.264c4.147,3.393,10.778,1.36,12.191.87l1.333-6.323a.543.543,0,0,1,.523-.383c.247-.006.409.165.367.366l-1.384,6.566a.5.5,0,0,1-.319.342c-.086.033-8.551,3.306-13.548-.97a.284.284,0,0,1-.095-.165" transform="translate(-249.688 -122.17)" fill="#3c251d"/>
      <path id="Trazado_156661" data-name="Trazado 156661" d="M455.369,527.574a.3.3,0,0,1,0-.1l1.394-7.219a.438.438,0,0,1,.21-.281,15.333,15.333,0,0,1,9.309-2,.292.292,0,0,1,.252.406.541.541,0,0,1-.55.3,14.419,14.419,0,0,0-8.409,1.734l-1.328,6.881c3.928,3.214,10.208,1.288,11.547.824l1.262-5.989a.515.515,0,0,1,.5-.363c.234-.005.388.157.347.347l-1.31,6.22a.479.479,0,0,1-.3.324c-.082.031-8.1,3.131-12.831-.919a.264.264,0,0,1-.09-.157" transform="translate(-298.14 -122.961)" fill="#3c251d"/>
    </g>
    <path id="Trazado_157962" data-name="Trazado 157962" d="M8.554,30.834V40H2.041V12.984h10.78A12.556,12.556,0,0,1,18.3,14.125,8.6,8.6,0,0,1,22,17.373,8.868,8.868,0,0,1,23.3,22.15a7.817,7.817,0,0,1-2.83,6.318q-2.83,2.366-7.765,2.366Zm0-5.028h4.268a4.025,4.025,0,0,0,2.885-.946,3.516,3.516,0,0,0,.993-2.672,4.346,4.346,0,0,0-1.021-3.024,3.614,3.614,0,0,0-2.783-1.15H8.554Zm16.9,3.971a11.849,11.849,0,0,1,1.169-5.353,8.359,8.359,0,0,1,3.358-3.609,10.115,10.115,0,0,1,5.14-1.262,9.231,9.231,0,0,1,7.106,2.792,10.715,10.715,0,0,1,2.6,7.6v.223a10.4,10.4,0,0,1-2.607,7.45,9.256,9.256,0,0,1-7.06,2.755,9.361,9.361,0,0,1-6.884-2.57,10.051,10.051,0,0,1-2.8-6.967Zm6.253.39a7.47,7.47,0,0,0,.872,4.082,2.905,2.905,0,0,0,2.579,1.3q3.34,0,3.414-5.14v-.631q0-5.4-3.451-5.4-3.136,0-3.4,4.657Zm26.385,4.193a1.445,1.445,0,0,0-.835-1.28,12.7,12.7,0,0,0-3.173-1,14.468,14.468,0,0,1-3.859-1.364,6.465,6.465,0,0,1-2.319-2.05,4.9,4.9,0,0,1-.8-2.765,5.549,5.549,0,0,1,2.282-4.555,9.4,9.4,0,0,1,5.975-1.791,10.416,10.416,0,0,1,6.383,1.8,5.628,5.628,0,0,1,2.412,4.731H57.891q0-2.412-2.542-2.412a2.52,2.52,0,0,0-1.651.547,1.7,1.7,0,0,0-.668,1.364,1.556,1.556,0,0,0,.816,1.354,7.714,7.714,0,0,0,2.607.854,22.528,22.528,0,0,1,3.145.8q4.527,1.559,4.527,5.585a5.258,5.258,0,0,1-2.44,4.472,10.7,10.7,0,0,1-6.318,1.726,10.919,10.919,0,0,1-4.6-.928,7.7,7.7,0,0,1-3.154-2.523,5.714,5.714,0,0,1-1.132-3.358h5.845a2.416,2.416,0,0,0,.928,2.032,3.816,3.816,0,0,0,2.282.64,3,3,0,0,0,1.92-.52A1.662,1.662,0,0,0,58.095,34.359ZM73.644,40H67.372V19.924h6.271ZM67,14.747a2.791,2.791,0,0,1,.965-2.189,4.1,4.1,0,0,1,5.01,0,2.791,2.791,0,0,1,.965,2.189,2.791,2.791,0,0,1-.965,2.189,4.1,4.1,0,0,1-5.01,0A2.791,2.791,0,0,1,67,14.747Zm18.981,20.8a2.781,2.781,0,0,0,2.041-.714,2.62,2.62,0,0,0,.705-1.995h5.863a6.941,6.941,0,0,1-2.366,5.418,8.8,8.8,0,0,1-6.1,2.115,8.91,8.91,0,0,1-6.9-2.746q-2.523-2.746-2.523-7.607v-.26a12.228,12.228,0,0,1,1.123-5.372,8.173,8.173,0,0,1,3.238-3.581,9.654,9.654,0,0,1,5.01-1.252,8.689,8.689,0,0,1,6.216,2.171,7.7,7.7,0,0,1,2.3,5.882H88.729a3.432,3.432,0,0,0-.761-2.394,2.626,2.626,0,0,0-2.041-.835q-2.431,0-2.839,3.1a21.865,21.865,0,0,0-.13,2.709,8.588,8.588,0,0,0,.724,4.193A2.505,2.505,0,0,0,85.982,35.547ZM103.832,40H97.561V19.924h6.271ZM97.189,14.747a2.791,2.791,0,0,1,.965-2.189,4.1,4.1,0,0,1,5.01,0,2.791,2.791,0,0,1,.965,2.189,2.791,2.791,0,0,1-.965,2.189,4.1,4.1,0,0,1-5.01,0A2.791,2.791,0,0,1,97.189,14.747Zm9.7,15.029a11.849,11.849,0,0,1,1.169-5.353,8.359,8.359,0,0,1,3.358-3.609,10.115,10.115,0,0,1,5.14-1.262,9.231,9.231,0,0,1,7.106,2.792,10.715,10.715,0,0,1,2.6,7.6v.223a10.4,10.4,0,0,1-2.607,7.45,9.256,9.256,0,0,1-7.06,2.755,9.361,9.361,0,0,1-6.884-2.57,10.051,10.051,0,0,1-2.8-6.967Zm6.253.39a7.47,7.47,0,0,0,.872,4.082,2.905,2.905,0,0,0,2.579,1.3q3.34,0,3.414-5.14v-.631q0-5.4-3.451-5.4-3.136,0-3.4,4.657Zm21.616-10.242.2,2.356a6.808,6.808,0,0,1,5.733-2.728,5.728,5.728,0,0,1,4.685,1.874,8.922,8.922,0,0,1,1.6,5.641V40h-6.271V27.327a3.388,3.388,0,0,0-.612-2.236,2.833,2.833,0,0,0-2.227-.714,2.982,2.982,0,0,0-2.728,1.447V40H128.9V19.924ZM161.76,40a7.06,7.06,0,0,1-.594-1.8,5.814,5.814,0,0,1-4.824,2.171,7.123,7.123,0,0,1-4.824-1.716,5.463,5.463,0,0,1-1.985-4.314,5.615,5.615,0,0,1,2.412-4.936q2.412-1.67,7.014-1.67h1.93V26.673q0-2.778-2.394-2.778a1.956,1.956,0,0,0-2.227,2.2h-6.253a5.605,5.605,0,0,1,2.477-4.726,10.41,10.41,0,0,1,6.318-1.816,9.127,9.127,0,0,1,6.067,1.874,6.516,6.516,0,0,1,2.282,5.14v8.888a9.1,9.1,0,0,0,.854,4.23V40Zm-3.915-4.082a3.488,3.488,0,0,0,1.939-.5,3.14,3.14,0,0,0,1.1-1.132v-3.21h-1.818q-3.266,0-3.266,2.932a1.79,1.79,0,0,0,.575,1.382A2.082,2.082,0,0,0,157.845,35.918Zm18.685-15.994.2,2.356a6.9,6.9,0,0,1,5.733-2.728q3.8,0,5.14,3.024a6.681,6.681,0,0,1,5.9-3.024q6.1,0,6.271,7.385V40h-6.271V27.327a3.827,3.827,0,0,0-.52-2.245,2.212,2.212,0,0,0-1.893-.705,2.963,2.963,0,0,0-2.765,1.651l.019.26V40h-6.271V27.364a4.023,4.023,0,0,0-.5-2.282,2.205,2.205,0,0,0-1.911-.705,3,3,0,0,0-2.746,1.651V40h-6.253V19.924ZM209.946,40h-6.271V19.924h6.271ZM203.3,14.747a2.791,2.791,0,0,1,.965-2.189,4.1,4.1,0,0,1,5.01,0,2.791,2.791,0,0,1,.965,2.189,2.791,2.791,0,0,1-.965,2.189,4.1,4.1,0,0,1-5.01,0A2.791,2.791,0,0,1,203.3,14.747ZM223.51,40.371a10.32,10.32,0,0,1-7.478-2.755,9.515,9.515,0,0,1-2.857-7.171v-.52a12.329,12.329,0,0,1,1.141-5.437,8.35,8.35,0,0,1,3.331-3.646,10.054,10.054,0,0,1,5.2-1.29,8.69,8.69,0,0,1,6.68,2.625,10.317,10.317,0,0,1,2.449,7.32v2.431H219.539A4.507,4.507,0,0,0,221,34.582a4.362,4.362,0,0,0,2.932.965,5.62,5.62,0,0,0,4.639-2.078l2.857,3.377a7.988,7.988,0,0,1-3.312,2.57A11.192,11.192,0,0,1,223.51,40.371ZM222.8,24.377q-2.746,0-3.266,3.637h6.309v-.482a3.1,3.1,0,0,0-.761-2.329A3.027,3.027,0,0,0,222.8,24.377Zm17.423-4.453.2,2.356a6.808,6.808,0,0,1,5.733-2.728,5.728,5.728,0,0,1,4.685,1.874,8.922,8.922,0,0,1,1.6,5.641V40h-6.271V27.327a3.388,3.388,0,0,0-.612-2.236,2.833,2.833,0,0,0-2.227-.714,2.982,2.982,0,0,0-2.728,1.447V40h-6.253V19.924ZM263.2,14.933v4.991h3.3v4.342h-3.3V33.45a2.345,2.345,0,0,0,.408,1.577,2.189,2.189,0,0,0,1.614.445,9.173,9.173,0,0,0,1.559-.111v4.472a11.54,11.54,0,0,1-3.525.538,6.55,6.55,0,0,1-4.769-1.521,6.236,6.236,0,0,1-1.54-4.62V24.266h-2.561V19.924h2.561V14.933Zm4.416,14.844a11.849,11.849,0,0,1,1.169-5.353,8.359,8.359,0,0,1,3.358-3.609,10.115,10.115,0,0,1,5.14-1.262,9.231,9.231,0,0,1,7.106,2.792,10.715,10.715,0,0,1,2.6,7.6v.223a10.4,10.4,0,0,1-2.607,7.45,9.256,9.256,0,0,1-7.06,2.755,9.361,9.361,0,0,1-6.884-2.57,10.051,10.051,0,0,1-2.8-6.967Zm6.253.39a7.47,7.47,0,0,0,.872,4.082,2.905,2.905,0,0,0,2.579,1.3q3.34,0,3.414-5.14v-.631q0-5.4-3.451-5.4-3.136,0-3.4,4.657Z" transform="translate(932 3217.821)" fill="#0c487b"/>
    <path id="Trazado_157963" data-name="Trazado 157963" d="M10.428,29.813a12.264,12.264,0,0,1,2.06-7.515,6.779,6.779,0,0,1,5.752-2.746,5.766,5.766,0,0,1,4.527,2.115V11.5h6.271V40H23.416L23.1,37.848a5.921,5.921,0,0,1-4.9,2.523,6.767,6.767,0,0,1-5.678-2.746Q10.428,34.879,10.428,29.813Zm6.253.39q0,5.344,3.117,5.344A3.078,3.078,0,0,0,22.767,33.8V26.158a3,3,0,0,0-2.932-1.781q-2.895,0-3.136,4.676ZM42.3,40.371a10.32,10.32,0,0,1-7.478-2.755,9.515,9.515,0,0,1-2.857-7.171v-.52a12.329,12.329,0,0,1,1.141-5.437,8.35,8.35,0,0,1,3.331-3.646,10.054,10.054,0,0,1,5.2-1.29,8.69,8.69,0,0,1,6.68,2.625,10.317,10.317,0,0,1,2.449,7.32v2.431H38.334A4.507,4.507,0,0,0,39.8,34.582a4.362,4.362,0,0,0,2.932.965,5.62,5.62,0,0,0,4.639-2.078l2.857,3.377a7.988,7.988,0,0,1-3.312,2.57A11.192,11.192,0,0,1,42.3,40.371ZM41.6,24.377q-2.746,0-3.266,3.637h6.309v-.482a3.1,3.1,0,0,0-.761-2.329A3.027,3.027,0,0,0,41.6,24.377Zm27.053-4.453.2,2.356a6.9,6.9,0,0,1,5.733-2.728q3.8,0,5.14,3.024a6.681,6.681,0,0,1,5.9-3.024q6.1,0,6.271,7.385V40H85.63V27.327a3.827,3.827,0,0,0-.52-2.245,2.212,2.212,0,0,0-1.893-.705,2.963,2.963,0,0,0-2.765,1.651l.019.26V40H74.2V27.364a4.023,4.023,0,0,0-.5-2.282,2.205,2.205,0,0,0-1.911-.705,3,3,0,0,0-2.746,1.651V40H62.789V19.924ZM106.782,40a7.06,7.06,0,0,1-.594-1.8,5.814,5.814,0,0,1-4.824,2.171,7.123,7.123,0,0,1-4.824-1.716,5.463,5.463,0,0,1-1.985-4.314,5.615,5.615,0,0,1,2.412-4.936q2.412-1.67,7.014-1.67h1.93V26.673q0-2.778-2.394-2.778a1.956,1.956,0,0,0-2.227,2.2H95.037a5.605,5.605,0,0,1,2.477-4.726,10.41,10.41,0,0,1,6.318-1.816,9.127,9.127,0,0,1,6.067,1.874,6.516,6.516,0,0,1,2.282,5.14v8.888a9.1,9.1,0,0,0,.854,4.23V40Zm-3.915-4.082a3.488,3.488,0,0,0,1.939-.5,3.14,3.14,0,0,0,1.1-1.132v-3.21h-1.818q-3.266,0-3.266,2.932a1.79,1.79,0,0,0,.575,1.382A2.082,2.082,0,0,0,102.867,35.918Zm24.919-10.335-2.06-.148q-2.95,0-3.785,1.855V40h-6.253V19.924h5.863l.2,2.579a4.842,4.842,0,0,1,4.4-2.95,6.1,6.1,0,0,1,1.744.223Zm10.391,9.964a2.781,2.781,0,0,0,2.041-.714,2.62,2.62,0,0,0,.705-1.995h5.863a6.941,6.941,0,0,1-2.366,5.418,8.8,8.8,0,0,1-6.1,2.115,8.91,8.91,0,0,1-6.9-2.746q-2.523-2.746-2.523-7.607v-.26a12.229,12.229,0,0,1,1.123-5.372,8.173,8.173,0,0,1,3.238-3.581,9.654,9.654,0,0,1,5.01-1.252,8.689,8.689,0,0,1,6.216,2.171,7.7,7.7,0,0,1,2.3,5.882h-5.863a3.432,3.432,0,0,0-.761-2.394,2.626,2.626,0,0,0-2.041-.835q-2.431,0-2.839,3.1a21.864,21.864,0,0,0-.13,2.709,8.588,8.588,0,0,0,.724,4.193A2.505,2.505,0,0,0,138.177,35.547ZM160.739,40a7.06,7.06,0,0,1-.594-1.8,5.814,5.814,0,0,1-4.824,2.171,7.123,7.123,0,0,1-4.824-1.716,5.463,5.463,0,0,1-1.985-4.314,5.615,5.615,0,0,1,2.412-4.936q2.412-1.67,7.014-1.67h1.93V26.673q0-2.778-2.394-2.778a1.956,1.956,0,0,0-2.227,2.2h-6.253a5.605,5.605,0,0,1,2.477-4.726,10.41,10.41,0,0,1,6.318-1.816,9.127,9.127,0,0,1,6.067,1.874,6.516,6.516,0,0,1,2.282,5.14v8.888a9.1,9.1,0,0,0,.854,4.23V40Zm-3.915-4.082a3.488,3.488,0,0,0,1.939-.5,3.14,3.14,0,0,0,1.1-1.132v-3.21h-1.818q-3.266,0-3.266,2.932a1.79,1.79,0,0,0,.575,1.382A2.082,2.082,0,0,0,156.824,35.918Z" transform="translate(969 3259.821)" fill="#0c487b"/>
  </g>
</svg>
