<svg xmlns="http://www.w3.org/2000/svg" xmlns:xlink="http://www.w3.org/1999/xlink" width="1240" height="479.642" viewBox="0 0 1240 479.642">
  <defs>
    <clipPath id="clip-path">
      <rect id="Rectángulo_35731" data-name="Rectángulo 35731" width="1240" height="479.642" rx="10" fill="none"/>
    </clipPath>
    <clipPath id="clip-path-2">
      <rect id="Rectángulo_38679" data-name="Rectángulo 38679" width="360.174" height="288.775" fill="none"/>
    </clipPath>
    <clipPath id="clip-path-3">
      <rect id="Rectángulo_38726" data-name="Rectángulo 38726" width="418.808" height="353.59" fill="none"/>
    </clipPath>
    <clipPath id="clip-path-5">
      <rect id="Rectángulo_38721" data-name="Rectángulo 38721" width="103.055" height="95.453" fill="none"/>
    </clipPath>
    <clipPath id="clip-path-6">
      <rect id="Rectángulo_38722" data-name="Rectángulo 38722" width="192.668" height="186.427" fill="none"/>
    </clipPath>
    <clipPath id="clip-path-7">
      <rect id="Rectángulo_38723" data-name="Rectángulo 38723" width="33.765" height="44.184" fill="none"/>
    </clipPath>
    <clipPath id="clip-path-8">
      <rect id="Rectángulo_38724" data-name="Rectángulo 38724" width="100.835" height="85.843" fill="none"/>
    </clipPath>
    <clipPath id="clip-path-9">
      <rect id="Rectángulo_38688" data-name="Rectángulo 38688" width="85.578" height="105.185" fill="#afafaf"/>
    </clipPath>
  </defs>
  <g id="Grupo_159418" data-name="Grupo 159418" transform="translate(-20582 8530)">
    <g id="Grupo_158985" data-name="Grupo 158985" transform="translate(20582 -8530)">
      <g id="Grupo_131449" data-name="Grupo 131449">
        <g id="Grupo_131448" data-name="Grupo 131448" clip-path="url(#clip-path)">
          <g id="Enmascarar_grupo_70" data-name="Enmascarar grupo 70">
            <g id="Grupo_131152" data-name="Grupo 131152">
              <path id="Rectángulo_35714" data-name="Rectángulo 35714" d="M1240,0H0V479.642H1240Z" fill="#b0c8cb"/>
              <path id="Trazado_123569" data-name="Trazado 123569" d="M0,203.669s55.82,11.822,138.323-52.258c42.116-35.516,86.557-70.785,138.488-90.206,61.734-23.094,128.733-20.625,192.006-5.363,58.736,14.168,115.215,38.264,171.127,60.679,106.871,42.845,213.941,90.654,326.8,115.131,81.638,17.7,184.7,24.881,242.094-49.365,14.192-18.36,24.177-39.737,31.164-61.861V478.855H.035C.035,390.96,0,203.669,0,203.669Z" transform="translate(0 0.431)" fill="#fff" opacity="0.36" style="isolation: isolate"/>
              <path id="Trazado_123570" data-name="Trazado 123570" d="M1239.979,418.442c-210.437,99.168-511.1-52.759-716.952-61.854S237.173,457.565,0,382.6v93.2H1239.979Z" transform="translate(0.021 3.479)" fill="#fff" opacity="0.39" style="isolation: isolate"/>
            </g>
          </g>
        </g>
      </g>
    </g>
    <g id="Grupo_158987" data-name="Grupo 158987" transform="translate(21337.582 -8350.732)">
      <rect id="Rectángulo_35706" data-name="Rectángulo 35706" width="315.865" height="121.173" rx="12" transform="translate(0.244 0.799)" fill="#1169e3"/>
      <path id="Trazado_157967" data-name="Trazado 157967" d="M11.2,11.57a6.853,6.853,0,0,1-.516,2.77,4.754,4.754,0,0,1-1.43,1.887l1.891,1.484-1.492,1.32L7.234,17.086a5.126,5.126,0,0,1-.859.07,4.732,4.732,0,0,1-2.523-.68,4.515,4.515,0,0,1-1.719-1.941,6.67,6.67,0,0,1-.617-2.9V11.07a6.831,6.831,0,0,1,.605-2.957A4.508,4.508,0,0,1,3.832,6.152a4.706,4.706,0,0,1,2.527-.684,4.706,4.706,0,0,1,2.527.684A4.508,4.508,0,0,1,10.6,8.113a6.811,6.811,0,0,1,.605,2.949Zm-2.375-.516a4.787,4.787,0,0,0-.641-2.719,2.088,2.088,0,0,0-1.828-.93,2.088,2.088,0,0,0-1.82.918,4.732,4.732,0,0,0-.648,2.691v.555a4.847,4.847,0,0,0,.641,2.7,2.082,2.082,0,0,0,1.844.961,2.064,2.064,0,0,0,1.813-.926,4.819,4.819,0,0,0,.641-2.7Zm9.008,5.086a2.831,2.831,0,0,1-2.312,1.016,2.67,2.67,0,0,1-2.074-.781,3.335,3.335,0,0,1-.73-2.289V8.547h2.258v5.467q0,1.322,1.2,1.322a1.63,1.63,0,0,0,1.578-.8V8.547h2.266V17H17.9Zm7.781,1.016a4.15,4.15,0,0,1-3.027-1.141,4.054,4.054,0,0,1-1.168-3.039v-.219a5.106,5.106,0,0,1,.492-2.277,3.612,3.612,0,0,1,1.395-1.547,3.914,3.914,0,0,1,2.059-.543A3.508,3.508,0,0,1,28.1,9.484a4.444,4.444,0,0,1,1,3.1v.922H23.711a2.1,2.1,0,0,0,.66,1.328,2,2,0,0,0,1.395.5,2.437,2.437,0,0,0,2.039-.945l1.109,1.242a3.389,3.389,0,0,1-1.375,1.121A4.511,4.511,0,0,1,25.617,17.156Zm-.258-6.945a1.411,1.411,0,0,0-1.09.455,2.357,2.357,0,0,0-.535,1.3h3.141v-.181a1.681,1.681,0,0,0-.406-1.165A1.456,1.456,0,0,0,25.359,10.211Zm4.664,2.5a5.094,5.094,0,0,1,.887-3.148,2.877,2.877,0,0,1,2.426-1.172,2.589,2.589,0,0,1,2.039.922V5h2.266V17H35.6l-.109-.9a2.657,2.657,0,0,1-2.172,1.055,2.869,2.869,0,0,1-2.395-1.176A5.258,5.258,0,0,1,30.023,12.711Zm2.258.168A3.337,3.337,0,0,0,32.7,14.7a1.349,1.349,0,0,0,1.2.634,1.511,1.511,0,0,0,1.477-.884V11.111a1.489,1.489,0,0,0-1.461-.884Q32.281,10.227,32.281,12.879ZM44.289,17a2.507,2.507,0,0,1-.227-.758,2.732,2.732,0,0,1-2.133.914,3,3,0,0,1-2.059-.719,2.312,2.312,0,0,1-.816-1.812,2.389,2.389,0,0,1,1-2.062,4.915,4.915,0,0,1,2.879-.727h1.039v-.484a1.393,1.393,0,0,0-.3-.937,1.183,1.183,0,0,0-.949-.352,1.345,1.345,0,0,0-.895.273.929.929,0,0,0-.324.75H39.242A2.268,2.268,0,0,1,39.7,9.727a3,3,0,0,1,1.281-.98,4.669,4.669,0,0,1,1.859-.355,3.689,3.689,0,0,1,2.48.785,2.747,2.747,0,0,1,.918,2.207v3.664a4.041,4.041,0,0,0,.336,1.82V17Zm-1.867-1.57a1.945,1.945,0,0,0,.922-.223,1.462,1.462,0,0,0,.625-.6V13.156h-.844q-1.7,0-1.8,1.172l-.008.133a.9.9,0,0,0,.3.7A1.153,1.153,0,0,0,42.422,15.43Zm10.3-4.766a6.134,6.134,0,0,0-.812-.062,1.654,1.654,0,0,0-1.68.867V17H47.969V8.547H50.1l.063,1.008a2.092,2.092,0,0,1,1.883-1.164,2.366,2.366,0,0,1,.7.1ZM58.336,17V10.2H57.078V8.547h1.258V8.156a3.17,3.17,0,0,1,.98-2.457,3.945,3.945,0,0,1,2.723-.863A9.031,9.031,0,0,1,64.6,5.3l-.328,1.867a10,10,0,0,0-1.187-.293A5.835,5.835,0,0,0,62.18,6.8Q60.6,6.8,60.6,8.2v.344h1.664V10.2H60.6V17Zm7.32,0H63.391V8.547h2.266Zm4.258-8.453v8.914a3.024,3.024,0,0,1-.742,2.176,2.821,2.821,0,0,1-2.141.777,4.591,4.591,0,0,1-1.117-.133V18.492a4.238,4.238,0,0,0,.711.07q1.023,0,1.023-1.086V8.547ZM67.469,6.359a1.112,1.112,0,0,1,.34-.836,1.47,1.47,0,0,1,1.852,0,1.112,1.112,0,0,1,.34.836,1.108,1.108,0,0,1-.348.844,1.448,1.448,0,0,1-1.836,0A1.108,1.108,0,0,1,67.469,6.359ZM76.578,17a2.507,2.507,0,0,1-.227-.758,2.732,2.732,0,0,1-2.133.914,3,3,0,0,1-2.059-.719,2.312,2.312,0,0,1-.816-1.812,2.389,2.389,0,0,1,1-2.062,4.915,4.915,0,0,1,2.879-.727h1.039v-.484a1.393,1.393,0,0,0-.3-.937,1.183,1.183,0,0,0-.949-.352,1.345,1.345,0,0,0-.895.273.929.929,0,0,0-.324.75H71.531a2.268,2.268,0,0,1,.453-1.359,3,3,0,0,1,1.281-.98,4.669,4.669,0,0,1,1.859-.355,3.689,3.689,0,0,1,2.48.785,2.747,2.747,0,0,1,.918,2.207v3.664a4.041,4.041,0,0,0,.336,1.82V17Zm-1.867-1.57a1.945,1.945,0,0,0,.922-.223,1.462,1.462,0,0,0,.625-.6V13.156h-.844q-1.7,0-1.8,1.172l-.008.133a.9.9,0,0,0,.3.7A1.153,1.153,0,0,0,74.711,15.43Zm13.422,1.727a4.15,4.15,0,0,1-3.027-1.141,4.054,4.054,0,0,1-1.168-3.039v-.219a5.106,5.106,0,0,1,.492-2.277,3.612,3.612,0,0,1,1.395-1.547,3.914,3.914,0,0,1,2.059-.543,3.508,3.508,0,0,1,2.73,1.094,4.444,4.444,0,0,1,1,3.1v.922H86.227a2.1,2.1,0,0,0,.66,1.328,2,2,0,0,0,1.395.5,2.437,2.437,0,0,0,2.039-.945l1.109,1.242a3.389,3.389,0,0,1-1.375,1.121A4.511,4.511,0,0,1,88.133,17.156Zm-.258-6.945a1.411,1.411,0,0,0-1.09.455,2.357,2.357,0,0,0-.535,1.3h3.141v-.181a1.681,1.681,0,0,0-.406-1.165A1.456,1.456,0,0,0,87.875,10.211Zm7.094-1.664.07.977a2.951,2.951,0,0,1,2.43-1.133,2.453,2.453,0,0,1,2,.789,3.682,3.682,0,0,1,.672,2.359V17H97.883V11.594a1.465,1.465,0,0,0-.312-1.043,1.4,1.4,0,0,0-1.039-.324,1.553,1.553,0,0,0-1.43.813V17H92.844V8.547ZM108.219,17h-2.266V5h2.266Zm6.758,0a2.507,2.507,0,0,1-.227-.758,2.732,2.732,0,0,1-2.133.914,3,3,0,0,1-2.059-.719,2.312,2.312,0,0,1-.816-1.812,2.389,2.389,0,0,1,1-2.062,4.915,4.915,0,0,1,2.879-.727h1.039v-.484a1.393,1.393,0,0,0-.3-.937,1.183,1.183,0,0,0-.949-.352,1.345,1.345,0,0,0-.895.273.929.929,0,0,0-.324.75H109.93a2.268,2.268,0,0,1,.453-1.359,3,3,0,0,1,1.281-.98,4.669,4.669,0,0,1,1.859-.355,3.689,3.689,0,0,1,2.48.785,2.747,2.747,0,0,1,.918,2.207v3.664a4.041,4.041,0,0,0,.336,1.82V17Zm-1.867-1.57a1.945,1.945,0,0,0,.922-.223,1.462,1.462,0,0,0,.625-.6V13.156h-.844q-1.7,0-1.8,1.172l-.008.133a.9.9,0,0,0,.3.7A1.153,1.153,0,0,0,113.109,15.43Zm11.648-6.883.07.945a2.971,2.971,0,0,1,2.43-1.1A2.255,2.255,0,0,1,129.5,9.68a2.9,2.9,0,0,1,2.539-1.289,2.521,2.521,0,0,1,2.047.8,3.681,3.681,0,0,1,.672,2.41V17h-2.266V11.609a1.61,1.61,0,0,0-.281-1.051,1.246,1.246,0,0,0-.992-.332,1.409,1.409,0,0,0-1.406.969l.008,5.8h-2.258V11.617a1.59,1.59,0,0,0-.289-1.062,1.259,1.259,0,0,0-.984-.328,1.463,1.463,0,0,0-1.391.8V17h-2.258V8.547Zm15.625,8.609a4.15,4.15,0,0,1-3.027-1.141,4.054,4.054,0,0,1-1.168-3.039v-.219a5.106,5.106,0,0,1,.492-2.277,3.612,3.612,0,0,1,1.395-1.547,3.914,3.914,0,0,1,2.059-.543,3.508,3.508,0,0,1,2.73,1.094,4.444,4.444,0,0,1,1,3.1v.922h-5.383a2.1,2.1,0,0,0,.66,1.328,2,2,0,0,0,1.395.5,2.437,2.437,0,0,0,2.039-.945l1.109,1.242a3.389,3.389,0,0,1-1.375,1.121A4.511,4.511,0,0,1,140.383,17.156Zm-.258-6.945a1.411,1.411,0,0,0-1.09.455,2.357,2.357,0,0,0-.535,1.3h3.141v-.181a1.681,1.681,0,0,0-.406-1.165A1.456,1.456,0,0,0,140.125,10.211Zm7.094-1.664.07.977a2.951,2.951,0,0,1,2.43-1.133,2.453,2.453,0,0,1,2,.789,3.682,3.682,0,0,1,.672,2.359V17h-2.258V11.594a1.465,1.465,0,0,0-.312-1.043,1.4,1.4,0,0,0-1.039-.324,1.553,1.553,0,0,0-1.43.813V17h-2.258V8.547ZM156.8,6.469V8.547h1.445V10.2H156.8v4.219a1.007,1.007,0,0,0,.18.672.9.9,0,0,0,.688.2,3.6,3.6,0,0,0,.664-.055v1.711a4.648,4.648,0,0,1-1.367.2,2.156,2.156,0,0,1-2.422-2.4V10.2h-1.234V8.547h1.234V6.469ZM163.4,17.156a4.15,4.15,0,0,1-3.027-1.141,4.054,4.054,0,0,1-1.168-3.039v-.219a5.106,5.106,0,0,1,.492-2.277,3.612,3.612,0,0,1,1.395-1.547,3.914,3.914,0,0,1,2.059-.543,3.508,3.508,0,0,1,2.73,1.094,4.444,4.444,0,0,1,1,3.1v.922h-5.383a2.1,2.1,0,0,0,.66,1.328,2,2,0,0,0,1.395.5,2.437,2.437,0,0,0,2.039-.945l1.109,1.242a3.389,3.389,0,0,1-1.375,1.121A4.511,4.511,0,0,1,163.4,17.156Zm-.258-6.945a1.411,1.411,0,0,0-1.09.455,2.357,2.357,0,0,0-.535,1.3h3.141v-.181a1.681,1.681,0,0,0-.406-1.165A1.456,1.456,0,0,0,163.141,10.211Zm8.648,2.5a5.094,5.094,0,0,1,.887-3.148A2.877,2.877,0,0,1,175.1,8.391a2.589,2.589,0,0,1,2.039.922V5h2.266V17h-2.039l-.109-.9a2.657,2.657,0,0,1-2.172,1.055,2.869,2.869,0,0,1-2.395-1.176A5.258,5.258,0,0,1,171.789,12.711Zm2.258.168a3.337,3.337,0,0,0,.414,1.823,1.349,1.349,0,0,0,1.2.634,1.511,1.511,0,0,0,1.477-.884V11.111a1.489,1.489,0,0,0-1.461-.884Q174.047,10.227,174.047,12.879Zm11,4.277a4.15,4.15,0,0,1-3.027-1.141,4.054,4.054,0,0,1-1.168-3.039v-.219a5.106,5.106,0,0,1,.492-2.277,3.612,3.612,0,0,1,1.395-1.547,3.914,3.914,0,0,1,2.059-.543,3.508,3.508,0,0,1,2.73,1.094,4.444,4.444,0,0,1,1,3.1v.922h-5.383a2.1,2.1,0,0,0,.66,1.328,2,2,0,0,0,1.395.5,2.437,2.437,0,0,0,2.039-.945l1.109,1.242a3.389,3.389,0,0,1-1.375,1.121A4.511,4.511,0,0,1,185.047,17.156Zm-.258-6.945a1.411,1.411,0,0,0-1.09.455,2.357,2.357,0,0,0-.535,1.3H186.3v-.181a1.681,1.681,0,0,0-.406-1.165A1.456,1.456,0,0,0,184.789,10.211ZM196.172,17h-2.266V5h2.266Zm1.508-4.3a5.013,5.013,0,0,1,.484-2.242,3.546,3.546,0,0,1,1.395-1.523,4.069,4.069,0,0,1,2.113-.539,3.849,3.849,0,0,1,2.793,1.047,4.2,4.2,0,0,1,1.207,2.844l.016.578A4.418,4.418,0,0,1,204.6,15.98a4.209,4.209,0,0,1-5.832,0,4.5,4.5,0,0,1-1.09-3.187Zm2.258.16a3.16,3.16,0,0,0,.453,1.843,1.628,1.628,0,0,0,2.578.008,3.457,3.457,0,0,0,.461-2.015,3.128,3.128,0,0,0-.461-1.831,1.5,1.5,0,0,0-1.3-.649,1.474,1.474,0,0,0-1.281.646A3.516,3.516,0,0,0,199.938,12.856Zm11.719,1.808a.727.727,0,0,0-.41-.652,4.659,4.659,0,0,0-1.316-.426q-3.016-.633-3.016-2.562a2.323,2.323,0,0,1,.934-1.879,3.766,3.766,0,0,1,2.441-.754,4.053,4.053,0,0,1,2.574.758,2.388,2.388,0,0,1,.965,1.969H211.57a1.092,1.092,0,0,0-.312-.8,1.322,1.322,0,0,0-.977-.316,1.351,1.351,0,0,0-.883.258.814.814,0,0,0-.312.656.7.7,0,0,0,.355.605,3.657,3.657,0,0,0,1.2.4,9.8,9.8,0,0,1,1.422.379,2.336,2.336,0,0,1,1.789,2.273,2.205,2.205,0,0,1-.992,1.871,4.28,4.28,0,0,1-2.562.715,4.47,4.47,0,0,1-1.887-.379,3.166,3.166,0,0,1-1.293-1.039,2.414,2.414,0,0,1-.469-1.426h2.141a1.179,1.179,0,0,0,.445.922,1.766,1.766,0,0,0,1.109.32,1.635,1.635,0,0,0,.98-.246A.766.766,0,0,0,211.656,14.664Zm11.148.672a1.481,1.481,0,0,0,1.016-.344,1.2,1.2,0,0,0,.406-.914h2.117a2.9,2.9,0,0,1-.469,1.574,3.093,3.093,0,0,1-1.262,1.109,3.949,3.949,0,0,1-1.77.395A3.67,3.67,0,0,1,219.984,16a4.56,4.56,0,0,1-1.047-3.184v-.148a4.508,4.508,0,0,1,1.039-3.117,3.627,3.627,0,0,1,2.852-1.164,3.555,3.555,0,0,1,2.543.9,3.2,3.2,0,0,1,.973,2.4h-2.117a1.551,1.551,0,0,0-.406-1.072,1.51,1.51,0,0,0-2.223.163,3.333,3.333,0,0,0-.4,1.866v.235a3.375,3.375,0,0,0,.4,1.878A1.377,1.377,0,0,0,222.8,15.336ZM230.016,17H227.75V5h2.266Zm4.242,0h-2.266V8.547h2.266Zm-2.4-10.641a1.112,1.112,0,0,1,.34-.836,1.465,1.465,0,0,1,1.848,0,1.105,1.105,0,0,1,.344.836,1.109,1.109,0,0,1-.348.844,1.448,1.448,0,0,1-1.836,0A1.109,1.109,0,0,1,231.859,6.359Zm8.148,10.8a4.15,4.15,0,0,1-3.027-1.141,4.054,4.054,0,0,1-1.168-3.039v-.219a5.106,5.106,0,0,1,.492-2.277A3.612,3.612,0,0,1,237.7,8.934a3.914,3.914,0,0,1,2.059-.543,3.508,3.508,0,0,1,2.73,1.094,4.444,4.444,0,0,1,1,3.1v.922H238.1a2.1,2.1,0,0,0,.66,1.328,2,2,0,0,0,1.395.5,2.437,2.437,0,0,0,2.039-.945l1.109,1.242a3.389,3.389,0,0,1-1.375,1.121A4.511,4.511,0,0,1,240.008,17.156Zm-.258-6.945a1.411,1.411,0,0,0-1.09.455,2.357,2.357,0,0,0-.535,1.3h3.141v-.181a1.681,1.681,0,0,0-.406-1.165A1.456,1.456,0,0,0,239.75,10.211Zm7.094-1.664.07.977a2.951,2.951,0,0,1,2.43-1.133,2.453,2.453,0,0,1,2,.789,3.682,3.682,0,0,1,.672,2.359V17h-2.258V11.594a1.465,1.465,0,0,0-.312-1.043,1.4,1.4,0,0,0-1.039-.324,1.553,1.553,0,0,0-1.43.813V17h-2.258V8.547Zm9.586-2.078V8.547h1.445V10.2H256.43v4.219a1.007,1.007,0,0,0,.18.672.9.9,0,0,0,.688.2,3.6,3.6,0,0,0,.664-.055v1.711a4.648,4.648,0,0,1-1.367.2,2.156,2.156,0,0,1-2.422-2.4V10.2h-1.234V8.547h1.234V6.469Zm6.594,10.688A4.15,4.15,0,0,1,260,16.016a4.054,4.054,0,0,1-1.168-3.039v-.219a5.106,5.106,0,0,1,.492-2.277,3.612,3.612,0,0,1,1.395-1.547,3.914,3.914,0,0,1,2.059-.543,3.508,3.508,0,0,1,2.73,1.094,4.444,4.444,0,0,1,1,3.1v.922h-5.383a2.1,2.1,0,0,0,.66,1.328,2,2,0,0,0,1.395.5,2.437,2.437,0,0,0,2.039-.945l1.109,1.242a3.389,3.389,0,0,1-1.375,1.121A4.511,4.511,0,0,1,263.023,17.156Zm-.258-6.945a1.411,1.411,0,0,0-1.09.455,2.357,2.357,0,0,0-.535,1.3h3.141v-.181a1.681,1.681,0,0,0-.406-1.165A1.456,1.456,0,0,0,262.766,10.211Zm9.594,4.453a.727.727,0,0,0-.41-.652,4.659,4.659,0,0,0-1.316-.426q-3.016-.633-3.016-2.562a2.323,2.323,0,0,1,.934-1.879,3.766,3.766,0,0,1,2.441-.754,4.053,4.053,0,0,1,2.574.758,2.388,2.388,0,0,1,.965,1.969h-2.258a1.092,1.092,0,0,0-.312-.8,1.322,1.322,0,0,0-.977-.316,1.351,1.351,0,0,0-.883.258.814.814,0,0,0-.312.656.7.7,0,0,0,.355.605,3.657,3.657,0,0,0,1.2.4,9.8,9.8,0,0,1,1.422.379,2.336,2.336,0,0,1,1.789,2.273,2.2,2.2,0,0,1-.992,1.871,4.28,4.28,0,0,1-2.562.715,4.47,4.47,0,0,1-1.887-.379,3.166,3.166,0,0,1-1.293-1.039,2.414,2.414,0,0,1-.469-1.426h2.141a1.179,1.179,0,0,0,.445.922,1.766,1.766,0,0,0,1.109.32,1.635,1.635,0,0,0,.98-.246A.766.766,0,0,0,272.359,14.664Zm-159.3,23.992h-4.109L108.168,41h-2.492l4.234-11.375h2.172L116.34,41h-2.492Zm-3.477-1.9h2.844L111,32.5Zm10.242-6.289v2.078h1.445V34.2h-1.445v4.219a1.007,1.007,0,0,0,.18.672.9.9,0,0,0,.688.2,3.6,3.6,0,0,0,.664-.055v1.711a4.648,4.648,0,0,1-1.367.2,2.156,2.156,0,0,1-2.422-2.4V34.2h-1.234V32.547h1.234V30.469Zm7.453,4.2a6.134,6.134,0,0,0-.812-.062,1.654,1.654,0,0,0-1.68.867V41h-2.258V32.547h2.133l.063,1.008a2.092,2.092,0,0,1,1.883-1.164,2.366,2.366,0,0,1,.7.1ZM133.027,41a2.507,2.507,0,0,1-.227-.758,2.732,2.732,0,0,1-2.133.914,3,3,0,0,1-2.059-.719,2.312,2.312,0,0,1-.816-1.812,2.389,2.389,0,0,1,1-2.062,4.915,4.915,0,0,1,2.879-.727h1.039v-.484a1.393,1.393,0,0,0-.3-.937,1.183,1.183,0,0,0-.949-.352,1.345,1.345,0,0,0-.895.273.929.929,0,0,0-.324.75H127.98a2.268,2.268,0,0,1,.453-1.359,3,3,0,0,1,1.281-.98,4.669,4.669,0,0,1,1.859-.355,3.689,3.689,0,0,1,2.48.785,2.747,2.747,0,0,1,.918,2.207v3.664a4.041,4.041,0,0,0,.336,1.82V41Zm-1.867-1.57a1.945,1.945,0,0,0,.922-.223,1.462,1.462,0,0,0,.625-.6V37.156h-.844q-1.7,0-1.8,1.172l-.008.133a.9.9,0,0,0,.3.7A1.153,1.153,0,0,0,131.16,39.43Zm9.063-.094a1.481,1.481,0,0,0,1.016-.344,1.2,1.2,0,0,0,.406-.914h2.117a2.9,2.9,0,0,1-.469,1.574,3.093,3.093,0,0,1-1.262,1.109,3.949,3.949,0,0,1-1.77.395A3.67,3.67,0,0,1,137.4,40a4.56,4.56,0,0,1-1.047-3.184v-.148a4.508,4.508,0,0,1,1.039-3.117,3.627,3.627,0,0,1,2.852-1.164,3.555,3.555,0,0,1,2.543.9,3.2,3.2,0,0,1,.973,2.4h-2.117a1.551,1.551,0,0,0-.406-1.072,1.51,1.51,0,0,0-2.223.163,3.333,3.333,0,0,0-.4,1.866v.235a3.375,3.375,0,0,0,.4,1.878A1.377,1.377,0,0,0,140.223,39.336Zm7.531-8.867v2.078H149.2V34.2h-1.445v4.219a1.007,1.007,0,0,0,.18.672.9.9,0,0,0,.688.2,3.6,3.6,0,0,0,.664-.055v1.711a4.648,4.648,0,0,1-1.367.2,2.156,2.156,0,0,1-2.422-2.4V34.2h-1.234V32.547H145.5V30.469ZM152.84,41h-2.266V32.547h2.266Zm-2.4-10.641a1.112,1.112,0,0,1,.34-.836,1.465,1.465,0,0,1,1.848,0,1.193,1.193,0,0,1,0,1.68,1.448,1.448,0,0,1-1.836,0A1.109,1.109,0,0,1,150.441,30.359Zm7.422,7.883,1.57-5.7h2.359L158.941,41h-2.156l-2.852-8.453h2.359Zm9.7,2.758a2.507,2.507,0,0,1-.227-.758,2.732,2.732,0,0,1-2.133.914,3,3,0,0,1-2.059-.719,2.312,2.312,0,0,1-.816-1.812,2.389,2.389,0,0,1,1-2.062,4.915,4.915,0,0,1,2.879-.727h1.039v-.484a1.393,1.393,0,0,0-.3-.937,1.183,1.183,0,0,0-.949-.352,1.345,1.345,0,0,0-.895.273.929.929,0,0,0-.324.75H162.52a2.268,2.268,0,0,1,.453-1.359,3,3,0,0,1,1.281-.98,4.669,4.669,0,0,1,1.859-.355,3.689,3.689,0,0,1,2.48.785,2.747,2.747,0,0,1,.918,2.207v3.664a4.041,4.041,0,0,0,.336,1.82V41ZM165.7,39.43a1.945,1.945,0,0,0,.922-.223,1.462,1.462,0,0,0,.625-.6V37.156H166.4q-1.7,0-1.8,1.172l-.008.133a.9.9,0,0,0,.3.7A1.153,1.153,0,0,0,165.7,39.43ZM50.156,60.992V65H47.813V53.625H52.25a5.134,5.134,0,0,1,2.254.469A3.454,3.454,0,0,1,56,55.426a3.714,3.714,0,0,1,.523,1.965,3.266,3.266,0,0,1-1.145,2.637,4.767,4.767,0,0,1-3.168.965Zm0-1.9H52.25a2.059,2.059,0,0,0,1.418-.437,1.591,1.591,0,0,0,.488-1.25,1.876,1.876,0,0,0-.492-1.352,1.839,1.839,0,0,0-1.359-.531H50.156Zm7.375,1.6a5.013,5.013,0,0,1,.484-2.242A3.546,3.546,0,0,1,59.41,56.93a4.069,4.069,0,0,1,2.113-.539,3.849,3.849,0,0,1,2.793,1.047,4.2,4.2,0,0,1,1.207,2.844l.016.578a4.418,4.418,0,0,1-1.086,3.121,4.209,4.209,0,0,1-5.832,0,4.5,4.5,0,0,1-1.09-3.187Zm2.258.16a3.16,3.16,0,0,0,.453,1.843,1.628,1.628,0,0,0,2.578.008,3.457,3.457,0,0,0,.461-2.015,3.128,3.128,0,0,0-.461-1.831,1.5,1.5,0,0,0-1.3-.649,1.474,1.474,0,0,0-1.281.646A3.516,3.516,0,0,0,59.789,60.856Zm11.719,1.808a.727.727,0,0,0-.41-.652,4.659,4.659,0,0,0-1.316-.426q-3.016-.633-3.016-2.562a2.323,2.323,0,0,1,.934-1.879,3.766,3.766,0,0,1,2.441-.754,4.053,4.053,0,0,1,2.574.758,2.388,2.388,0,0,1,.965,1.969H71.422a1.092,1.092,0,0,0-.312-.8A1.322,1.322,0,0,0,70.133,58a1.351,1.351,0,0,0-.883.258.814.814,0,0,0-.312.656.7.7,0,0,0,.355.605,3.657,3.657,0,0,0,1.2.4,9.8,9.8,0,0,1,1.422.379A2.336,2.336,0,0,1,73.7,62.57a2.2,2.2,0,0,1-.992,1.871,4.28,4.28,0,0,1-2.562.715,4.47,4.47,0,0,1-1.887-.379,3.166,3.166,0,0,1-1.293-1.039,2.414,2.414,0,0,1-.469-1.426h2.141a1.179,1.179,0,0,0,.445.922,1.766,1.766,0,0,0,1.109.32,1.635,1.635,0,0,0,.98-.246A.766.766,0,0,0,71.508,62.664ZM77.539,65H75.273V56.547h2.266Zm-2.4-10.641a1.112,1.112,0,0,1,.34-.836,1.465,1.465,0,0,1,1.848,0,1.193,1.193,0,0,1,0,1.68,1.448,1.448,0,0,1-1.836,0A1.108,1.108,0,0,1,75.141,54.359Zm7.773,8.977a1.481,1.481,0,0,0,1.016-.344,1.2,1.2,0,0,0,.406-.914h2.117a2.9,2.9,0,0,1-.469,1.574,3.093,3.093,0,0,1-1.262,1.109,3.949,3.949,0,0,1-1.77.395A3.67,3.67,0,0,1,80.094,64a4.56,4.56,0,0,1-1.047-3.184v-.148a4.508,4.508,0,0,1,1.039-3.117,3.627,3.627,0,0,1,2.852-1.164,3.555,3.555,0,0,1,2.543.9,3.2,3.2,0,0,1,.973,2.4H84.336a1.551,1.551,0,0,0-.406-1.072,1.51,1.51,0,0,0-2.223.163,3.333,3.333,0,0,0-.4,1.866v.235a3.375,3.375,0,0,0,.4,1.878A1.377,1.377,0,0,0,82.914,63.336ZM90.125,65H87.859V56.547h2.266Zm-2.4-10.641a1.112,1.112,0,0,1,.34-.836,1.465,1.465,0,0,1,1.848,0,1.193,1.193,0,0,1,0,1.68,1.448,1.448,0,0,1-1.836,0A1.108,1.108,0,0,1,87.727,54.359ZM91.633,60.7a5.013,5.013,0,0,1,.484-2.242,3.546,3.546,0,0,1,1.395-1.523,4.069,4.069,0,0,1,2.113-.539,3.849,3.849,0,0,1,2.793,1.047,4.2,4.2,0,0,1,1.207,2.844l.016.578a4.418,4.418,0,0,1-1.086,3.121,4.209,4.209,0,0,1-5.832,0,4.5,4.5,0,0,1-1.09-3.187Zm2.258.16a3.16,3.16,0,0,0,.453,1.843,1.628,1.628,0,0,0,2.578.008,3.457,3.457,0,0,0,.461-2.015,3.128,3.128,0,0,0-.461-1.831,1.5,1.5,0,0,0-1.3-.649,1.474,1.474,0,0,0-1.281.646A3.516,3.516,0,0,0,93.891,60.856Zm9.219-4.309.07.977a2.951,2.951,0,0,1,2.43-1.133,2.453,2.453,0,0,1,2,.789,3.682,3.682,0,0,1,.672,2.359V65h-2.258V59.594a1.465,1.465,0,0,0-.312-1.043,1.4,1.4,0,0,0-1.039-.324,1.553,1.553,0,0,0-1.43.813V65h-2.258V56.547ZM114.891,65a2.507,2.507,0,0,1-.227-.758,2.732,2.732,0,0,1-2.133.914,3,3,0,0,1-2.059-.719,2.312,2.312,0,0,1-.816-1.812,2.389,2.389,0,0,1,1-2.062,4.915,4.915,0,0,1,2.879-.727h1.039v-.484a1.393,1.393,0,0,0-.3-.937,1.183,1.183,0,0,0-.949-.352,1.345,1.345,0,0,0-.895.273.929.929,0,0,0-.324.75h-2.258a2.268,2.268,0,0,1,.453-1.359,3,3,0,0,1,1.281-.98,4.669,4.669,0,0,1,1.859-.355,3.689,3.689,0,0,1,2.48.785,2.747,2.747,0,0,1,.918,2.207v3.664a4.041,4.041,0,0,0,.336,1.82V65Zm-1.867-1.57a1.945,1.945,0,0,0,.922-.223,1.462,1.462,0,0,0,.625-.6V61.156h-.844q-1.7,0-1.8,1.172l-.008.133a.9.9,0,0,0,.3.7A1.153,1.153,0,0,0,113.023,63.43Zm7.664-6.883.07.945a2.971,2.971,0,0,1,2.43-1.1,2.255,2.255,0,0,1,2.242,1.289,2.9,2.9,0,0,1,2.539-1.289,2.521,2.521,0,0,1,2.047.8,3.681,3.681,0,0,1,.672,2.41V65h-2.266V59.609a1.61,1.61,0,0,0-.281-1.051,1.246,1.246,0,0,0-.992-.332,1.409,1.409,0,0,0-1.406.969l.008,5.8h-2.258V59.617a1.59,1.59,0,0,0-.289-1.062,1.259,1.259,0,0,0-.984-.328,1.463,1.463,0,0,0-1.391.8V65H118.57V56.547ZM134.8,65h-2.266V56.547H134.8Zm-2.4-10.641a1.112,1.112,0,0,1,.34-.836,1.465,1.465,0,0,1,1.848,0,1.193,1.193,0,0,1,0,1.68,1.448,1.448,0,0,1-1.836,0A1.109,1.109,0,0,1,132.406,54.359Zm8.148,10.8a4.15,4.15,0,0,1-3.027-1.141,4.054,4.054,0,0,1-1.168-3.039v-.219a5.106,5.106,0,0,1,.492-2.277,3.612,3.612,0,0,1,1.395-1.547,3.914,3.914,0,0,1,2.059-.543,3.508,3.508,0,0,1,2.73,1.094,4.444,4.444,0,0,1,1,3.1v.922h-5.383a2.1,2.1,0,0,0,.66,1.328,2,2,0,0,0,1.395.5,2.437,2.437,0,0,0,2.039-.945l1.109,1.242a3.389,3.389,0,0,1-1.375,1.121A4.511,4.511,0,0,1,140.555,65.156Zm-.258-6.945a1.411,1.411,0,0,0-1.09.455,2.357,2.357,0,0,0-.535,1.3h3.141v-.181a1.681,1.681,0,0,0-.406-1.165A1.456,1.456,0,0,0,140.3,58.211Zm7.094-1.664.07.977a2.951,2.951,0,0,1,2.43-1.133,2.453,2.453,0,0,1,2,.789,3.682,3.682,0,0,1,.672,2.359V65H150.3V59.594a1.465,1.465,0,0,0-.312-1.043,1.4,1.4,0,0,0-1.039-.324,1.553,1.553,0,0,0-1.43.813V65h-2.258V56.547Zm9.586-2.078v2.078h1.445V58.2h-1.445v4.219a1.007,1.007,0,0,0,.18.672.9.9,0,0,0,.688.2,3.6,3.6,0,0,0,.664-.055v1.711a4.648,4.648,0,0,1-1.367.2,2.156,2.156,0,0,1-2.422-2.4V58.2h-1.234V56.547h1.234V54.469Zm2.117,6.227a5.013,5.013,0,0,1,.484-2.242,3.546,3.546,0,0,1,1.395-1.523,4.069,4.069,0,0,1,2.113-.539,3.849,3.849,0,0,1,2.793,1.047,4.2,4.2,0,0,1,1.207,2.844l.016.578a4.418,4.418,0,0,1-1.086,3.121,4.209,4.209,0,0,1-5.832,0,4.5,4.5,0,0,1-1.09-3.187Zm2.258.16A3.16,3.16,0,0,0,161.8,62.7a1.628,1.628,0,0,0,2.578.008,3.457,3.457,0,0,0,.461-2.015,3.128,3.128,0,0,0-.461-1.831,1.5,1.5,0,0,0-1.3-.649,1.474,1.474,0,0,0-1.281.646A3.516,3.516,0,0,0,161.352,60.856Zm15.875-2.192a6.134,6.134,0,0,0-.812-.062,1.654,1.654,0,0,0-1.68.867V65h-2.258V56.547h2.133l.063,1.008a2.092,2.092,0,0,1,1.883-1.164,2.366,2.366,0,0,1,.7.1ZM182.977,65a2.507,2.507,0,0,1-.227-.758,2.732,2.732,0,0,1-2.133.914,3,3,0,0,1-2.059-.719,2.312,2.312,0,0,1-.816-1.812,2.389,2.389,0,0,1,1-2.062,4.915,4.915,0,0,1,2.879-.727h1.039v-.484a1.393,1.393,0,0,0-.3-.937,1.183,1.183,0,0,0-.949-.352,1.345,1.345,0,0,0-.895.273.929.929,0,0,0-.324.75H177.93a2.268,2.268,0,0,1,.453-1.359,3,3,0,0,1,1.281-.98,4.669,4.669,0,0,1,1.859-.355,3.689,3.689,0,0,1,2.48.785,2.747,2.747,0,0,1,.918,2.207v3.664a4.041,4.041,0,0,0,.336,1.82V65Zm-1.867-1.57a1.945,1.945,0,0,0,.922-.223,1.462,1.462,0,0,0,.625-.6V61.156h-.844q-1.7,0-1.8,1.172l-.008.133a.9.9,0,0,0,.3.7A1.153,1.153,0,0,0,181.109,63.43Zm9.063-.094a1.481,1.481,0,0,0,1.016-.344,1.2,1.2,0,0,0,.406-.914h2.117a2.9,2.9,0,0,1-.469,1.574,3.093,3.093,0,0,1-1.262,1.109,3.949,3.949,0,0,1-1.77.395A3.67,3.67,0,0,1,187.352,64,4.56,4.56,0,0,1,186.3,60.82v-.148a4.508,4.508,0,0,1,1.039-3.117,3.627,3.627,0,0,1,2.852-1.164,3.555,3.555,0,0,1,2.543.9,3.2,3.2,0,0,1,.973,2.4h-2.117a1.551,1.551,0,0,0-.406-1.072,1.51,1.51,0,0,0-2.223.163,3.333,3.333,0,0,0-.4,1.866v.235a3.375,3.375,0,0,0,.4,1.878A1.377,1.377,0,0,0,190.172,63.336ZM197.383,65h-2.266V56.547h2.266Zm-2.4-10.641a1.112,1.112,0,0,1,.34-.836,1.465,1.465,0,0,1,1.848,0,1.193,1.193,0,0,1,0,1.68,1.448,1.448,0,0,1-1.836,0A1.109,1.109,0,0,1,194.984,54.359Zm3.906,6.336a5.013,5.013,0,0,1,.484-2.242,3.546,3.546,0,0,1,1.395-1.523,4.069,4.069,0,0,1,2.113-.539,3.849,3.849,0,0,1,2.793,1.047,4.2,4.2,0,0,1,1.207,2.844l.016.578a4.418,4.418,0,0,1-1.086,3.121,4.209,4.209,0,0,1-5.832,0,4.5,4.5,0,0,1-1.09-3.187Zm2.258.16A3.16,3.16,0,0,0,201.6,62.7a1.628,1.628,0,0,0,2.578.008,3.457,3.457,0,0,0,.461-2.015,3.128,3.128,0,0,0-.461-1.831,1.5,1.5,0,0,0-1.3-.649,1.474,1.474,0,0,0-1.281.646A3.516,3.516,0,0,0,201.148,60.856Zm9.219-4.309.07.977a2.951,2.951,0,0,1,2.43-1.133,2.453,2.453,0,0,1,2,.789,3.682,3.682,0,0,1,.672,2.359V65h-2.258V59.594a1.465,1.465,0,0,0-.312-1.043,1.4,1.4,0,0,0-1.039-.324,1.553,1.553,0,0,0-1.43.813V65h-2.258V56.547ZM222.148,65a2.507,2.507,0,0,1-.227-.758,2.732,2.732,0,0,1-2.133.914,3,3,0,0,1-2.059-.719,2.312,2.312,0,0,1-.816-1.812,2.389,2.389,0,0,1,1-2.062,4.915,4.915,0,0,1,2.879-.727h1.039v-.484a1.393,1.393,0,0,0-.3-.937,1.183,1.183,0,0,0-.949-.352,1.345,1.345,0,0,0-.895.273.929.929,0,0,0-.324.75H217.1a2.268,2.268,0,0,1,.453-1.359,3,3,0,0,1,1.281-.98,4.669,4.669,0,0,1,1.859-.355,3.689,3.689,0,0,1,2.48.785,2.747,2.747,0,0,1,.918,2.207v3.664a4.041,4.041,0,0,0,.336,1.82V65Zm-1.867-1.57a1.945,1.945,0,0,0,.922-.223,1.462,1.462,0,0,0,.625-.6V61.156h-.844q-1.7,0-1.8,1.172l-.008.133a.9.9,0,0,0,.3.7A1.153,1.153,0,0,0,220.281,63.43Zm7.93,1.57h-2.266V53h2.266Z" transform="translate(20.243 27.799)" fill="#fff"/>
    </g>
    <g id="Grupo_159412" data-name="Grupo 159412">
      <g id="Grupo_159406" data-name="Grupo 159406" transform="translate(77.018 0.067)">
        <g id="Grupo_159383" data-name="Grupo 159383" transform="translate(3401.482 63.933)">
          <g id="Grupo_159361" data-name="Grupo 159361" transform="translate(17427 -8423)">
            <g id="Grupo_159360" data-name="Grupo 159360" clip-path="url(#clip-path-2)">
              <path id="Trazado_157801" data-name="Trazado 157801" d="M360.174,215.137H0V11.214A11.213,11.213,0,0,1,11.213,0H348.961a11.213,11.213,0,0,1,11.213,11.213Z" transform="translate(0 0)" fill="#47484c"/>
              <path id="Trazado_157957" data-name="Trazado 157957" d="M0,0H329.957V186.13H0Z" transform="translate(15.309 15.712)" fill="#afc5e4"/>
              <path id="Trazado_157802" data-name="Trazado 157802" d="M360.174,222.453H0v22.693a9.94,9.94,0,0,0,9.94,9.94H350.234a9.94,9.94,0,0,0,9.94-9.94Z" transform="translate(0 -7.316)" fill="#f6f6f6"/>
              <path id="Trazado_157803" data-name="Trazado 157803" d="M238.492,293.578H131l5.3-1.467a13.854,13.854,0,0,0,10.1-12.095l2.172-23.82H218.21l4.525,24.862a13.856,13.856,0,0,0,9.859,10.85Z" transform="translate(-4.308 -8.426)" fill="#afafaf"/>
              <rect id="Rectángulo_38676" data-name="Rectángulo 38676" width="73.67" height="10.207" transform="translate(142.091 247.771)" fill="#a3a3a3"/>
              <rect id="Rectángulo_38677" data-name="Rectángulo 38677" width="106.927" height="3.237" transform="translate(126.694 285.152)" fill="#f6f7f9"/>
              <rect id="Rectángulo_38678" data-name="Rectángulo 38678" width="106.927" height="0.772" transform="translate(126.694 288.003)" fill="#bbbdbc"/>
              <path id="Trazado_157804" data-name="Trazado 157804" d="M199.926,236.283a6.676,6.676,0,1,1-6.676-6.676,6.676,6.676,0,0,1,6.676,6.676" transform="translate(-6.136 -7.551)" fill="#bbbdbc"/>
            </g>
          </g>
          <g id="Grupo_159384" data-name="Grupo 159384" transform="translate(17440.518 -8574)">
            <g id="Grupo_159398" data-name="Grupo 159398" clip-path="url(#clip-path-3)">
              <g id="Grupo_159397" data-name="Grupo 159397">
                <g id="Grupo_159396" data-name="Grupo 159396" clip-path="url(#clip-path-3)">
                  <path id="Trazado_157897" data-name="Trazado 157897" d="M97.082,158.245C142.9,205.3,202.436,248.608,225.66,244.17c34.095-6.516,113.725-137.6,117.275-141.663C351.653,92.387,274,54.219,264.211,64.64,249.313,80.505,209.643,150.414,203,151.5c-6.921,1.1-47.527-15.668-92.426-32.411-37.589-14.018-41.631,10.263-13.5,39.158" transform="translate(62.887 50.197)" fill="#d3766a"/>
                  <path id="Trazado_157898" data-name="Trazado 157898" d="M278.195,103.958c-4.229,18.7-27.839,53.574-36.769,59.8s-69.547-31.947-70.624-43.064S188.84,47.7,204.139,35.5s78.438,49.081,74.056,68.459" transform="translate(136.37 27.078)" fill="#d3766a"/>
                  <path id="Trazado_157899" data-name="Trazado 157899" d="M183.01,87.561c6.5,7.808,19.385,20.882,20.191,20.058-.547.889-9.776,16.479-1.691,24.438,8.41,8.265,17.553-5.336,18.139-6.218-.252,1-3.374,14.286,4.142,18.936,12.923,7.984,21.839-25.763,32.719-31.5,0,0,11.824,17.33,12.272,17.76,0,0,9.142-31.934.588-46.176-4.511-7.509-12.4-4.788-12.4-4.788s4.085-9.972-2.083-16.439c-3.175-3.311-11.3-1.178-11.3-1.178S262.82,7.792,246.882,5.183C230.9,2.564,214.829,62.53,214.829,62.53S226.921,2.465,210.976.055C194.084-2.5,179.751,83.647,183.01,87.561" transform="translate(145.783 -0.001)" fill="#d3766a"/>
                  <path id="Trazado_157900" data-name="Trazado 157900" d="M234.932,34.725c.171-.126-.036-.412-.237-.306-16.828,8.846-33.717,25.49-41.068,45.739-.252.694.218,1.57.57.793,5.907-13.094,26.524-35.814,40.735-46.226" transform="translate(154.577 27.469)" fill="#263238"/>
                  <path id="Trazado_157901" data-name="Trazado 157901" d="M203.459,91.895c7.8-19.143,20.948-33.861,36.629-47.034.2-.173-.059-.442-.27-.347-9.427,4.354-18.546,13.8-25.019,21.74A54.5,54.5,0,0,0,202.79,91.621c-.067.374.5.682.669.273" transform="translate(161.947 35.534)" fill="#263238"/>
                  <path id="Trazado_157902" data-name="Trazado 157902" d="M250.529,68.541c-2.43,1.59-3.955,4.117-5.563,6.48-1.556,2.4-3.007,4.894-4.441,7.409a93.89,93.89,0,0,1-9.775,14.511c-2,2.167-4.256,4.45-7.617,5.353a8.927,8.927,0,0,1-9.126-3.511,16.194,16.194,0,0,1-2.786-9.04q-.057-1.357-.005-2.712a19.471,19.471,0,0,1-4.863,3.775,10.048,10.048,0,0,1-6.75,1.081,11.441,11.441,0,0,1-5.86-3.333c-3.236-3.342-4.072-8.1-3.59-12.108,1.157-9.619,9.205-20.418,9.205-20.418l.094,3.043c-3.329,5.759-5.916,13.977-6.142,17.585-.246,3.608.484,7.27,2.818,9.565a6.977,6.977,0,0,0,8.644,1.486c2.968-1.514,5.576-4.471,7.479-7.437l5.308-8.317-2.279,9.552a31.563,31.563,0,0,0-.889,8.123,13.02,13.02,0,0,0,2.054,7.331,6.269,6.269,0,0,0,6.069,2.617c2.331-.453,4.554-2.3,6.491-4.256,3.9-4.031,6.977-8.959,10.285-13.68,1.628-2.378,3.257-4.775,5.027-7.1,1.768-2.248,3.613-4.655,6.214-6" transform="translate(151.757 44.745)" fill="#263238"/>
                  <path id="Trazado_157903" data-name="Trazado 157903" d="M172.97,107.611S158.228,27.6,192.323,37.162c10.132,2.842,48.349,26.6,43.724,34.37-5.97,10.029-23.772,3.088-34.258-3.041,0,0,8.846,26.508-7.774,38.17-10.425,7.313-21.046.95-21.046.95" transform="translate(135.605 29.045)" fill="#d3766a"/>
                  <path id="Trazado_157904" data-name="Trazado 157904" d="M180.718,36.467a42.513,42.513,0,0,1,11.839,3.685A91.949,91.949,0,0,1,203.55,46a142.75,142.75,0,0,1,20.195,14.655,23.4,23.4,0,0,1,4.322,5.007,8.787,8.787,0,0,1,1.277,3.558,6.205,6.205,0,0,1-.079,2.085,6.507,6.507,0,0,1-.775,1.914,10.475,10.475,0,0,1-5.723,4.464,19.635,19.635,0,0,1-6.745.8,37.613,37.613,0,0,1-12.464-3.117,85.374,85.374,0,0,1-11.207-5.7l2.076-1.728a50.244,50.244,0,0,1,1.813,9.373,46.452,46.452,0,0,1,.022,9.473,32.082,32.082,0,0,1-2.387,9.139,24.4,24.4,0,0,1-5.2,7.739,27.556,27.556,0,0,0,4.259-8.094,33.318,33.318,0,0,0,1.509-8.927,44.534,44.534,0,0,0-.536-9.031,48.031,48.031,0,0,0-2.194-8.707l-1.264-3.475,3.342,1.746a90.69,90.69,0,0,0,10.963,5.149,36.7,36.7,0,0,0,11.419,2.723c3.709.158,7.745-.8,9.34-3.55,1.613-2.3-1.243-5.8-4.024-8.475a118.366,118.366,0,0,0-9.277-7.864c-3.22-2.532-6.47-5.024-9.838-7.338-6.788-4.482-13.7-9.117-21.655-11.344" transform="translate(144.324 29.123)" fill="#263238"/>
                  <path id="Trazado_157905" data-name="Trazado 157905" d="M153.176,188.3l48.3-64.383s-55.253-23.206-92.654-30.708c-37.836-7.59-49.467,2.786-14.695,40.231,35.485,38.212,59.052,54.86,59.052,54.86" transform="translate(58.589 72.581)" fill="#ffc727"/>
                  <path id="Trazado_157906" data-name="Trazado 157906" d="M112.576,159.164c1.086-1.734,2.426-3.335,3.666-4.962q1.916-2.512,3.815-5.034c2.576-3.4,5.211-6.763,7.862-10.108,5.3-6.684,10.565-13.387,15.974-19.981,1.486-1.811,2.98-3.621,4.513-5.394,1.613-1.865,3.362-3.615,4.966-5.479.1-.115.259.041.171.158-1.259,1.693-2.383,3.5-3.639,5.2q-1.929,2.617-3.926,5.184-3.928,5.05-7.935,10.036c-5.263,6.543-10.506,13.11-15.905,19.54-1.509,1.8-3.032,3.576-4.542,5.371-1.576,1.876-3.086,3.88-4.831,5.6-.09.088-.261-.018-.187-.135" transform="translate(89.891 86.383)" fill="#263238"/>
                  <g id="Grupo_159386" data-name="Grupo 159386" transform="translate(131.952 165.421)" opacity="0.1">
                    <g id="Grupo_159385" data-name="Grupo 159385">
                      <g id="Grupo_159384-2" data-name="Grupo 159384" clip-path="url(#clip-path-5)">
                        <path id="Trazado_157907" data-name="Trazado 157907" d="M176.418,156.451,153.18,187.424s-23.58-16.637-59.049-54.858C72.548,109.328,68.843,96.521,78.16,91.971Z" transform="translate(-73.363 -91.971)"/>
                      </g>
                    </g>
                  </g>
                  <path id="Trazado_157908" data-name="Trazado 157908" d="M213.876,283.957H19.5c.036-.18.072-.378.126-.558q.944-4.4,1.96-8.939c.162-.755.342-1.511.5-2.266,2.788-12.428,5.881-25.558,9.119-38.472.2-.773.4-1.547.594-2.338h.018c.522-2.068,1.061-4.137,1.583-6.205v-.018c.108-.378.2-.737.306-1.115v-.018c.234-.881.468-1.763.683-2.644q.378-1.322.7-2.644h.018c1.3-4.82,2.608-9.569,3.921-14.191q1.457-5.072,2.932-9.928c.612-2.032,1.241-4.047,1.853-6.007.072-.2.126-.4.2-.594.54-1.673,1.061-3.327,1.6-4.946,2.824-8.543,5.666-16.17,8.454-22.429,2.86-6.439,5.594-12.267,8.2-17.536,10.9-22.087,19.551-34.461,26.494-41.71,1.1-1.151,2.14-2.158,3.148-3.076h.018a37.8,37.8,0,0,1,10.018-6.673c1.241-.576,2.41-1.025,3.471-1.457,4.586-1.817,10.63-2.7,16.565-2.95,8.939-.414,17.626.594,20.63,1.889,1.421.612,3.669,2.968,6.349,6.511.36.5.737,1.007,1.133,1.547.665.935,1.367,1.942,2.068,2.986a1.572,1.572,0,0,0,.144.18,211.384,211.384,0,0,1,14.281,25.271c1.835,3.813,3.525,7.68,5,11.439.971,2.482,1.853,4.91,2.59,7.266,2.59,8.13,5.846,18.867,9.443,31.026v.018c.755,2.554,1.529,5.18,2.3,7.86h.018c3.363,11.511,6.943,23.994,10.5,36.548,1.1,3.921,2.212,7.86,3.309,11.781.18.683.378,1.367.558,2.032.126.45.252.881.378,1.313.342,1.259.683,2.518,1.043,3.777l.324,1.187c2.878,10.36,5.612,20.45,8.076,29.731,1.061,4.047,2.086,7.932,3.04,11.619.252.935.486,1.835.7,2.734" transform="translate(15.573 69.598)" fill="#ffc727"/>
                  <g id="Grupo_159389" data-name="Grupo 159389" transform="translate(35.846 163.512)" opacity="0.1">
                    <g id="Grupo_159388" data-name="Grupo 159388">
                      <g id="Grupo_159387" data-name="Grupo 159387" clip-path="url(#clip-path-6)">
                        <path id="Trazado_157909" data-name="Trazado 157909" d="M116.134,93.23H61.15a36.578,36.578,0,0,1,3.309-2.32h49.876c.45.54.9,1.115,1.367,1.727l.432.594" transform="translate(12.989 -90.91)"/>
                        <path id="Trazado_157910" data-name="Trazado 157910" d="M127.98,99.25H55.28c.647-.809,1.277-1.583,1.907-2.32h69.373c.486.755.953,1.529,1.421,2.32" transform="translate(8.301 -86.102)"/>
                        <path id="Trazado_157911" data-name="Trazado 157911" d="M137.5,105.27H51.04c.5-.809,1.007-1.583,1.493-2.32h83.726q.621,1.133,1.241,2.32" transform="translate(4.915 -81.295)"/>
                        <path id="Trazado_157912" data-name="Trazado 157912" d="M145.71,111.29H47.47q.647-1.187,1.295-2.32h95.848c.378.773.737,1.547,1.1,2.32" transform="translate(2.064 -76.487)"/>
                        <path id="Trazado_157913" data-name="Trazado 157913" d="M152.763,117.31H44.27q.594-1.187,1.187-2.32H151.863c.306.773.612,1.547.9,2.32" transform="translate(-0.492 -71.679)"/>
                        <path id="Trazado_157914" data-name="Trazado 157914" d="M158.654,123.33H41.33c.378-.791.737-1.565,1.115-2.32H157.934c.216.755.468,1.529.719,2.32" transform="translate(-2.84 -66.872)"/>
                        <path id="Trazado_157915" data-name="Trazado 157915" d="M164.151,129.342H38.59c.072-.18.144-.378.234-.558.252-.594.522-1.169.773-1.745H163.45c.234.755.468,1.511.7,2.3" transform="translate(-5.028 -62.056)"/>
                        <path id="Trazado_157916" data-name="Trazado 157916" d="M169.348,135.38H36.16c.288-.791.576-1.565.881-2.32h131.6c.234.755.468,1.547.7,2.32" transform="translate(-6.968 -57.248)"/>
                        <path id="Trazado_157917" data-name="Trazado 157917" d="M174.19,141.4H34.06c.252-.791.5-1.565.773-2.32H173.525c.216.773.45,1.547.665,2.32" transform="translate(-8.646 -52.441)"/>
                        <path id="Trazado_157918" data-name="Trazado 157918" d="M178.889,147.42H32.14q.378-1.16.7-2.32H178.224c.216.773.45,1.547.665,2.32" transform="translate(-10.179 -47.633)"/>
                        <path id="Trazado_157919" data-name="Trazado 157919" d="M183.44,153.44H30.36c.234-.773.45-1.547.683-2.32H182.775c.216.773.432,1.547.665,2.32" transform="translate(-11.6 -42.825)"/>
                        <path id="Trazado_157920" data-name="Trazado 157920" d="M187.85,159.46H28.69c.216-.773.414-1.547.63-2.32H187.2Z" transform="translate(-12.934 -38.018)"/>
                        <path id="Trazado_157921" data-name="Trazado 157921" d="M192.185,165.48H27.09c.09-.342.162-.665.252-1.007v-.018c.108-.378.2-.737.306-1.115v-.018a.525.525,0,0,0,.036-.162H191.537l.648,2.32" transform="translate(-14.212 -33.21)"/>
                        <path id="Trazado_157922" data-name="Trazado 157922" d="M196.429,171.5H25.56c.18-.773.378-1.547.576-2.32H195.8l.054.216c.2.7.378,1.4.576,2.1" transform="translate(-15.434 -28.402)"/>
                        <path id="Trazado_157923" data-name="Trazado 157923" d="M200.6,177.512H24.08c.2-.773.378-1.529.558-2.3H199.967c.216.773.432,1.529.63,2.3" transform="translate(-16.616 -23.587)"/>
                        <path id="Trazado_157924" data-name="Trazado 157924" d="M204.68,183.532H22.66c.18-.773.36-1.529.54-2.3H204.05c.216.773.432,1.547.63,2.3" transform="translate(-17.75 -18.779)"/>
                        <path id="Trazado_157925" data-name="Trazado 157925" d="M208.7,189.57H21.28c.162-.755.342-1.547.522-2.32H208.066c.216.773.414,1.547.63,2.32" transform="translate(-18.852 -13.971)"/>
                        <path id="Trazado_157926" data-name="Trazado 157926" d="M212.6,195.59H19.93c.18-.773.342-1.547.522-2.32H212q.3,1.187.594,2.32" transform="translate(-19.93 -9.164)"/>
                      </g>
                    </g>
                  </g>
                  <path id="Trazado_157927" data-name="Trazado 157927" d="M88,122.959l28.677-2.182,5.086,34.749-12.705,9.436-17.5-6.8Z" transform="translate(70.279 96.455)" fill="#ffc727"/>
                  <g id="Grupo_159392" data-name="Grupo 159392" transform="translate(158.279 217.232)" opacity="0.1">
                    <g id="Grupo_159391" data-name="Grupo 159391">
                      <g id="Grupo_159390" data-name="Grupo 159390" clip-path="url(#clip-path-7)">
                        <path id="Trazado_157928" data-name="Trazado 157928" d="M88,122.959l28.677-2.182,5.086,34.749-12.705,9.436-17.5-6.8Z" transform="translate(-88 -120.777)"/>
                      </g>
                    </g>
                  </g>
                  <path id="Trazado_157929" data-name="Trazado 157929" d="M107.845,126.169c-.378.881-.791,1.763-1.205,2.644a3.355,3.355,0,0,1-.18.36c-.324.719-.683,1.457-1.061,2.176v.018c-.342.7-.719,1.367-1.079,2.05-.971,1.817-1.943,3.669-2.95,5.54-.36.612-.719,1.223-1.061,1.853-.648,1.169-1.313,2.356-1.978,3.543a.018.018,0,0,1-.018.018c-1.241,2.23-2.518,4.461-3.849,6.727v.018c-.162.288-.342.558-.522.863q-4.559,7.77-9.533,15.666c-1.565,2.482-3.166,4.964-4.766,7.446l.018.018c-5.792,8.813-11.8,17.608-17.986,26.116a.136.136,0,0,0-.036.072c-.018.018-.036.018-.036.036l.018.018c-.072.09-.144.2-.216.288a2.181,2.181,0,0,1-.18.252c-1.133,1.565-2.266,3.13-3.435,4.73v.018c-.791,1.133-1.619,2.266-2.428,3.4-.773,1.079-1.565,2.158-2.338,3.238-1.205,1.691-2.428,3.381-3.651,5.054a5.942,5.942,0,0,1-.4.54v.018q-2.833,3.939-5.666,7.842c-.755,1.061-1.529,2.122-2.3,3.166-7.087,9.73-14.119,19.191-20.738,27.609-.36.432-.7.863-1.043,1.295-1.223,1.547-2.428,3.04-3.615,4.5-.755.935-1.493,1.835-2.23,2.716a.59.59,0,0,0-.108.144l-.018.018C9.641,270.508,6.223,274.357,3,277.666c.018.018,0,.018-.036.036-.432,0-.863-.018-1.313-.036H0v-115.6c1.4-.989,2.824-1.978,4.263-2.986.162-.126.324-.234.486-.342q3.291-2.32,6.637-4.676c1.187-.845,2.374-1.691,3.579-2.518,6.259-4.425,12.59-8.9,18.814-13.292l.036-.036c.162-.108.342-.234.5-.36,1.457-1.025,2.914-2.05,4.353-3.058,6.259-4.425,12.374-8.741,18.148-12.788q1.808-1.268,3.561-2.482c1.943-1.367,3.849-2.7,5.7-3.975a.018.018,0,0,0,.018-.018c2.014-1.4,3.957-2.752,5.846-4.065.486-.324.989-.665,1.457-.989a.018.018,0,0,0,.018-.018c.558-.378,1.079-.755,1.619-1.115,4.6-3.148,8.687-5.7,12.339-7.752.63-.36,1.241-.7,1.853-.989a19.932,19.932,0,0,1,1.835-.953,46.648,46.648,0,0,1,10.414-4.065,18.3,18.3,0,0,1,2.86-.486c3.435-.36,5.81.468,7.32,2.122,4.443,4.874,1.511,17.051-3.813,28.94" transform="translate(0 75.888)" fill="#d3766a"/>
                  <path id="Trazado_157930" data-name="Trazado 157930" d="M121.55,105.176c-1.169,6.313-5.018,15.2-11.925,26.889-.63,1.115-1.313,2.266-2.032,3.435-.324.522-.63,1.043-.953,1.565-.522.845-1.043,1.691-1.547,2.536q-4.533,7.392-8.669,13.993a.377.377,0,0,0-.072.108c-.162.27-.342.54-.5.791-.755,1.223-1.511,2.428-2.266,3.6l-.108.162q-4.586,7.284-8.561,13.454c-12.824,19.857-20.648,30.882-21.332,31.853-.036.036-.036.054-.054.072l-1.853-.773-.27-.126L57.7,201.186l-3.094-1.3-9.659-4.083-5.558-2.32-2.41-1.025L27.771,188.6l-12.536-5.27-3.471-1.457L0,176.923V157.93c3.381-2.428,7.176-5.144,11.241-8q1.808-1.3,3.669-2.59C20.5,143.4,26.548,139.206,32.735,135q3.669-2.509,7.392-5c5.594-3.741,11.223-7.446,16.709-10.936,1.151-.737,2.284-1.457,3.417-2.176,3.777-2.374,7.446-4.622,10.972-6.727,5.863-3.471,11.3-6.475,15.972-8.777,8.04-3.939,14.857-6.547,20.288-7.716,3.867-.827,7.015-.917,9.371-.216,4.245,1.259,5.971,5.072,4.694,11.727" transform="translate(0 74.254)" fill="#ffc727"/>
                  <path id="Trazado_157931" data-name="Trazado 157931" d="M61.548,155.264c-1.782-1.005-3.723-1.772-5.59-2.608-1.923-.862-3.838-1.734-5.757-2.6-3.887-1.761-7.806-3.453-11.732-5.126-7.846-3.344-15.677-6.716-23.576-9.927-2.173-.881-4.349-1.759-6.543-2.585-2.308-.869-4.678-1.57-6.979-2.441-.144-.054-.207.158-.076.219,1.916.887,3.765,1.934,5.682,2.831q2.943,1.376,5.925,2.68,5.863,2.56,11.767,5.027c7.747,3.234,15.49,6.5,23.3,9.572,2.184.856,4.372,1.693,6.554,2.55,2.281.894,4.567,1.934,6.921,2.617.122.034.221-.14.1-.209" transform="translate(0.976 103.794)" fill="#263238"/>
                  <path id="Trazado_157932" data-name="Trazado 157932" d="M66.092,136.525c.1-.122-.1-.281-.21-.176a58.367,58.367,0,0,0-6.063,6.612c.685-1.191,1.392-2.367,2.068-3.563,2.175-3.854,4.281-7.747,6.466-11.594a.127.127,0,0,0-.214-.135c-4.265,6.446-8.8,12.725-12.864,19.3s-16.267,25.335-18.441,29c-.741-.207-1.694-.655-3.236-1.184-.2-.068-.228.239-.063.372a14.71,14.71,0,0,0,4.043,2.255c.322.113,14.155-20.6,20.769-31.918,2.658-2.921,5.266-5.9,7.745-8.971" transform="translate(26.695 101.912)" fill="#263238"/>
                  <path id="Trazado_157933" data-name="Trazado 157933" d="M106.369,148.973c-12.166,2.907-33.1-15.643-41.392-30.7-.561-1.034,1-11.93,2.263-25.262.737-8.094,1.369-17.121,1.349-25.4-.013-1.7,51.96,12.493,51.96,12.493s-5.063,17.367-4.939,31.8a18.6,18.6,0,0,0,.365,3.4c.018.155.063.344.076.561,1.068,6.453,2.074,30.289-9.682,33.107" transform="translate(51.798 53.882)" fill="#d3766a"/>
                  <path id="Trazado_157934" data-name="Trazado 157934" d="M68.709,67.664c2.441,13.993,11.229,47.793,38.944,48.354a31.429,31.429,0,0,0,5.31-.3,2.334,2.334,0,0,0-.068-.57,21.3,21.3,0,0,1-.376-3.385c-.115-14.461,4.959-31.828,4.959-31.828S79.985,69.7,68.709,67.664" transform="translate(54.872 54.038)" fill="#263238"/>
                  <path id="Trazado_157935" data-name="Trazado 157935" d="M60.007,52.9c-3.354,18.959,12.723,70.587,27.157,80.778,20.925,14.776,51.98,12.651,63.725-11.768,11.385-23.672-10.759-90.584-26.584-99.516C101,9.236,64.963,24.895,60.007,52.9" transform="translate(47.564 14.11)" fill="#d3766a"/>
                  <path id="Trazado_157936" data-name="Trazado 157936" d="M87.175,53.249c-.072-.121-.212.257-.158.4,1.306,3.4,2.227,7.518-.487,9.741-.085.068-.014.239.1.183,3.612-1.856,2.333-7.308.55-10.322" transform="translate(69.074 42.507)" fill="#263238"/>
                  <path id="Trazado_157937" data-name="Trazado 157937" d="M85.771,51.881c-5.678,1.5-2.252,12.752,3.011,11.358,5.176-1.372,1.75-12.619-3.011-11.358" transform="translate(66.156 41.354)" fill="#263238"/>
                  <path id="Trazado_157938" data-name="Trazado 157938" d="M98.561,49.15c-.014-.142.324.081.362.225.951,3.518,2.633,7.387,6.137,7.583.11.007.153.185.031.2-4.011.631-6.193-4.527-6.529-8.011" transform="translate(78.712 39.216)" fill="#263238"/>
                  <path id="Trazado_157939" data-name="Trazado 157939" d="M100.584,46.7c5.473-2.133,9.338,8.971,4.266,10.948C99.859,59.595,96,48.488,100.584,46.7" transform="translate(78.692 37.079)" fill="#263238"/>
                  <path id="Trazado_157940" data-name="Trazado 157940" d="M82.97,52.129A46.278,46.278,0,0,0,87.3,50c1.651-.836,3.054-1.333,4-3.018a2.489,2.489,0,0,0-.755-2.941c-1.937-1.342-4.216-.82-6.247.106a9.058,9.058,0,0,0-4.716,4.511c-1.04,2.1,1.349,4.252,3.383,3.475" transform="translate(63.358 34.519)" fill="#263238"/>
                  <path id="Trazado_157941" data-name="Trazado 157941" d="M105.919,43.985a45.5,45.5,0,0,1-4.824.2c-1.853.058-3.32.295-4.959-.73a2.491,2.491,0,0,1-.746-2.944c1.058-2.1,3.308-2.737,5.534-2.9a9.051,9.051,0,0,1,6.3,1.7c1.917,1.345.853,4.38-1.306,4.671" transform="translate(76.016 30.012)" fill="#263238"/>
                  <path id="Trazado_157942" data-name="Trazado 157942" d="M91.832,71.3c1.083.561,2.257,1.432,3.554,1.153a9.633,9.633,0,0,0,3.479-2.018.127.127,0,0,1,.205.133,4.906,4.906,0,0,1-3.847,3.239c-1.66.205-2.856-.921-3.678-2.246-.115-.187.13-.342.288-.261" transform="translate(73.085 56.226)" fill="#263238"/>
                  <path id="Trazado_157943" data-name="Trazado 157943" d="M92.023,83.333a12.408,12.408,0,0,0,9.527,2.867,15.64,15.64,0,0,0,4.327-1.106,4.566,4.566,0,0,0,.786-.342c.245-.108.464-.207.727-.351a.907.907,0,0,0,.462-.993l-.009-.025a1.645,1.645,0,0,0-.142-.345l-.007-.027-.1-.3C106.851,80,105.347,76,105.347,76c1.13.194,6.813.919,6.306-.46-4.227-11.389-8.93-24.058-15.542-34.5a.338.338,0,0,0-.61.284c3.63,11.106,9.189,21.5,13.015,32.6-1.781-.119-4.723-.45-6.119.007-.347.227,3.043,7.68,3.281,8.921a.412.412,0,0,1,.016.135c-4.331,1.948-8.144,1.622-13.441-.07-.32-.121-.525.2-.23.412" transform="translate(73.377 32.643)" fill="#263238"/>
                  <path id="Trazado_157944" data-name="Trazado 157944" d="M103.931,65.409a14.721,14.721,0,0,1-4.306,6.085,6.616,6.616,0,0,1-3.772,1.412c-3.005.117-3.853-2.416-4.007-4.756a15.848,15.848,0,0,1,.228-3.725,19.038,19.038,0,0,0,11.856.984" transform="translate(73.326 51.451)" fill="#263238"/>
                  <path id="Trazado_157945" data-name="Trazado 157945" d="M99.614,69.91a6.617,6.617,0,0,1-3.773,1.412c-3,.115-3.853-2.416-4.007-4.756,3.076-.6,6.646.522,7.781,3.344" transform="translate(73.339 53.034)" fill="#ff98b9"/>
                  <path id="Trazado_157946" data-name="Trazado 157946" d="M71.953,98.592S52.92,67.4,54.622,49.326c.77-8.169,11.88-13.709,11.88-13.709S102.711.4,141.472,27.295c4.6,3.193,15.885,13.348-3.311,22.146-18.689,8.567-56.991.336-56.991.336s3.158,19.6-.457,39.636c-1.34,7.425-8.759,9.178-8.759,9.178" transform="translate(43.536 13.714)" fill="#263238"/>
                  <path id="Trazado_157947" data-name="Trazado 157947" d="M79.454,65.357S65.127,50.019,58,55.364,63.341,84.122,72.893,86.21s11.659-6.716,11.659-6.716Z" transform="translate(44.639 43.312)" fill="#d3766a"/>
                  <path id="Trazado_157948" data-name="Trazado 157948" d="M59.195,58.549a.127.127,0,0,0-.013.25C65.909,60.472,70.1,65.9,73.31,71.678c-2.227-2.086-4.986-3.009-7.82-.309-.147.142.049.378.221.315,2.527-.928,4.471-.743,6.529,1.094A27.677,27.677,0,0,1,75.947,77.4c.38.527,1.363.077,1.054-.547-.023-.047-.05-.094-.074-.14-.991-8.133-8.909-18.587-17.733-18.166" transform="translate(47.184 46.749)" fill="#263238"/>
                  <path id="Trazado_157949" data-name="Trazado 157949" d="M140.255,26.232c-5.934.57-36.177,12-47.861,22.634S63.14,87.63,62.24,89.1,37.724,42.38,75.381,19.131c41.032-25.334,64.874,7.1,64.874,7.1" transform="translate(43.211 7.553)" fill="#ffc727"/>
                  <path id="Trazado_157950" data-name="Trazado 157950" d="M59.54,90.26s14.723-44.906,26.925-58.2S130.67,2.6,154.584,4.585c18.65,1.55-13.709,36.008-13.709,36.008s-3.083-5.389-9-5.657c-11.495-.522-29.632,9.178-39.311,16.628C80.382,60.938,59.54,90.26,59.54,90.26" transform="translate(47.55 3.529)" fill="#ffc727"/>
                  <g id="Grupo_159395" data-name="Grupo 159395" transform="translate(107.09 7.946)" opacity="0.2">
                    <g id="Grupo_159394" data-name="Grupo 159394">
                      <g id="Grupo_159393" data-name="Grupo 159393" clip-path="url(#clip-path-8)">
                        <path id="Trazado_157951" data-name="Trazado 157951" d="M59.54,90.26s14.723-44.906,26.925-58.2S130.67,2.6,154.584,4.585c18.65,1.55-13.709,36.008-13.709,36.008s-3.083-5.389-9-5.657c-11.495-.522-29.632,9.178-39.311,16.628C80.382,60.938,59.54,90.26,59.54,90.26" transform="translate(-59.541 -4.418)"/>
                      </g>
                    </g>
                  </g>
                </g>
              </g>
            </g>
          </g>
        </g>
        <g id="Grupo_159400" data-name="Grupo 159400" transform="translate(21066 -8510.066)">
          <g id="Grupo_159410" data-name="Grupo 159410" transform="translate(0 0)">
            <path id="Trazado_157952" data-name="Trazado 157952" d="M.286,34.869A39.582,39.582,0,1,1,34.868,78.886,39.581,39.581,0,0,1,.286,34.869" transform="translate(0 0)" fill="#1169e3"/>
            <path id="Trazado_157953" data-name="Trazado 157953" d="M50.416,45.444c-9.837,9.191-25.672,10.893-25.672,10.893s-10.8-11.7-12.157-25.089c-1.127-11.168,5.646-20.238,13.841-19.7,11.748.768,7.56,20.158,7.56,20.158s9.6-17.357,18.965-10.2c6.526,4.985,5.66,16.274-2.537,23.942" transform="translate(6.347 5.868)" fill="#0c487b"/>
          </g>
        </g>
        <g id="Grupo_159401" data-name="Grupo 159401" transform="translate(20951.896 -8259.12)">
          <g id="Grupo_159411" data-name="Grupo 159411" transform="translate(0 0)">
            <path id="Trazado_157952-2" data-name="Trazado 157952" d="M60.367,26.683A30.29,30.29,0,1,0,33.9,60.367,30.289,30.289,0,0,0,60.367,26.683" transform="translate(-0.001 0)" fill="#0c487b"/>
            <path id="Trazado_157953-2" data-name="Trazado 157953" d="M17.716,37.482c7.528,7.033,19.645,8.336,19.645,8.336s8.268-8.953,9.3-19.2c.863-8.546-4.32-15.487-10.592-15.076-8.99.588-5.785,15.426-5.785,15.426S22.94,13.686,15.775,19.16c-4.994,3.815-4.331,12.453,1.941,18.321" transform="translate(-0.567 1.785)" fill="#fff"/>
          </g>
        </g>
        <g id="Grupo_159403" data-name="Grupo 159403" transform="translate(20672.982 -8487.154)">
          <g id="Grupo_159404" data-name="Grupo 159404" transform="translate(0)">
            <path id="Trazado_157954" data-name="Trazado 157954" d="M80.667,22.764c-2.553-1.486-5.02-2.957-7.518-4.37a29.972,29.972,0,0,0-15.3-4.222C46.718,14.3,38.066,19.089,31.68,28.057a45.605,45.605,0,0,0-8.1,23.429c-.283,3.676-.047,7.392-.047,11.146a8.567,8.567,0,0,1-.888.251,26.645,26.645,0,0,0-12.777,6.2,3.181,3.181,0,0,0-.609.675C3.748,78.089.381,87.067.73,97.245c.246,7.181,2.643,13.63,6.282,19.694,2.42,4.034,4.911,8.026,7.4,12.02a1.4,1.4,0,0,1-.117,1.931,11.588,11.588,0,0,0-2.5,6.895,34.708,34.708,0,0,0,6.059,21.375,19.865,19.865,0,0,0,9.059,7.292c4.481,1.889,9.122,3.4,13.712,5.026,1.728.611,1.641.555,1.561,2.388a5.84,5.84,0,0,0,.641,3.06,18.743,18.743,0,0,0,8.625,7.361c12.827,5.983,25.577,6.373,37.988-1.1,4.059-2.445,7.852-5.333,11.765-8.02,1.436-.987,2.9-1.938,4.287-2.991a1.809,1.809,0,0,1,2.22-.055c4.431,2.22,8.75,4.785,13.387,6.455a38.233,38.233,0,0,0,47.675-19.907c.479-1.013,1.249-.907,2.028-1.016,4.053-.57,8.13-1,12.157-1.719,8.993-1.6,14.977-7.22,19.215-14.945,4.536-8.269,6.189-16.968,3.428-26.211a27.394,27.394,0,0,0-1.056-2.811c-.372-.88-.815-1.73-1.271-2.686a28.109,28.109,0,0,0,7.9-9.26c5.591-10.444,7.132-21.353,3.048-32.652a43.487,43.487,0,0,0-4.616-8.3,13.087,13.087,0,0,0-9.055-5.87c-1.786-.334-3.514-.979-5.269-1.479-1.122-.32-1.457-.951-1.384-2.195a41.546,41.546,0,0,0-8.983-29.163c-4.443-5.614-10.1-9.42-17.3-10.634-8.073-1.362-15.159.326-20.71,6.727a9.821,9.821,0,0,0-.6.857,3.2,3.2,0,0,1-.473-.412c-5.392-8.544-13.466-13.122-22.983-15.6C114.705-.809,106.8-.545,99.241,3.513c-6.132,3.293-10.834,8.142-14.848,13.723-1.27,1.765-2.435,3.605-3.726,5.528" transform="translate(-0.705 0)" fill="#fff"/>
            <path id="Trazado_157955" data-name="Trazado 157955" d="M42.229,346.1c0,1.59.02,3-.008,4.409-.015.738-.162,1.473-.168,2.21-.018,2.221.478,2.882,2.625,3.341a8.768,8.768,0,0,0,6.552-.986,3.316,3.316,0,0,0,1.733-4.173c-.322-1.206-.215-2.151,1.066-2.678a1.541,1.541,0,0,0,.327-.214c4.459-3.4,5.17-5.459,3.409-10.81-1.493-4.536-6.016-6.478-10.456-4.7a43.111,43.111,0,0,0-4.418,2.236c-.721.39-1.127.376-1.514-.465a1.542,1.542,0,0,0-1.271-.661c-4.456.55-8,5.9-6.832,10.222a4.043,4.043,0,0,0,3.938,3.214,10.843,10.843,0,0,0,2.459-.205c.764-.14,1.5-.427,2.558-.742" transform="translate(176.696 -307.934)" fill="#fff"/>
            <path id="Trazado_157956" data-name="Trazado 157956" d="M12.886,388.914c-.172-2.876-.99-4.664-2.941-5.8A2.062,2.062,0,0,0,6.9,383.8a8.584,8.584,0,0,0-.462.789c-1.023,1.856-1.017,1.812-3.063,1.57a2.215,2.215,0,0,0-1.559.449,5.113,5.113,0,0,0-1.8,4.424c.1,1.252.747,1.895,1.935,1.691,1.141-.2,2.273-1,3.344-.9S7.284,393,8.363,393.366a2.625,2.625,0,0,0,3.164-1.263,20.487,20.487,0,0,0,1.359-3.189" transform="translate(244.303 -364.199)" fill="#fff"/>
          </g>
        </g>
        <g id="Grupo_159405" data-name="Grupo 159405" transform="translate(20733.873 -8448.289)">
          <g id="Grupo_159365" data-name="Grupo 159365" clip-path="url(#clip-path-9)">
            <path id="Trazado_157869" data-name="Trazado 157869" d="M28.436,202.9H25.969c-.384-.117-.765-.244-1.152-.349-3.646-.991-6.272-3.444-8.62-6.2A65.751,65.751,0,0,1,.212,158.93a39.631,39.631,0,0,1,2.258-18.275,26.381,26.381,0,0,1,13.721-14.98c4.716-2.2,9.671-3.087,14.783-1.661a77.37,77.37,0,0,1,8.215,2.9,10.545,10.545,0,0,0,8.46.023c2.171-.917,4.39-1.735,6.629-2.473,8.279-2.73,16-1.442,23.152,3.428a19.715,19.715,0,0,1,5.412,5.629c-16.894,11.05-13.927,34.287,2.736,41.407a2.2,2.2,0,0,1-.06.391,61.746,61.746,0,0,1-13.963,23.092c-3.56,3.729-7.985,5.237-13.1,3.865a50.772,50.772,0,0,1-5.77-2.1,20.154,20.154,0,0,0-14.053-.6c-3.407,1.083-6.57,2.916-10.2,3.322" transform="translate(-0.001 -97.711)" fill="#afafaf"/>
            <path id="Trazado_157870" data-name="Trazado 157870" d="M207.136,24.139C205.74,13.81,214.925,1.022,227.987,0c1.738,10.452-8.069,24.83-20.851,24.138" transform="translate(-164.366 -0.001)" fill="#afafaf"/>
          </g>
        </g>
      </g>
      <g id="Grupo_159408" data-name="Grupo 159408" transform="translate(20807.307 -8332.855)">
        <g id="Grupo_159409" data-name="Grupo 159409" transform="translate(0 0)">
          <path id="Trazado_157958" data-name="Trazado 157958" d="M2.38,37.982a26.922,26.922,0,1,1,35.6,13.493A26.921,26.921,0,0,1,2.38,37.982" transform="translate(0 0)" fill="#29c4bb"/>
          <path id="Trazado_157959" data-name="Trazado 157959" d="M40.768,27.394c-2.5,8.808-11.127,15.36-11.127,15.36s-10.4-3.02-15.891-10.344C9.17,26.3,9.93,18.64,14.892,16.076,22,12.4,26.375,25.162,26.375,25.162s-.5-13.483,7.462-12.6c5.552.612,9.011,7.491,6.931,14.836" transform="translate(0.283 0.331)" fill="#1b958e"/>
        </g>
      </g>
    </g>
  </g>
</svg>
