<svg xmlns="http://www.w3.org/2000/svg" xmlns:xlink="http://www.w3.org/1999/xlink" width="255" height="369.465" viewBox="0 0 255 369.465">
  <defs>
    <filter id="Rectángulo_38044" x="0" y="17.465" width="255" height="352" filterUnits="userSpaceOnUse">
      <feOffset dy="3" input="SourceAlpha"/>
      <feGaussianBlur stdDeviation="3" result="blur"/>
      <feFlood flood-opacity="0.161"/>
      <feComposite operator="in" in2="blur"/>
      <feComposite in="SourceGraphic"/>
    </filter>
  </defs>
  <g id="Grupo_158837" data-name="Grupo 158837" transform="translate(8.709 -2.553)">
    <g transform="matrix(1, 0, 0, 1, -8.71, 2.55)" filter="url(#Rectángulo_38044)">
      <g id="Rectángulo_38044-2" data-name="Rectángulo 38044" transform="translate(9 23.46)" fill="#fff" stroke="#707070" stroke-width="1">
        <rect width="237" height="334" stroke="none"/>
        <rect x="0.5" y="0.5" width="236" height="333" fill="none"/>
      </g>
    </g>
    <g id="Rectángulo_38045" data-name="Rectángulo 38045" transform="translate(9.291 40.018)" fill="#fff" stroke="#707070" stroke-width="1">
      <rect width="217" height="307" stroke="none"/>
      <rect x="0.5" y="0.5" width="216" height="306" fill="none"/>
    </g>
    <path id="Trazado_156540" data-name="Trazado 156540" d="M3820.785-8749.467H3705.649v-28.682" transform="translate(-3676.806 8818.151)" fill="#fff" stroke="#707070" stroke-width="1"/>
    <path id="Trazado_156541" data-name="Trazado 156541" d="M3706.575-8610.808h29.465v21.405" transform="translate(-3525.513 8935.98)" fill="#fff" stroke="#707070" stroke-width="1"/>
    <g id="Rectángulo_38075" data-name="Rectángulo 38075" transform="translate(33.291 314.018)" fill="#fff" stroke="#1169e3" stroke-width="1">
      <rect width="92" height="23" stroke="none"/>
      <rect x="0.5" y="0.5" width="91" height="22" fill="none"/>
    </g>
    <g id="Rectángulo_38077" data-name="Rectángulo 38077" transform="translate(19.291 84.018)" fill="#fff" stroke="#1169e3" stroke-width="1">
      <rect width="64" height="219" stroke="none"/>
      <rect x="0.5" y="0.5" width="63" height="218" fill="none"/>
    </g>
    <g id="Rectángulo_38078" data-name="Rectángulo 38078" transform="translate(88.291 83.018)" fill="#fff" stroke="#1169e3" stroke-width="1">
      <rect width="62" height="220" stroke="none"/>
      <rect x="0.5" y="0.5" width="61" height="219" fill="none"/>
    </g>
    <g id="Rectángulo_38079" data-name="Rectángulo 38079" transform="translate(154.291 84.018)" fill="#fff" stroke="#1169e3" stroke-width="1">
      <rect width="62" height="219" stroke="none"/>
      <rect x="0.5" y="0.5" width="61" height="218" fill="none"/>
    </g>
    <g id="Rectángulo_38076" data-name="Rectángulo 38076" transform="translate(144.291 47.018)" fill="none" stroke="#1169e3" stroke-width="1">
      <rect width="63" height="82" stroke="none"/>
      <rect x="0.5" y="0.5" width="62" height="81" fill="none"/>
    </g>
    <path id="Trazado_157811" data-name="Trazado 157811" d="M.952,12V2.694H4.907a6.769,6.769,0,0,1,2.168.251,2.138,2.138,0,0,1,1.082.892A2.681,2.681,0,0,1,8.563,5.3a2.484,2.484,0,0,1-.616,1.73,2.957,2.957,0,0,1-1.841.86,4.384,4.384,0,0,1,1.006.781,10.606,10.606,0,0,1,1.07,1.511L9.318,12H7.071L5.713,9.975a13.135,13.135,0,0,0-.99-1.368,1.442,1.442,0,0,0-.565-.387,3.1,3.1,0,0,0-.946-.1H2.831V12ZM2.831,6.63h1.39A7.179,7.179,0,0,0,5.91,6.516a1.012,1.012,0,0,0,.527-.394,1.212,1.212,0,0,0,.19-.7,1.116,1.116,0,0,0-.251-.759A1.151,1.151,0,0,0,5.668,4.3Q5.44,4.269,4.3,4.269H2.831ZM14.225,9.854l1.777.3a2.915,2.915,0,0,1-1.082,1.489,3.179,3.179,0,0,1-1.85.511A3.016,3.016,0,0,1,10.467,11,3.86,3.86,0,0,1,9.8,8.68a3.722,3.722,0,0,1,.876-2.625,2.885,2.885,0,0,1,2.215-.949,2.992,2.992,0,0,1,2.374.993A4.4,4.4,0,0,1,16.1,9.144H11.629a1.8,1.8,0,0,0,.432,1.235,1.35,1.35,0,0,0,1.028.441,1.092,1.092,0,0,0,.7-.229A1.411,1.411,0,0,0,14.225,9.854Zm.1-1.8a1.717,1.717,0,0,0-.4-1.177,1.287,1.287,0,0,0-1.892.022,1.646,1.646,0,0,0-.375,1.155Zm6.316-2.793V6.681H19.424V9.4a6.757,6.757,0,0,0,.035.962.392.392,0,0,0,.159.225.5.5,0,0,0,.3.089,2.307,2.307,0,0,0,.717-.171l.152,1.384a3.546,3.546,0,0,1-1.409.267,2.235,2.235,0,0,1-.87-.162,1.269,1.269,0,0,1-.568-.419,1.654,1.654,0,0,1-.251-.7,8.646,8.646,0,0,1-.057-1.257V6.681h-.819V5.259h.819V3.919l1.79-1.041v2.38ZM21.88,12V5.259h1.784V12Zm-.133-7.566.876-1.9h2l-1.746,1.9ZM31.37,7.252l-1.758.317a1.276,1.276,0,0,0-.4-.793,1.217,1.217,0,0,0-.816-.267,1.333,1.333,0,0,0-1.063.46,2.358,2.358,0,0,0-.4,1.539,2.728,2.728,0,0,0,.4,1.695,1.323,1.323,0,0,0,1.082.5,1.2,1.2,0,0,0,.832-.289,1.737,1.737,0,0,0,.457-.993l1.752.3a3.109,3.109,0,0,1-1.047,1.822,3.242,3.242,0,0,1-2.076.616,3.086,3.086,0,0,1-2.358-.933A3.618,3.618,0,0,1,25.1,8.636a3.626,3.626,0,0,1,.882-2.6,3.134,3.134,0,0,1,2.387-.93,3.256,3.256,0,0,1,1.958.53A2.936,2.936,0,0,1,31.37,7.252ZM37.159,12V10.991a2.6,2.6,0,0,1-.968.851,2.714,2.714,0,0,1-1.266.311,2.476,2.476,0,0,1-1.219-.3,1.761,1.761,0,0,1-.781-.838,3.739,3.739,0,0,1-.241-1.492V5.259h1.784v3.1a8.59,8.59,0,0,0,.1,1.742.95.95,0,0,0,.359.508,1.1,1.1,0,0,0,.66.187,1.4,1.4,0,0,0,.819-.251,1.275,1.275,0,0,0,.5-.622A7.221,7.221,0,0,0,37.032,8.1V5.259h1.784V12Zm3.5,0V2.694h1.784V12Zm4.945-4.685-1.619-.292a2.521,2.521,0,0,1,.939-1.447,3.438,3.438,0,0,1,1.98-.47,4.268,4.268,0,0,1,1.777.282,1.773,1.773,0,0,1,.822.717,3.678,3.678,0,0,1,.238,1.6l-.019,2.082a7.228,7.228,0,0,0,.086,1.311,3.826,3.826,0,0,0,.321.9H48.369q-.07-.178-.171-.527-.044-.159-.063-.209a3.216,3.216,0,0,1-.978.667,2.8,2.8,0,0,1-1.111.222,2.3,2.3,0,0,1-1.641-.565,1.878,1.878,0,0,1-.6-1.428,1.917,1.917,0,0,1,.273-1.019,1.783,1.783,0,0,1,.765-.686,5.978,5.978,0,0,1,1.419-.416A9.718,9.718,0,0,0,47.995,7.6V7.423a.924.924,0,0,0-.254-.733,1.522,1.522,0,0,0-.958-.219,1.276,1.276,0,0,0-.743.187A1.3,1.3,0,0,0,45.608,7.315Zm2.387,1.447a11.149,11.149,0,0,1-1.085.273,3.27,3.27,0,0,0-.971.311.744.744,0,0,0-.349.628.875.875,0,0,0,.279.647.975.975,0,0,0,.711.273,1.545,1.545,0,0,0,.92-.317,1.117,1.117,0,0,0,.425-.59,3.522,3.522,0,0,0,.07-.87Zm7.084-4.418V2.694h1.784v1.65Zm1.784.914v6.532a6.77,6.77,0,0,1-.168,1.819,1.474,1.474,0,0,1-.647.828,2.278,2.278,0,0,1-1.222.3,3.772,3.772,0,0,1-.574-.048,6.3,6.3,0,0,1-.663-.143l.311-1.523q.127.025.238.041a1.465,1.465,0,0,0,.206.016.786.786,0,0,0,.448-.117.565.565,0,0,0,.232-.282,4.624,4.624,0,0,0,.057-.99V5.259Zm5.77,4.6,1.777.3a2.915,2.915,0,0,1-1.082,1.489,3.179,3.179,0,0,1-1.85.511A3.016,3.016,0,0,1,58.875,11a3.86,3.86,0,0,1-.667-2.323,3.722,3.722,0,0,1,.876-2.625A2.885,2.885,0,0,1,61.3,5.106a2.992,2.992,0,0,1,2.374.993A4.4,4.4,0,0,1,64.5,9.144H60.036a1.8,1.8,0,0,0,.432,1.235,1.35,1.35,0,0,0,1.028.441,1.092,1.092,0,0,0,.7-.229A1.411,1.411,0,0,0,62.632,9.854Zm.1-1.8a1.717,1.717,0,0,0-.4-1.177,1.287,1.287,0,0,0-1.892.022,1.646,1.646,0,0,0-.375,1.155ZM67.666,12H65.882V5.259h1.657v.958a2.881,2.881,0,0,1,.765-.9,1.407,1.407,0,0,1,.771-.216,2.264,2.264,0,0,1,1.174.336L69.7,7a1.565,1.565,0,0,0-.838-.292.99.99,0,0,0-.635.206,1.41,1.41,0,0,0-.409.746,10.6,10.6,0,0,0-.149,2.26Zm4.685-4.685-1.619-.292a2.521,2.521,0,0,1,.939-1.447,3.438,3.438,0,0,1,1.98-.47,4.268,4.268,0,0,1,1.777.282,1.773,1.773,0,0,1,.822.717,3.678,3.678,0,0,1,.238,1.6L76.47,9.785a7.228,7.228,0,0,0,.086,1.311,3.826,3.826,0,0,0,.321.9H75.112q-.07-.178-.171-.527-.044-.159-.063-.209a3.216,3.216,0,0,1-.978.667,2.8,2.8,0,0,1-1.111.222,2.3,2.3,0,0,1-1.641-.565,1.878,1.878,0,0,1-.6-1.428,1.917,1.917,0,0,1,.273-1.019,1.783,1.783,0,0,1,.765-.686A5.978,5.978,0,0,1,73,8.039,9.718,9.718,0,0,0,74.737,7.6V7.423a.924.924,0,0,0-.254-.733,1.522,1.522,0,0,0-.958-.219,1.276,1.276,0,0,0-.743.187A1.3,1.3,0,0,0,72.351,7.315Zm2.387,1.447a11.149,11.149,0,0,1-1.085.273,3.27,3.27,0,0,0-.971.311.744.744,0,0,0-.349.628.875.875,0,0,0,.279.647.975.975,0,0,0,.711.273,1.545,1.545,0,0,0,.92-.317,1.117,1.117,0,0,0,.425-.59,3.522,3.522,0,0,0,.07-.87Zm-1.93-4.329.876-1.9h2l-1.746,1.9ZM79.955,12H78.171V5.259h1.657v.958a2.881,2.881,0,0,1,.765-.9,1.407,1.407,0,0,1,.771-.216,2.264,2.264,0,0,1,1.174.336L81.986,7a1.565,1.565,0,0,0-.838-.292.99.99,0,0,0-.635.206,1.41,1.41,0,0,0-.409.746,10.6,10.6,0,0,0-.149,2.26Zm7.757,2.564v-3.39a2.529,2.529,0,0,1-.87.714,2.453,2.453,0,0,1-1.124.263,2.385,2.385,0,0,1-1.892-.863,4.031,4.031,0,0,1-.876-2.736,3.65,3.65,0,0,1,.822-2.536,2.638,2.638,0,0,1,2.041-.911,2.28,2.28,0,0,1,1.165.286,2.666,2.666,0,0,1,.873.863v-1H89.5v9.306Zm.057-6.018a2.362,2.362,0,0,0-.422-1.539,1.322,1.322,0,0,0-1.057-.5,1.361,1.361,0,0,0-1.082.514,2.5,2.5,0,0,0-.435,1.631,2.462,2.462,0,0,0,.419,1.6,1.307,1.307,0,0,0,1.035.492,1.377,1.377,0,0,0,1.079-.552A2.506,2.506,0,0,0,87.769,8.547ZM95.685,12V10.991a2.6,2.6,0,0,1-.968.851,2.714,2.714,0,0,1-1.266.311,2.476,2.476,0,0,1-1.219-.3,1.761,1.761,0,0,1-.781-.838,3.739,3.739,0,0,1-.241-1.492V5.259h1.784v3.1a8.59,8.59,0,0,0,.1,1.742.95.95,0,0,0,.359.508,1.1,1.1,0,0,0,.66.187,1.4,1.4,0,0,0,.819-.251,1.275,1.275,0,0,0,.5-.622A7.221,7.221,0,0,0,95.558,8.1V5.259h1.784V12Zm3.5-7.655V2.694h1.784v1.65Zm0,7.655V5.259h1.784V12Zm9.49-4.748-1.758.317a1.276,1.276,0,0,0-.4-.793,1.217,1.217,0,0,0-.816-.267,1.333,1.333,0,0,0-1.063.46,2.358,2.358,0,0,0-.4,1.539,2.728,2.728,0,0,0,.4,1.695,1.323,1.323,0,0,0,1.082.5,1.2,1.2,0,0,0,.832-.289,1.737,1.737,0,0,0,.457-.993l1.752.3a3.109,3.109,0,0,1-1.047,1.822,3.242,3.242,0,0,1-2.076.616,3.086,3.086,0,0,1-2.358-.933,3.618,3.618,0,0,1-.879-2.583,3.626,3.626,0,0,1,.882-2.6,3.134,3.134,0,0,1,2.387-.93,3.256,3.256,0,0,1,1.958.53A2.936,2.936,0,0,1,108.678,7.252Zm2.685.063-1.619-.292a2.521,2.521,0,0,1,.939-1.447,3.438,3.438,0,0,1,1.98-.47,4.268,4.268,0,0,1,1.777.282,1.773,1.773,0,0,1,.822.717,3.678,3.678,0,0,1,.238,1.6l-.019,2.082a7.228,7.228,0,0,0,.086,1.311,3.826,3.826,0,0,0,.321.9h-1.765q-.07-.178-.171-.527-.044-.159-.063-.209a3.216,3.216,0,0,1-.978.667,2.8,2.8,0,0,1-1.111.222,2.3,2.3,0,0,1-1.641-.565,1.878,1.878,0,0,1-.6-1.428,1.917,1.917,0,0,1,.273-1.019,1.783,1.783,0,0,1,.765-.686,5.978,5.978,0,0,1,1.419-.416A9.718,9.718,0,0,0,113.75,7.6V7.423a.924.924,0,0,0-.254-.733,1.522,1.522,0,0,0-.958-.219,1.276,1.276,0,0,0-.743.187A1.3,1.3,0,0,0,111.363,7.315Zm2.387,1.447a11.149,11.149,0,0,1-1.085.273,3.27,3.27,0,0,0-.971.311.744.744,0,0,0-.349.628.875.875,0,0,0,.279.647.975.975,0,0,0,.711.273,1.545,1.545,0,0,0,.92-.317,1.117,1.117,0,0,0,.425-.59,3.522,3.522,0,0,0,.07-.87Z" transform="translate(47.29 0.018)" fill="#1169e3"/>
  </g>
</svg>
