<svg xmlns="http://www.w3.org/2000/svg" xmlns:xlink="http://www.w3.org/1999/xlink" width="1240" height="479.915" viewBox="0 0 1240 479.915">
  <defs>
    <clipPath id="clip-path">
      <rect id="Rectángulo_35731" data-name="Rectángulo 35731" width="1240" height="479.642" rx="10" fill="none"/>
    </clipPath>
    <clipPath id="clip-path-2">
      <rect id="Rectángulo_38679" data-name="Rectángulo 38679" width="372.422" height="298.595" fill="none"/>
    </clipPath>
    <clipPath id="clip-path-3">
      <rect id="Rectángulo_38688" data-name="Rectángulo 38688" width="124" height="152.41" fill="#e8e8e8"/>
    </clipPath>
  </defs>
  <g id="Grupo_159415" data-name="Grupo 159415" transform="translate(-16744.657 8530)">
    <g id="Grupo_131449" data-name="Grupo 131449" transform="translate(16744.656 -8530)">
      <g id="Grupo_131448" data-name="Grupo 131448" clip-path="url(#clip-path)">
        <g id="Enmascarar_grupo_70" data-name="Enmascarar grupo 70">
          <g id="Grupo_131152" data-name="Grupo 131152">
            <path id="Rectángulo_35714" data-name="Rectángulo 35714" d="M1240,0H0V479.642H1240Z" fill="#b0c8cb"/>
            <path id="Trazado_123569" data-name="Trazado 123569" d="M0,203.669s55.82,11.822,138.323-52.258c42.116-35.516,86.557-70.785,138.488-90.206,61.734-23.094,128.733-20.625,192.006-5.363,58.736,14.168,115.215,38.264,171.127,60.679,106.871,42.845,213.941,90.654,326.8,115.131,81.638,17.7,184.7,24.881,242.094-49.365,14.192-18.36,24.177-39.737,31.164-61.861V478.855H.035C.035,390.96,0,203.669,0,203.669Z" transform="translate(0 0.431)" fill="#fff" opacity="0.36" style="isolation: isolate"/>
            <path id="Trazado_123570" data-name="Trazado 123570" d="M1239.979,418.442c-210.437,99.168-511.1-52.759-716.952-61.854S237.173,457.565,0,382.6v93.2H1239.979Z" transform="translate(0.021 3.479)" fill="#fff" opacity="0.39" style="isolation: isolate"/>
          </g>
        </g>
      </g>
    </g>
    <g id="Grupo_159359" data-name="Grupo 159359" transform="translate(-473.223 -619.738)">
      <path id="Trazado_156574" data-name="Trazado 156574" d="M549.195,354.231c8.861-35.161,19.529-66.986,19.98-68.324l71.066,23.9c-10.135,30.139-18.852,62.363-23.825,86.545a658.177,658.177,0,0,0-77.339,7.618,461.822,461.822,0,0,1,10.118-49.738" transform="translate(16850.285 -7952.887)" fill="#e48c68"/>
      <path id="Trazado_156575" data-name="Trazado 156575" d="M409.734,157.273a1.075,1.075,0,0,1-.522-.137c-.4-.224-9.845-5.587-8.021-11.968.339-1.191.727-2.336,1.1-3.445,1.394-4.111,2.5-7.359.6-10.766a17.1,17.1,0,0,0-3.046-3.927,16.6,16.6,0,0,1-4.552-7.54,1.074,1.074,0,1,1,2.046-.654,14.426,14.426,0,0,0,4.049,6.7,19.392,19.392,0,0,1,3.382,4.376c2.355,4.24,1,8.253-.445,12.5-.365,1.078-.742,2.192-1.074,3.348-1.126,3.942,4.676,8.2,7.007,9.5a1.074,1.074,0,0,1-.526,2.011" transform="translate(17189.396 -7913.04)" fill="#493a32"/>
      <path id="Trazado_156576" data-name="Trazado 156576" d="M507.188,165.2a.969.969,0,0,1-.162-.013A3.779,3.779,0,0,1,504,162.956c-1.814-3.967,1.589-12.4,5.766-18.994,2.751-4.34,1.977-5.663.283-8.56a24.343,24.343,0,0,1-3.384-8.651,1.075,1.075,0,0,1,2.114-.39,22.43,22.43,0,0,0,3.124,7.956c1.816,3.105,3.126,5.349-.321,10.794-4.43,6.993-6.85,14.28-5.63,16.952a1.652,1.652,0,0,0,1.392,1,1.073,1.073,0,0,1-.157,2.134" transform="translate(17003.922 -7914.796)" fill="#493a32"/>
      <path id="Trazado_156578" data-name="Trazado 156578" d="M267.442,342.283a107.808,107.808,0,0,1-7.405-10.844c-8.814-14.469-18.384-34.866-30.5-60.69q-4.226-9.01-8.829-18.761L152.783,284.13q4.56,9.633,8.724,18.539c16.677,35.543,29.849,63.615,44.95,83.582,12.565,16.609,26.839,27.672,42.664,33.179,21.4-7.266,19.249-80.732,18.32-77.146" transform="translate(17492.588 -7964.57) rotate(10)" fill="#e48c68"/>
      <path id="Trazado_156579" data-name="Trazado 156579" d="M302.056,310.307c10.58-.73,25.539-15.871,28.093-20.979s-33.383,5.108-33.383,5.108Z" transform="translate(17345.021 -7953.36)" fill="#251d1b"/>
      <path id="Trazado_156580" data-name="Trazado 156580" d="M619.3,362.182l-4.33,15.932s-42-16.965-56.778-33.383l42.96,1.368Z" transform="translate(16856.648 -7966.854)" fill="#251d1b"/>
      <path id="Trazado_156581" data-name="Trazado 156581" d="M506.521,466.957a125.866,125.866,0,0,0-5.21-12.376c-54.975,1.917-109.951,11.79-164.925,12.687l-8.009,15.62c60.359,2.768,119.384-8.971,178.144-15.932" transform="translate(17144.674 -7992.938)" fill="#3c251d"/>
      <path id="Trazado_156582" data-name="Trazado 156582" d="M332.063,486.741l-40.867,79.7H538.56s-16.446-63.68-28.353-95.634c-58.759,6.961-117.785,18.7-178.144,15.932" transform="translate(17140.988 -7996.791)" fill="#c2afa0"/>
      <path id="Trazado_156583" data-name="Trazado 156583" d="M406.622,567.549a.538.538,0,0,1-.537-.52l-2.921-88.658a.537.537,0,0,1,.52-.554h.017a.538.538,0,0,1,.537.52l2.921,88.658a.536.536,0,0,1-.52.554Z" transform="translate(17187.008 -7998.455)" fill="#251d1b"/>
      <path id="Trazado_156584" data-name="Trazado 156584" d="M429.952,567.306a.538.538,0,0,1-.537-.516l-3.284-84.827a.541.541,0,0,1,.516-.558.586.586,0,0,1,.557.516l3.284,84.827a.54.54,0,0,1-.516.557Z" transform="translate(17146.164 -7999.307)" fill="#251d1b"/>
      <path id="Trazado_156585" data-name="Trazado 156585" d="M359.589,507.762a.592.592,0,0,1-.061,0c-28.944-3.274-45.124-31.725-45.286-32.011a.538.538,0,1,1,.939-.525c.157.283,16.079,28.257,44.468,31.471a.536.536,0,0,1-.061,1.069" transform="translate(17311.627 -7997.773)" fill="#251d1b"/>
      <path id="Trazado_156586" data-name="Trazado 156586" d="M532.166,570.839a.566.566,0,0,1-.156-.023.537.537,0,0,1-.358-.669c.133-.435,13.291-43.5,24.7-59.806a.537.537,0,0,1,.88.616c-11.313,16.162-24.424,59.07-24.554,59.5a.538.538,0,0,1-.514.381" transform="translate(16938.875 -8006.124)" fill="#251d1b"/>
      <path id="Trazado_156587" data-name="Trazado 156587" d="M627.63,109.769c-13.134-.821-26.269-7.388-39.13,10.124s2.463,33.657-7.114,44.876-21.891-2.462-39.677,4.925-29.826,41.867,2.463,55.821,79.08-18.333,86.741-34.2,9.851-17.787,1.916-30.921-13.956-11.766-11.766-23.806,13.956-15.324,13.956-15.324Z" transform="translate(16864.207 -7910.617)" fill="#493a32"/>
      <path id="Trazado_156588" data-name="Trazado 156588" d="M448.634,14.98S437.781,13.8,430.12,19s-23.806,34.2-17.787,59.378,29.827,28.458,35.026,39.677l61.852-40.5s6.283-26.813,2.179-40.495S476.179.287,448.634,14.98" transform="translate(17075.398 -7887.437)" fill="#493a32"/>
      <path id="Trazado_156589" data-name="Trazado 156589" d="M368.158,403.419l-.652,1.271c54.976-.9,109.951-10.77,164.926-12.687a23.864,23.864,0,0,0-2.557-4.181l-.548-62.388s10.124-13.408,9.03-23.259-5.747-21.891-5.747-21.891,11.766-.821,20.523-6.841,16.145-10.4,16.145-10.4-29.005-47.612-40.5-55.821c-8.087-5.776-44.873-12.632-65.979-16.191-8.933,18.976-45.22,19.073-61.136,1.828-27.052,9.129-63.217,20.266-80.846,37.9-19.154,19.154-33.931,74.428-33.931,74.428s18.607,9.852,32.289,14.229,30.829,9.121,35.755,11.31a75.129,75.129,0,0,0,10.945,3.648Z" transform="translate(17113.555 -7930.359)" fill="#1591de"/>
      <path id="Trazado_156590" data-name="Trazado 156590" d="M487.657,190.282c-8.889-1.5-15.016-2.417-15.016-2.417l-39.312,1.915c-2.186.763-4.467,1.54-6.808,2.33,15.917,17.245,52.2,17.148,61.136-1.828" transform="translate(17088.699 -7929.607)" fill="#1c1ca3"/>
      <path id="Trazado_156591" data-name="Trazado 156591" d="M393,97.083s10.092-10.545,18.7-7.562,9.981,21.472.8,25.175-20.334-3.392-20.334-3.392Z" transform="translate(17183.748 -7906.13)" fill="#db704a"/>
      <path id="Trazado_156592" data-name="Trazado 156592" d="M407.069,112.441a.4.4,0,0,0,.111-.031,8.044,8.044,0,0,0,4.176-9.609c-.759-2.812-1.888-4.537-3.554-5.429-2.09-1.118-4.908-.914-9.724.7a.377.377,0,0,0,.24.715c4.537-1.524,7.266-1.748,9.129-.751,1.469.787,2.481,2.364,3.182,4.962a7.169,7.169,0,0,1-3.756,8.723.377.377,0,0,0,.2.719" transform="translate(17186.531 -7907.954)" fill="#251d1b"/>
      <path id="Trazado_156593" data-name="Trazado 156593" d="M480.454,166.225c-.725-7.535-1.246-15.814-1.246-15.814L442.4,139.163c6.456,15.252,21.838,21.574,38.056,27.062" transform="translate(17083.795 -7918.043)" fill="#251d1b"/>
      <path id="Trazado_156594" data-name="Trazado 156594" d="M484.6,177.223a80.879,80.879,0,0,1-1.657-11.472c-16.218-5.488-31.6-11.81-38.056-27.062l-4.989-1.524s5.17,35.4.824,40.577,48.159,12.861,43.878-.519" transform="translate(17081.305 -7917.569)" fill="#e48c68"/>
      <path id="Trazado_156595" data-name="Trazado 156595" d="M493.411,44.537c2.757,6.945.111,17.6,2.629,32.1s3.6,43.656-16.968,49.4a58.038,58.038,0,0,1-38.679-2.937c-5.949-2.785-13.1-13.953-16.013-24.072l-12.6-31.8C405.694,46.06,418.06,23.651,439.431,18.3q.74-.185,1.5-.349c41.933-9.007,52.479,26.586,52.479,26.586" transform="translate(17091.404 -7888.916)" fill="#e48c68"/>
      <path id="Trazado_156596" data-name="Trazado 156596" d="M467.458,97.472c-.163-1.938.342-3.563,1.129-3.629s1.556,1.451,1.719,3.39-.342,3.563-1.129,3.629-1.556-1.451-1.719-3.39" transform="translate(17074.824 -7907.282)" fill="#251d1b"/>
      <path id="Trazado_156597" data-name="Trazado 156597" d="M425.79,96.17c-.163-1.938.342-3.563,1.129-3.629s1.556,1.451,1.719,3.39-.342,3.563-1.129,3.629-1.556-1.451-1.719-3.39" transform="translate(17148.268 -7906.973)" fill="#251d1b"/>
      <path id="Trazado_156598" data-name="Trazado 156598" d="M464.018,89.5a1.5,1.5,0,0,0,.993-.421c.144-.134,3.2-2.938,8.879-2.127a1.508,1.508,0,1,0,.428-2.985c-7.224-1.037-11.238,2.783-11.4,2.946a1.508,1.508,0,0,0,1.1,2.587" transform="translate(17073.34 -7904.895)" fill="#251d1b"/>
      <path id="Trazado_156599" data-name="Trazado 156599" d="M418.74,84.277a1.5,1.5,0,0,0,1.076-.071c.18-.08,3.988-1.724,9.085.908a1.508,1.508,0,1,0,1.386-2.679c-6.482-3.353-11.528-1.064-11.74-.965a1.508,1.508,0,0,0,.194,2.806" transform="translate(17151.998 -7904.142)" fill="#251d1b"/>
      <path id="Trazado_156600" data-name="Trazado 156600" d="M447.864,123.541c2.025.251,4.041.188,6.063.339,2.156.161,3.864,1.383,3.506,3.692-1.438,9.306-14.3,9.234-21.167,7.111a9.977,9.977,0,0,1-4.372-2.481c-2.233-2.345-2.854-6.952-.147-9.2,2.311-1.922,5.831-1.339,8.547-.883,2.329.391,4.622.974,6.956,1.341.2.032.409.061.614.086" transform="translate(17116.254 -7913.887)" fill="#fff"/>
      <path id="Trazado_156601" data-name="Trazado 156601" d="M431.072,85.109s16.513-13.676,33.285-45.67c0,0,23.222,17.029,28.641,19.352S501.255,70.4,501.255,70.4a67.737,67.737,0,0,0,.774-27.351C498.674,25.505,468.485,7.96,440.361,18.8S410.172,62.4,410.172,62.4l8.515,23.48Z" transform="translate(17085.744 -7888.671)" fill="#493a32"/>
      <path id="Trazado_156602" data-name="Trazado 156602" d="M486.571,39.918a.573.573,0,0,1-.525-.335c-.069-.136-6.616-13.628-25.544-23.475a.575.575,0,0,1-.251-.783.592.592,0,0,1,.783-.251c19.308,10.045,26,23.871,26.061,24.008a.574.574,0,0,1-.274.776.606.606,0,0,1-.251.061" transform="translate(17063.531 -7888.565)" fill="#fff"/>
      <path id="Trazado_156603" data-name="Trazado 156603" d="M403.714,94.279l-.133-1.036,6.395-.843.133,1.036Z" transform="translate(17183.74 -7906.94)" fill="#382621"/>
      <path id="Trazado_156604" data-name="Trazado 156604" d="M479.943,90c-.156-8.435-6.149-15.192-13.358-15.059s-12.951,7.109-12.795,15.545,6.153,15.189,13.363,15.055S480.1,98.433,479.943,90m-1.046.02c.146,7.86-5.13,14.352-11.764,14.475s-12.151-6.168-12.3-14.028,5.134-14.356,11.768-14.479,12.147,6.173,12.293,14.033" transform="translate(17075.617 -7902.793)" fill="#382621"/>
      <path id="Trazado_156605" data-name="Trazado 156605" d="M429.4,89.058c-.156-8.436-6.153-15.193-13.363-15.06s-12.95,7.109-12.794,15.545,6.153,15.189,13.363,15.055,12.95-7.1,12.794-15.54m-1.046.019c.146,7.86-5.134,14.352-11.768,14.475s-12.151-6.168-12.3-14.028,5.134-14.356,11.768-14.479,12.151,6.173,12.3,14.033" transform="translate(17164.707 -7902.57)" fill="#382621"/>
      <path id="Trazado_156606" data-name="Trazado 156606" d="M437.116,95.888l-.589-.864c8.4-5.684,14-.988,14.059-.936l-.684.789c-.2-.172-5.062-4.207-12.787,1.01" transform="translate(17118.139 -7906.896)" fill="#382621"/>
      <path id="Trazado_156607" data-name="Trazado 156607" d="M487.507,101.782l-.093-1.045,27.962-2.588.093,1.045Z" transform="translate(17014.451 -7908.305)" fill="#382621"/>
      <path id="Trazado_156608" data-name="Trazado 156608" d="M439.209,113.818a.358.358,0,0,1-.169-.663,7.519,7.519,0,0,0,3.155-5.821c.069-1.48-.609-2.414-1.634-3.829a26.946,26.946,0,0,1-2.436-3.881.358.358,0,1,1,.638-.323,26.21,26.21,0,0,0,2.378,3.784c1.074,1.482,1.849,2.552,1.769,4.283a8.153,8.153,0,0,1-3.5,6.4.355.355,0,0,1-.2.051" transform="translate(17124.621 -7908.532)" fill="#3c251d"/>
      <path id="Trazado_156609" data-name="Trazado 156609" d="M523.212,104.726s-10.477-10.948-19.419-7.851-10.362,22.292-.829,26.137,21.111-3.521,21.111-3.521Z" transform="translate(16998.975 -7907.872)" fill="#e48c68"/>
      <path id="Trazado_156610" data-name="Trazado 156610" d="M512.726,120.672a.417.417,0,0,1-.115-.031,8.352,8.352,0,0,1-4.335-9.977c.788-2.919,1.96-4.71,3.689-5.637,2.17-1.161,5.1-.949,10.1.727a.392.392,0,0,1-.249.743c-4.71-1.582-7.544-1.814-9.476-.779-1.527.817-2.576,2.454-3.3,5.151a7.445,7.445,0,0,0,3.9,9.057.391.391,0,0,1-.2.746" transform="translate(16991.967 -7909.765)" fill="#251d1b"/>
      <path id="Trazado_156611" data-name="Trazado 156611" d="M544.846,366.652a.684.684,0,0,1-.086-.006.54.54,0,0,1-.445-.617l6.567-40.862a.537.537,0,0,1,1.061.172L545.377,366.2a.538.538,0,0,1-.531.451" transform="translate(16934.586 -7962.102)" fill="#251d1b"/>
      <path id="Trazado_156612" data-name="Trazado 156612" d="M538.148,342.547a.537.537,0,0,1,0-1.074c1.558,0,4.923-7.757,7.147-14.945a.538.538,0,0,1,1.028.318c-1.141,3.682-5.1,15.7-8.175,15.7" transform="translate(16945.297 -7962.443)" fill="#251d1b"/>
      <path id="Trazado_156613" data-name="Trazado 156613" d="M585,273.73a.535.535,0,0,1-.445-.237c-11.815-17.545-33.482-27.076-33.7-27.171a.537.537,0,1,1,.428-.985c.22.1,22.174,9.754,34.161,27.556a.537.537,0,0,1-.444.837" transform="translate(16896.258 -7943.244)" fill="#251d1b"/>
      <path id="Trazado_156614" data-name="Trazado 156614" d="M338.819,302.793a.537.537,0,0,1-.509-.365,103.467,103.467,0,0,1-4.036-18.262.534.534,0,0,1,.472-.593.525.525,0,0,1,.593.472,102.48,102.48,0,0,0,3.99,18.04.536.536,0,0,1-.509.708" transform="translate(17307.348 -7952.332)" fill="#251d1b"/>
      <path id="Trazado_156615" data-name="Trazado 156615" d="M337.2,233.825a.538.538,0,0,1-.537-.537c0-3,5.647-15.388,5.885-15.911a.537.537,0,0,1,.977.445c-1.61,3.525-5.789,13.169-5.789,15.467a.538.538,0,0,1-.537.537" transform="translate(17301.305 -7936.54)" fill="#251d1b"/>
      <path id="Trazado_156616" data-name="Trazado 156616" d="M467.411,368.026c-13.419,0-21.545-5.539-21.673-5.63a.537.537,0,0,1,.616-.878c.2.143,20.35,13.824,49.777-2.763a.537.537,0,1,1,.528.935c-11.261,6.347-21.206,8.336-29.249,8.336" transform="translate(17064.945 -7970.167)" fill="#251d1b"/>
      <path id="Trazado_156617" data-name="Trazado 156617" d="M434.064,474.2l-1.7-19.629a3.285,3.285,0,0,0-3.554-2.988l-33.26,2.876a3.285,3.285,0,0,0-2.989,3.554l1.7,19.628a3.284,3.284,0,0,0,3.554,2.988l33.26-2.876a3.283,3.283,0,0,0,2.988-3.554m-34.673-13.482,26.716-2.31,1.132,13.086-26.716,2.31Z" transform="translate(17168.182 -7992.221)" fill="#ecb57b"/>
      <rect id="Rectángulo_38465" data-name="Rectángulo 38465" width="2.188" height="12.107" transform="matrix(-0.106, -0.994, 0.994, -0.106, 17585.17, -7525.396)" fill="#ecb57b"/>
      <path id="Trazado_156618" data-name="Trazado 156618" d="M553.709,213.708a1.07,1.07,0,0,1-.766-.321c-10.08-10.24-13.058-23.507-8.168-36.4,4.218-11.119,13.872-19.946,22.457-20.531a108.608,108.608,0,0,1,13.3.111c6.026.313,10.794.562,12.931-1.4a5.079,5.079,0,0,0,1.4-3.762c.294-8.158,2.657-26.034,9.515-35.31,6.485-8.776,16.138-15.892,42.654-8.628a1.074,1.074,0,0,1-.566,2.072c-25.273-6.926-34.331-.327-40.361,7.831-6.071,8.213-8.766,24.9-9.095,34.111a7.1,7.1,0,0,1-2.1,5.269c-2.8,2.566-7.971,2.291-14.492,1.961a105.428,105.428,0,0,0-13.037-.114c-7.8.533-16.658,8.764-20.6,19.149-2.69,7.1-5.271,20.966,7.693,34.134a1.074,1.074,0,0,1-.766,1.826" transform="translate(16840.117 -7909.805)" fill="#493a32"/>
      <path id="Trazado_156644" data-name="Trazado 156644" d="M468.191,455.542c-8.085-5.39-16.171-9.686-26.019-9.37.257-2.5.563-5.1.933-7.814a658.169,658.169,0,0,1,77.338-7.618c-1.884,9.161-3.233,17.175-3.914,23.475,19.917,2.606,58.421,2.166,93.822-1.523l7.812,74.569c-1.262.133-31.312,3.245-63.83,3.536-1.668.014-3.309.021-4.933.021-25.627,0-45.512-1.874-60.914-5.975,5.348-24.371.989-52.272-20.3-69.3" transform="translate(16946.258 -7987.276)" fill="#e48c68"/>
      <path id="Trazado_156645" data-name="Trazado 156645" d="M636.472,460.342c21.285,17.028,25.644,44.93,20.3,69.3-17.627-4.693-29.378-12.3-37.123-23.365-7.761-11.085-12.207-26.056-9.193-55.305,9.848-.316,17.935,3.981,26.019,9.37" transform="translate(16777.977 -7992.077)" fill="#db704a"/>
      <g id="Grupo_159357" data-name="Grupo 159357" transform="translate(34.565)">
        <rect id="Rectángulo_38466" data-name="Rectángulo 38466" width="11.188" height="4.244" transform="translate(17425.869 -7483.344)" fill="#3c251d"/>
        <rect id="Rectángulo_38467" data-name="Rectángulo 38467" width="11.188" height="4.244" transform="translate(17439.951 -7483.344)" fill="#3c251d"/>
        <rect id="Rectángulo_38468" data-name="Rectángulo 38468" width="11.188" height="4.244" transform="translate(17453.938 -7483.344)" fill="#3c251d"/>
        <rect id="Rectángulo_38469" data-name="Rectángulo 38469" width="11.188" height="4.244" transform="translate(17467.439 -7483.344)" fill="#3c251d"/>
        <rect id="Rectángulo_38470" data-name="Rectángulo 38470" width="11.188" height="4.244" transform="translate(17481.811 -7483.344)" fill="#3c251d"/>
        <rect id="Rectángulo_38471" data-name="Rectángulo 38471" width="11.188" height="4.244" transform="translate(17495.314 -7483.344)" fill="#3c251d"/>
        <path id="Trazado_156647" data-name="Trazado 156647" d="M449.491,374.11,286.51,376.282a6.112,6.112,0,0,0-5.935,5.039L260.129,496.065a6.111,6.111,0,0,0,5.991,7.183l161.909.686a6.111,6.111,0,0,0,6.038-5.012l21.517-117.6a6.111,6.111,0,0,0-6.093-7.211" transform="translate(17247.627 -7973.83)" fill="#445a51"/>
        <path id="Trazado_156648" data-name="Trazado 156648" d="M273.888,495.9l20.446-114.745a6.111,6.111,0,0,1,5.935-5.038l162.981-2.172a5.76,5.76,0,0,1,.589.059l-158.554,2.113a6.111,6.111,0,0,0-5.935,5.038L278.9,495.9a6.111,6.111,0,0,0,5.991,7.183l157.133.666a.945.945,0,0,0-.158.02l-161.99-.686a6.111,6.111,0,0,1-5.991-7.183" transform="translate(17228.98 -7973.79)" fill="#739485"/>
        <path id="Trazado_156649" data-name="Trazado 156649" d="M462.431,541.5l128.839-1.717-.148-11.1L462.371,530.4a.428.428,0,0,0-.422.434l.138,10.33a.341.341,0,0,0,.345.336" transform="translate(16958.07 -8010.533)" fill="#445a51"/>
        <rect id="Rectángulo_38472" data-name="Rectángulo 38472" width="13.31" height="3.665" transform="translate(17480.461 -7477.846)" fill="#3c251d"/>
        <rect id="Rectángulo_38473" data-name="Rectángulo 38473" width="13.31" height="1.447" transform="translate(17480.461 -7477.364)" fill="#fff"/>
        <path id="Trazado_156650" data-name="Trazado 156650" d="M615.181,536.779a1.961,1.961,0,1,1,1.961,1.961,1.961,1.961,0,0,1-1.961-1.961" transform="translate(16813.389 -8011.989)" fill="#3c251d"/>
        <path id="Trazado_156651" data-name="Trazado 156651" d="M607,536.779a1.961,1.961,0,1,1,1.961,1.961A1.961,1.961,0,0,1,607,536.779" transform="translate(16827.805 -8011.989)" fill="#3c251d"/>
        <path id="Trazado_156652" data-name="Trazado 156652" d="M381.137,460.923a14.231,14.231,0,0,1-12.339-.114c-5.8-2.732-11.415-9.411-10.42-16.182.964-6.555,7.285-10.857,13.415-12.079a15.825,15.825,0,0,1,12.516,2.606c8.183,6.186,5.743,20.846-2.85,25.6-.106.059-.214.115-.321.171" transform="translate(17239.078 -7987.628)" fill="#fff"/>
      </g>
      <g id="Grupo_159358" data-name="Grupo 159358" transform="translate(10.502)">
        <path id="Trazado_156653" data-name="Trazado 156653" d="M449.85,549.283l7.25-29.069c1.291-5.191-2.621-9.434-8.74-9.493a14.539,14.539,0,0,0-12.334,6.761c-.132-4.146-3.721-7.264-8.953-7.314a14.914,14.914,0,0,0-10.554,4.427c-1.112-3-4.251-5.092-8.509-5.132a14.51,14.51,0,0,0-12.432,6.921c-.968-2.735-3.8-4.645-7.66-4.681-5.484-.053-10.87,3.672-12.032,8.32l-6.5,26.062a6.718,6.718,0,0,0,0,3.4c.8,2.972,3.779,5.07,7.84,5.11a13.318,13.318,0,0,0,9.916-4.474,7.043,7.043,0,0,0,.2,1.487c.9,3.315,4.217,5.655,8.746,5.7a14.914,14.914,0,0,0,10.58-4.453c1.107,3.005,4.221,5.118,8.483,5.159a14.536,14.536,0,0,0,12.329-6.754,7.084,7.084,0,0,0,.212,1.608c.894,3.314,4.216,5.655,8.745,5.7,6.117.059,12.125-4.1,13.421-9.281" transform="translate(17172.471 -8005.968)" fill="#e48c68"/>
        <path id="Trazado_156654" data-name="Trazado 156654" d="M405.165,519.754a.568.568,0,0,1,.473-.25c.236,0,.384.168.334.368l-8.555,33.775a.539.539,0,0,1-.519.358c-.236,0-.384-.167-.334-.368l8.555-33.775a.382.382,0,0,1,.046-.108" transform="translate(17202.953 -8008.353)" fill="#3c251d"/>
        <path id="Trazado_156655" data-name="Trazado 156655" d="M426.467,515.965a.565.565,0,0,1,.454-.249c.239-.006.4.153.357.354L423,536.785a.528.528,0,0,1-.5.37c-.239.005-.4-.153-.358-.354l4.275-20.716a.361.361,0,0,1,.05-.12" transform="translate(17162.141 -8007.454)" fill="#3c251d"/>
        <path id="Trazado_156656" data-name="Trazado 156656" d="M457.233,529.2a.563.563,0,0,1,.451-.249c.237-.008.4.148.36.348L453.5,552.779a.513.513,0,0,1-.5.374c-.237.008-.4-.149-.361-.349l4.539-23.478a.321.321,0,0,1,.05-.125" transform="translate(17108.117 -8010.597)" fill="#3c251d"/>
        <path id="Trazado_156657" data-name="Trazado 156657" d="M450.1,518.311a.562.562,0,0,1,.429-.249c.239-.017.411.13.386.33l-.448,3.29a.519.519,0,0,1-.483.392c-.239.017-.411-.131-.386-.33l.448-3.29a.37.37,0,0,1,.054-.143" transform="translate(17117.568 -8008.01)" fill="#3c251d"/>
        <path id="Trazado_156658" data-name="Trazado 156658" d="M373.933,527.486a.307.307,0,0,1-.007-.106l.775-7.578a.436.436,0,0,1,.2-.306,16.422,16.422,0,0,1,9.75-2.711.314.314,0,0,1,.31.4.564.564,0,0,1-.558.345,15.488,15.488,0,0,0-8.816,2.37l-.738,7.222c4.517,3.065,11.039.641,12.424.069l.756-6.294a.527.527,0,0,1,.493-.409c.249-.022.43.136.406.336l-.785,6.537a.481.481,0,0,1-.291.357c-.084.038-8.345,3.8-13.8-.079a.285.285,0,0,1-.111-.156" transform="translate(17237.264 -8007.7)" fill="#3c251d"/>
        <path id="Trazado_156659" data-name="Trazado 156659" d="M400.462,524.17a.3.3,0,0,1,0-.107l1.471-7.621a.463.463,0,0,1,.223-.3,16.182,16.182,0,0,1,9.827-2.115.309.309,0,0,1,.268.429.572.572,0,0,1-.581.313A15.223,15.223,0,0,0,402.8,516.6l-1.4,7.264c4.148,3.394,10.779,1.36,12.192.87l1.333-6.323a.543.543,0,0,1,.523-.383c.246-.006.41.165.367.366l-1.384,6.566a.5.5,0,0,1-.319.343c-.087.033-8.551,3.306-13.548-.971a.283.283,0,0,1-.095-.165" transform="translate(17190.143 -8007.024)" fill="#3c251d"/>
        <path id="Trazado_156660" data-name="Trazado 156660" d="M427.419,524.782a.3.3,0,0,1,0-.108l1.471-7.621a.463.463,0,0,1,.223-.3,16.183,16.183,0,0,1,9.827-2.115.309.309,0,0,1,.268.429.572.572,0,0,1-.581.313,15.223,15.223,0,0,0-8.878,1.831l-1.4,7.264c4.147,3.393,10.778,1.36,12.191.87l1.333-6.323a.543.543,0,0,1,.523-.383c.247-.006.409.165.367.366l-1.384,6.566a.5.5,0,0,1-.319.342c-.086.033-8.551,3.306-13.548-.97a.284.284,0,0,1-.095-.165" transform="translate(17142.629 -8007.169)" fill="#3c251d"/>
        <path id="Trazado_156661" data-name="Trazado 156661" d="M455.369,527.574a.3.3,0,0,1,0-.1l1.394-7.219a.438.438,0,0,1,.21-.281,15.333,15.333,0,0,1,9.309-2,.292.292,0,0,1,.252.406.541.541,0,0,1-.55.3,14.419,14.419,0,0,0-8.409,1.734l-1.328,6.881c3.928,3.214,10.208,1.288,11.547.824l1.262-5.989a.515.515,0,0,1,.5-.363c.234-.005.388.157.347.347l-1.31,6.22a.479.479,0,0,1-.3.324c-.082.031-8.1,3.131-12.831-.919a.264.264,0,0,1-.09-.157" transform="translate(17094.178 -8007.961)" fill="#3c251d"/>
      </g>
    </g>
    <g id="Grupo_158902" data-name="Grupo 158902" transform="translate(17157.656 -8475.023)">
      <rect id="Rectángulo_35706" data-name="Rectángulo 35706" width="237.865" height="103.098" rx="12" transform="translate(0 0.475)" fill="#1169e3"/>
      <path id="Trazado_157964" data-name="Trazado 157964" d="M44.234,17H41.891V5.625h2.344Zm1.672-4.289a5.094,5.094,0,0,1,.887-3.148,2.877,2.877,0,0,1,2.426-1.172,2.589,2.589,0,0,1,2.039.922V5h2.266V17H51.484l-.109-.9A2.657,2.657,0,0,1,49.2,17.156a2.869,2.869,0,0,1-2.395-1.176A5.258,5.258,0,0,1,45.906,12.711Zm2.258.168a3.337,3.337,0,0,0,.414,1.823,1.349,1.349,0,0,0,1.2.634,1.511,1.511,0,0,0,1.477-.884V11.111a1.489,1.489,0,0,0-1.461-.884Q48.164,10.227,48.164,12.879Zm11,4.277a4.15,4.15,0,0,1-3.027-1.141,4.054,4.054,0,0,1-1.168-3.039v-.219a5.106,5.106,0,0,1,.492-2.277,3.612,3.612,0,0,1,1.395-1.547,3.914,3.914,0,0,1,2.059-.543,3.508,3.508,0,0,1,2.73,1.094,4.444,4.444,0,0,1,1,3.1v.922H57.258a2.1,2.1,0,0,0,.66,1.328,2,2,0,0,0,1.395.5,2.437,2.437,0,0,0,2.039-.945l1.109,1.242a3.389,3.389,0,0,1-1.375,1.121A4.511,4.511,0,0,1,59.164,17.156Zm-.258-6.945a1.411,1.411,0,0,0-1.09.455,2.357,2.357,0,0,0-.535,1.3h3.141v-.181a1.681,1.681,0,0,0-.406-1.165A1.456,1.456,0,0,0,58.906,10.211ZM66,8.547l.07.977A2.951,2.951,0,0,1,68.5,8.391a2.453,2.453,0,0,1,2,.789,3.682,3.682,0,0,1,.672,2.359V17H68.914V11.594a1.465,1.465,0,0,0-.312-1.043,1.4,1.4,0,0,0-1.039-.324,1.553,1.553,0,0,0-1.43.813V17H63.875V8.547Zm9.586-2.078V8.547h1.445V10.2H75.586v4.219a1.007,1.007,0,0,0,.18.672.9.9,0,0,0,.688.2,3.6,3.6,0,0,0,.664-.055v1.711a4.648,4.648,0,0,1-1.367.2,2.156,2.156,0,0,1-2.422-2.4V10.2H72.094V8.547h1.234V6.469ZM80.672,17H78.406V8.547h2.266Zm-2.4-10.641a1.112,1.112,0,0,1,.34-.836,1.465,1.465,0,0,1,1.848,0,1.105,1.105,0,0,1,.344.836,1.108,1.108,0,0,1-.348.844,1.448,1.448,0,0,1-1.836,0A1.108,1.108,0,0,1,78.273,6.359Zm3.906,6.352a5.094,5.094,0,0,1,.887-3.148,2.877,2.877,0,0,1,2.426-1.172,2.589,2.589,0,0,1,2.039.922V5H89.8V17H87.758l-.109-.9a2.657,2.657,0,0,1-2.172,1.055,2.869,2.869,0,0,1-2.395-1.176A5.258,5.258,0,0,1,82.18,12.711Zm2.258.168a3.337,3.337,0,0,0,.414,1.823,1.349,1.349,0,0,0,1.2.634,1.511,1.511,0,0,0,1.477-.884V11.111a1.489,1.489,0,0,0-1.461-.884Q84.438,10.227,84.438,12.879ZM96.445,17a2.507,2.507,0,0,1-.227-.758,2.732,2.732,0,0,1-2.133.914,3,3,0,0,1-2.059-.719,2.312,2.312,0,0,1-.816-1.812,2.389,2.389,0,0,1,1-2.062,4.915,4.915,0,0,1,2.879-.727h1.039v-.484a1.393,1.393,0,0,0-.3-.937,1.183,1.183,0,0,0-.949-.352,1.345,1.345,0,0,0-.895.273.929.929,0,0,0-.324.75H91.4a2.268,2.268,0,0,1,.453-1.359,3,3,0,0,1,1.281-.98,4.669,4.669,0,0,1,1.859-.355,3.689,3.689,0,0,1,2.48.785,2.747,2.747,0,0,1,.918,2.207v3.664a4.041,4.041,0,0,0,.336,1.82V17Zm-1.867-1.57a1.945,1.945,0,0,0,.922-.223,1.462,1.462,0,0,0,.625-.6V13.156h-.844q-1.7,0-1.8,1.172l-.008.133a.9.9,0,0,0,.3.7A1.153,1.153,0,0,0,94.578,15.43Zm5.2-2.719a5.094,5.094,0,0,1,.887-3.148,2.877,2.877,0,0,1,2.426-1.172,2.589,2.589,0,0,1,2.039.922V5h2.266V17h-2.039l-.109-.9a2.657,2.657,0,0,1-2.172,1.055,2.869,2.869,0,0,1-2.395-1.176A5.258,5.258,0,0,1,99.773,12.711Zm2.258.168a3.337,3.337,0,0,0,.414,1.823,1.349,1.349,0,0,0,1.2.634,1.511,1.511,0,0,0,1.477-.884V11.111a1.489,1.489,0,0,0-1.461-.884Q102.031,10.227,102.031,12.879Zm-64.8,24.113V41H34.891V29.625h4.438a5.134,5.134,0,0,1,2.254.469,3.454,3.454,0,0,1,1.5,1.332,3.714,3.714,0,0,1,.523,1.965,3.266,3.266,0,0,1-1.145,2.637,4.767,4.767,0,0,1-3.168.965Zm0-1.9h2.094a2.059,2.059,0,0,0,1.418-.437,1.591,1.591,0,0,0,.488-1.25,1.876,1.876,0,0,0-.492-1.352,1.839,1.839,0,0,0-1.359-.531H37.234Zm11.719,6.063a4.15,4.15,0,0,1-3.027-1.141,4.054,4.054,0,0,1-1.168-3.039v-.219a5.106,5.106,0,0,1,.492-2.277,3.612,3.612,0,0,1,1.395-1.547,3.914,3.914,0,0,1,2.059-.543,3.508,3.508,0,0,1,2.73,1.094,4.444,4.444,0,0,1,1,3.1v.922H47.047a2.1,2.1,0,0,0,.66,1.328,2,2,0,0,0,1.395.5,2.437,2.437,0,0,0,2.039-.945l1.109,1.242a3.389,3.389,0,0,1-1.375,1.121A4.511,4.511,0,0,1,48.953,41.156ZM48.7,34.211a1.411,1.411,0,0,0-1.09.455,2.357,2.357,0,0,0-.535,1.3h3.141v-.181a1.681,1.681,0,0,0-.406-1.165A1.456,1.456,0,0,0,48.7,34.211Zm9.766.453a6.134,6.134,0,0,0-.812-.062,1.654,1.654,0,0,0-1.68.867V41H53.711V32.547h2.133l.063,1.008a2.092,2.092,0,0,1,1.883-1.164,2.366,2.366,0,0,1,.7.1Zm4.453,4.672a1.481,1.481,0,0,0,1.016-.344,1.2,1.2,0,0,0,.406-.914h2.117a2.9,2.9,0,0,1-.469,1.574,3.093,3.093,0,0,1-1.262,1.109,3.949,3.949,0,0,1-1.77.395A3.67,3.67,0,0,1,60.094,40a4.56,4.56,0,0,1-1.047-3.184v-.148a4.508,4.508,0,0,1,1.039-3.117,3.627,3.627,0,0,1,2.852-1.164,3.555,3.555,0,0,1,2.543.9,3.2,3.2,0,0,1,.973,2.4H64.336a1.551,1.551,0,0,0-.406-1.072,1.51,1.51,0,0,0-2.223.163,3.333,3.333,0,0,0-.4,1.866v.235a3.375,3.375,0,0,0,.4,1.878A1.377,1.377,0,0,0,62.914,39.336Zm8.719,1.82a4.15,4.15,0,0,1-3.027-1.141,4.054,4.054,0,0,1-1.168-3.039v-.219a5.106,5.106,0,0,1,.492-2.277,3.612,3.612,0,0,1,1.395-1.547,3.914,3.914,0,0,1,2.059-.543,3.508,3.508,0,0,1,2.73,1.094,4.444,4.444,0,0,1,1,3.1v.922H69.727a2.1,2.1,0,0,0,.66,1.328,2,2,0,0,0,1.395.5,2.437,2.437,0,0,0,2.039-.945l1.109,1.242a3.389,3.389,0,0,1-1.375,1.121A4.511,4.511,0,0,1,71.633,41.156Zm-.258-6.945a1.411,1.411,0,0,0-1.09.455,2.357,2.357,0,0,0-.535,1.3h3.141v-.181a1.681,1.681,0,0,0-.406-1.165A1.456,1.456,0,0,0,71.375,34.211ZM84,36.852a5.07,5.07,0,0,1-.887,3.129,2.843,2.843,0,0,1-2.395,1.176,2.633,2.633,0,0,1-2.07-.891V44.25H76.391v-11.7h2.094l.078.828a2.654,2.654,0,0,1,2.141-.984,2.862,2.862,0,0,1,2.43,1.156A5.207,5.207,0,0,1,84,36.734Zm-2.258-.164a3.327,3.327,0,0,0-.418-1.82,1.361,1.361,0,0,0-1.215-.641,1.478,1.478,0,0,0-1.461.813V38.5a1.5,1.5,0,0,0,1.477.836Q81.742,39.336,81.742,36.688Zm7.172,2.648a1.481,1.481,0,0,0,1.016-.344,1.2,1.2,0,0,0,.406-.914h2.117a2.9,2.9,0,0,1-.469,1.574,3.093,3.093,0,0,1-1.262,1.109,3.949,3.949,0,0,1-1.77.395A3.67,3.67,0,0,1,86.094,40a4.56,4.56,0,0,1-1.047-3.184v-.148a4.508,4.508,0,0,1,1.039-3.117,3.627,3.627,0,0,1,2.852-1.164,3.555,3.555,0,0,1,2.543.9,3.2,3.2,0,0,1,.973,2.4H90.336a1.551,1.551,0,0,0-.406-1.072,1.51,1.51,0,0,0-2.223.163,3.333,3.333,0,0,0-.4,1.866v.235a3.375,3.375,0,0,0,.4,1.878A1.377,1.377,0,0,0,88.914,39.336ZM96.125,41H93.859V32.547h2.266Zm-2.4-10.641a1.112,1.112,0,0,1,.34-.836,1.465,1.465,0,0,1,1.848,0,1.193,1.193,0,0,1,0,1.68,1.448,1.448,0,0,1-1.836,0A1.108,1.108,0,0,1,93.727,30.359ZM97.633,36.7a5.013,5.013,0,0,1,.484-2.242,3.546,3.546,0,0,1,1.395-1.523,4.069,4.069,0,0,1,2.113-.539,3.849,3.849,0,0,1,2.793,1.047,4.2,4.2,0,0,1,1.207,2.844l.016.578a4.418,4.418,0,0,1-1.086,3.121,4.209,4.209,0,0,1-5.832,0,4.5,4.5,0,0,1-1.09-3.187Zm2.258.16a3.16,3.16,0,0,0,.453,1.843,1.628,1.628,0,0,0,2.578.008,3.457,3.457,0,0,0,.461-2.015,3.128,3.128,0,0,0-.461-1.831,1.5,1.5,0,0,0-1.3-.649,1.474,1.474,0,0,0-1.281.646A3.516,3.516,0,0,0,99.891,36.856ZM102.07,29h2.461l-2.164,2.422h-1.836Zm7.039,3.547.07.977a2.951,2.951,0,0,1,2.43-1.133,2.453,2.453,0,0,1,2,.789,3.682,3.682,0,0,1,.672,2.359V41h-2.258V35.594a1.465,1.465,0,0,0-.312-1.043,1.4,1.4,0,0,0-1.039-.324,1.553,1.553,0,0,0-1.43.813V41h-2.258V32.547ZM17.445,60.992V65H15.1V53.625h4.438a5.134,5.134,0,0,1,2.254.469,3.454,3.454,0,0,1,1.5,1.332,3.714,3.714,0,0,1,.523,1.965,3.266,3.266,0,0,1-1.145,2.637,4.767,4.767,0,0,1-3.168.965Zm0-1.9h2.094a2.059,2.059,0,0,0,1.418-.437,1.591,1.591,0,0,0,.488-1.25,1.876,1.876,0,0,0-.492-1.352,1.839,1.839,0,0,0-1.359-.531H17.445Zm7.375,1.6a5.013,5.013,0,0,1,.484-2.242A3.546,3.546,0,0,1,26.7,56.93a4.069,4.069,0,0,1,2.113-.539,3.849,3.849,0,0,1,2.793,1.047,4.2,4.2,0,0,1,1.207,2.844l.016.578a4.418,4.418,0,0,1-1.086,3.121,3.775,3.775,0,0,1-2.914,1.176,3.793,3.793,0,0,1-2.918-1.172A4.5,4.5,0,0,1,24.82,60.8Zm2.258.16a3.16,3.16,0,0,0,.453,1.843,1.628,1.628,0,0,0,2.578.008,3.457,3.457,0,0,0,.461-2.015,3.128,3.128,0,0,0-.461-1.831,1.5,1.5,0,0,0-1.3-.649,1.474,1.474,0,0,0-1.281.646A3.516,3.516,0,0,0,27.078,60.856ZM38.8,62.664a.727.727,0,0,0-.41-.652,4.659,4.659,0,0,0-1.316-.426q-3.016-.633-3.016-2.562a2.323,2.323,0,0,1,.934-1.879,3.766,3.766,0,0,1,2.441-.754A4.053,4.053,0,0,1,40,57.148a2.388,2.388,0,0,1,.965,1.969H38.711a1.092,1.092,0,0,0-.312-.8A1.322,1.322,0,0,0,37.422,58a1.351,1.351,0,0,0-.883.258.814.814,0,0,0-.312.656.7.7,0,0,0,.355.605,3.657,3.657,0,0,0,1.2.4A9.8,9.8,0,0,1,39.2,60.3a2.336,2.336,0,0,1,1.789,2.273A2.205,2.205,0,0,1,40,64.441a4.28,4.28,0,0,1-2.562.715,4.47,4.47,0,0,1-1.887-.379,3.166,3.166,0,0,1-1.293-1.039,2.414,2.414,0,0,1-.469-1.426H35.93a1.179,1.179,0,0,0,.445.922,1.766,1.766,0,0,0,1.109.32,1.635,1.635,0,0,0,.98-.246A.766.766,0,0,0,38.8,62.664ZM44.828,65H42.563V56.547h2.266Zm-2.4-10.641a1.112,1.112,0,0,1,.34-.836,1.465,1.465,0,0,1,1.848,0,1.193,1.193,0,0,1,0,1.68,1.448,1.448,0,0,1-1.836,0A1.108,1.108,0,0,1,42.43,54.359ZM50.2,63.336a1.481,1.481,0,0,0,1.016-.344,1.2,1.2,0,0,0,.406-.914h2.117a2.9,2.9,0,0,1-.469,1.574,3.093,3.093,0,0,1-1.262,1.109,3.949,3.949,0,0,1-1.77.395A3.67,3.67,0,0,1,47.383,64a4.56,4.56,0,0,1-1.047-3.184v-.148a4.508,4.508,0,0,1,1.039-3.117,3.627,3.627,0,0,1,2.852-1.164,3.555,3.555,0,0,1,2.543.9,3.2,3.2,0,0,1,.973,2.4H51.625a1.551,1.551,0,0,0-.406-1.072A1.51,1.51,0,0,0,49,58.786a3.333,3.333,0,0,0-.4,1.866v.235a3.375,3.375,0,0,0,.4,1.878A1.377,1.377,0,0,0,50.2,63.336ZM57.414,65H55.148V56.547h2.266Zm-2.4-10.641a1.112,1.112,0,0,1,.34-.836,1.465,1.465,0,0,1,1.848,0,1.193,1.193,0,0,1,0,1.68,1.448,1.448,0,0,1-1.836,0A1.108,1.108,0,0,1,55.016,54.359ZM58.922,60.7a5.013,5.013,0,0,1,.484-2.242A3.546,3.546,0,0,1,60.8,56.93a4.069,4.069,0,0,1,2.113-.539,3.849,3.849,0,0,1,2.793,1.047,4.2,4.2,0,0,1,1.207,2.844l.016.578a4.418,4.418,0,0,1-1.086,3.121,4.209,4.209,0,0,1-5.832,0,4.5,4.5,0,0,1-1.09-3.187Zm2.258.16a3.16,3.16,0,0,0,.453,1.843,1.628,1.628,0,0,0,2.578.008,3.457,3.457,0,0,0,.461-2.015,3.128,3.128,0,0,0-.461-1.831,1.5,1.5,0,0,0-1.3-.649,1.474,1.474,0,0,0-1.281.646A3.516,3.516,0,0,0,61.18,60.856ZM70.4,56.547l.07.977a2.951,2.951,0,0,1,2.43-1.133,2.453,2.453,0,0,1,2,.789,3.682,3.682,0,0,1,.672,2.359V65H73.313V59.594A1.465,1.465,0,0,0,73,58.551a1.4,1.4,0,0,0-1.039-.324,1.553,1.553,0,0,0-1.43.813V65H68.273V56.547ZM82.18,65a2.507,2.507,0,0,1-.227-.758,2.732,2.732,0,0,1-2.133.914,3,3,0,0,1-2.059-.719,2.312,2.312,0,0,1-.816-1.812,2.389,2.389,0,0,1,1-2.062,4.915,4.915,0,0,1,2.879-.727h1.039v-.484a1.393,1.393,0,0,0-.3-.937,1.183,1.183,0,0,0-.949-.352,1.345,1.345,0,0,0-.895.273.929.929,0,0,0-.324.75H77.133a2.268,2.268,0,0,1,.453-1.359,3,3,0,0,1,1.281-.98,4.669,4.669,0,0,1,1.859-.355,3.689,3.689,0,0,1,2.48.785,2.747,2.747,0,0,1,.918,2.207v3.664a4.041,4.041,0,0,0,.336,1.82V65Zm-1.867-1.57a1.945,1.945,0,0,0,.922-.223,1.462,1.462,0,0,0,.625-.6V61.156h-.844q-1.7,0-1.8,1.172l-.008.133a.9.9,0,0,0,.3.7A1.153,1.153,0,0,0,80.313,63.43Zm7.664-6.883.07.945a2.971,2.971,0,0,1,2.43-1.1,2.255,2.255,0,0,1,2.242,1.289,2.9,2.9,0,0,1,2.539-1.289,2.521,2.521,0,0,1,2.047.8,3.681,3.681,0,0,1,.672,2.41V65H95.711V59.609a1.61,1.61,0,0,0-.281-1.051,1.246,1.246,0,0,0-.992-.332,1.409,1.409,0,0,0-1.406.969l.008,5.8H90.781V59.617a1.59,1.59,0,0,0-.289-1.062,1.259,1.259,0,0,0-.984-.328,1.463,1.463,0,0,0-1.391.8V65H85.859V56.547ZM102.094,65H99.828V56.547h2.266ZM99.7,54.359a1.112,1.112,0,0,1,.34-.836,1.465,1.465,0,0,1,1.848,0,1.193,1.193,0,0,1,0,1.68,1.448,1.448,0,0,1-1.836,0A1.108,1.108,0,0,1,99.7,54.359Zm8.148,10.8a4.15,4.15,0,0,1-3.027-1.141,4.054,4.054,0,0,1-1.168-3.039v-.219a5.106,5.106,0,0,1,.492-2.277,3.612,3.612,0,0,1,1.395-1.547,3.914,3.914,0,0,1,2.059-.543,3.508,3.508,0,0,1,2.73,1.094,4.444,4.444,0,0,1,1,3.1v.922h-5.383a2.1,2.1,0,0,0,.66,1.328,2,2,0,0,0,1.395.5,2.437,2.437,0,0,0,2.039-.945l1.109,1.242a3.389,3.389,0,0,1-1.375,1.121A4.511,4.511,0,0,1,107.844,65.156Zm-.258-6.945a1.411,1.411,0,0,0-1.09.455,2.357,2.357,0,0,0-.535,1.3H109.1v-.181a1.681,1.681,0,0,0-.406-1.165A1.456,1.456,0,0,0,107.586,58.211Zm7.094-1.664.07.977a2.951,2.951,0,0,1,2.43-1.133,2.453,2.453,0,0,1,2,.789,3.682,3.682,0,0,1,.672,2.359V65h-2.258V59.594a1.465,1.465,0,0,0-.312-1.043,1.4,1.4,0,0,0-1.039-.324,1.553,1.553,0,0,0-1.43.813V65h-2.258V56.547Zm9.586-2.078v2.078h1.445V58.2h-1.445v4.219a1.007,1.007,0,0,0,.18.672.9.9,0,0,0,.688.2,3.6,3.6,0,0,0,.664-.055v1.711a4.648,4.648,0,0,1-1.367.2,2.156,2.156,0,0,1-2.422-2.4V58.2h-1.234V56.547h1.234V54.469Zm2.117,6.227a5.013,5.013,0,0,1,.484-2.242,3.546,3.546,0,0,1,1.395-1.523,4.069,4.069,0,0,1,2.113-.539,3.849,3.849,0,0,1,2.793,1.047,4.2,4.2,0,0,1,1.207,2.844l.016.578A4.418,4.418,0,0,1,133.3,63.98a4.209,4.209,0,0,1-5.832,0,4.5,4.5,0,0,1-1.09-3.187Zm2.258.16a3.16,3.16,0,0,0,.453,1.843,1.628,1.628,0,0,0,2.578.008,3.457,3.457,0,0,0,.461-2.015,3.128,3.128,0,0,0-.461-1.831,1.5,1.5,0,0,0-1.3-.649,1.474,1.474,0,0,0-1.281.646A3.516,3.516,0,0,0,128.641,60.856Z" transform="translate(45 18.466)" fill="#fff"/>
    </g>
    <g id="Grupo_159370" data-name="Grupo 159370">
      <g id="Grupo_159361" data-name="Grupo 159361" transform="translate(17427 -8423)">
        <g id="Grupo_159360" data-name="Grupo 159360" clip-path="url(#clip-path-2)">
          <path id="Trazado_157801" data-name="Trazado 157801" d="M372.422,222.453H0V11.6A11.594,11.594,0,0,1,11.594,0H360.828A11.594,11.594,0,0,1,372.422,11.6Z" fill="#47484c"/>
          <rect id="Rectángulo_38675" data-name="Rectángulo 38675" width="341.178" height="192.46" transform="translate(15.83 16.246)" fill="#fff"/>
          <path id="Trazado_157802" data-name="Trazado 157802" d="M372.422,222.453H0v23.465A10.278,10.278,0,0,0,10.278,256.2H362.144a10.278,10.278,0,0,0,10.278-10.278Z" fill="#f6f6f6"/>
          <path id="Trazado_157803" data-name="Trazado 157803" d="M242.147,294.849H131l5.481-1.517a14.325,14.325,0,0,0,10.447-12.506l2.246-24.63h72l4.679,25.708a14.328,14.328,0,0,0,10.194,11.219Z" fill="#afafaf"/>
          <rect id="Rectángulo_38676" data-name="Rectángulo 38676" width="76.175" height="10.554" transform="translate(146.923 256.197)" fill="#a3a3a3"/>
          <rect id="Rectángulo_38677" data-name="Rectángulo 38677" width="110.563" height="3.347" transform="translate(131.002 294.849)" fill="#f6f7f9"/>
          <rect id="Rectángulo_38678" data-name="Rectángulo 38678" width="110.563" height="0.798" transform="translate(131.002 297.797)" fill="#bbbdbc"/>
          <path id="Trazado_157804" data-name="Trazado 157804" d="M200.38,236.51a6.9,6.9,0,1,1-6.9-6.9,6.9,6.9,0,0,1,6.9,6.9" fill="#bbbdbc"/>
        </g>
      </g>
      <g id="Grupo_159369" data-name="Grupo 159369" transform="translate(17551 -8388.41)">
        <g id="Grupo_159365" data-name="Grupo 159365" clip-path="url(#clip-path-3)">
          <path id="Trazado_157869" data-name="Trazado 157869" d="M41.2,238.743H37.628c-.556-.17-1.108-.354-1.669-.506-5.284-1.437-9.088-4.991-12.491-8.983C10.124,213.6,2.188,195.591.308,175.038c-.827-9.045-.061-17.927,3.272-26.481,3.824-9.81,10.291-17.234,19.881-21.706,6.833-3.186,14.013-4.473,21.42-2.406a112.1,112.1,0,0,1,11.9,4.2,15.28,15.28,0,0,0,12.258.033c3.146-1.328,6.361-2.514,9.6-3.583,12-3.955,23.187-2.089,33.547,4.968a28.566,28.566,0,0,1,7.842,8.157c-24.478,16.011-20.18,49.68,3.964,60a3.188,3.188,0,0,1-.087.566,89.468,89.468,0,0,1-20.232,33.46c-5.159,5.4-11.57,7.589-18.979,5.6a73.577,73.577,0,0,1-8.361-3.047,29.2,29.2,0,0,0-20.363-.865c-4.937,1.57-9.52,4.225-14.777,4.813" transform="translate(0 -86.333)" fill="#e8e8e8"/>
          <path id="Trazado_157870" data-name="Trazado 157870" d="M207.2,34.976C205.176,20.01,218.485,1.48,237.411,0c2.518,15.145-11.692,35.978-30.212,34.975" transform="translate(-145.226 -0.001)" fill="#e8e8e8"/>
        </g>
      </g>
    </g>
  </g>
</svg>
