<svg xmlns="http://www.w3.org/2000/svg" xmlns:xlink="http://www.w3.org/1999/xlink" width="1240" height="479.642" viewBox="0 0 1240 479.642">
  <defs>
    <clipPath id="clip-path">
      <rect id="Rectángulo_35731" data-name="Rectángulo 35731" width="1240" height="479.642" rx="10" fill="none"/>
    </clipPath>
    <clipPath id="clip-path-2">
      <rect id="Rectángulo_38720" data-name="Rectángulo 38720" width="51.101" height="47.988" fill="#29c4bb"/>
    </clipPath>
    <clipPath id="clip-path-3">
      <rect id="Rectángulo_38679" data-name="Rectángulo 38679" width="372.422" height="298.595" fill="none"/>
    </clipPath>
    <clipPath id="clip-path-4">
      <rect id="Rectángulo_38680" data-name="Rectángulo 38680" width="399.066" height="240.463" fill="none"/>
    </clipPath>
    <clipPath id="clip-path-5">
      <rect id="Rectángulo_38688" data-name="Rectángulo 38688" width="43.322" height="53.248" fill="#afc5e4"/>
    </clipPath>
    <clipPath id="clip-path-6">
      <rect id="Rectángulo_38688-2" data-name="Rectángulo 38688" width="23.684" height="29.111" fill="#fff"/>
    </clipPath>
    <clipPath id="clip-path-7">
      <rect id="Rectángulo_38719" data-name="Rectángulo 38719" width="57.613" height="54.952" transform="translate(0 0)" fill="none"/>
    </clipPath>
  </defs>
  <g id="Grupo_159416" data-name="Grupo 159416" transform="translate(-18016 8530)">
    <g id="Grupo_158924" data-name="Grupo 158924" transform="translate(18016 -8530)">
      <g id="Grupo_131449" data-name="Grupo 131449">
        <g id="Grupo_131448" data-name="Grupo 131448" clip-path="url(#clip-path)">
          <g id="Enmascarar_grupo_70" data-name="Enmascarar grupo 70">
            <g id="Grupo_131152" data-name="Grupo 131152">
              <path id="Rectángulo_35714" data-name="Rectángulo 35714" d="M1240,0H0V479.642H1240Z" fill="#b0c8cb"/>
              <path id="Trazado_123569" data-name="Trazado 123569" d="M0,203.669s55.82,11.822,138.323-52.258c42.116-35.516,86.557-70.785,138.488-90.206,61.734-23.094,128.733-20.625,192.006-5.363,58.736,14.168,115.215,38.264,171.127,60.679,106.871,42.845,213.941,90.654,326.8,115.131,81.638,17.7,184.7,24.881,242.094-49.365,14.192-18.36,24.177-39.737,31.164-61.861V478.855H.035C.035,390.96,0,203.669,0,203.669Z" transform="translate(0 0.431)" fill="#fff" opacity="0.36" style="isolation: isolate"/>
              <path id="Trazado_123570" data-name="Trazado 123570" d="M1239.979,418.442c-210.437,99.168-511.1-52.759-716.952-61.854S237.173,457.565,0,382.6v93.2H1239.979Z" transform="translate(0.021 3.479)" fill="#fff" opacity="0.39" style="isolation: isolate"/>
            </g>
          </g>
        </g>
      </g>
    </g>
    <g id="Grupo_159381" data-name="Grupo 159381" transform="translate(18716.07 -8384.994)">
      <g id="Grupo_159380" data-name="Grupo 159380" transform="translate(0 0)" clip-path="url(#clip-path-2)">
        <path id="Trazado_157895" data-name="Trazado 157895" d="M21.493,44.044c-1.13-.559-2.154-1.433-3.563-1.152-.54.11-.466-.354-.5-.651Q16.6,34.214,15.779,26.2c-.04-.39-.049-.712.354-.969,3.874-2.478,5.232-6.712,7.381-10.432A16.076,16.076,0,0,0,25.237,2.352C24.944,1.167,25.45.569,26.51.212a2.7,2.7,0,0,1,3.15.649,21.689,21.689,0,0,1,3.05,6.772c.443,2-.083,4.055-.131,6.088-.037,1.487-.23,2.974-.357,4.491.384.224.788.046,1.173.011q6.78-.682,13.558-1.38c1.905-.2,2.893.256,3.287,1.494a3.641,3.641,0,0,1-1.568,4.119c-.321.2-.946.114-.935.647s.638.424.973.61c1.751.955,1.684,3.3-.072,4.831-.423.367-1.321.309-1.274.979.044.534.869.444,1.282.78,1.453,1.17,1.047,3.674-.826,4.859a6.064,6.064,0,0,0-.763.388c-.209.174-.412.365.054.629,2.1,1.2,2.257,3.149.432,4.77-.18.16-.362.323-.546.484a3.836,3.836,0,0,1-2.326.764Q34.043,43.3,23.412,44.372a2.533,2.533,0,0,1-1.919-.328" transform="translate(0.703 0)" fill="#29c4bb" fill-rule="evenodd"/>
        <path id="Trazado_157896" data-name="Trazado 157896" d="M1.08,35.641C.733,32.243.4,28.84.026,25.447c-.075-.693-.04-1.038.809-1.116q6.23-.559,12.435-1.267c.813-.091.967.175,1.036.9q1.015,10.263,2.1,20.519c.094.869-.117,1.141-.992,1.215-4.026.366-8.049.767-12.06,1.241-1,.118-1.173-.218-1.252-1.1-.3-3.4-.675-6.8-1.023-10.2" transform="translate(0 1.028)" fill="#29c4bb" fill-rule="evenodd"/>
      </g>
    </g>
    <g id="Grupo_159382" data-name="Grupo 159382" transform="translate(-50.999 10)">
      <g id="Grupo_159372" data-name="Grupo 159372" transform="translate(-127)">
        <g id="Grupo_159371" data-name="Grupo 159371" transform="translate(0 21)">
          <g id="Grupo_159362" data-name="Grupo 159362" transform="translate(18496 -8409.769)">
            <g id="Grupo_159360" data-name="Grupo 159360" clip-path="url(#clip-path-3)">
              <path id="Trazado_157801" data-name="Trazado 157801" d="M372.422,222.453H0V11.6A11.594,11.594,0,0,1,11.594,0H360.828A11.594,11.594,0,0,1,372.422,11.6Z" fill="#47484c"/>
              <rect id="Rectángulo_38675" data-name="Rectángulo 38675" width="341.178" height="192.46" transform="translate(15.83 16.246)" fill="#fff"/>
              <path id="Trazado_157802" data-name="Trazado 157802" d="M372.422,222.453H0v23.465A10.278,10.278,0,0,0,10.278,256.2H362.144a10.278,10.278,0,0,0,10.278-10.278Z" fill="#f6f6f6"/>
              <path id="Trazado_157803" data-name="Trazado 157803" d="M242.147,294.849H131l5.481-1.517a14.325,14.325,0,0,0,10.447-12.506l2.246-24.63h72l4.679,25.708a14.328,14.328,0,0,0,10.194,11.219Z" fill="#afafaf"/>
              <rect id="Rectángulo_38676" data-name="Rectángulo 38676" width="76.175" height="10.554" transform="translate(146.923 256.197)" fill="#a0a0a0"/>
              <rect id="Rectángulo_38677" data-name="Rectángulo 38677" width="110.563" height="3.347" transform="translate(131.002 294.849)" fill="#f6f7f9"/>
              <rect id="Rectángulo_38678" data-name="Rectángulo 38678" width="110.563" height="0.798" transform="translate(131.002 297.797)" fill="#bbbdbc"/>
              <path id="Trazado_157804" data-name="Trazado 157804" d="M200.38,236.51a6.9,6.9,0,1,1-6.9-6.9,6.9,6.9,0,0,1,6.9,6.9" fill="#bbbdbc"/>
            </g>
          </g>
          <g id="Grupo_159364" data-name="Grupo 159364" transform="translate(18629.5 -8532)">
            <g id="Grupo_159363" data-name="Grupo 159363" clip-path="url(#clip-path-4)">
              <path id="Trazado_157805" data-name="Trazado 157805" d="M329.093,56.511H132.621L126.9,104.929,118.9,180.4a3.045,3.045,0,0,0,3.023,3.4h5.225s-1.7,24.856.561,24.856c3.046,0,14.461-24.856,14.461-24.856H314.9a3.044,3.044,0,0,0,3.023-2.69L332.116,59.909a3.043,3.043,0,0,0-3.023-3.4" transform="translate(66.928 31.814)" fill="#29c4bb"/>
              <path id="Trazado_157806" data-name="Trazado 157806" d="M196.014,138.13H3.045a3.044,3.044,0,0,1-3.024-3.4l14.2-121.194a3.044,3.044,0,0,1,3.023-2.69H210.209a3.043,3.043,0,0,1,3.023,3.4L199.037,135.44a3.044,3.044,0,0,1-3.023,2.69" transform="translate(0 6.107)" fill="#1169e3"/>
              <path id="Trazado_157807" data-name="Trazado 157807" d="M133.9,19.607a4.689,4.689,0,1,1-4.689-4.689,4.689,4.689,0,0,1,4.689,4.689" transform="translate(70.102 8.398)" fill="#fff"/>
              <path id="Trazado_157808" data-name="Trazado 157808" d="M123.9,19.607a4.689,4.689,0,1,1-4.689-4.689,4.689,4.689,0,0,1,4.689,4.689" transform="translate(64.473 8.398)" fill="#fff"/>
              <path id="Trazado_157809" data-name="Trazado 157809" d="M91.293,42.787c5.15-2.9,8.729-9.211,8.729-16.55,0-10.083-8.21-18.341-19.564-22.419C72.638,1.008,69.931,16.154,69.931,26.236a20.88,20.88,0,0,0,2.82,10.613,16.785,16.785,0,0,0-9.367,5.169c-7.965,9.253-6.983,33.7,12.358,35.941,5.352.62,10.866-1.477,15.287-4.554s7.605-8.281,7.235-13.656c-.284-4.125-2.523-7.812-4.417-11.488q-1.383-2.684-2.554-5.474" transform="translate(33.043 1.957)" fill="#2b244a"/>
              <path id="Trazado_157810" data-name="Trazado 157810" d="M77.83,49.723A8.925,8.925,0,1,1,86.756,40.8a8.935,8.935,0,0,1-8.926,8.925m0-16.288A7.362,7.362,0,1,0,85.193,40.8a7.37,7.37,0,0,0-7.363-7.363" transform="translate(38.792 17.943)" fill="#ffc37a"/>
              <path id="Trazado_157811" data-name="Trazado 157811" d="M60.8,19.074c.384,4.855-.173,11.614-9.9,17.519S34.813,43.882,28.239,53.031c-6.471,9-7.227,20.426-4.622,33.968,2.512,13.054,27.447,12.465,47.538,5.827S83.2,74.8,83.2,62.295s4.9-23.09-1.2-34.989-21.2-8.232-21.2-8.232" transform="translate(12.508 10.438)" fill="#2b244a"/>
              <path id="Trazado_157812" data-name="Trazado 157812" d="M152.322,118.146H2.666c2.39-11.441,4.8-22.3,6-26.336a101.378,101.378,0,0,1,5.9-16.161A49.951,49.951,0,0,1,22.4,63.895c10.861-12,24.614-15.8,37.977-17.005,11.186-1,21.947-.469,32.3.328,10.991.86,21.574,2.626,30.759,6.346,9.186,3.767,16.614,9.644,21.216,17.974,4.762,8.69,8.076,40.476,7.665,46.608" transform="translate(1.501 26.09)" fill="#ffc37a"/>
              <path id="Trazado_157813" data-name="Trazado 157813" d="M41.6,45.152q-.354,4.764-.324,9.545a65.006,65.006,0,0,0,.488,9.029,10.817,10.817,0,0,0,3.95,6.869A83.537,83.537,0,0,0,52.7,75.88a99.614,99.614,0,0,0,8.789,5.384c.883.481,1.672-.867.788-1.35a99.547,99.547,0,0,1-9.234-5.692q-2.293-1.6-4.492-3.323a18.391,18.391,0,0,1-3.861-3.621,9.972,9.972,0,0,1-1.53-4.923c-.17-1.844-.241-3.7-.289-5.555a115.825,115.825,0,0,1,.288-11.647c.075-1-1.488-1-1.563,0" transform="translate(23.234 24.997)" fill="#2b244a"/>
              <path id="Trazado_157814" data-name="Trazado 157814" d="M70.945,47.015q2.661,4.5,4.977,9.186c.763,1.55,1.518,3.112,2.2,4.7a8.275,8.275,0,0,1,.863,5.163,8.921,8.921,0,0,1-2.438,3.768c-1.133,1.193-2.312,2.346-3.49,3.492q-3.744,3.634-7.662,7.083c-.756.669.353,1.771,1.105,1.105,2.881-2.548,5.71-5.159,8.453-7.857,2.129-2.093,4.981-4.392,5.608-7.476.688-3.385-1.382-6.827-2.793-9.762Q75.249,51.2,72.294,46.226a.782.782,0,0,0-1.349.789" transform="translate(36.67 25.813)" fill="#2b244a"/>
              <path id="Trazado_157815" data-name="Trazado 157815" d="M70.756,118.771H68.865C65.786,106.455,53.751,59.315,47.2,46.984a16.869,16.869,0,0,0-1.078-1.751L74.4,48.484a.121.121,0,0,0,.016.047c.391,1.422,9.456,35.448-3.657,70.24" transform="translate(25.966 25.465)" fill="#e0785e"/>
              <path id="Trazado_157816" data-name="Trazado 157816" d="M54.672,25.555,45.744,58.481s13.468,9.751,28.871,1.083l2.244-14.69Z" transform="translate(25.753 14.387)" fill="#e0785e"/>
              <path id="Trazado_157817" data-name="Trazado 157817" d="M49.015,14.785C53.533-.981,66.351-2.653,80.479,3.428s16.771,13,16.678,26.164a275.631,275.631,0,0,1-2.351,32.622c-.681,4.133-7.007,11.975-17.658,6.539A57.478,57.478,0,0,1,55.178,49.48C52.034,44.788,44.5,30.55,49.015,14.785" transform="translate(26.802 0.092)" fill="#e0785e"/>
              <path id="Trazado_157818" data-name="Trazado 157818" d="M75.878,23.492c-.914,2.409-3.054.472-5.992,1.077-2.7.556-4.506.2-4.473-1.216.039-1.718,2.671-3.585,6.507-3.37,3.592.2,4.626,1.752,3.959,3.509" transform="translate(36.825 11.24)" fill="#2b244a"/>
              <path id="Trazado_157819" data-name="Trazado 157819" d="M81.092,25.8c-2.613-.988-4.947.255-5.313-2.205-.272-1.852,1.061-3.156,4.617-2.585.277.045.553.106.814.166,1.3.9,1.171,3.811-.119,4.625" transform="translate(42.642 11.75)" fill="#2b244a"/>
              <path id="Trazado_157820" data-name="Trazado 157820" d="M72.037,25.02A1.879,1.879,0,0,0,70.629,23.9a1.778,1.778,0,0,0-1.685,1.041,6.185,6.185,0,0,0-.581,2.115,3.918,3.918,0,0,0,.372,2.513c.788,1.208,2.2.817,2.865-.222a5.435,5.435,0,0,0,.438-4.331" transform="translate(38.458 13.451)" fill="#2b244a"/>
              <path id="Trazado_157821" data-name="Trazado 157821" d="M80.277,25.9a1.879,1.879,0,0,0-1.408-1.116,1.778,1.778,0,0,0-1.685,1.041,6.176,6.176,0,0,0-.581,2.115,3.911,3.911,0,0,0,.372,2.512c.788,1.208,2.2.819,2.863-.22a5.43,5.43,0,0,0,.439-4.331" transform="translate(43.097 13.949)" fill="#2b244a"/>
              <path id="Trazado_157822" data-name="Trazado 157822" d="M73.313,36.934a6.143,6.143,0,0,0,3.1-.6,3.106,3.106,0,0,0,1.433-3.054,39.3,39.3,0,0,0-.727-4.137l-.835-4.411c-.186-.986-1.693-.569-1.507.416q.682,3.6,1.361,7.208c.156.828.413,1.972-.392,2.552a4.218,4.218,0,0,1-2.435.461.782.782,0,0,0,0,1.563" transform="translate(40.848 13.607)" fill="#2b244a"/>
              <path id="Trazado_157823" data-name="Trazado 157823" d="M96.778,7.61A37.515,37.515,0,0,0,78.463.228c-5.888-.563-11.619-.4-17.871,4.29-4.65,3.489-10.028,14.076-6.643,24.993.985,3.174,1.1,18.093,1.1,18.093L34.383,74.274c37.413,11.94,33.605-9.792,37.2-27.826,2.709-13.6,12.024-11.61,17.894-16.919,6.61-5.977,6.088-16.266,6.088-16.266l8.043,5.7c-.575-4.112-1.957-7.565-6.829-11.349" transform="translate(19.357 0)" fill="#2b244a"/>
              <path id="Trazado_157824" data-name="Trazado 157824" d="M72.344,28.11a8.89,8.89,0,1,1-11-6.091,8.891,8.891,0,0,1,11,6.091" transform="translate(30.911 12.2)" fill="#e0785e"/>
              <path id="Trazado_157825" data-name="Trazado 157825" d="M57.676,48.453A8.925,8.925,0,1,1,66.6,39.528a8.935,8.935,0,0,1-8.925,8.925m0-16.288a7.362,7.362,0,1,0,7.362,7.363,7.371,7.371,0,0,0-7.362-7.363" transform="translate(27.445 17.228)" fill="#ffc37a"/>
              <path id="Trazado_157826" data-name="Trazado 157826" d="M60.764,40.738a24.66,24.66,0,0,0,2.521,2.745c.947.872,1.972,1.657,2.995,2.44a.786.786,0,0,0,1.069-.281.8.8,0,0,0-.281-1.069c-.891-.683-1.865-1.443-2.732-2.246a24.544,24.544,0,0,1-2.466-2.693.786.786,0,0,0-1.105,0,.8.8,0,0,0,0,1.105" transform="translate(34.084 22.184)" fill="#2b244a"/>
              <path id="Trazado_157827" data-name="Trazado 157827" d="M60.139,32.318a3.946,3.946,0,0,1,.588-5.938,4.169,4.169,0,0,1,2.471-.7.782.782,0,0,0,0-1.563A5.508,5.508,0,0,0,57.638,30.9a5.461,5.461,0,0,0,1.394,2.527c.7.73,1.8-.377,1.107-1.105" transform="translate(32.37 13.577)" fill="#2b244a"/>
              <path id="Trazado_157828" data-name="Trazado 157828" d="M74.213,38.2c-1.722-.1-3.4-1.6-4.426-3.217a.687.687,0,0,1,.686-1.061,66.56,66.56,0,0,0,7.568.806.68.68,0,0,1,.566,1.025A4.813,4.813,0,0,1,74.213,38.2" transform="translate(39.223 19.093)" fill="#fff"/>
              <path id="Trazado_157829" data-name="Trazado 157829" d="M32.073,82.775c-.75,5.025-1.421,10.064-1.912,15.122-.1,1,1.468.994,1.563,0,.478-4.919,1.127-9.819,1.855-14.706.147-.985-1.358-1.408-1.507-.416" transform="translate(16.978 46.281)" fill="#2b244a"/>
              <path id="Trazado_157830" data-name="Trazado 157830" d="M79.613,84.718q-.588,5.878-1.175,11.755c-.1,1,1.465.994,1.563,0q.588-5.878,1.175-11.755c.1-1-1.465-.992-1.563,0" transform="translate(44.156 47.273)" fill="#2b244a"/>
              <path id="Trazado_157831" data-name="Trazado 157831" d="M252.784,65.27a4.689,4.689,0,1,1-4.689-4.689,4.689,4.689,0,0,1,4.689,4.689" transform="translate(137.031 34.105)" fill="#fff"/>
              <path id="Trazado_157832" data-name="Trazado 157832" d="M242.784,65.27a4.689,4.689,0,1,1-4.689-4.689,4.689,4.689,0,0,1,4.689,4.689" transform="translate(131.401 34.105)" fill="#fff"/>
              <path id="Trazado_157833" data-name="Trazado 157833" d="M304.17,136.34,300.5,167.693a3.011,3.011,0,0,1-2.829,2.673H149.827c.328-1.782,2.469-24.648,3.157-26.555,4.548-12.8,3.72-26.32,9.565-35.511,5.642-8.815,9.268-11.41,19.475-15.755,10.1-4.3,22.554-7.143,34.26-8.987,11.035-1.735,22.46-3.22,34.213-3.22,14.02,0,28.227,2.61,38.605,13.739a39.407,39.407,0,0,1,7.205,11.144,82.9,82.9,0,0,1,4.736,15.77c.344,1.547,1.7,7.956,3.126,15.348" transform="translate(84.348 45.229)" fill="#ffeae0"/>
              <path id="Trazado_157834" data-name="Trazado 157834" d="M206.019,63.912l4.972,27.105s-8.635,14.919-25.723,4.251l-3.554-16.525Z" transform="translate(102.299 35.981)" fill="#ffa58f"/>
              <path id="Trazado_157835" data-name="Trazado 157835" d="M185.624,57.684a8.672,8.672,0,1,1-8.673-8.673,8.673,8.673,0,0,1,8.673,8.673" transform="translate(94.737 27.592)" fill="#2b244a"/>
              <path id="Trazado_157836" data-name="Trazado 157836" d="M216.532,57.81c-2.588-14.878-14.159-17.666-27.69-13.487S172.214,54.575,171,66.638a253.744,253.744,0,0,0-1.053,30.1c.219,3.85,5.239,11.652,15.525,7.723a52.949,52.949,0,0,0,22.007-15.487c3.339-3.989,11.636-16.28,9.05-31.158" transform="translate(95.622 23.961)" fill="#ffa58f"/>
              <path id="Trazado_157837" data-name="Trazado 157837" d="M183.657,84.381a25.7,25.7,0,0,0,9.014-7.881.788.788,0,0,0-.281-1.069.8.8,0,0,0-1.069.28,24,24,0,0,1-8.453,7.319c-.892.466-.1,1.816.789,1.35" transform="translate(102.729 42.406)" fill="#2b244a"/>
              <path id="Trazado_157838" data-name="Trazado 157838" d="M193.734,77.828l-.08-.044a3.671,3.671,0,0,0-1.682-.322c-2.554,0-4.725,1.205-7.094,1.943a7.435,7.435,0,0,1-2.541.483c-.975-.048-1.421-.758-1.9-1.538-1.111-1.824-3.582-2.459-5.061-.591a12.546,12.546,0,0,1-.781,1.068c-.872.892-1.905-.044-2.791-.431-.53-.231-1.976-.878-2.046.175-.37,5.533,4.186,9.479,9.25,9.615a21.116,21.116,0,0,0,8.762-2.3c2.13-1.016,4.728-2.4,6.146-4.376.8-1.113,1.182-2.909-.183-3.684" transform="translate(95.558 43.142)" fill="#2b244a"/>
              <path id="Trazado_157839" data-name="Trazado 157839" d="M176.852,59.45c-.849,2.216-2.806.431-5.511.992-.2.044-.389.072-.577.1-1.11-.561-1.06-3.417.475-4.231a8.754,8.754,0,0,1,1.972-.1c3.295.188,4.259,1.613,3.64,3.238" transform="translate(95.705 31.637)" fill="#2b244a"/>
              <path id="Trazado_157840" data-name="Trazado 157840" d="M177.32,59.445c.841,2.218,2.81.435,5.516.991,2.487.513,4.148.189,4.118-1.119-.036-1.582-2.46-3.3-5.991-3.1-3.306.186-4.259,1.613-3.643,3.231" transform="translate(99.727 31.638)" fill="#2b244a"/>
              <path id="Trazado_157841" data-name="Trazado 157841" d="M182.066,61.61a1.725,1.725,0,0,0-1.372-.924,1.632,1.632,0,0,0-1.472,1.075,5.641,5.641,0,0,0-.383,1.982,3.6,3.6,0,0,0,.517,2.279,1.515,1.515,0,0,0,2.615-.4,5,5,0,0,0,.1-4.007" transform="translate(100.677 34.164)" fill="#2b244a"/>
              <path id="Trazado_157842" data-name="Trazado 157842" d="M174.062,61.61a1.725,1.725,0,0,0-1.372-.924,1.632,1.632,0,0,0-1.472,1.075,5.641,5.641,0,0,0-.383,1.982,3.6,3.6,0,0,0,.517,2.279,1.515,1.515,0,0,0,2.615-.4,5,5,0,0,0,.1-4.007" transform="translate(96.171 34.164)" fill="#2b244a"/>
              <path id="Trazado_157843" data-name="Trazado 157843" d="M214.622,80.114c1.455-2.512,5.594-10.628,6.138-13.479s-.013-6.082-2.135-8.059a9.567,9.567,0,0,1-1.418-1.369c-1.246-1.772-.066-4.208-.306-6.358a5.86,5.86,0,0,0-4.437-4.709,8.237,8.237,0,0,0-3.5-.1,20.278,20.278,0,0,0-9.823-6.125,7.258,7.258,0,0,0-3.723-.194,3.242,3.242,0,0,0-2.459,2.56,31.606,31.606,0,0,0-16.446,1.937,14.434,14.434,0,0,0-4.665,3.107,10.338,10.338,0,0,0-1.383,1.771c-1.394,2.269-1.826,5.361-.386,7.688a8.615,8.615,0,0,0,6.7,3.818c2.285.208,8.648-.939,16.264-4.542,2.931-.866,4.806,2.416,5.089,5.011.375,3.382-.992,6.649-1.05,10.016-.042,2.721.835,5.6,3.642,6.549a6.332,6.332,0,0,0,3.309.158c.245,3.44,1.238,6.807,4.419,8.678a17.051,17.051,0,0,0,6.636,2.151l-1.26-6.866c.272-.6.792-1.646.792-1.646" transform="translate(95.247 22.27)" fill="#2b244a"/>
              <path id="Trazado_157844" data-name="Trazado 157844" d="M199.58,65.878a7.263,7.263,0,1,1-8.382-5.936,7.262,7.262,0,0,1,8.382,5.936" transform="translate(104.238 33.686)" fill="#ffa58f"/>
              <path id="Trazado_157845" data-name="Trazado 157845" d="M172.672,73.061a.7.7,0,0,1,.578-1.047,67.809,67.809,0,0,0,7.724-.822.7.7,0,0,1,.7,1.083c-1.052,1.649-2.759,3.178-4.517,3.282a4.913,4.913,0,0,1-4.486-2.5" transform="translate(97.152 40.073)" fill="#2b244a"/>
              <path id="Trazado_157846" data-name="Trazado 157846" d="M175.1,63.012q-.64,1.845-1.282,3.692a18.974,18.974,0,0,0-1.152,3.664,2.491,2.491,0,0,0,1.36,2.723,5.29,5.29,0,0,0,1.655.277l1.982.152c1,.077,1-1.486,0-1.563q-.811-.063-1.622-.123a5.875,5.875,0,0,1-1.3-.142c-.864-.274-.491-1.441-.286-2.051.7-2.077,1.438-4.142,2.155-6.211.331-.952-1.178-1.361-1.507-.416" transform="translate(97.192 35.172)" fill="#2b244a"/>
              <path id="Trazado_157847" data-name="Trazado 157847" d="M189.689,63.074a2.943,2.943,0,0,1,3.06,1.1,3.815,3.815,0,0,1,.264,3.812.8.8,0,0,0,.28,1.069.788.788,0,0,0,1.069-.28,5.412,5.412,0,0,0-.314-5.459,4.511,4.511,0,0,0-4.775-1.746.782.782,0,0,0,.416,1.507" transform="translate(106.246 34.574)" fill="#2b244a"/>
              <path id="Trazado_157848" data-name="Trazado 157848" d="M177.045,90.271c5.264,4.723,12.835,6.932,19.8,7.122a30.167,30.167,0,0,0,19.2-6.549,49.1,49.1,0,0,0,8.476-9.139c.61-.8-.747-1.58-1.349-.788A50.962,50.962,0,0,1,216,88.858a28.965,28.965,0,0,1-7.909,4.8,26.906,26.906,0,0,1-9.823,2.174,33.53,33.53,0,0,1-10.483-1.525,25.66,25.66,0,0,1-9.639-5.145c-.747-.671-1.855.431-1.105,1.105" transform="translate(99.531 45.368)" fill="#2b244a"/>
              <path id="Trazado_157849" data-name="Trazado 157849" d="M159.984,121.033s-4.759-12.848-10.752-25.566c-5.511-11.7-14-31.264-19.21-28.713-1.749.857-3.034,3.2-1.763,6.861,2.115,6.091,5.7,17.888,5.7,17.888S124,88.22,123.984,98.7c0,0-6.636-.447-4.767,9.326.006.034.017.064.023.1.683,3.957,3.159,9.442,4.964,13.074,1.125,2.263,8.646,17.841,8.646,17.841Z" transform="translate(66.929 37.453)" fill="#ffa58f"/>
              <path id="Trazado_157850" data-name="Trazado 157850" d="M156.2,101.4l5.744,14.487-31.967,18.179-4.378-12.23Z" transform="translate(70.71 57.085)" fill="#ffeae0"/>
              <path id="Trazado_157851" data-name="Trazado 157851" d="M141.8,85.891a52.143,52.143,0,0,0-7.777.356c-1.249.152-2.5.334-3.731.583a5.24,5.24,0,0,0-2.538,1.1c-1.49,1.357-.872,3.362.447,4.562,1.632,1.483,3.934,2.162,5.938,2.977q4.1,1.669,8.263,3.174c.947.344,1.357-1.166.416-1.507q-3.894-1.411-7.735-2.96c-1.321-.535-2.66-1.052-3.954-1.647a5.619,5.619,0,0,1-2.424-1.816c-1.5-2.31,3.326-2.63,4.525-2.8a51.2,51.2,0,0,1,8.571-.461.782.782,0,0,0,0-1.563" transform="translate(71.431 48.342)" fill="#2b244a"/>
              <path id="Trazado_157852" data-name="Trazado 157852" d="M139.232,96.011c.1,1.333.272,3.784-1.274,4.414-1.966.8-4.179-2.2-5.341-3.4-3.137-3.248-6.155-6.61-9.347-9.806a.782.782,0,0,0-1.105,1.105c3.77,3.776,7.262,7.826,11.072,11.56,1.543,1.511,3.94,3.157,6.017,1.574,1.616-1.232,1.683-3.6,1.54-5.445-.078-1-1.641-1-1.563,0" transform="translate(68.647 48.972)" fill="#2b244a"/>
              <path id="Trazado_157853" data-name="Trazado 157853" d="M127.917,83.671q2,2.713,4,5.425a.8.8,0,0,0,1.069.28.785.785,0,0,0,.281-1.069l-4.007-5.425a.8.8,0,0,0-1.069-.28.787.787,0,0,0-.278,1.069" transform="translate(71.949 46.443)" fill="#2b244a"/>
              <path id="Trazado_157854" data-name="Trazado 157854" d="M133.819,95.756a6.562,6.562,0,0,1-1.6,3.907c-1.327,1.235-3.249.383-4.492-.531a36.3,36.3,0,0,1-3.088-2.818q-2.075-1.934-4.181-3.837c-.746-.672-1.855.43-1.107,1.105q2.408,2.171,4.77,4.387a16.47,16.47,0,0,0,4.233,3.34,4.373,4.373,0,0,0,5.161-.735,8.764,8.764,0,0,0,1.863-4.819c.133-.994-1.432-.985-1.563,0" transform="translate(67.054 51.944)" fill="#2b244a"/>
              <path id="Trazado_157855" data-name="Trazado 157855" d="M271.229,120.992a82.9,82.9,0,0,0-4.736-15.77,39.407,39.407,0,0,0-7.205-11.144C248.91,82.949,234.7,80.339,220.683,80.339a169.059,169.059,0,0,0-17.9,1.016,303.2,303.2,0,0,1,6.393,32.807,304.263,304.263,0,0,1,2.782,46.8c-.062,3.235-.219,9.409-.219,9.409h56.111a3.011,3.011,0,0,0,2.829-2.673l3.673-31.353c-1.422-7.393-2.782-13.8-3.126-15.348" transform="translate(114.163 45.229)" fill="#2b244a"/>
              <path id="Trazado_157856" data-name="Trazado 157856" d="M212.414,142.091a289.038,289.038,0,0,1-8.565-38.605q-1.454-9.5-2.2-19.053c-.813.188-1.61.391-2.407.594s-1.594.406-2.376.625c-.8.219-1.579.438-2.36.672-.766.219-1.516.453-2.282.7h-.047c-.735.234-1.454.469-2.173.719-1.532.516-3.017,1.063-4.47,1.641-.719.281-1.422.563-2.11.86-10.206,4.345-13.832,6.94-19.475,15.755-5.846,9.19-8.706,22.866-12.113,39.528-.406,1.985-4.158,20.756-4.486,22.538H221.5c-3.392-8.456-6.507-17.24-9.086-25.977" transform="translate(82.953 47.533)" fill="#2b244a"/>
              <path id="Trazado_157857" data-name="Trazado 157857" d="M160.369,110.668,128.4,128.847l8.9,24.456h39.975Z" transform="translate(72.287 62.303)" fill="#2b244a"/>
              <path id="Trazado_157858" data-name="Trazado 157858" d="M151.348,118.474c3.937,8.6,7.458,17.407,11.191,26.1.66,1.538,1.305,3.082,2,4.6.419.913,1.766.119,1.35-.789-3.937-8.6-7.458-17.408-11.191-26.1-.66-1.538-1.305-3.084-2-4.6-.417-.913-1.765-.12-1.349.789" transform="translate(85.16 66.025)" fill="#8c75b5"/>
              <path id="Trazado_157859" data-name="Trazado 157859" d="M177.314,86.585c-1,8.6-1.83,17.222-2.388,25.862-.064,1,1.5,1,1.563,0,.558-8.64,1.385-17.263,2.388-25.862.117-1-1.447-.989-1.563,0" transform="translate(98.477 48.326)" fill="#8c75b5"/>
              <path id="Trazado_157860" data-name="Trazado 157860" d="M209.188,81.733c3.637,8.013,7.5,15.95,10.434,24.259.333.941,1.843.536,1.507-.416-2.979-8.435-6.9-16.5-10.591-24.632-.416-.914-1.763-.12-1.35.789" transform="translate(117.723 45.341)" fill="#8c75b5"/>
              <path id="Trazado_157861" data-name="Trazado 157861" d="M221.215,99.843c-1.826,15.68-4.25,31.308-6.924,46.863-.677,3.936-1.38,7.866-2.137,11.786-.189.983,1.318,1.405,1.508.416,3.012-15.614,5.433-31.363,7.588-47.116.544-3.979,1.063-7.96,1.527-11.949.116-1-1.447-.989-1.563,0" transform="translate(119.428 55.79)" fill="#8c75b5"/>
              <path id="Trazado_157862" data-name="Trazado 157862" d="M174.033,107.457C179,120.366,184.45,133.1,189.922,145.8q2.03,4.712,4.095,9.412c.4.917,1.751.123,1.349-.789q-8.29-18.835-16.061-37.9c-1.28-3.149-2.545-6.305-3.765-9.478-.356-.928-1.869-.525-1.507.416" transform="translate(97.944 59.965)" fill="#8c75b5"/>
              <path id="Trazado_157863" data-name="Trazado 157863" d="M210.786,101.387,220.2,97.73a.8.8,0,0,0,.545-.961.788.788,0,0,0-.961-.545L210.37,99.88a.8.8,0,0,0-.546.961.788.788,0,0,0,.961.545" transform="translate(118.109 54.149)" fill="#8c75b5"/>
              <path id="Trazado_157864" data-name="Trazado 157864" d="M175.7,104.077c3.132-.145,6.266-.274,9.4-.419,1-.047,1.007-1.61,0-1.563-3.134.145-6.267.274-9.4.419-1,.047-1.007,1.61,0,1.563" transform="translate(98.488 57.476)" fill="#8c75b5"/>
              <path id="Trazado_157865" data-name="Trazado 157865" d="M210.567,100.094l12.737.852c1,.067,1-1.5,0-1.563l-12.737-.852c-1.005-.067-1,1.5,0,1.563" transform="translate(118.12 55.469)" fill="#8c75b5"/>
              <path id="Trazado_157866" data-name="Trazado 157866" d="M222.678,116.6c1.569,9.093,3.51,18.135,5.509,27.143.477,2.148.963,4.293,1.477,6.433.236.977,1.744.563,1.508-.416-2.146-8.9-3.993-17.893-5.744-26.882-.435-2.227-.858-4.458-1.244-6.694-.17-.989-1.677-.569-1.507.416" transform="translate(125.354 65.089)" fill="#8c75b5"/>
              <path id="Trazado_157867" data-name="Trazado 157867" d="M170.726,126.945q2.094,8.562,4.189,17.124c.239.977,1.746.563,1.507-.416q-2.094-8.562-4.189-17.124c-.239-.977-1.746-.563-1.507.416" transform="translate(96.1 70.918)" fill="#8c75b5"/>
              <path id="Trazado_157868" data-name="Trazado 157868" d="M175.159,110.416q5.308-3.606,10.852-6.863a.782.782,0,0,0-.789-1.349q-5.533,3.249-10.852,6.863c-.827.561-.045,1.916.789,1.349" transform="translate(97.967 57.474)" fill="#8c75b5"/>
            </g>
          </g>
          <rect id="Rectángulo_38681" data-name="Rectángulo 38681" width="211" height="6" transform="translate(18524 -8363)" fill="#12263f"/>
          <rect id="Rectángulo_38687" data-name="Rectángulo 38687" width="211" height="6" transform="translate(18618 -8283)" fill="#12263f"/>
          <rect id="Rectángulo_38689" data-name="Rectángulo 38689" width="126" height="6" transform="translate(18618 -8296)" fill="#12263f"/>
          <rect id="Rectángulo_38691" data-name="Rectángulo 38691" width="126" height="6" transform="translate(18618 -8242)" fill="#12263f"/>
          <rect id="Rectángulo_38690" data-name="Rectángulo 38690" width="126" height="6" transform="translate(18618 -8310)" fill="#12263f"/>
          <rect id="Rectángulo_38682" data-name="Rectángulo 38682" width="201" height="6" transform="translate(18524 -8352)" fill="#12263f"/>
          <rect id="Rectángulo_38686" data-name="Rectángulo 38686" width="201" height="6" transform="translate(18618 -8269)" fill="#12263f"/>
          <rect id="Rectángulo_38683" data-name="Rectángulo 38683" width="177" height="6" transform="translate(18524 -8341)" fill="#12263f"/>
          <rect id="Rectángulo_38685" data-name="Rectángulo 38685" width="177" height="6" transform="translate(18618 -8256)" fill="#12263f"/>
          <rect id="Rectángulo_38684" data-name="Rectángulo 38684" width="85" height="87" transform="translate(18524 -8316)" fill="#0c487b"/>
          <g id="Grupo_159367" data-name="Grupo 159367" transform="translate(18545 -8299)">
            <g id="Grupo_159365" data-name="Grupo 159365" clip-path="url(#clip-path-5)">
              <path id="Trazado_157869" data-name="Trazado 157869" d="M14.4,163.472H13.146c-.194-.059-.387-.124-.583-.177A8.9,8.9,0,0,1,8.2,160.157,33.285,33.285,0,0,1,.108,141.215a20.062,20.062,0,0,1,1.143-9.252A13.355,13.355,0,0,1,8.2,124.38a10.587,10.587,0,0,1,7.484-.841,39.165,39.165,0,0,1,4.159,1.467,5.338,5.338,0,0,0,4.283.011c1.1-.464,2.222-.878,3.356-1.252A12.76,12.76,0,0,1,39.2,125.5a9.98,9.98,0,0,1,2.74,2.85c-8.552,5.594-7.05,17.357,1.385,20.962a1.114,1.114,0,0,1-.031.2,31.258,31.258,0,0,1-7.068,11.69,6.408,6.408,0,0,1-6.631,1.957,25.7,25.7,0,0,1-2.921-1.065,10.2,10.2,0,0,0-7.114-.3c-1.725.548-3.326,1.476-5.163,1.681" transform="translate(-0.001 -110.224)" fill="#afc5e4"/>
              <path id="Trazado_157870" data-name="Trazado 157870" d="M207.067,12.22C206.36,6.992,211.01.518,217.622,0c.88,5.291-4.085,12.57-10.555,12.219" transform="translate(-185.415 -0.001)" fill="#afc5e4"/>
            </g>
          </g>
        </g>
        <g id="Grupo_159368" data-name="Grupo 159368" transform="translate(118.091 30.091)">
          <circle id="Elipse_5013" data-name="Elipse 5013" cx="25" cy="25" r="25" transform="translate(18685.91 -8496.091)" fill="#0c487b"/>
          <g id="Grupo_159366" data-name="Grupo 159366" transform="translate(18698.811 -8485.93)">
            <g id="Grupo_159365-2" data-name="Grupo 159365" clip-path="url(#clip-path-6)">
              <path id="Trazado_157869-2" data-name="Trazado 157869" d="M7.87,145.15H7.188c-.106-.032-.212-.068-.319-.1a4.863,4.863,0,0,1-2.386-1.716A18.2,18.2,0,0,1,.059,132.982a10.968,10.968,0,0,1,.625-5.058,7.3,7.3,0,0,1,3.8-4.146,5.788,5.788,0,0,1,4.091-.46,21.413,21.413,0,0,1,2.273.8,2.918,2.918,0,0,0,2.341.006c.6-.254,1.215-.48,1.835-.684a6.976,6.976,0,0,1,6.407.949,5.456,5.456,0,0,1,1.5,1.558,6.457,6.457,0,0,0,.757,11.46.609.609,0,0,1-.017.108,17.089,17.089,0,0,1-3.864,6.391,3.5,3.5,0,0,1-3.625,1.07,14.057,14.057,0,0,1-1.6-.582,5.578,5.578,0,0,0-3.889-.165,14.917,14.917,0,0,1-2.822.919" transform="translate(-0.001 -116.039)" fill="#fff"/>
              <path id="Trazado_157870-2" data-name="Trazado 157870" d="M207.034,6.681c-.386-2.858,2.156-6.4,5.771-6.68.481,2.893-2.233,6.872-5.771,6.68" transform="translate(-195.198 -0.001)" fill="#fff"/>
            </g>
          </g>
        </g>
      </g>
      <g id="Grupo_159379" data-name="Grupo 159379" transform="translate(18716.072 -8511)">
        <path id="Unión_1" data-name="Unión 1" d="M-18759.184,8554.082h21.979l-10.988,11.87Zm-17.818,0V8511h57.615v43.081Z" transform="translate(18777 -8511)" fill="#0c487b" stroke="rgba(0,0,0,0)" stroke-miterlimit="10" stroke-width="1"/>
        <g id="Grupo_159378" data-name="Grupo 159378">
          <g id="Grupo_159377" data-name="Grupo 159377" clip-path="url(#clip-path-7)">
            <path id="Trazado_157894" data-name="Trazado 157894" d="M39.993,24.4A34.836,34.836,0,0,1,28.807,34.1,34.85,34.85,0,0,1,17.626,24.4c-3.937-5.21-3.743-13.368,1.89-15.133,6.229-1.951,9.291,7.423,9.291,7.423s3.106-9.436,9.3-7.423c5.613,1.826,5.827,9.923,1.89,15.133" fill="#fff"/>
          </g>
        </g>
      </g>
    </g>
    <g id="Grupo_158929" data-name="Grupo 158929" transform="translate(18716.172 -8263.973)">
      <rect id="Rectángulo_35706" data-name="Rectángulo 35706" width="237.865" height="121.173" rx="12" transform="translate(0 0.475)" fill="#1169e3"/>
      <path id="Trazado_157965" data-name="Trazado 157965" d="M41.09,12.836H39.223V17H36.879V5.625h4.227a4.778,4.778,0,0,1,3.109.9,3.1,3.1,0,0,1,1.094,2.539A3.5,3.5,0,0,1,44.8,11a3.437,3.437,0,0,1-1.527,1.238l2.461,4.648V17H43.223Zm-1.867-1.9h1.891a1.936,1.936,0,0,0,1.367-.449,1.606,1.606,0,0,0,.484-1.238,1.719,1.719,0,0,0-.457-1.266,1.9,1.9,0,0,0-1.4-.461H39.223Zm11.609,6.219A4.15,4.15,0,0,1,47.8,16.016a4.054,4.054,0,0,1-1.168-3.039v-.219a5.106,5.106,0,0,1,.492-2.277,3.612,3.612,0,0,1,1.395-1.547,3.914,3.914,0,0,1,2.059-.543,3.508,3.508,0,0,1,2.73,1.094,4.444,4.444,0,0,1,1,3.1v.922H48.926a2.1,2.1,0,0,0,.66,1.328,2,2,0,0,0,1.395.5,2.437,2.437,0,0,0,2.039-.945l1.109,1.242a3.389,3.389,0,0,1-1.375,1.121A4.511,4.511,0,0,1,50.832,17.156Zm-.258-6.945a1.411,1.411,0,0,0-1.09.455,2.357,2.357,0,0,0-.535,1.3H52.09v-.181a1.681,1.681,0,0,0-.406-1.165A1.456,1.456,0,0,0,50.574,10.211Zm8.531,5.125a1.481,1.481,0,0,0,1.016-.344,1.2,1.2,0,0,0,.406-.914h2.117a2.9,2.9,0,0,1-.469,1.574,3.093,3.093,0,0,1-1.262,1.109,3.949,3.949,0,0,1-1.77.395A3.67,3.67,0,0,1,56.285,16a4.56,4.56,0,0,1-1.047-3.184v-.148a4.508,4.508,0,0,1,1.039-3.117,3.627,3.627,0,0,1,2.852-1.164,3.555,3.555,0,0,1,2.543.9,3.2,3.2,0,0,1,.973,2.4H60.527a1.551,1.551,0,0,0-.406-1.072,1.51,1.51,0,0,0-2.223.163,3.333,3.333,0,0,0-.4,1.866v.235a3.375,3.375,0,0,0,.4,1.878A1.377,1.377,0,0,0,59.105,15.336ZM63.582,12.7a5.013,5.013,0,0,1,.484-2.242A3.546,3.546,0,0,1,65.461,8.93a4.069,4.069,0,0,1,2.113-.539,3.849,3.849,0,0,1,2.793,1.047,4.2,4.2,0,0,1,1.207,2.844l.016.578A4.418,4.418,0,0,1,70.5,15.98a4.209,4.209,0,0,1-5.832,0,4.5,4.5,0,0,1-1.09-3.187Zm2.258.16a3.16,3.16,0,0,0,.453,1.843,1.628,1.628,0,0,0,2.578.008,3.457,3.457,0,0,0,.461-2.015,3.128,3.128,0,0,0-.461-1.831,1.5,1.5,0,0,0-1.3-.649,1.474,1.474,0,0,0-1.281.646A3.516,3.516,0,0,0,65.84,12.856ZM77.73,10.664a6.134,6.134,0,0,0-.812-.062,1.654,1.654,0,0,0-1.68.867V17H72.98V8.547h2.133l.063,1.008a2.092,2.092,0,0,1,1.883-1.164,2.366,2.366,0,0,1,.7.1Zm.734,2.047a5.094,5.094,0,0,1,.887-3.148,2.877,2.877,0,0,1,2.426-1.172,2.589,2.589,0,0,1,2.039.922V5h2.266V17H84.043l-.109-.9a2.657,2.657,0,0,1-2.172,1.055,2.869,2.869,0,0,1-2.395-1.176A5.258,5.258,0,0,1,78.465,12.711Zm2.258.168a3.337,3.337,0,0,0,.414,1.823,1.349,1.349,0,0,0,1.2.634,1.511,1.511,0,0,0,1.477-.884V11.111a1.489,1.489,0,0,0-1.461-.884Q80.723,10.227,80.723,12.879ZM92.73,17a2.507,2.507,0,0,1-.227-.758,2.732,2.732,0,0,1-2.133.914,3,3,0,0,1-2.059-.719,2.312,2.312,0,0,1-.816-1.812,2.389,2.389,0,0,1,1-2.062,4.915,4.915,0,0,1,2.879-.727H92.41v-.484a1.393,1.393,0,0,0-.3-.937,1.183,1.183,0,0,0-.949-.352,1.345,1.345,0,0,0-.895.273.929.929,0,0,0-.324.75H87.684a2.268,2.268,0,0,1,.453-1.359,3,3,0,0,1,1.281-.98,4.669,4.669,0,0,1,1.859-.355,3.689,3.689,0,0,1,2.48.785,2.747,2.747,0,0,1,.918,2.207v3.664a4.041,4.041,0,0,0,.336,1.82V17Zm-1.867-1.57a1.945,1.945,0,0,0,.922-.223,1.462,1.462,0,0,0,.625-.6V13.156h-.844q-1.7,0-1.8,1.172l-.008.133a.9.9,0,0,0,.3.7A1.153,1.153,0,0,0,90.863,15.43Zm5.2-2.719a5.094,5.094,0,0,1,.887-3.148,2.877,2.877,0,0,1,2.426-1.172,2.589,2.589,0,0,1,2.039.922V5h2.266V17h-2.039l-.109-.9a2.657,2.657,0,0,1-2.172,1.055,2.869,2.869,0,0,1-2.395-1.176A5.258,5.258,0,0,1,96.059,12.711Zm2.258.168A3.337,3.337,0,0,0,98.73,14.7a1.349,1.349,0,0,0,1.2.634,1.511,1.511,0,0,0,1.477-.884V11.111a1.489,1.489,0,0,0-1.461-.884Q98.316,10.227,98.316,12.879ZM110.324,17a2.507,2.507,0,0,1-.227-.758,2.732,2.732,0,0,1-2.133.914,3,3,0,0,1-2.059-.719,2.312,2.312,0,0,1-.816-1.812,2.389,2.389,0,0,1,1-2.062,4.915,4.915,0,0,1,2.879-.727H110v-.484a1.393,1.393,0,0,0-.3-.937,1.183,1.183,0,0,0-.949-.352,1.345,1.345,0,0,0-.895.273.929.929,0,0,0-.324.75h-2.258a2.268,2.268,0,0,1,.453-1.359,3,3,0,0,1,1.281-.98,4.669,4.669,0,0,1,1.859-.355,3.689,3.689,0,0,1,2.48.785,2.747,2.747,0,0,1,.918,2.207v3.664a4.041,4.041,0,0,0,.336,1.82V17Zm-1.867-1.57a1.945,1.945,0,0,0,.922-.223,1.462,1.462,0,0,0,.625-.6V13.156h-.844q-1.7,0-1.8,1.172l-.008.133a.9.9,0,0,0,.3.7A1.153,1.153,0,0,0,108.457,15.43ZM37.508,36.836H35.641V41H33.3V29.625h4.227a4.778,4.778,0,0,1,3.109.9,3.1,3.1,0,0,1,1.094,2.539,3.5,3.5,0,0,1-.5,1.941A3.437,3.437,0,0,1,39.7,36.242l2.461,4.648V41H39.641Zm-1.867-1.9h1.891a1.936,1.936,0,0,0,1.367-.449,1.606,1.606,0,0,0,.484-1.238,1.719,1.719,0,0,0-.457-1.266,1.9,1.9,0,0,0-1.4-.461H35.641ZM47.25,41.156a4.15,4.15,0,0,1-3.027-1.141,4.054,4.054,0,0,1-1.168-3.039v-.219a5.106,5.106,0,0,1,.492-2.277,3.612,3.612,0,0,1,1.395-1.547A3.914,3.914,0,0,1,47,32.391a3.508,3.508,0,0,1,2.73,1.094,4.444,4.444,0,0,1,1,3.1v.922H45.344A2.1,2.1,0,0,0,46,38.836a2,2,0,0,0,1.395.5,2.437,2.437,0,0,0,2.039-.945l1.109,1.242a3.389,3.389,0,0,1-1.375,1.121A4.511,4.511,0,0,1,47.25,41.156Zm-.258-6.945a1.411,1.411,0,0,0-1.09.455,2.357,2.357,0,0,0-.535,1.3h3.141v-.181a1.681,1.681,0,0,0-.406-1.165A1.456,1.456,0,0,0,46.992,34.211Zm8.531,5.125a1.481,1.481,0,0,0,1.016-.344,1.2,1.2,0,0,0,.406-.914h2.117a2.9,2.9,0,0,1-.469,1.574,3.093,3.093,0,0,1-1.262,1.109,3.949,3.949,0,0,1-1.77.395A3.67,3.67,0,0,1,52.7,40a4.56,4.56,0,0,1-1.047-3.184v-.148A4.508,4.508,0,0,1,52.7,33.555a3.627,3.627,0,0,1,2.852-1.164,3.555,3.555,0,0,1,2.543.9,3.2,3.2,0,0,1,.973,2.4H56.945a1.551,1.551,0,0,0-.406-1.072,1.51,1.51,0,0,0-2.223.163,3.333,3.333,0,0,0-.4,1.866v.235a3.375,3.375,0,0,0,.4,1.878A1.377,1.377,0,0,0,55.523,39.336ZM60,36.7a5.013,5.013,0,0,1,.484-2.242,3.546,3.546,0,0,1,1.395-1.523,4.069,4.069,0,0,1,2.113-.539,3.849,3.849,0,0,1,2.793,1.047,4.2,4.2,0,0,1,1.207,2.844l.016.578a4.418,4.418,0,0,1-1.086,3.121,4.209,4.209,0,0,1-5.832,0A4.5,4.5,0,0,1,60,36.8Zm2.258.16a3.16,3.16,0,0,0,.453,1.843,1.628,1.628,0,0,0,2.578.008,3.457,3.457,0,0,0,.461-2.015,3.128,3.128,0,0,0-.461-1.831,1.5,1.5,0,0,0-1.3-.649,1.474,1.474,0,0,0-1.281.646A3.516,3.516,0,0,0,62.258,36.856Zm9.219-4.309.07.977a2.951,2.951,0,0,1,2.43-1.133,2.453,2.453,0,0,1,2,.789,3.682,3.682,0,0,1,.672,2.359V41H74.391V35.594a1.465,1.465,0,0,0-.312-1.043,1.4,1.4,0,0,0-1.039-.324,1.553,1.553,0,0,0-1.43.813V41H69.352V32.547ZM78.008,36.7a5.013,5.013,0,0,1,.484-2.242,3.546,3.546,0,0,1,1.395-1.523A4.069,4.069,0,0,1,82,32.391a3.849,3.849,0,0,1,2.793,1.047A4.2,4.2,0,0,1,86,36.281l.016.578A4.418,4.418,0,0,1,84.93,39.98a4.209,4.209,0,0,1-5.832,0,4.5,4.5,0,0,1-1.09-3.187Zm2.258.16a3.16,3.16,0,0,0,.453,1.843,1.628,1.628,0,0,0,2.578.008,3.457,3.457,0,0,0,.461-2.015A3.128,3.128,0,0,0,83.3,34.86a1.5,1.5,0,0,0-1.3-.649,1.474,1.474,0,0,0-1.281.646A3.516,3.516,0,0,0,80.266,36.856Zm10.656,2.48a1.481,1.481,0,0,0,1.016-.344,1.2,1.2,0,0,0,.406-.914h2.117a2.9,2.9,0,0,1-.469,1.574,3.093,3.093,0,0,1-1.262,1.109,3.949,3.949,0,0,1-1.77.395A3.67,3.67,0,0,1,88.1,40a4.56,4.56,0,0,1-1.047-3.184v-.148a4.508,4.508,0,0,1,1.039-3.117,3.627,3.627,0,0,1,2.852-1.164,3.555,3.555,0,0,1,2.543.9,3.2,3.2,0,0,1,.973,2.4H92.344a1.551,1.551,0,0,0-.406-1.072,1.51,1.51,0,0,0-2.223.163,3.333,3.333,0,0,0-.4,1.866v.235a3.375,3.375,0,0,0,.4,1.878A1.377,1.377,0,0,0,90.922,39.336ZM98.133,41H95.867V32.547h2.266Zm-2.4-10.641a1.112,1.112,0,0,1,.34-.836,1.465,1.465,0,0,1,1.848,0,1.193,1.193,0,0,1,0,1.68,1.448,1.448,0,0,1-1.836,0A1.108,1.108,0,0,1,95.734,30.359Zm3.906,6.352a5.094,5.094,0,0,1,.887-3.148,2.877,2.877,0,0,1,2.426-1.172,2.589,2.589,0,0,1,2.039.922V29h2.266V41h-2.039l-.109-.9a2.657,2.657,0,0,1-2.172,1.055,2.869,2.869,0,0,1-2.395-1.176A5.258,5.258,0,0,1,99.641,36.711Zm2.258.168a3.337,3.337,0,0,0,.414,1.823,1.349,1.349,0,0,0,1.2.634,1.511,1.511,0,0,0,1.477-.884V35.111a1.489,1.489,0,0,0-1.461-.884Q101.9,34.227,101.9,36.879ZM113.906,41a2.507,2.507,0,0,1-.227-.758,2.732,2.732,0,0,1-2.133.914,3,3,0,0,1-2.059-.719,2.312,2.312,0,0,1-.816-1.812,2.389,2.389,0,0,1,1-2.062,4.915,4.915,0,0,1,2.879-.727h1.039v-.484a1.393,1.393,0,0,0-.3-.937,1.183,1.183,0,0,0-.949-.352,1.345,1.345,0,0,0-.895.273.929.929,0,0,0-.324.75h-2.258a2.268,2.268,0,0,1,.453-1.359,3,3,0,0,1,1.281-.98,4.669,4.669,0,0,1,1.859-.355,3.689,3.689,0,0,1,2.48.785,2.747,2.747,0,0,1,.918,2.207v3.664a4.041,4.041,0,0,0,.336,1.82V41Zm-1.867-1.57a1.945,1.945,0,0,0,.922-.223,1.462,1.462,0,0,0,.625-.6V37.156h-.844q-1.7,0-1.8,1.172l-.008.133a.9.9,0,0,0,.3.7A1.153,1.153,0,0,0,112.039,39.43ZM39.559,61.211A4.025,4.025,0,0,1,38.2,64.1a4.76,4.76,0,0,1-3.223,1.055,4.28,4.28,0,0,1-3.441-1.473,6.038,6.038,0,0,1-1.254-4.043v-.7a6.819,6.819,0,0,1,.578-2.891,4.332,4.332,0,0,1,1.652-1.918,5.164,5.164,0,0,1,5.668.387,4.326,4.326,0,0,1,1.391,2.961H37.23a2.376,2.376,0,0,0-.613-1.6,2.271,2.271,0,0,0-1.605-.5,1.991,1.991,0,0,0-1.754.84,4.707,4.707,0,0,0-.6,2.605V59.7a5.038,5.038,0,0,0,.559,2.7,1.954,1.954,0,0,0,1.762.852,2.314,2.314,0,0,0,1.621-.5,2.241,2.241,0,0,0,.613-1.535ZM40.6,60.7a5.013,5.013,0,0,1,.484-2.242,3.546,3.546,0,0,1,1.395-1.523,4.069,4.069,0,0,1,2.113-.539,3.849,3.849,0,0,1,2.793,1.047,4.2,4.2,0,0,1,1.207,2.844l.016.578A4.418,4.418,0,0,1,47.52,63.98a4.209,4.209,0,0,1-5.832,0A4.5,4.5,0,0,1,40.6,60.8Zm2.258.16a3.16,3.16,0,0,0,.453,1.843,1.628,1.628,0,0,0,2.578.008,3.457,3.457,0,0,0,.461-2.015,3.128,3.128,0,0,0-.461-1.831,1.5,1.5,0,0,0-1.3-.649,1.474,1.474,0,0,0-1.281.646A3.516,3.516,0,0,0,42.855,60.856Zm9.219-4.309.07.977a2.951,2.951,0,0,1,2.43-1.133,2.453,2.453,0,0,1,2,.789,3.682,3.682,0,0,1,.672,2.359V65H54.988V59.594a1.465,1.465,0,0,0-.312-1.043,1.4,1.4,0,0,0-1.039-.324,1.553,1.553,0,0,0-1.43.813V65H49.949V56.547Zm10.047,5.7,1.57-5.7h2.359L63.2,65H61.043l-2.852-8.453h2.359ZM69.426,65H67.16V56.547h2.266Zm-2.4-10.641a1.112,1.112,0,0,1,.34-.836,1.465,1.465,0,0,1,1.848,0,1.193,1.193,0,0,1,0,1.68,1.448,1.448,0,0,1-1.836,0A1.108,1.108,0,0,1,67.027,54.359Zm6.336,2.188.07.977a2.951,2.951,0,0,1,2.43-1.133,2.453,2.453,0,0,1,2,.789,3.682,3.682,0,0,1,.672,2.359V65H76.277V59.594a1.465,1.465,0,0,0-.312-1.043,1.4,1.4,0,0,0-1.039-.324,1.553,1.553,0,0,0-1.43.813V65H71.238V56.547Zm10.4,6.789a1.481,1.481,0,0,0,1.016-.344,1.2,1.2,0,0,0,.406-.914H87.3a2.9,2.9,0,0,1-.469,1.574,3.093,3.093,0,0,1-1.262,1.109,3.949,3.949,0,0,1-1.77.395A3.67,3.67,0,0,1,80.941,64a4.56,4.56,0,0,1-1.047-3.184v-.148a4.508,4.508,0,0,1,1.039-3.117,3.627,3.627,0,0,1,2.852-1.164,3.555,3.555,0,0,1,2.543.9,3.2,3.2,0,0,1,.973,2.4H85.184a1.551,1.551,0,0,0-.406-1.072,1.51,1.51,0,0,0-2.223.163,3.333,3.333,0,0,0-.4,1.866v.235a3.375,3.375,0,0,0,.4,1.878A1.377,1.377,0,0,0,83.762,63.336Zm8.719,1.82a4.15,4.15,0,0,1-3.027-1.141,4.054,4.054,0,0,1-1.168-3.039v-.219a5.106,5.106,0,0,1,.492-2.277,3.612,3.612,0,0,1,1.395-1.547,3.914,3.914,0,0,1,2.059-.543,3.508,3.508,0,0,1,2.73,1.094,4.444,4.444,0,0,1,1,3.1v.922H90.574a2.1,2.1,0,0,0,.66,1.328,2,2,0,0,0,1.395.5,2.437,2.437,0,0,0,2.039-.945l1.109,1.242A3.389,3.389,0,0,1,94.4,64.754,4.511,4.511,0,0,1,92.48,65.156Zm-.258-6.945a1.411,1.411,0,0,0-1.09.455,2.357,2.357,0,0,0-.535,1.3h3.141v-.181a1.681,1.681,0,0,0-.406-1.165A1.456,1.456,0,0,0,92.223,58.211Zm7.094-1.664.07.977a2.951,2.951,0,0,1,2.43-1.133,2.453,2.453,0,0,1,2,.789,3.682,3.682,0,0,1,.672,2.359V65H102.23V59.594a1.465,1.465,0,0,0-.312-1.043,1.4,1.4,0,0,0-1.039-.324,1.553,1.553,0,0,0-1.43.813V65H97.191V56.547Zm9.586-2.078v2.078h1.445V58.2H108.9v4.219a1.007,1.007,0,0,0,.18.672.9.9,0,0,0,.688.2,3.6,3.6,0,0,0,.664-.055v1.711a4.648,4.648,0,0,1-1.367.2,2.156,2.156,0,0,1-2.422-2.4V58.2H105.41V56.547h1.234V54.469ZM115.5,65.156a4.15,4.15,0,0,1-3.027-1.141,4.054,4.054,0,0,1-1.168-3.039v-.219a5.106,5.106,0,0,1,.492-2.277,3.612,3.612,0,0,1,1.395-1.547,3.914,3.914,0,0,1,2.059-.543,3.508,3.508,0,0,1,2.73,1.094,4.444,4.444,0,0,1,1,3.1v.922H113.59a2.1,2.1,0,0,0,.66,1.328,2,2,0,0,0,1.395.5,2.437,2.437,0,0,0,2.039-.945l1.109,1.242a3.389,3.389,0,0,1-1.375,1.121A4.511,4.511,0,0,1,115.5,65.156Zm-.258-6.945a1.411,1.411,0,0,0-1.09.455,2.357,2.357,0,0,0-.535,1.3h3.141v-.181a1.681,1.681,0,0,0-.406-1.165A1.456,1.456,0,0,0,115.238,58.211Z" transform="translate(45 27.474)" fill="#fff"/>
    </g>
  </g>
</svg>
