<svg xmlns="http://www.w3.org/2000/svg" xmlns:xlink="http://www.w3.org/1999/xlink" width="255" height="370.464" viewBox="0 0 255 370.464">
  <defs>
    <filter id="Rectángulo_38044" x="0" y="18.464" width="255" height="352" filterUnits="userSpaceOnUse">
      <feOffset dy="3" input="SourceAlpha"/>
      <feGaussianBlur stdDeviation="3" result="blur"/>
      <feFlood flood-opacity="0.161"/>
      <feComposite operator="in" in2="blur"/>
      <feComposite in="SourceGraphic"/>
    </filter>
  </defs>
  <g id="Grupo_158832" data-name="Grupo 158832" transform="translate(8.811 -3.003)">
    <g transform="matrix(1, 0, 0, 1, -8.81, 3)" filter="url(#Rectángulo_38044)">
      <g id="Rectángulo_38044-2" data-name="Rectángulo 38044" transform="translate(9 24.46)" fill="#fff" stroke="#707070" stroke-width="1">
        <rect width="237" height="334" stroke="none"/>
        <rect x="0.5" y="0.5" width="236" height="333" fill="none"/>
      </g>
    </g>
    <g id="Rectángulo_38045" data-name="Rectángulo 38045" transform="translate(12.189 42.468)" fill="none" stroke="#707070" stroke-width="1">
      <rect width="214" height="306" stroke="none"/>
      <rect x="0.5" y="0.5" width="213" height="305" fill="none"/>
    </g>
    <path id="Trazado_156540" data-name="Trazado 156540" d="M3884.319-8749.07h-178.67v-29.078" transform="translate(-3674.26 8822.041)" fill="none" stroke="#707070" stroke-width="1"/>
    <path id="Trazado_156541" data-name="Trazado 156541" d="M3738.109-8610.807h-31.533v22.908" transform="translate(-3673.514 8933.978)" fill="none" stroke="#707070" stroke-width="1"/>
    <g id="Rectángulo_38046" data-name="Rectángulo 38046" transform="translate(34.189 75.468)" fill="#fff" stroke="#1169e3" stroke-width="1">
      <rect width="86" height="236" stroke="none"/>
      <rect x="0.5" y="0.5" width="85" height="235" fill="none"/>
    </g>
    <g id="Rectángulo_38047" data-name="Rectángulo 38047" transform="translate(114.783 75.86)" fill="#fff" stroke="#1169e3" stroke-width="1">
      <rect width="86.698" height="236.01" stroke="none"/>
      <rect x="0.5" y="0.5" width="85.698" height="235.01" fill="none"/>
    </g>
    <path id="Trazado_157813" data-name="Trazado 157813" d="M16.627,12V2.694h3.955a6.769,6.769,0,0,1,2.168.251,2.138,2.138,0,0,1,1.082.892A2.681,2.681,0,0,1,24.238,5.3a2.484,2.484,0,0,1-.616,1.73,2.957,2.957,0,0,1-1.841.86,4.384,4.384,0,0,1,1.006.781,10.606,10.606,0,0,1,1.07,1.511L24.993,12H22.746L21.388,9.975a13.135,13.135,0,0,0-.99-1.368,1.442,1.442,0,0,0-.565-.387,3.1,3.1,0,0,0-.946-.1h-.381V12Zm1.879-5.37H19.9a7.179,7.179,0,0,0,1.688-.114,1.012,1.012,0,0,0,.527-.394,1.212,1.212,0,0,0,.19-.7,1.116,1.116,0,0,0-.251-.759,1.151,1.151,0,0,0-.708-.365q-.229-.032-1.371-.032H18.506ZM29.9,9.854l1.777.3A2.915,2.915,0,0,1,30.6,11.641a3.179,3.179,0,0,1-1.85.511A3.016,3.016,0,0,1,26.142,11a3.86,3.86,0,0,1-.667-2.323,3.722,3.722,0,0,1,.876-2.625,2.885,2.885,0,0,1,2.215-.949,2.992,2.992,0,0,1,2.374.993,4.4,4.4,0,0,1,.832,3.044H27.3a1.8,1.8,0,0,0,.432,1.235,1.35,1.35,0,0,0,1.028.441,1.092,1.092,0,0,0,.7-.229A1.411,1.411,0,0,0,29.9,9.854Zm.1-1.8a1.717,1.717,0,0,0-.4-1.177A1.287,1.287,0,0,0,27.71,6.9a1.646,1.646,0,0,0-.375,1.155Zm6.316-2.793V6.681H35.1V9.4a6.757,6.757,0,0,0,.035.962.392.392,0,0,0,.159.225.5.5,0,0,0,.3.089,2.307,2.307,0,0,0,.717-.171l.152,1.384a3.546,3.546,0,0,1-1.409.267,2.235,2.235,0,0,1-.87-.162,1.269,1.269,0,0,1-.568-.419,1.654,1.654,0,0,1-.251-.7,8.646,8.646,0,0,1-.057-1.257V6.681H32.49V5.259h.819V3.919L35.1,2.878v2.38ZM37.555,12V5.259h1.784V12Zm-.133-7.566.876-1.9h2l-1.746,1.9Zm9.623,2.818-1.758.317a1.276,1.276,0,0,0-.4-.793,1.217,1.217,0,0,0-.816-.267A1.333,1.333,0,0,0,43,6.969a2.358,2.358,0,0,0-.4,1.539,2.728,2.728,0,0,0,.4,1.695,1.323,1.323,0,0,0,1.082.5,1.2,1.2,0,0,0,.832-.289,1.737,1.737,0,0,0,.457-.993l1.752.3a3.109,3.109,0,0,1-1.047,1.822,3.242,3.242,0,0,1-2.076.616,3.086,3.086,0,0,1-2.358-.933,3.618,3.618,0,0,1-.879-2.583,3.626,3.626,0,0,1,.882-2.6,3.134,3.134,0,0,1,2.387-.93A3.256,3.256,0,0,1,46,5.636,2.936,2.936,0,0,1,47.045,7.252ZM52.834,12V10.991a2.6,2.6,0,0,1-.968.851,2.714,2.714,0,0,1-1.266.311,2.476,2.476,0,0,1-1.219-.3,1.761,1.761,0,0,1-.781-.838,3.739,3.739,0,0,1-.241-1.492V5.259h1.784v3.1a8.59,8.59,0,0,0,.1,1.742.95.95,0,0,0,.359.508,1.1,1.1,0,0,0,.66.187,1.4,1.4,0,0,0,.819-.251,1.275,1.275,0,0,0,.5-.622A7.221,7.221,0,0,0,52.707,8.1V5.259h1.784V12Zm3.5,0V2.694h1.784V12Zm4.945-4.685-1.619-.292A2.521,2.521,0,0,1,60.6,5.576a3.438,3.438,0,0,1,1.98-.47,4.268,4.268,0,0,1,1.777.282,1.773,1.773,0,0,1,.822.717,3.678,3.678,0,0,1,.238,1.6L65.4,9.785a7.228,7.228,0,0,0,.086,1.311,3.826,3.826,0,0,0,.321.9H64.044q-.07-.178-.171-.527-.044-.159-.063-.209a3.216,3.216,0,0,1-.978.667,2.8,2.8,0,0,1-1.111.222,2.3,2.3,0,0,1-1.641-.565,1.878,1.878,0,0,1-.6-1.428,1.917,1.917,0,0,1,.273-1.019,1.783,1.783,0,0,1,.765-.686,5.978,5.978,0,0,1,1.419-.416A9.718,9.718,0,0,0,63.67,7.6V7.423a.924.924,0,0,0-.254-.733,1.522,1.522,0,0,0-.958-.219,1.276,1.276,0,0,0-.743.187A1.3,1.3,0,0,0,61.283,7.315ZM63.67,8.763a11.149,11.149,0,0,1-1.085.273,3.27,3.27,0,0,0-.971.311.744.744,0,0,0-.349.628.875.875,0,0,0,.279.647.975.975,0,0,0,.711.273,1.545,1.545,0,0,0,.92-.317,1.117,1.117,0,0,0,.425-.59,3.522,3.522,0,0,0,.07-.87ZM76.974,12H75.318v-.99a2.677,2.677,0,0,1-.974.86,2.5,2.5,0,0,1-1.133.282,2.568,2.568,0,0,1-1.99-.936A3.809,3.809,0,0,1,70.392,8.6,3.764,3.764,0,0,1,71.2,6a2.628,2.628,0,0,1,2.038-.892,2.524,2.524,0,0,1,1.955.939V2.694h1.784ZM72.214,8.483a3.087,3.087,0,0,0,.3,1.562,1.348,1.348,0,0,0,1.206.7,1.313,1.313,0,0,0,1.047-.524A2.417,2.417,0,0,0,75.2,8.655a2.645,2.645,0,0,0-.419-1.673,1.326,1.326,0,0,0-1.073-.511,1.34,1.34,0,0,0-1.063.5A2.28,2.28,0,0,0,72.214,8.483ZM82.636,9.854l1.777.3a2.915,2.915,0,0,1-1.082,1.489,3.179,3.179,0,0,1-1.85.511A3.016,3.016,0,0,1,78.879,11a3.86,3.86,0,0,1-.667-2.323,3.722,3.722,0,0,1,.876-2.625A2.885,2.885,0,0,1,81.3,5.106a2.992,2.992,0,0,1,2.374.993,4.4,4.4,0,0,1,.832,3.044H80.04a1.8,1.8,0,0,0,.432,1.235,1.35,1.35,0,0,0,1.028.441,1.092,1.092,0,0,0,.7-.229A1.411,1.411,0,0,0,82.636,9.854Zm.1-1.8a1.717,1.717,0,0,0-.4-1.177,1.287,1.287,0,0,0-1.892.022,1.646,1.646,0,0,0-.375,1.155Zm12.714-.8-1.758.317a1.276,1.276,0,0,0-.4-.793,1.217,1.217,0,0,0-.816-.267,1.333,1.333,0,0,0-1.063.46,2.358,2.358,0,0,0-.4,1.539,2.728,2.728,0,0,0,.4,1.695,1.323,1.323,0,0,0,1.082.5,1.2,1.2,0,0,0,.832-.289,1.737,1.737,0,0,0,.457-.993l1.752.3a3.109,3.109,0,0,1-1.047,1.822,3.242,3.242,0,0,1-2.076.616,3.086,3.086,0,0,1-2.358-.933,3.618,3.618,0,0,1-.879-2.583,3.626,3.626,0,0,1,.882-2.6,3.134,3.134,0,0,1,2.387-.93,3.256,3.256,0,0,1,1.958.53A2.936,2.936,0,0,1,95.452,7.252Zm.939,1.282a3.647,3.647,0,0,1,.438-1.72,3.006,3.006,0,0,1,1.241-1.27,3.683,3.683,0,0,1,1.793-.438,3.366,3.366,0,0,1,2.507.993,3.432,3.432,0,0,1,.978,2.51,3.473,3.473,0,0,1-.987,2.536,3.336,3.336,0,0,1-2.485,1.006,3.915,3.915,0,0,1-1.768-.419,2.874,2.874,0,0,1-1.279-1.228A4.092,4.092,0,0,1,96.392,8.534Zm1.828.1a2.233,2.233,0,0,0,.476,1.536,1.556,1.556,0,0,0,2.345,0,2.264,2.264,0,0,0,.473-1.549,2.223,2.223,0,0,0-.473-1.523,1.556,1.556,0,0,0-2.345,0A2.233,2.233,0,0,0,98.22,8.629ZM104.745,12V2.694h1.784V12Zm8.049,0V10.991a2.6,2.6,0,0,1-.968.851,2.714,2.714,0,0,1-1.266.311,2.476,2.476,0,0,1-1.219-.3,1.761,1.761,0,0,1-.781-.838,3.739,3.739,0,0,1-.241-1.492V5.259H110.1v3.1a8.59,8.59,0,0,0,.1,1.742.95.95,0,0,0,.359.508,1.1,1.1,0,0,0,.66.187,1.4,1.4,0,0,0,.819-.251,1.275,1.275,0,0,0,.5-.622,7.221,7.221,0,0,0,.133-1.819V5.259h1.784V12Zm3.371-6.741h1.644v.92a2.645,2.645,0,0,1,2.1-1.073,2.263,2.263,0,0,1,1.124.267,2.049,2.049,0,0,1,.781.806,3.114,3.114,0,0,1,.958-.806,2.352,2.352,0,0,1,1.1-.267,2.446,2.446,0,0,1,1.257.3,1.847,1.847,0,0,1,.768.885,3.841,3.841,0,0,1,.184,1.4V12H124.3V8.147a2.867,2.867,0,0,0-.184-1.295.845.845,0,0,0-.762-.381,1.216,1.216,0,0,0-.7.229,1.268,1.268,0,0,0-.476.67,4.818,4.818,0,0,0-.146,1.393V12H120.24V8.306a5.124,5.124,0,0,0-.1-1.27.81.81,0,0,0-.3-.425.933.933,0,0,0-.543-.14,1.3,1.3,0,0,0-.743.222,1.219,1.219,0,0,0-.473.641,4.765,4.765,0,0,0-.143,1.39V12h-1.784ZM133.989,12h-1.784V8.56a5.317,5.317,0,0,0-.114-1.412.991.991,0,0,0-.371-.5,1.061,1.061,0,0,0-.619-.178,1.43,1.43,0,0,0-.832.254,1.279,1.279,0,0,0-.5.673,5.816,5.816,0,0,0-.136,1.549V12h-1.784V5.259H129.5v.99a2.763,2.763,0,0,1,3.3-.93,1.808,1.808,0,0,1,.74.543,1.966,1.966,0,0,1,.349.749,5.571,5.571,0,0,1,.1,1.2Zm3.142-4.685-1.619-.292a2.521,2.521,0,0,1,.939-1.447,3.438,3.438,0,0,1,1.98-.47,4.268,4.268,0,0,1,1.777.282,1.773,1.773,0,0,1,.822.717,3.678,3.678,0,0,1,.238,1.6l-.019,2.082a7.228,7.228,0,0,0,.086,1.311,3.826,3.826,0,0,0,.321.9h-1.765q-.07-.178-.171-.527-.044-.159-.063-.209a3.216,3.216,0,0,1-.978.667,2.8,2.8,0,0,1-1.111.222,2.3,2.3,0,0,1-1.641-.565,1.878,1.878,0,0,1-.6-1.428A1.917,1.917,0,0,1,135.6,9.14a1.783,1.783,0,0,1,.765-.686,5.978,5.978,0,0,1,1.419-.416,9.718,9.718,0,0,0,1.733-.438V7.423a.924.924,0,0,0-.254-.733,1.521,1.521,0,0,0-.958-.219,1.276,1.276,0,0,0-.743.187A1.3,1.3,0,0,0,137.131,7.315Zm2.387,1.447a11.149,11.149,0,0,1-1.085.273,3.27,3.27,0,0,0-.971.311.744.744,0,0,0-.349.628.875.875,0,0,0,.279.647.975.975,0,0,0,.711.273,1.545,1.545,0,0,0,.92-.317,1.117,1.117,0,0,0,.425-.59,3.522,3.522,0,0,0,.07-.87Zm2.882,1.314,1.79-.273a1.312,1.312,0,0,0,.463.79,1.566,1.566,0,0,0,.978.27,1.765,1.765,0,0,0,1.041-.254.567.567,0,0,0,.235-.476.468.468,0,0,0-.127-.336,1.421,1.421,0,0,0-.6-.235,9.622,9.622,0,0,1-2.736-.87,1.737,1.737,0,0,1-.8-1.517,1.87,1.87,0,0,1,.692-1.473,3.231,3.231,0,0,1,2.146-.6,3.743,3.743,0,0,1,2.057.451,2.3,2.3,0,0,1,.927,1.333l-1.682.311a1.04,1.04,0,0,0-.409-.6,1.5,1.5,0,0,0-.86-.209,1.938,1.938,0,0,0-1.009.2.423.423,0,0,0-.2.362.394.394,0,0,0,.178.324,6.692,6.692,0,0,0,1.666.5,4.96,4.96,0,0,1,1.99.793,1.649,1.649,0,0,1,.559,1.327,2.036,2.036,0,0,1-.774,1.593,3.428,3.428,0,0,1-2.292.667,3.76,3.76,0,0,1-2.18-.559A2.574,2.574,0,0,1,142.4,10.077Z" transform="translate(38.189 0.468)" fill="#1169e3"/>
  </g>
</svg>
