<svg xmlns="http://www.w3.org/2000/svg" width="295" height="183.803" viewBox="0 0 295 183.803">
  <g id="Grupo_159357" data-name="Grupo 159357" transform="translate(-337 -2082)">
    <g id="Image_Place_Holder" data-name="Image Place Holder" transform="translate(337 2149.803)">
      <rect id="Image_Place_Holder-2" data-name="Image Place Holder" width="295" height="116" rx="10" fill="#c9f0ee"/>
    </g>
    <g id="Grupo_159056" data-name="Grupo 159056">
      <g id="Grupo_159310" data-name="Grupo 159310" transform="translate(8786.281 11652.742)">
        <path id="Trazado_157788" data-name="Trazado 157788" d="M164.97,51.669h0L114.95,85.823Z" transform="translate(-8416.463 -9584.391)" fill="#fff" stroke="#12263f" stroke-width="0.5"/>
        <path id="Trazado_157791" data-name="Trazado 157791" d="M20.241,33.451A61.4,61.4,0,0,0,5.316,57.782L62.052,77.033,21.208,34.46Z" transform="translate(-8363.565 -9575.601)" fill="#fff" stroke="#12263f" stroke-width="0.5"/>
        <path id="Trazado_157792" data-name="Trazado 157792" d="M130.275,3.721,114.95,62.688l50.02-34.154a59.809,59.809,0,0,0-34.7-24.814" transform="translate(-8416.463 -9561.255)" fill="#fff" stroke="#12263f" stroke-width="0.5"/>
        <path id="Trazado_157793" data-name="Trazado 157793" d="M174.9,84.445A59.43,59.43,0,0,0,164.97,51.67L114.949,85.824Z" transform="translate(-8416.462 -9584.391)" fill="#fff" stroke="#12263f" stroke-width="0.5"/>
        <path id="Trazado_157794" data-name="Trazado 157794" d="M167.675,143.5A61.056,61.056,0,0,0,174.9,115v-.427l-59.95,1.6Z" transform="translate(-8416.462 -9614.739)" fill="#fff" stroke="#12263f" stroke-width="0.5"/>
        <path id="Trazado_157795" data-name="Trazado 157795" d="M147.35,166.812a60.007,60.007,0,0,0,20.359-21.891l-52.76-27.257Z" transform="translate(-8416.462 -9616.232)" fill="#feeb34" stroke="#12263f" stroke-width="0.5"/>
        <path id="Trazado_157796" data-name="Trazado 157796" d="M118.5,176.121a63.221,63.221,0,0,0,28.849-9.308l-32.4-49.147Z" transform="translate(-8416.462 -9616.232)" fill="#fff" stroke="#12263f" stroke-width="0.5"/>
        <path id="Trazado_157797" data-name="Trazado 157797" d="M67.956,171.116a60.505,60.505,0,0,0,24.551,5.094q2.16,0,4.283-.154l-4.514-58.39Z" transform="translate(-8393.788 -9616.233)" fill="#fff" stroke="#12263f" stroke-width="0.5"/>
        <path id="Trazado_157799" data-name="Trazado 157799" d="M24.361,153.19a60.577,60.577,0,0,0,22.595,17.868l24.285-53.394-46.15,34.972Z" transform="translate(-8372.753 -9616.232)" fill="#fff" stroke="#12263f" stroke-width="0.5"/>
        <path id="Trazado_157801" data-name="Trazado 157801" d="M1.693,126.721A60.74,60.74,0,0,0,13.468,153.24L60.3,117.666Z" transform="translate(-8361.816 -9616.233)" fill="#33e5fc" stroke="#12263f" stroke-width="0.5"/>
        <path id="Trazado_157803" data-name="Trazado 157803" d="M2.826,80.242A60.037,60.037,0,0,0,.87,108.63l58.617-9.021Z" transform="translate(-8361 -9598.176)" fill="#fff" stroke="#12263f" stroke-width="0.5"/>
        <path id="Trazado_157806" data-name="Trazado 157806" d="M75.882,63.381,58.64,5.922l-.23-.766a60.685,60.685,0,0,0-24.432,14.7Z" transform="translate(-8377.394 -9561.948)" fill="#fff" stroke="#12263f" stroke-width="0.5"/>
        <path id="Trazado_157808" data-name="Trazado 157808" d="M117.177,2.677A89.02,89.02,0,0,0,98.766,0,61.186,61.186,0,0,0,80.93,2.677L98.536,60.892Z" transform="translate(-8400.048 -9559.46)" fill="#fc33a3" stroke="#12263f" stroke-width="0.5"/>
      </g>
      <g id="Grupo_156892" data-name="Grupo 156892" transform="translate(76 -2379)">
        <g id="Grupo_156861" data-name="Grupo 156861" transform="translate(1)">
          <rect id="Rectángulo_37268" data-name="Rectángulo 37268" width="176" height="142" transform="translate(320 4461)" fill="none"/>
        </g>
        <g id="Grupo_156891" data-name="Grupo 156891" transform="translate(318 4433)">
          <path id="Trazado_126894" data-name="Trazado 126894" d="M19.994,132.814c-1.384.308-1.7-.344-1.691-1.637.035-3.239-.02-3.3-3.373-3.277-1.247.007-1.635-.379-1.611-1.614.023-1.15.233-1.685,1.56-1.68,3.363.013,3.449-.055,3.413-3.411-.016-1.518.729-1.546,1.855-1.558s1.709.176,1.709,1.525c0,3.4.069,3.46,3.389,3.446,1.284-.005,1.588.458,1.591,1.651s-.3,1.65-1.586,1.642c-3.385-.019-3.466.044-3.391,3.25.035,1.488-.514,1.924-1.864,1.662" transform="translate(-8.318 -24.997)" fill="#29c4bb"/>
          <path id="Trazado_126895" data-name="Trazado 126895" d="M217.019,151.2c1.239-.236,1.925.173,1.721,1.576-.171,1.173.235,1.827,1.534,1.626s1.736.269,1.747,1.636c.01,1.433-.575,1.764-1.8,1.6-1.167-.158-1.537.35-1.514,1.511.037,1.819-1.089,2.517-2.848,1.966-.835-.261-.652-.928-.6-1.455.146-1.438-.182-2.318-1.879-2.03-1.313.223-1.394-.6-1.39-1.608,0-.992.043-1.823,1.375-1.617,1.436.222,2.115-.3,1.877-1.82-.227-1.449.7-1.513,1.773-1.385" transform="translate(-45.658 -33.953)" fill="#29c4bb"/>
          <path id="Trazado_126896" data-name="Trazado 126896" d="M217.407,72.615c.32,1.382-.312,1.855-1.608,1.637-1.4-.236-1.976.339-1.728,1.733.24,1.35-.344,1.672-1.651,1.684-1.349.012-1.857-.386-1.622-1.7.251-1.4-.332-1.974-1.721-1.714-1.439.27-1.565-.482-1.619-1.692-.064-1.421.488-1.791,1.725-1.576,1.345.235,1.847-.322,1.618-1.636-.219-1.257.187-1.766,1.587-1.716,1.235.044,1.948.219,1.684,1.634s.35,1.948,1.73,1.716c1.3-.218,1.927.247,1.605,1.629" transform="translate(-69.45 3.711)" fill="#010000"/>
          <path id="Trazado_126897" data-name="Trazado 126897" d="M61.718,190.022c.3,1.289-.334,1.763-1.623,1.53-1.514-.274-1.871.514-1.654,1.789.241,1.418-.446,1.638-1.691,1.63-1.19-.007-1.83-.277-1.579-1.559.328-1.685-.514-2.1-1.965-1.85-1.489.254-1.419-.685-1.425-1.706,0-.988.021-1.827,1.366-1.561,1.809.358,2.271-.511,2.027-2.13-.234-1.55.947-1.1,1.736-1.151.835-.05,1.766-.158,1.522,1.187-.3,1.662.282,2.433,2.041,2.1,1.469-.282,1.289.742,1.245,1.725" transform="translate(39.97 -29.322)" fill="#010000"/>
          <path id="Trazado_126898" data-name="Trazado 126898" d="M121.84,20.724c-.346-1.471.467-1.758,1.671-1.579,1.251.186,1.743-.332,1.553-1.564s.175-1.792,1.593-1.763c1.3.026,1.9.364,1.672,1.7-.232,1.372.4,1.818,1.687,1.625,1.192-.178,1.789.107,1.8,1.562.007,1.491-.555,1.891-1.854,1.684-1.373-.219-1.838.407-1.626,1.687.239,1.438-.533,1.6-1.742,1.628-1.293.026-1.714-.459-1.524-1.645.208-1.3-.273-1.895-1.63-1.667-1.325.222-1.891-.324-1.595-1.669" transform="translate(-84.601 17.184)" fill="#29c4bb"/>
        </g>
      </g>
    </g>
  </g>
</svg>
