<svg xmlns="http://www.w3.org/2000/svg" width="99" height="99" viewBox="0 0 99 99">
  <g id="Grupo_159065" data-name="Grupo 159065" transform="translate(9172 8893)">
    <circle id="Elipse_5000" data-name="Elipse 5000" cx="49.5" cy="49.5" r="49.5" transform="translate(-9172 -8893)" fill="#1169e3"/>
    <path id="Trazado_157336" data-name="Trazado 157336" d="M15.507,123.96c-.454.1-.559-.113-.555-.537.012-1.063-.007-1.081-1.106-1.075-.409,0-.536-.124-.528-.529.007-.377.077-.553.512-.551,1.1,0,1.131-.018,1.119-1.119-.005-.5.239-.507.608-.511s.56.058.56.5c0,1.115.023,1.135,1.112,1.131.421,0,.521.15.522.541s-.1.541-.52.539c-1.11-.006-1.137.014-1.112,1.066.012.488-.169.631-.611.545" transform="translate(-9169.896 -8957.637)" fill="#29c4bb"/>
    <path id="Trazado_157337" data-name="Trazado 157337" d="M213.642,151.161c.406-.078.632.057.565.517-.056.385.077.6.5.533s.57.088.573.537c0,.47-.189.578-.589.525-.383-.052-.5.115-.5.5.012.6-.357.826-.934.645-.274-.086-.214-.3-.2-.477.048-.472-.06-.76-.616-.666-.431.073-.457-.2-.456-.527s.014-.6.451-.53c.471.073.694-.1.616-.6-.075-.475.23-.5.582-.454" transform="translate(-9304.051 -8977.762)" fill="#29c4bb"/>
    <path id="Trazado_157338" data-name="Trazado 157338" d="M210.718,69.268c.1.453-.1.608-.527.537-.46-.078-.648.111-.567.569s-.113.548-.542.553-.609-.127-.532-.557c.082-.459-.109-.648-.565-.562-.472.089-.513-.158-.531-.555-.021-.466.16-.588.566-.517.441.077.606-.106.531-.537-.072-.412.061-.579.521-.563.4.014.639.072.552.536s.115.639.567.563c.425-.072.632.081.526.534" transform="translate(-9300.604 -8925.35)" fill="#010000"/>
    <path id="Trazado_157339" data-name="Trazado 157339" d="M55.04,186.64c.1.423-.11.578-.532.5-.5-.09-.614.169-.543.587.079.465-.146.537-.555.535-.39,0-.6-.091-.518-.511.108-.553-.169-.688-.645-.607s-.466-.225-.467-.559.007-.6.448-.512c.593.117.745-.168.665-.7-.077-.508.311-.362.569-.377.274-.016.579-.052.5.389-.1.545.092.8.67.687.482-.092.423.243.409.566" transform="translate(-9195.869 -8999.041)" fill="#010000"/>
    <path id="Trazado_157340" data-name="Trazado 157340" d="M121.786,17.426c-.114-.483.153-.577.548-.518.41.061.572-.109.509-.513s.058-.588.522-.578c.427.009.623.119.548.558s.131.6.553.533c.391-.059.587.035.589.513s-.182.62-.608.553c-.45-.072-.6.133-.533.553.078.472-.175.526-.572.534-.424.009-.562-.151-.5-.54.068-.427-.09-.622-.535-.547s-.62-.106-.523-.547" transform="translate(-9243.119 -8892.816)" fill="#29c4bb"/>
    <g id="Grupo_159064" data-name="Grupo 159064" transform="translate(6.15 -25.445)">
      <g id="Grupo_159063" data-name="Grupo 159063" transform="translate(-9157 -8844)">
        <g id="Elipse_4997" data-name="Elipse 4997" transform="translate(-0.15 0.445)" fill="red" stroke="#000" stroke-width="2">
          <ellipse cx="14.5" cy="14" rx="14.5" ry="14" stroke="none"/>
          <ellipse cx="14.5" cy="14" rx="13.5" ry="13" fill="none"/>
        </g>
        <g id="Elipse_4998" data-name="Elipse 4998" transform="translate(28.85 0.445)" fill="#ffe200" stroke="#000" stroke-width="2">
          <ellipse cx="14.5" cy="14" rx="14.5" ry="14" stroke="none"/>
          <ellipse cx="14.5" cy="14" rx="13.5" ry="13" fill="none"/>
        </g>
        <g id="Trazado_157341" data-name="Trazado 157341" transform="translate(15.627 24.041)" fill="#0bebeb">
          <path d="M 14.4248046875 27.8496150970459 C 10.83891487121582 27.8496150970459 7.467644691467285 26.45319557189941 4.932034492492676 23.91757392883301 C 2.396424770355225 21.38196563720703 1.000004649162292 18.01070404052734 1.000004649162292 14.4248046875 C 1.000004649162292 10.83890438079834 2.396424770355225 7.467644691467285 4.932034492492676 4.932034492492676 C 7.467644691467285 2.396424770355225 10.83890438079834 1.000004649162292 14.4248046875 1.000004649162292 C 18.01070404052734 1.000004649162292 21.38196563720703 2.396424770355225 23.91757392883301 4.932034492492676 C 26.45319557189941 7.467644691467285 27.8496150970459 10.83891487121582 27.8496150970459 14.4248046875 C 27.8496150970459 18.01070404052734 26.45319557189941 21.38196563720703 23.91757392883301 23.91757392883301 C 21.38196563720703 26.45319557189941 18.01070404052734 27.8496150970459 14.4248046875 27.8496150970459 Z" stroke="none"/>
          <path d="M 14.4248046875 1.999994277954102 C 11.10601425170898 1.999994277954102 7.985874176025391 3.292404174804688 5.639135360717773 5.639135360717773 C 3.292404174804688 7.985874176025391 1.999994277954102 11.10601425170898 1.999994277954102 14.4248046875 C 1.999994277954102 17.74358367919922 3.292404174804688 20.86373519897461 5.639135360717773 23.21046447753906 C 7.985874176025391 25.55720520019531 11.10601425170898 26.84960556030273 14.4248046875 26.84960556030273 C 17.74359512329102 26.84960556030273 20.86373519897461 25.55720520019531 23.21046447753906 23.21046447753906 C 25.55720520019531 20.86373519897461 26.84960556030273 17.74359512329102 26.84960556030273 14.4248046875 C 26.84960556030273 11.10601425170898 25.55720520019531 7.985874176025391 23.21046447753906 5.639135360717773 C 20.86373519897461 3.292404174804688 17.74358367919922 1.999994277954102 14.4248046875 1.999994277954102 M 14.4248046875 -5.7220458984375e-06 C 22.39140510559082 -5.7220458984375e-06 28.84960556030273 6.45820426940918 28.84960556030273 14.4248046875 C 28.84960556030273 22.39140510559082 22.39140510559082 28.84960556030273 14.4248046875 28.84960556030273 C 6.45820426940918 28.84960556030273 -5.7220458984375e-06 22.39140510559082 -5.7220458984375e-06 14.4248046875 C -5.7220458984375e-06 6.45820426940918 6.45820426940918 -5.7220458984375e-06 14.4248046875 -5.7220458984375e-06 Z" stroke="none" fill="#000"/>
        </g>
      </g>
    </g>
  </g>
</svg>
